<svg width="40" height="40" viewBox="0 0 40 40" fill="none" xmlns="http://www.w3.org/2000/svg">
<rect x="0.5" y="0.5" width="39" height="39" rx="19.5" stroke="white"/>
<path d="M10.34 25V15.25L11.195 16.135H8.12V14.5H12.29V25H10.34ZM18.2279 25.15C17.3579 25.15 16.6029 25.02 15.9629 24.76C15.3229 24.5 14.8279 24.135 14.4779 23.665C14.1279 23.185 13.9529 22.625 13.9529 21.985C13.9529 21.345 14.1229 20.805 14.4629 20.365C14.8029 19.925 15.2929 19.59 15.9329 19.36C16.5729 19.13 17.3379 19.015 18.2279 19.015C19.1179 19.015 19.8829 19.13 20.5229 19.36C21.1729 19.59 21.6679 19.93 22.0079 20.38C22.3579 20.82 22.5329 21.355 22.5329 21.985C22.5329 22.625 22.3529 23.185 21.9929 23.665C21.6429 24.135 21.1429 24.5 20.4929 24.76C19.8529 25.02 19.0979 25.15 18.2279 25.15ZM18.2279 23.62C18.9479 23.62 19.5179 23.47 19.9379 23.17C20.3579 22.87 20.5679 22.455 20.5679 21.925C20.5679 21.405 20.3579 20.995 19.9379 20.695C19.5179 20.395 18.9479 20.245 18.2279 20.245C17.5079 20.245 16.9429 20.395 16.5329 20.695C16.1229 20.995 15.9179 21.405 15.9179 21.925C15.9179 22.455 16.1229 22.87 16.5329 23.17C16.9429 23.47 17.5079 23.62 18.2279 23.62ZM18.2279 20.035C17.4179 20.035 16.7229 19.93 16.1429 19.72C15.5629 19.5 15.1129 19.185 14.7929 18.775C14.4829 18.355 14.3279 17.855 14.3279 17.275C14.3279 16.675 14.4879 16.16 14.8079 15.73C15.1379 15.29 15.5979 14.95 16.1879 14.71C16.7779 14.47 17.4579 14.35 18.2279 14.35C19.0079 14.35 19.6929 14.47 20.2829 14.71C20.8729 14.95 21.3329 15.29 21.6629 15.73C21.9929 16.16 22.1579 16.675 22.1579 17.275C22.1579 17.855 21.9979 18.355 21.6779 18.775C21.3679 19.185 20.9179 19.5 20.3279 19.72C19.7379 19.93 19.0379 20.035 18.2279 20.035ZM18.2279 18.835C18.8479 18.835 19.3379 18.705 19.6979 18.445C20.0579 18.175 20.2379 17.815 20.2379 17.365C20.2379 16.895 20.0529 16.53 19.6829 16.27C19.3129 16.01 18.8279 15.88 18.2279 15.88C17.6279 15.88 17.1479 16.01 16.7879 16.27C16.4279 16.53 16.2479 16.895 16.2479 17.365C16.2479 17.815 16.4229 18.175 16.7729 18.445C17.1329 18.705 17.6179 18.835 18.2279 18.835ZM26.408 23.125V16.375H28.013V23.125H26.408ZM23.753 20.5V19H30.668V20.5H23.753Z" fill="white"/>
</svg>
