<svg width="24" height="24" viewBox="0 0 24 24" fill="none" xmlns="http://www.w3.org/2000/svg">
<path d="M11.64 7.12802C10.5662 7.74626 9.35101 8.07692 8.11199 8.08802L11.64 7.12802ZM11.64 7.12802L11.52 7.27202L11.616 7.35602M11.64 7.12802C11.984 7.42402 12.324 7.73202 12.66 8.05202L12.504 8.16002M11.64 7.12802L11.724 7.28402L11.604 7.35602M11.604 7.35602C10.772 7.82002 9.85199 8.10802 8.84399 8.22002L8.12399 8.25602M11.604 7.35602C11.916 7.59602 12.216 7.86402 12.504 8.16002L11.604 7.35602ZM8.12399 8.25602L8.11199 8.07602L8.12399 8.25602ZM8.11199 8.25602V8.07602V8.25602ZM8.11199 8.25602C7.23867 8.35442 6.39598 8.63618 5.63911 9.08286C4.88224 9.52953 4.22826 10.1311 3.71999 10.848M8.12399 8.08802C6.26399 8.28002 4.59599 9.28802 3.55199 10.788L8.12399 8.08802ZM3.55199 10.788L3.71999 10.812V10.848M3.53999 10.8C3.36908 12.0318 3.46608 13.2859 3.82437 14.4768C4.18265 15.6676 4.79378 16.7671 5.61599 17.7L5.67599 17.496M3.53999 10.8L3.68399 10.896L3.70799 10.86M3.70799 10.86C3.54576 12.0425 3.63737 13.2459 3.97671 14.3901C4.31606 15.5344 4.89535 16.5932 5.67599 17.496M5.67599 17.496L5.81999 17.652C6.91107 13.8229 9.32663 10.5058 12.636 8.29202L12.504 8.17202M5.67599 17.496C6.77521 13.6739 9.1947 10.3657 12.504 8.16002L5.67599 17.496ZM12.18 14.772V15.564C12.18 16.644 12.096 17.664 11.964 18.516C11.844 19.308 11.664 19.956 11.484 20.352C9.67179 20.2373 7.94558 19.5383 6.56399 18.36C7.49999 14.484 9.92399 11.16 13.26 8.94002C13.612 9.34002 13.948 9.76002 14.268 10.2C13.622 10.7757 13.1028 11.4794 12.7433 12.2665C12.3838 13.0536 12.192 13.9068 12.18 14.772ZM8.75999 7.15202C7.10399 7.15202 5.55599 7.71602 4.31999 8.68802C4.98242 7.14057 6.09449 5.82783 7.51199 4.92002C8.63199 5.36802 9.68399 5.93602 10.668 6.62402C10.06 6.90402 9.41999 7.08002 8.74799 7.15202H8.75999ZM12 3.63602C12.56 3.63602 13.104 3.68802 13.632 3.79202C13.1822 4.69107 12.5137 5.46269 11.688 6.03602C10.779 5.34672 9.79712 4.75921 8.75999 4.28402C9.78644 3.85565 10.8877 3.63539 12 3.63602ZM17.592 5.77202C16.104 6.19602 14.716 6.79602 13.428 7.57202L12.552 6.73202C13.4673 6.02814 14.1999 5.11445 14.688 4.06802C15.768 4.42802 16.752 5.02802 17.592 5.77202ZM17.4 18.384C16.0542 19.5254 14.3832 20.214 12.624 20.352C13.008 19.212 13.236 17.472 13.236 15.552V14.844C13.236 13.368 13.86 12.036 14.856 11.088C16.2401 13.2986 17.1095 15.7921 17.4 18.384ZM18.396 9.68402C18.996 9.68402 19.568 9.78002 20.112 9.97202C20.4316 11.2668 20.4383 12.6192 20.1316 13.9171C19.8248 15.215 19.2134 16.4213 18.348 17.436C17.9674 14.9449 17.068 12.5615 15.708 10.44C16.508 9.94402 17.404 9.69202 18.396 9.68402ZM14.172 8.36402C15.484 7.62002 16.9 7.04802 18.42 6.64802C18.948 7.28802 19.376 7.98802 19.704 8.74802C18.1257 8.41164 16.4784 8.6998 15.108 9.55202C14.812 9.14402 14.5 8.75202 14.172 8.37602V8.36402ZM1.84799 12C1.84799 13.3332 2.11058 14.6533 2.62077 15.885C3.13095 17.1167 3.87874 18.2359 4.82144 19.1786C5.76414 20.1213 6.88329 20.8691 8.11499 21.3792C9.34669 21.8894 10.6668 22.152 12 22.152C13.3332 22.152 14.6533 21.8894 15.885 21.3792C17.1167 20.8691 18.2358 20.1213 19.1785 19.1786C20.1212 18.2359 20.869 17.1167 21.3792 15.885C21.8894 14.6533 22.152 13.3332 22.152 12C22.152 9.30755 21.0824 6.72534 19.1785 4.82147C17.2747 2.91761 14.6925 1.84802 12 1.84802C9.30751 1.84802 6.72531 2.91761 4.82144 4.82147C2.91757 6.72534 1.84799 9.30755 1.84799 12Z" fill="white"/>
<path d="M11.64 7.12802C10.5662 7.74626 9.35101 8.07692 8.11199 8.08802M11.64 7.12802L11.52 7.27202L11.616 7.35602M11.64 7.12802C11.984 7.42402 12.324 7.73202 12.66 8.05202L12.504 8.16002M11.64 7.12802L11.724 7.28402L11.604 7.35602M12.504 8.16002C12.216 7.86402 11.916 7.59602 11.604 7.35602M12.504 8.16002C9.1947 10.3657 6.77521 13.6739 5.67599 17.496M11.604 7.35602C10.772 7.82002 9.85199 8.10802 8.84399 8.22002L8.12399 8.25602L8.11199 8.07602V8.25602C7.23867 8.35442 6.39598 8.63618 5.63911 9.08286C4.88224 9.52954 4.22826 10.1311 3.71999 10.848V10.812L3.55199 10.788C4.59599 9.28802 6.26399 8.28002 8.12399 8.08802M5.67599 17.496L5.61599 17.7C4.79378 16.7671 4.18265 15.6676 3.82437 14.4768C3.46608 13.2859 3.36908 12.0318 3.53999 10.8L3.68399 10.896L3.70799 10.86C3.54576 12.0425 3.63737 13.2459 3.97671 14.3901C4.31606 15.5344 4.89535 16.5932 5.67599 17.496ZM5.67599 17.496L5.81999 17.652C6.91107 13.8229 9.32663 10.5058 12.636 8.29202L12.504 8.17202M12.18 14.772V15.564C12.18 16.644 12.096 17.664 11.964 18.516C11.844 19.308 11.664 19.956 11.484 20.352C9.67179 20.2373 7.94558 19.5383 6.56399 18.36C7.49999 14.484 9.92399 11.16 13.26 8.94002C13.612 9.34002 13.948 9.76002 14.268 10.2C13.622 10.7757 13.1028 11.4794 12.7433 12.2665C12.3838 13.0536 12.192 13.9068 12.18 14.772ZM8.75999 7.15202C7.10399 7.15202 5.55599 7.71602 4.31999 8.68802C4.98242 7.14057 6.09449 5.82783 7.51199 4.92002C8.63199 5.36802 9.68399 5.93602 10.668 6.62402C10.06 6.90402 9.41999 7.08002 8.74799 7.15202H8.75999ZM12 3.63602C12.56 3.63602 13.104 3.68802 13.632 3.79202C13.1822 4.69107 12.5137 5.46269 11.688 6.03602C10.779 5.34672 9.79712 4.75921 8.75999 4.28402C9.78644 3.85565 10.8877 3.63539 12 3.63602ZM17.592 5.77202C16.104 6.19602 14.716 6.79602 13.428 7.57202L12.552 6.73202C13.4673 6.02814 14.1999 5.11445 14.688 4.06802C15.768 4.42802 16.752 5.02802 17.592 5.77202ZM17.4 18.384C16.0542 19.5254 14.3832 20.214 12.624 20.352C13.008 19.212 13.236 17.472 13.236 15.552V14.844C13.236 13.368 13.86 12.036 14.856 11.088C16.2401 13.2986 17.1095 15.7921 17.4 18.384ZM18.396 9.68402C18.996 9.68402 19.568 9.78002 20.112 9.97202C20.4316 11.2668 20.4383 12.6192 20.1316 13.9171C19.8248 15.215 19.2134 16.4213 18.348 17.436C17.9674 14.9449 17.068 12.5615 15.708 10.44C16.508 9.94402 17.404 9.69202 18.396 9.68402ZM14.172 8.36402C15.484 7.62002 16.9 7.04802 18.42 6.64802C18.948 7.28802 19.376 7.98802 19.704 8.74802C18.1257 8.41164 16.4784 8.6998 15.108 9.55202C14.812 9.14402 14.5 8.75202 14.172 8.37602V8.36402ZM1.84799 12C1.84799 13.3332 2.11058 14.6533 2.62077 15.885C3.13095 17.1167 3.87874 18.2359 4.82144 19.1786C5.76414 20.1213 6.88329 20.8691 8.11499 21.3792C9.34669 21.8894 10.6668 22.152 12 22.152C13.3332 22.152 14.6533 21.8894 15.885 21.3792C17.1167 20.8691 18.2358 20.1213 19.1785 19.1786C20.1212 18.2359 20.869 17.1167 21.3792 15.885C21.8894 14.6533 22.152 13.3332 22.152 12C22.152 9.30755 21.0824 6.72534 19.1785 4.82147C17.2747 2.91761 14.6925 1.84802 12 1.84802C9.30751 1.84802 6.72531 2.91761 4.82144 4.82147C2.91757 6.72534 1.84799 9.30755 1.84799 12Z" stroke="white" stroke-width="0.36"/>
</svg>
