<svg width="18" height="34" viewBox="0 0 18 34" fill="none" xmlns="http://www.w3.org/2000/svg">
<path d="M8.73273 13.1261C9.70625 13.1261 10.6579 12.8374 11.4674 12.2965C12.2768 11.7557 12.9077 10.9869 13.2802 10.0875C13.6528 9.18809 13.7503 8.19841 13.5603 7.2436C13.3704 6.28879 12.9016 5.41174 12.2132 4.72335C11.5249 4.03497 10.6478 3.56618 9.69301 3.37626C8.73819 3.18633 7.74851 3.28381 6.8491 3.65636C5.94968 4.02891 5.18094 4.6598 4.64009 5.46925C4.09923 6.2787 3.81055 7.23035 3.81055 8.20387C3.81212 9.50883 4.33121 10.7599 5.25396 11.6826C6.17671 12.6054 7.42777 13.1245 8.73273 13.1261ZM8.73273 8.79762C8.24364 8.79852 7.77053 8.62348 7.3998 8.30445C7.02907 7.98543 6.78546 7.5437 6.71343 7.05994C6.64141 6.57617 6.74579 6.08264 7.00751 5.66945C7.26923 5.25627 7.67083 4.95101 8.13898 4.8094V4.23287C8.13898 4.07539 8.20154 3.92437 8.31289 3.81302C8.42424 3.70167 8.57526 3.63912 8.73273 3.63912C8.89021 3.63912 9.04123 3.70167 9.15258 3.81302C9.26393 3.92437 9.32648 4.07539 9.32648 4.23287V4.8088C9.74499 4.93471 10.112 5.19179 10.3732 5.54212C10.6345 5.89245 10.7763 6.31749 10.7776 6.75452C10.7776 6.912 10.7151 7.06302 10.6037 7.17437C10.4924 7.28572 10.3413 7.34827 10.1839 7.34827C10.0264 7.34827 9.87536 7.28572 9.76401 7.17437C9.65267 7.06302 9.59011 6.912 9.59011 6.75452C9.59023 6.58521 9.54014 6.41966 9.44619 6.27881C9.35223 6.13796 9.21863 6.02813 9.06226 5.9632C8.90589 5.89827 8.73378 5.88116 8.56769 5.91404C8.4016 5.94691 8.24898 6.02829 8.12914 6.14789C8.00929 6.26748 7.92759 6.41993 7.89438 6.58595C7.86116 6.75197 7.87791 6.92412 7.94251 7.08062C8.00712 7.23712 8.11667 7.37096 8.25733 7.4652C8.39798 7.55945 8.56342 7.60988 8.73273 7.61012C9.22232 7.60876 9.69604 7.78366 10.0673 8.10285C10.4385 8.42203 10.6825 8.86417 10.7545 9.34843C10.8266 9.83269 10.722 10.3267 10.4597 10.7402C10.1975 11.1536 9.79525 11.4589 9.32648 11.6001V12.1749C9.32648 12.3323 9.26393 12.4834 9.15258 12.5947C9.04123 12.7061 8.89021 12.7686 8.73273 12.7686C8.57526 12.7686 8.42424 12.7061 8.31289 12.5947C8.20154 12.4834 8.13898 12.3323 8.13898 12.1749V11.5995C7.72111 11.4731 7.35485 11.2158 7.09406 10.8657C6.83328 10.5156 6.69173 10.091 6.69023 9.6544C6.69023 9.49693 6.75279 9.3459 6.86414 9.23455C6.97549 9.1232 7.12651 9.06065 7.28398 9.06065C7.44146 9.06065 7.59248 9.1232 7.70383 9.23455C7.81518 9.3459 7.87773 9.49693 7.87773 9.6544C7.87785 9.82376 7.9282 9.98929 8.0224 10.13C8.1166 10.2708 8.25043 10.3804 8.40696 10.4451C8.56349 10.5098 8.73568 10.5266 8.90176 10.4934C9.06783 10.4602 9.22034 10.3785 9.33997 10.2586C9.4596 10.1387 9.54099 9.98604 9.57385 9.81989C9.6067 9.65374 9.58954 9.48159 9.52454 9.3252C9.45954 9.1688 9.34961 9.0352 9.20867 8.94129C9.06773 8.84738 8.9021 8.79738 8.73273 8.79762Z" fill="white"/>
<path d="M16.8696 0H0.59375C0.436278 0 0.285255 0.0625557 0.173905 0.173905C0.0625552 0.285255 0 0.436278 0 0.59375V32.6147L1.13406 31.711C1.24179 31.6253 1.37596 31.5796 1.51363 31.5819C1.65129 31.5842 1.78388 31.6342 1.88872 31.7235L3.46572 33.0665L5.04212 31.7235C5.15617 31.6264 5.3027 31.576 5.45234 31.5824C5.60198 31.5887 5.74367 31.6515 5.84903 31.7579L7.09947 33.022L8.50309 31.7377C8.56077 31.685 8.62829 31.6442 8.70177 31.6176C8.77525 31.5911 8.85325 31.5793 8.93131 31.5829C9.00936 31.5865 9.08592 31.6056 9.15661 31.6388C9.2273 31.6721 9.29073 31.7191 9.34325 31.7769L10.4862 33.0368L12.1713 31.7063C12.2943 31.6092 12.4508 31.5647 12.6065 31.5825C12.7622 31.6003 12.9046 31.6789 13.0025 31.8013L13.9703 33.0083L15.5853 31.7098C15.6907 31.6255 15.8215 31.5796 15.9564 31.5796C16.0913 31.5796 16.2222 31.6255 16.3275 31.7098L17.4616 32.6135V0.59375C17.4616 0.436586 17.3993 0.285833 17.2883 0.174534C17.1774 0.0632353 17.0268 0.000471492 16.8696 0ZM8.73169 2.09416C9.94007 2.09416 11.1213 2.45248 12.126 3.12382C13.1308 3.79517 13.9139 4.74937 14.3763 5.86577C14.8387 6.98217 14.9597 8.21062 14.724 9.39579C14.4882 10.5809 13.9063 11.6696 13.0519 12.524C12.1974 13.3785 11.1088 13.9604 9.92363 14.1961C8.73847 14.4319 7.51001 14.3109 6.39361 13.8485C5.27721 13.386 4.32301 12.6029 3.65167 11.5982C2.98033 10.5935 2.622 9.41223 2.622 8.20384C2.62357 6.58394 3.26777 5.03083 4.41322 3.88538C5.55867 2.73993 7.11178 2.09573 8.73169 2.09416ZM3.21337 16.8192H14.2476C14.4051 16.8192 14.5561 16.8817 14.6675 16.9931C14.7788 17.1044 14.8414 17.2554 14.8414 17.4129C14.8414 17.5704 14.7788 17.7214 14.6675 17.8328C14.5561 17.9441 14.4051 18.0067 14.2476 18.0067H3.21337C3.0559 18.0067 2.90488 17.9441 2.79353 17.8328C2.68218 17.7214 2.61962 17.5704 2.61962 17.4129C2.61962 17.2554 2.68218 17.1044 2.79353 16.9931C2.90488 16.8817 3.0559 16.8192 3.21337 16.8192ZM13.5773 23.9442C13.7348 23.9442 13.8858 24.0067 13.9971 24.1181C14.1085 24.2294 14.171 24.3804 14.171 24.5379C14.171 24.6954 14.1085 24.8464 13.9971 24.9578C13.8858 25.0691 13.7348 25.1317 13.5773 25.1317H3.88312C3.72565 25.1317 3.57463 25.0691 3.46328 24.9578C3.35193 24.8464 3.28937 24.6954 3.28937 24.5379C3.28937 24.3804 3.35193 24.2294 3.46328 24.1181C3.57463 24.0067 3.72565 23.9442 3.88312 23.9442H13.5773ZM4.63066 20.9754C4.63066 20.8179 4.69321 20.6669 4.80456 20.5556C4.91591 20.4442 5.06693 20.3817 5.22441 20.3817H12.2348C12.3923 20.3817 12.5433 20.4442 12.6547 20.5556C12.766 20.6669 12.8286 20.8179 12.8286 20.9754C12.8286 21.1329 12.766 21.2839 12.6547 21.3953C12.5433 21.5066 12.3923 21.5692 12.2348 21.5692H5.22441C5.14618 21.5692 5.06873 21.5537 4.9965 21.5237C4.92427 21.4937 4.85868 21.4497 4.80351 21.3942C4.74833 21.3388 4.70466 21.2729 4.675 21.2006C4.64533 21.1282 4.63027 21.0507 4.63066 20.9724V20.9754ZM14.6116 28.6942H2.84941C2.69193 28.6942 2.54091 28.6316 2.42956 28.5203C2.31821 28.4089 2.25566 28.2579 2.25566 28.1004C2.25566 27.9429 2.31821 27.7919 2.42956 27.6806C2.54091 27.5692 2.69193 27.5067 2.84941 27.5067H14.6098C14.7673 27.5067 14.9183 27.5692 15.0297 27.6806C15.141 27.7919 15.2036 27.9429 15.2036 28.1004C15.2036 28.2579 15.141 28.4089 15.0297 28.5203C14.9183 28.6316 14.7673 28.6942 14.6098 28.6942H14.6116Z" fill="white"/>
</svg>
