<svg width="20" height="20" viewBox="0 0 20 20" fill="none" xmlns="http://www.w3.org/2000/svg">
<path d="M17.4473 10.9176C17.4473 11.6471 17.2708 12.3765 16.9296 13.0118C16.5845 13.6549 16.114 14.1725 15.5179 14.5647C14.9348 14.9359 14.2632 15.1447 13.5724 15.1695C12.8816 15.1943 12.1967 15.0343 11.5885 14.7059L12.4355 17.4353C12.4603 17.5257 12.4668 17.6201 12.4547 17.713C12.4425 17.8059 12.412 17.8955 12.3649 17.9765C12.3022 18.0475 12.2311 18.1107 12.1532 18.1647C12.0699 18.198 11.983 18.2217 11.8944 18.2353H8.11788C8.0292 18.2217 7.94236 18.198 7.85906 18.1647C7.78115 18.1107 7.71004 18.0475 7.64729 17.9765C7.59268 17.8987 7.55773 17.8088 7.54544 17.7146C7.53315 17.6203 7.54388 17.5245 7.57671 17.4353L8.42377 14.7059C7.8194 15.0467 7.13258 15.214 6.43916 15.189C5.74575 15.1641 5.0727 14.9481 4.49435 14.5647C3.89043 14.1725 3.41984 13.6549 3.08259 13.0118C2.75022 12.3632 2.57302 11.6464 2.56494 10.9176C2.56494 6.83529 9.56494 2.01177 9.85906 1.81177C9.90168 1.77531 9.95592 1.75528 10.012 1.75528C10.0681 1.75528 10.1223 1.77531 10.1649 1.81177C10.4591 2.01177 17.4591 6.83529 17.4591 10.9176" fill="white"/>
</svg>
