<svg width="24" height="24" viewBox="0 0 24 24" fill="none" xmlns="http://www.w3.org/2000/svg">
<path d="M21.5455 12.8182C21.5341 13.8746 21.2672 14.9125 20.7676 15.8434C20.268 16.7742 19.5505 17.5703 18.6764 18.1636L17.4 20.9782C17.3323 21.1246 17.2289 21.2516 17.0992 21.3474C16.9695 21.4433 16.8178 21.505 16.658 21.5267C16.4982 21.5485 16.3355 21.5296 16.1849 21.4718C16.0343 21.4141 15.9007 21.3194 15.7964 21.1964L14.3782 19.5055C12.6956 19.5122 11.0607 18.9467 9.74182 17.9018L10.3091 17.2255C14.7164 16.8873 18.2073 13.3964 18.2073 9.14182C18.2073 8.40727 18.1091 7.69454 17.9127 7.00364C18.9889 7.55191 19.8956 8.38275 20.5355 9.40707C21.1755 10.4314 21.5246 11.6106 21.5455 12.8182Z" fill="white" fill-opacity="0.84"/>
<path d="M16.1019 6.33818C15.4867 5.15243 14.5538 4.16119 13.4075 3.47533C12.2612 2.78947 10.9467 2.43603 9.61095 2.45455C5.66186 2.45455 2.45459 5.44364 2.45459 9.14182C2.46593 10.1982 2.73281 11.2362 3.23243 12.167C3.73205 13.0979 4.44956 13.894 5.32368 14.4873L6.60004 17.3018C6.6677 17.4482 6.77114 17.5752 6.90083 17.6711C7.03052 17.767 7.18227 17.8286 7.34208 17.8503C7.50188 17.8721 7.66459 17.8532 7.81517 17.7955C7.96576 17.7377 8.09937 17.643 8.20368 17.52L8.72732 16.8873L9.61095 15.8182C13.571 15.8182 16.7782 12.8291 16.7782 9.14182C16.771 8.13091 16.5455 7.19636 16.1019 6.33818ZM12 9.85091H7.23277C7.04369 9.85093 6.86219 9.77657 6.72747 9.6439C6.59276 9.51122 6.51564 9.33088 6.51277 9.14182C6.51277 8.74909 6.84004 8.42182 7.23277 8.42182H12C12.3928 8.42182 12.72 8.74909 12.72 9.14182C12.72 9.52364 12.3928 9.85091 12 9.85091Z" fill="white" fill-opacity="0.84"/>
</svg>
