<svg width="24" height="24" viewBox="0 0 24 24" fill="none" xmlns="http://www.w3.org/2000/svg">
<path d="M19.08 18.3001C19.44 18.3001 19.68 18.6241 19.596 18.9481L19.572 18.9601L19.452 18.9961H4.56L4.44 18.9601L4.404 18.9481C4.38367 18.8713 4.38136 18.7908 4.39723 18.713C4.4131 18.6351 4.44674 18.562 4.49552 18.4993C4.5443 18.4365 4.6069 18.3859 4.67845 18.3514C4.75 18.3168 4.82855 18.2993 4.908 18.3001H19.08Z" fill="#55657E" stroke="#55657E" stroke-width="1.2"/>
<path d="M22.44 9.11997L21.12 14.88C21.0599 15.1466 20.9105 15.3847 20.6967 15.5549C20.4828 15.7251 20.2173 15.8172 19.944 15.816H4.044C3.77069 15.8172 3.50515 15.7251 3.29131 15.5549C3.07746 15.3847 2.92813 15.1466 2.868 14.88L1.572 9.11997C1.53223 8.97735 1.53738 8.82594 1.58677 8.68636C1.63616 8.54679 1.72738 8.42583 1.848 8.33997C2.088 8.15997 2.412 8.13597 2.664 8.29197L6.3 10.404C6.56616 10.5583 6.88143 10.6045 7.18068 10.533C7.47993 10.4616 7.7403 10.2779 7.908 10.02L11.4 4.73997C11.4653 4.64285 11.5525 4.56249 11.6546 4.50542C11.7568 4.44834 11.8709 4.41616 11.9878 4.41148C12.1047 4.40681 12.2211 4.42977 12.3275 4.4785C12.4338 4.52724 12.5272 4.60037 12.6 4.69197L16.716 10.08C16.902 10.3215 17.1729 10.4832 17.4738 10.5323C17.7747 10.5813 18.083 10.514 18.336 10.344L21.3 8.32797C21.4224 8.24006 21.5693 8.19278 21.72 8.19278C21.8707 8.19278 22.0176 8.24006 22.14 8.32797C22.392 8.50797 22.5 8.83197 22.44 9.13197" fill="#55657E"/>
</svg>
