<svg width="24" height="24" viewBox="0 0 24 24" fill="none" xmlns="http://www.w3.org/2000/svg">
<path fill-rule="evenodd" clip-rule="evenodd" d="M20 9H4V18C4 18.5523 4.44772 19 5 19H8V21H5C3.34315 21 2 19.6569 2 18V6C2 4.34315 3.34315 3 5 3H19C20.6569 3 22 4.34315 22 6V18C22 19.6569 20.6569 21 19 21H16V19H19C19.5523 19 20 18.5523 20 18V9ZM5 5C4.44772 5 4 5.44772 4 6V7H20V6C20 5.44772 19.5523 5 19 5H5Z" fill="white"/>
<path d="M14.7071 18.7071C14.9931 18.4211 15.0787 17.991 14.9239 17.6173C14.7691 17.2436 14.4045 17 14 17H13V14C13 13.4477 12.5523 13 12 13C11.4477 13 11 13.4477 11 14V17H10C9.59557 17 9.23093 17.2436 9.07615 17.6173C8.92137 17.991 9.00693 18.4211 9.29292 18.7071L11.2929 20.7071C11.4804 20.8946 11.7348 21 12 21C12.2652 21 12.5196 20.8946 12.7071 20.7071L14.7071 18.7071Z" fill="white"/>
</svg>
