<svg width="42" height="42" viewBox="0 0 42 42" fill="none" xmlns="http://www.w3.org/2000/svg">
<path d="M20.6243 36.8862C29.604 36.8862 36.8834 29.6067 36.8834 20.6271C36.8834 11.6474 29.604 4.36798 20.6243 4.36798C11.6447 4.36798 4.36523 11.6474 4.36523 20.6271C4.36523 29.6067 11.6447 36.8862 20.6243 36.8862Z" fill="#FEED32"/>
<path d="M20.6243 32.5403C27.2039 32.5403 32.5378 27.2065 32.5378 20.6269C32.5378 14.0473 27.2039 8.7135 20.6243 8.7135C14.0448 8.7135 8.71094 14.0473 8.71094 20.6269C8.71094 27.2065 14.0448 32.5403 20.6243 32.5403Z" fill="#EFBA1B"/>
<path d="M19.983 29.2544V27.9421C18.7438 27.8716 17.8115 27.4782 17.1855 26.7614C16.5592 26.0447 16.2461 25.0116 16.2461 23.6614V23.2869H18.6871C18.6871 23.3381 18.6836 23.4151 18.6771 23.5174C18.6702 23.6197 18.667 23.6935 18.667 23.7381C18.667 24.4165 18.7807 24.9378 19.0086 25.3024C19.2361 25.6673 19.5911 25.8912 20.0734 25.9745V21.6167C18.754 20.9259 17.8133 20.2267 17.2507 19.5198C16.6881 18.8129 16.4069 17.9826 16.4069 17.0291C16.4069 15.9222 16.7232 15.0392 17.3562 14.3798C17.9889 13.7212 18.8645 13.3657 19.983 13.3146V11.9998H21.1181V13.3339C22.2697 13.3467 23.1471 13.654 23.7499 14.2553C24.3524 14.8566 24.6539 15.73 24.6539 16.8753V17.1537H22.2731V16.9524C22.2731 16.4084 22.1643 15.9828 21.9468 15.6756C21.7291 15.3687 21.4259 15.2054 21.0376 15.1861V19.1118C22.5645 19.8669 23.6074 20.5869 24.1666 21.2715C24.7258 21.9561 25.0054 22.8102 25.0054 23.8342C25.0054 25.0945 24.6722 26.0768 24.006 26.7804C23.3396 27.4844 22.3769 27.8716 21.1181 27.9421V29.2544H19.983ZM20.0734 18.5839L20.0633 15.1671C19.6748 15.1992 19.3768 15.3512 19.1692 15.623C18.9616 15.8948 18.858 16.2678 18.858 16.7412C18.858 17.0996 18.9566 17.4306 19.1543 17.7345C19.3517 18.0385 19.658 18.3216 20.0734 18.5839ZM21.0376 25.9745C21.4863 25.8975 21.8277 25.7104 22.0623 25.4131C22.2966 25.1153 22.4138 24.7204 22.4138 24.2276C22.4138 23.7414 22.3135 23.3414 22.1125 23.0279C21.9116 22.7145 21.5532 22.4007 21.0376 22.0872V25.9745Z" fill="#E6E7E8"/>
<path d="M20.6251 7.38256C21.0901 7.38256 21.467 7.00562 21.467 6.54064C21.467 6.07567 21.0901 5.69873 20.6251 5.69873C20.1601 5.69873 19.7832 6.07567 19.7832 6.54064C19.7832 7.00562 20.1601 7.38256 20.6251 7.38256Z" fill="#FFCB08"/>
<path d="M20.6251 35.5552C21.0901 35.5552 21.467 35.1782 21.467 34.7133C21.467 34.2483 21.0901 33.8713 20.6251 33.8713C20.1601 33.8713 19.7832 34.2483 19.7832 34.7133C19.7832 35.1782 20.1601 35.5552 20.6251 35.5552Z" fill="#FFCB08"/>
<path d="M13.5821 9.26988C14.0471 9.26988 14.4241 8.89295 14.4241 8.42797C14.4241 7.963 14.0471 7.58606 13.5821 7.58606C13.1172 7.58606 12.7402 7.963 12.7402 8.42797C12.7402 8.89295 13.1172 9.26988 13.5821 9.26988Z" fill="#FFCB08"/>
<path d="M27.6681 33.6678C28.1331 33.6678 28.51 33.2908 28.51 32.8259C28.51 32.3609 28.1331 31.9839 27.6681 31.9839C27.2031 31.9839 26.8262 32.3609 26.8262 32.8259C26.8262 33.2908 27.2031 33.6678 27.6681 33.6678Z" fill="#FFCB08"/>
<path d="M8.4259 14.4261C8.89087 14.4261 9.26781 14.0492 9.26781 13.5842C9.26781 13.1192 8.89087 12.7423 8.4259 12.7423C7.96092 12.7423 7.58398 13.1192 7.58398 13.5842C7.58398 14.0492 7.96092 14.4261 8.4259 14.4261Z" fill="#FFCB08"/>
<path d="M32.8243 28.512C33.2893 28.512 33.6662 28.135 33.6662 27.67C33.6662 27.2051 33.2893 26.8281 32.8243 26.8281C32.3594 26.8281 31.9824 27.2051 31.9824 27.67C31.9824 28.135 32.3594 28.512 32.8243 28.512Z" fill="#FFCB08"/>
<path d="M6.53918 21.4689C7.00415 21.4689 7.38109 21.0919 7.38109 20.6269C7.38109 20.162 7.00415 19.785 6.53918 19.785C6.0742 19.785 5.69727 20.162 5.69727 20.6269C5.69727 21.0919 6.0742 21.4689 6.53918 21.4689Z" fill="#FFCB08"/>
<path d="M34.7111 21.4689C35.176 21.4689 35.553 21.0919 35.553 20.6269C35.553 20.162 35.176 19.785 34.7111 19.785C34.2461 19.785 33.8691 20.162 33.8691 20.6269C33.8691 21.0919 34.2461 21.4689 34.7111 21.4689Z" fill="#FFCB08"/>
<path d="M8.4259 28.512C8.89087 28.512 9.26781 28.135 9.26781 27.67C9.26781 27.2051 8.89087 26.8281 8.4259 26.8281C7.96092 26.8281 7.58398 27.2051 7.58398 27.67C7.58398 28.135 7.96092 28.512 8.4259 28.512Z" fill="#FFCB08"/>
<path d="M32.8243 14.4261C33.2893 14.4261 33.6662 14.0492 33.6662 13.5842C33.6662 13.1192 33.2893 12.7423 32.8243 12.7423C32.3594 12.7423 31.9824 13.1192 31.9824 13.5842C31.9824 14.0492 32.3594 14.4261 32.8243 14.4261Z" fill="#FFCB08"/>
<path d="M13.5821 33.6678C14.0471 33.6678 14.4241 33.2908 14.4241 32.8259C14.4241 32.3609 14.0471 31.9839 13.5821 31.9839C13.1172 31.9839 12.7402 32.3609 12.7402 32.8259C12.7402 33.2908 13.1172 33.6678 13.5821 33.6678Z" fill="#FFCB08"/>
<path d="M27.6681 9.26988C28.1331 9.26988 28.51 8.89295 28.51 8.42797C28.51 7.963 28.1331 7.58606 27.6681 7.58606C27.2031 7.58606 26.8262 7.963 26.8262 8.42797C26.8262 8.89295 27.2031 9.26988 27.6681 9.26988Z" fill="#FFCB08"/>
<path d="M12.4411 39.1825C12.3777 39.1825 12.3146 39.1818 12.252 39.1803L12.2717 38.4023C12.742 38.4163 13.2353 38.3768 13.7449 38.2902L13.8744 39.0576C13.3832 39.1404 12.901 39.1825 12.4411 39.1825Z" fill="#344E5C"/>
<path d="M10.6217 38.9375C10.0802 38.7829 9.57211 38.5516 9.11133 38.2507L9.5347 37.5981L9.53982 37.6015C9.93223 37.8575 10.3693 38.0562 10.8356 38.1899L10.6217 38.9375Z" fill="#344E5C"/>
<path d="M15.4374 38.6712L15.1992 37.9305C15.6564 37.7835 16.1309 37.6004 16.6091 37.3861L16.9274 38.0957C16.423 38.3221 15.9217 38.5155 15.4374 38.6712Z" fill="#344E5C"/>
<path d="M18.3467 37.3801L17.9668 36.7009C18.3981 36.4597 18.8365 36.1922 19.2701 35.9062L19.699 36.555C19.2494 36.8521 18.7943 37.1298 18.3467 37.3801Z" fill="#344E5C"/>
<path d="M7.86684 37.1336C7.52895 36.7252 7.23455 36.2546 6.99219 35.7353L7.69723 35.4063C7.91167 35.8656 8.17055 36.28 8.46628 36.6379L7.86684 37.1336Z" fill="#344E5C"/>
<path d="M20.9899 35.6429L20.5215 35.0214C20.919 34.7217 21.3223 34.3996 21.72 34.0641L22.2218 34.6583C21.8132 35.0032 21.3986 35.3344 20.9899 35.6429Z" fill="#344E5C"/>
<path d="M6.45558 34.1992C6.33174 33.7031 6.24019 33.1693 6.18359 32.6128L6.95739 32.5338C7.01039 33.0535 7.09548 33.5504 7.21039 34.0108L6.45558 34.1992Z" fill="#344E5C"/>
<path d="M23.3979 33.6126L22.8672 33.0435C23.2355 32.7001 23.6053 32.3381 23.9665 31.9685L24.5231 32.5125C24.1534 32.8905 23.7749 33.2608 23.3979 33.6126Z" fill="#344E5C"/>
<path d="M25.5985 31.3654L25.0195 30.8457C25.3616 30.4643 25.6999 30.0719 26.0249 29.6788L26.6243 30.1749C26.2929 30.5757 25.9476 30.9764 25.5985 31.3654Z" fill="#344E5C"/>
<path d="M6.89126 31.0237L6.11328 31.0169C6.11765 30.5078 6.1469 29.9737 6.20008 29.4297L6.97426 29.5057C6.92336 30.0265 6.89544 30.5375 6.89126 31.0237Z" fill="#344E5C"/>
<path d="M27.6005 28.946L26.9824 28.4735C27.2911 28.0701 27.5982 27.6522 27.8953 27.2321L28.5304 27.6811C28.2278 28.1092 27.915 28.5346 27.6005 28.946Z" fill="#344E5C"/>
<path d="M29.4212 26.3733L29.0894 26.1701L28.7695 25.9486C29.0482 25.522 29.3219 25.0863 29.5836 24.6521L30.2499 25.054C29.9832 25.4962 29.7046 25.9399 29.4212 26.3733Z" fill="#344E5C"/>
<path d="M31.0342 23.6944L30.3535 23.3176C30.6008 22.8705 30.843 22.412 31.0732 21.9554L31.768 22.3056C31.5332 22.7713 31.2863 23.2386 31.0342 23.6944Z" fill="#344E5C"/>
<path d="M32.4467 20.8891L31.7383 20.5677C31.9527 20.0951 32.1569 19.6195 32.3451 19.1534L33.0665 19.4444C32.8741 19.9208 32.6657 20.407 32.4467 20.8891Z" fill="#344E5C"/>
<path d="M33.6226 17.9728L32.8887 17.7145C33.0608 17.2256 33.2203 16.7344 33.3629 16.2539L34.1086 16.475C33.9624 16.9681 33.7988 17.4718 33.6226 17.9728Z" fill="#344E5C"/>
<path d="M34.5165 14.9519L33.7598 14.7719C33.8806 14.264 33.9843 13.7595 34.0682 13.2725L34.8348 13.4047C34.7482 13.9077 34.6411 14.4281 34.5165 14.9519Z" fill="#344E5C"/>
<path d="M35.0496 11.8355L34.2754 11.7596C34.3263 11.2403 34.3546 10.7293 34.3595 10.2412L35.1375 10.2488C35.1322 10.7601 35.1028 11.2938 35.0496 11.8355Z" fill="#344E5C"/>
<path d="M34.2943 8.73076C34.242 8.21034 34.1573 7.71385 34.043 7.25382L34.7978 7.06616C34.9212 7.5619 35.0124 8.09562 35.0684 8.65251L34.2943 8.73076Z" fill="#344E5C"/>
<path d="M33.556 5.85768C33.3422 5.39765 33.0842 4.98283 32.7891 4.62423L33.39 4.12964C33.7268 4.53914 34.02 5.01018 34.2615 5.52947L33.556 5.85768Z" fill="#344E5C"/>
<path d="M23.2913 4.54804C23.2758 4.55583 23.2564 4.56751 23.2408 4.57917C22.8246 4.50915 22.4045 4.45858 21.9766 4.42356C22.2916 4.2252 22.6028 4.03847 22.914 3.86731L23.2913 4.54804Z" fill="#344E5C"/>
<path d="M24.6496 3.86394L24.332 3.15358C24.8369 2.92793 25.3383 2.73496 25.8227 2.57959L26.0601 3.32034C25.6029 3.46697 25.1284 3.64969 24.6496 3.86394Z" fill="#344E5C"/>
<path d="M31.9401 3.33878L31.7162 3.65673C31.3201 3.39842 30.8867 3.2005 30.4238 3.06717L30.6396 2.31958C31.1767 2.47457 31.6808 2.70477 32.1378 3.00335L31.9401 3.33878Z" fill="#344E5C"/>
<path d="M27.5151 2.96195L27.3867 2.19461C27.8752 2.11294 28.3533 2.07153 28.8078 2.07153L29.0082 2.07419L28.9896 2.85217L28.8055 2.84951C28.3962 2.84951 27.9613 2.8875 27.5151 2.96195Z" fill="#344E5C"/>
<path d="M32.1369 38.2502C31.18 38.8765 30.0558 39.1877 28.8033 39.1877C26.9206 39.1877 24.75 38.4875 22.4277 37.1066C22.276 37.0171 22.1243 36.9238 21.9726 36.8304C18.3433 34.547 14.7568 30.8555 11.8278 26.3743C8.80531 21.7454 6.94206 16.9414 6.35079 12.8375C5.69729 8.32914 6.57251 4.66097 9.1126 3.00387C11.6138 1.37011 15.2236 1.87579 19.2769 4.42367C18.8529 4.45869 18.4289 4.50926 18.0127 4.57927C14.6207 2.67321 11.5671 2.32703 9.53661 3.65348C7.40106 5.04996 6.58028 8.04516 6.9615 11.8106C7.38549 15.9572 9.2721 21.0374 12.4813 25.9465C15.4687 30.521 19.1408 34.2436 22.8245 36.4375C22.9606 36.5192 23.1007 36.597 23.2368 36.6748C26.6677 38.608 29.6629 38.9387 31.7129 37.6006C33.7395 36.278 34.6537 33.3412 34.2686 29.4707C34.4942 29.1245 34.7042 28.7705 34.9026 28.4088C34.9221 28.4438 34.9376 28.4827 34.9415 28.5255C35.6028 33.1856 34.607 36.6398 32.1369 38.2502Z" fill="#E6E7E8"/>
</svg>
