<svg width="24" height="24" viewBox="0 0 24 24" fill="none" xmlns="http://www.w3.org/2000/svg">
<path d="M21 4.70995V3.85995C21 3.61995 20.8 3.42995 20.57 3.42995H18.86C18.6934 3.42995 18.55 3.44328 18.43 3.46995V3.42995C18.43 3.18995 18.23 2.99995 18 2.99995H15.43C14.69 2.99995 14.42 3.41995 14.26 3.85995H13.91C13.81 3.71995 13.71 3.55995 13.71 3.42995C13.7144 3.37323 13.7066 3.31623 13.6871 3.26276C13.6677 3.2093 13.6371 3.16059 13.5973 3.11989C13.5576 3.0792 13.5096 3.04745 13.4566 3.02676C13.4036 3.00608 13.3468 2.99694 13.29 2.99995H10.29C10.07 2.99995 9.89002 3.16995 9.86002 3.38995C9.85002 3.47995 9.66002 3.85995 9.38002 3.85995H8.21002L8.11002 3.67995C8.07845 3.60127 8.02269 3.53465 7.9508 3.48971C7.8789 3.44478 7.79459 3.42385 7.71002 3.42995H3.43002C3.19002 3.42995 3.00002 3.62995 3.00002 3.85995V7.28995C3.00002 8.48995 3.35002 10.03 3.43002 10.34V10.99L3.13002 11.26C3.08716 11.2991 3.05333 11.3471 3.03088 11.4006C3.00843 11.4542 2.9979 11.5119 3.00002 11.57V13.29C3.00002 13.4033 3.04336 13.5033 3.13002 13.59L3.43002 13.89V15.79L3.03002 17C2.99886 17.076 2.99188 17.1598 3.01002 17.24L3.41002 18.83L3.02002 20C2.99982 20.0636 2.99471 20.1311 3.00512 20.1971C3.01552 20.263 3.04114 20.3257 3.07996 20.38C3.11878 20.4343 3.16972 20.4789 3.22874 20.5101C3.28777 20.5414 3.35326 20.5584 3.42002 20.5599H9.42002C9.54669 20.5599 9.65002 20.52 9.73002 20.44L9.77002 20.4C10 20.6999 10.31 20.99 10.71 20.99H12C12.32 20.99 12.6 20.85 12.83 20.7299C13 20.65 13.17 20.5599 13.29 20.5599H15.43C15.5434 20.5599 15.6434 20.52 15.73 20.44L15.83 20.34L15.91 20.44C16.12 20.71 16.34 20.99 16.71 20.99H18.86C19.09 20.99 19.29 20.7899 19.29 20.5599V20.26L20.47 20.5499C20.5334 20.5651 20.5993 20.5657 20.6629 20.5516C20.7265 20.5375 20.7861 20.5092 20.8371 20.4688C20.8881 20.4283 20.9293 20.3768 20.9575 20.3181C20.9858 20.2594 21.0003 20.1951 21 20.1299C21 20.0899 20.97 15.88 21 13.71C21.0007 13.6536 20.9895 13.5978 20.9671 13.5461C20.9447 13.4944 20.9116 13.448 20.87 13.41L20.57 13.1V11.13C20.572 11.0743 20.5623 11.019 20.5417 10.9673C20.521 10.9156 20.4898 10.8689 20.45 10.83L20.24 10.62L20.5 10.1L20.87 9.71995C20.9116 9.68192 20.9447 9.63554 20.9671 9.58384C20.9895 9.53214 21.0007 9.47629 21 9.41995V7.27995L20.98 7.17995L20.6 5.61995L20.95 4.90995C20.9839 4.8488 21.0011 4.77984 21 4.70995ZM15.9 6.42995L17.2 7.28995L16.76 9.85995L13.29 7.28995L15.89 6.42995H15.9ZM7.70002 17.57L6.00002 16.2999L6.86002 13.3L10.29 16.7199L7.71002 17.58L7.70002 17.57ZM16.79 17.1399H14.79L6.00002 6.82995L7.60002 6.42995L18 14.36L16.8 17.1399H16.79Z" fill="white"/>
</svg>
