<svg width="24" height="24" viewBox="0 0 24 24" fill="none" xmlns="http://www.w3.org/2000/svg">
<mask id="mask0_1_190" style="mask-type:luminance" maskUnits="userSpaceOnUse" x="1" y="4" width="22" height="16">
<path fill-rule="evenodd" clip-rule="evenodd" d="M22.68 10.5719H20.532V10.0799H19.392V8.29194H20.532V6.52794C20.532 6.10794 20.364 5.95194 19.956 5.95194H19.548C19.22 5.95194 19.04 6.11994 19.008 6.45594V10.5719H16.848V6.21594C16.848 5.01594 17.58 4.22394 18.768 4.17594C19.464 4.15994 20.156 4.16394 20.844 4.18794C21.9 4.23594 22.68 5.05194 22.68 6.10794V10.5839M5.928 7.75194H3.48V6.57594C3.48 6.13194 3.66 5.96394 4.08 5.96394H6.78V4.17594H3.3C2.1 4.17594 1.308 5.00394 1.308 6.19194V13.1039H3.492V9.53994H5.916L5.928 7.75194ZM10.656 13.1159H12.84V9.53994H15.24V7.73994H12.828V6.56394C12.82 6.15594 13.02 5.95594 13.428 5.96394H16.14V4.16394H12.684C12.548 4.16394 12.412 4.17594 12.276 4.19994C11.292 4.37994 10.656 5.13594 10.656 6.14394V13.1159ZM9.744 13.1159H7.584V4.16394H9.744V13.1159ZM14.148 12.7079C14.148 11.9279 14.784 11.2919 15.576 11.2919H21.276C22.056 11.2919 22.704 11.9279 22.704 12.7079V18.4079C22.704 19.1999 22.056 19.8479 21.264 19.8479H15.576C14.784 19.8479 14.148 19.1999 14.148 18.4079V12.7079ZM15.576 18.4079V17.6519L17.076 14.8919C17.156 14.7639 17.196 14.6439 17.196 14.5319L17.208 13.9319L17.172 13.7279C17.1454 13.6702 17.104 13.6205 17.052 13.5839C16.9816 13.5362 16.8966 13.515 16.812 13.5239C16.692 13.5239 16.592 13.5559 16.512 13.6199C16.44 13.6999 16.404 13.8039 16.404 13.9319V14.3879H15.564V13.9439C15.5646 13.7823 15.5979 13.6224 15.6618 13.474C15.7257 13.3255 15.819 13.1915 15.936 13.0799C16.048 12.9599 16.18 12.8719 16.332 12.8159C16.4828 12.7472 16.6463 12.7104 16.812 12.7079C16.9943 12.7022 17.1756 12.7382 17.3419 12.8131C17.5082 12.8879 17.6553 12.9997 17.772 13.1399C17.852 13.2759 17.92 13.4279 17.976 13.5959C18.024 13.7639 18.048 13.9439 18.048 14.1359L18 14.7359L17.928 14.9999L17.772 15.3119L16.548 17.5919H18.048V18.4079H15.576ZM20.052 18.4079V17.5679H18.396V16.8119L19.596 12.7559H20.472L19.224 16.8119H20.052V15.1919H20.88V16.8119H21.276V17.5679H20.88V18.4079H20.052Z" fill="white"/>
</mask>
<g mask="url(#mask0_1_190)">
<path fill-rule="evenodd" clip-rule="evenodd" d="M22.68 10.5719H20.532V10.0799H19.392V8.29194H20.532V6.52794C20.532 6.10794 20.364 5.95194 19.956 5.95194H19.548C19.22 5.95194 19.04 6.11994 19.008 6.45594V10.5719H16.848V6.21594C16.848 5.01594 17.58 4.22394 18.768 4.17594C19.464 4.15994 20.156 4.16394 20.844 4.18794C21.9 4.23594 22.68 5.05194 22.68 6.10794V10.5839M5.928 7.75194H3.48V6.57594C3.48 6.13194 3.66 5.96394 4.08 5.96394H6.78V4.17594H3.3C2.1 4.17594 1.308 5.00394 1.308 6.19194V13.1039H3.492V9.53994H5.916L5.928 7.75194ZM10.656 13.1159H12.84V9.53994H15.24V7.73994H12.828V6.56394C12.82 6.15594 13.02 5.95594 13.428 5.96394H16.14V4.16394H12.684C12.548 4.16394 12.412 4.17594 12.276 4.19994C11.292 4.37994 10.656 5.13594 10.656 6.14394V13.1159ZM9.744 13.1159H7.584V4.16394H9.744V13.1159ZM14.148 12.7079C14.148 11.9279 14.784 11.2919 15.576 11.2919H21.276C22.056 11.2919 22.704 11.9279 22.704 12.7079V18.4079C22.704 19.1999 22.056 19.8479 21.264 19.8479H15.576C14.784 19.8479 14.148 19.1999 14.148 18.4079V12.7079ZM15.576 18.4079V17.6519L17.076 14.8919C17.156 14.7639 17.196 14.6439 17.196 14.5319L17.208 13.9319L17.172 13.7279C17.1454 13.6702 17.104 13.6205 17.052 13.5839C16.9816 13.5362 16.8966 13.515 16.812 13.5239C16.692 13.5239 16.592 13.5559 16.512 13.6199C16.44 13.6999 16.404 13.8039 16.404 13.9319V14.3879H15.564V13.9439C15.5646 13.7823 15.5979 13.6224 15.6618 13.474C15.7257 13.3255 15.819 13.1915 15.936 13.0799C16.048 12.9599 16.18 12.8719 16.332 12.8159C16.4828 12.7472 16.6463 12.7104 16.812 12.7079C16.9943 12.7022 17.1756 12.7382 17.3419 12.8131C17.5082 12.8879 17.6553 12.9997 17.772 13.1399C17.852 13.2759 17.92 13.4279 17.976 13.5959C18.024 13.7639 18.048 13.9439 18.048 14.1359L18 14.7359L17.928 14.9999L17.772 15.3119L16.548 17.5919H18.048V18.4079H15.576ZM20.052 18.4079V17.5679H18.396V16.8119L19.596 12.7559H20.472L19.224 16.8119H20.052V15.1919H20.88V16.8119H21.276V17.5679H20.88V18.4079H20.052Z" fill="white"/>
</g>
</svg>
