<svg width="24" height="24" viewBox="0 0 24 24" fill="none" xmlns="http://www.w3.org/2000/svg">
<path d="M12.1824 10.7616H20.5056C20.5888 11.2032 20.6336 11.6832 20.64 12.2016V12.3648C20.64 13.9008 20.256 15.3408 19.5648 16.608L19.5936 16.56C18.9085 17.8046 17.8916 18.8348 16.656 19.536L16.6176 19.5552C15.3113 20.28 13.8395 20.6538 12.3456 20.64H12.144C10.9088 20.6336 9.75682 20.4 8.68802 19.9392L8.74562 19.9584C6.65782 19.111 4.98363 17.4816 4.08002 15.4176L4.05122 15.36C3.58666 14.2884 3.34857 13.1323 3.35187 11.9644C3.35518 10.7964 3.59981 9.64174 4.07042 8.57279L4.06082 8.63999C4.94944 6.56686 6.61355 4.92343 8.69762 4.06079L8.75522 4.04159C9.83103 3.59046 10.9871 3.36186 12.1536 3.36959H12.192L12.336 3.35999C14.5728 3.35999 16.5984 4.22399 18.096 5.62559L15.696 7.88159C15.231 7.43251 14.6801 7.08199 14.0764 6.85104C13.4726 6.62009 12.8284 6.51347 12.1824 6.53759H12.1536C11.1552 6.53759 10.224 6.82559 9.42722 7.28639L9.44642 7.27678C8.61687 7.75572 7.92757 8.44402 7.44744 9.27288C6.96731 10.1017 6.71317 11.0421 6.71042 12C6.71456 12.9527 6.96739 13.8879 7.44389 14.7129C7.92039 15.5379 8.60404 16.2243 9.42722 16.704L9.44642 16.7232C10.2144 17.184 11.1552 17.4528 12.1536 17.4528H12.2496C12.8896 17.4528 13.4976 17.3568 14.0736 17.1648L14.0256 17.184C14.5504 17.024 15.0144 16.7968 15.4176 16.5024H15.3984C15.7632 16.24 16.0736 15.9392 16.3296 15.6L16.3392 15.5904C16.576 15.3024 16.768 14.9824 16.9152 14.6304L16.9344 14.6112C17.0432 14.3552 17.1264 14.0704 17.184 13.7568V13.728H12.192L12.1824 10.7616Z" fill="white"/>
</svg>
