<svg width="24" height="24" viewBox="0 0 24 24" fill="none" xmlns="http://www.w3.org/2000/svg">
<path fill-rule="evenodd" clip-rule="evenodd" d="M16.43 4.84994V2.42994C16.45 2.12994 16.15 1.90994 15.88 2.02994C14.5623 2.67073 13.386 3.56829 12.42 4.66994C12.29 4.39994 12.35 4.01994 12.42 3.64994C12.49 3.26994 12.55 2.89994 12.42 2.62994C11.1264 2.88145 9.88311 3.34431 8.73999 3.99994C7.57999 4.69994 6.48999 5.47994 5.55999 6.47994C3.80704 8.21264 2.58279 10.408 2.02999 12.8099C2.00999 12.9299 1.97999 13.0599 2.02999 13.1699C2.23999 13.8199 2.59999 14.4399 3.00999 14.9899C4.12051 16.3547 5.43618 17.5388 6.90999 18.4999C8.39999 19.4999 9.99999 20.3399 11.62 21.0899C12.12 20.4099 12.35 19.5499 12.42 18.7299C12.4384 18.2056 12.388 17.6811 12.27 17.1699C12.17 16.6299 12.07 16.0899 12.13 15.5099C12.1622 15.1666 12.2785 14.8364 12.4686 14.5486C12.6587 14.2608 12.9168 14.0243 13.22 13.8599C13.5267 14.2733 13.8933 14.6099 14.32 14.8699C15.22 15.3999 16.2 15.4699 17.23 15.4699C17.5602 15.9369 17.9916 16.3234 18.492 16.6004C18.9924 16.8774 19.5489 17.0379 20.12 17.0699C20.89 17.0699 21.18 16.8699 21.87 16.4999C22.5 15.9999 22.7 15.2299 22.83 14.5399C22.9 14.1599 22.83 13.7399 22.73 13.3799C22.6605 13.1644 22.5486 12.9649 22.4009 12.7931C22.2532 12.6214 22.0727 12.4809 21.87 12.3799L21.57 12.1699C20.5134 11.1518 19.6525 9.94861 19.03 8.61994C18.9633 8.45994 18.9233 8.29328 18.91 8.11994C18.9033 8.01994 18.8867 7.91994 18.86 7.81994C18.8216 7.49675 18.7049 7.18781 18.52 6.91994C17.92 5.88994 16.72 4.76994 16.43 4.84994ZM18.12 9.32994C17.9 8.96994 17.44 8.87994 17.07 9.02994C16.63 9.23994 16.44 9.81994 16.72 10.2299C17 10.6999 17.73 10.7399 18.07 10.3199C18.1909 10.1838 18.2617 10.0105 18.2708 9.82873C18.2799 9.64692 18.2267 9.46744 18.12 9.31994V9.32994Z" fill="white"/>
</svg>
