<svg width="24" height="24" viewBox="0 0 24 24" fill="none" xmlns="http://www.w3.org/2000/svg">
<path d="M17.76 19.2701C18.16 19.6801 18.14 20.3501 17.67 20.6801C16.0145 21.8602 14.033 22.4962 12 22.5001C9.96697 22.4962 7.98546 21.8602 6.33 20.6801C5.86 20.3501 5.83 19.6801 6.23 19.2801L6.35 19.1601C6.71 18.7901 7.3 18.7601 7.75 19.0601C9.0092 19.8982 10.4874 20.3468 12 20.3501C13.5171 20.3459 14.9991 19.8936 16.26 19.0501C16.4696 18.9024 16.7242 18.8325 16.9798 18.8526C17.2355 18.8727 17.476 18.9814 17.66 19.1601L17.76 19.2701ZM13.04 5.60007C13.8957 5.72166 14.7186 6.01269 15.4604 6.45612C16.2023 6.89956 16.8483 7.48649 17.3606 8.18259C17.8729 8.87869 18.2412 9.66996 18.444 10.5101C18.6469 11.3503 18.6801 12.2225 18.5418 13.0756C18.4035 13.9288 18.0964 14.7458 17.6385 15.4788C17.1806 16.2119 16.5812 16.8463 15.8752 17.3448C15.1692 17.8434 14.3709 18.1962 13.5269 18.3826C12.6829 18.5689 11.8103 18.585 10.96 18.4301C9.25731 18.1542 7.73392 17.2133 6.72498 15.8143C5.71603 14.4153 5.30417 12.6728 5.58 10.9701C5.85582 9.26738 6.79674 7.744 8.19576 6.73505C9.59478 5.7261 11.3373 5.31424 13.04 5.59007" fill="#55657E"/>
<path d="M22.5 12C22.4982 14.0364 21.8621 16.0218 20.68 17.68C20.35 18.14 19.68 18.16 19.28 17.76L19.16 17.66C18.9829 17.4748 18.876 17.2336 18.8577 16.978C18.8394 16.7224 18.911 16.4685 19.06 16.26C19.9 14.998 20.3487 13.516 20.35 12C20.3458 10.4829 19.8935 9.00093 19.05 7.74C18.9023 7.5304 18.8324 7.27579 18.8525 7.02016C18.8726 6.76453 18.9814 6.52395 19.16 6.34L19.27 6.24C19.68 5.84 20.35 5.86 20.68 6.33C21.8601 7.98547 22.4961 9.96697 22.5 12ZM17.67 3.32C18.14 3.65 18.17 4.32 17.77 4.72L17.65 4.84C17.29 5.21 16.7 5.24 16.25 4.94C14.9908 4.10189 13.5126 3.65322 12 3.65C10.4829 3.65422 9.00093 4.10647 7.74 4.95C7.5304 5.09771 7.27579 5.16756 7.02016 5.14748C6.76453 5.12739 6.52395 5.01864 6.34 4.84L6.24 4.73C5.84 4.32 5.86 3.65 6.33 3.32C7.98547 2.13989 9.96697 1.50385 12 1.5C14.1 1.5 16.06 2.17 17.67 3.32ZM3.65 12C3.65422 13.5171 4.10647 14.9991 4.95 16.26C5.09771 16.4696 5.16756 16.7242 5.14748 16.9798C5.12739 17.2355 5.01864 17.476 4.84 17.66L4.73 17.76C4.32 18.16 3.65 18.14 3.32 17.67C2.13989 16.0145 1.50385 14.033 1.5 12C1.5 9.9 2.17 7.93 3.32 6.33C3.65 5.86 4.32 5.83 4.72 6.23L4.84 6.35C5.21 6.71 5.24 7.3 4.94 7.75C4.10189 9.00921 3.65322 10.4874 3.65 12Z" fill="#55657E"/>
</svg>
