<svg width="50" height="50" viewBox="0 0 50 50" fill="none" xmlns="http://www.w3.org/2000/svg">
<path d="M25.807 38.7104C18.3078 38.7104 12.2281 32.6306 12.2281 25.1314C12.2281 17.6322 18.3078 11.5524 25.807 11.5524C30.4474 11.5524 34.5415 13.8801 36.9894 17.4306H47.2786C46.9629 16.5473 46.5933 15.6904 46.1736 14.8611C42.4165 7.42451 34.7081 2.32568 25.807 2.32568C13.2115 2.32568 3 12.5359 3 25.1315C3 37.727 13.2115 47.9385 25.807 47.9385C34.7081 47.9385 42.4165 42.8384 46.1736 35.4018C46.5369 34.6827 46.8639 33.9411 47.1496 33.1794H36.7426C34.2709 36.5343 30.2945 38.7104 25.807 38.7104Z" fill="url(#paint0_linear_251_237)"/>
<path d="M25.8062 47.5197C13.4612 47.5197 3.41797 37.4762 3.41797 25.1312C3.41797 12.787 13.4612 2.74414 25.8062 2.74414C34.3037 2.74414 41.9645 7.45938 45.7992 15.0495C46.1228 15.6886 46.4161 16.3464 46.6748 17.0117H37.2063C34.5794 13.3266 30.3347 11.1336 25.8062 11.1336C18.088 11.1336 11.8087 17.4129 11.8087 25.1312C11.8087 32.8495 18.088 39.1288 25.8062 39.1288C30.1638 39.1288 34.3139 37.0652 36.9514 33.5977H46.5354C46.3135 34.1423 46.0668 34.6833 45.7992 35.2127C41.9641 42.8041 34.3032 47.5197 25.8062 47.5197Z" fill="#0A0A08"/>
<path d="M26.2311 33.1788H33.9383C31.8649 35.2735 28.9885 36.5714 25.8077 36.5714C19.4886 36.5714 14.3672 31.45 14.3672 25.1309C14.3672 18.8131 19.4886 13.6904 25.8077 13.6904C29.1601 13.6904 32.1743 15.1324 34.2665 17.43H28.5087C27.5052 17.43 26.5468 17.7833 25.7362 18.4498C24.9395 19.105 24.407 19.9644 24.1941 20.9478L22.5729 28.5874C22.5041 28.878 22.4702 29.1712 22.4702 29.458C22.4702 30.4941 22.8686 31.4462 23.5915 32.1415C24.2968 32.8192 25.2101 33.1788 26.2311 33.1788Z" fill="url(#paint1_linear_251_237)"/>
<path d="M21.8154 9.99649C22.6423 9.78855 23.4917 9.64822 24.3398 9.57807L24.9749 4.32764C23.4891 4.37273 21.9996 4.5807 20.5489 4.94526C18.6346 5.42633 16.8093 6.16924 15.123 7.15643L18.2224 11.3884C19.3524 10.7795 20.5614 10.3109 21.8154 9.99649Z" fill="url(#paint2_linear_251_237)"/>
<path d="M11.6403 18.4644C12.0124 17.6977 12.4508 16.9573 12.9419 16.262L9.32763 12.4009C8.86786 12.9847 8.43817 13.5948 8.04224 14.2274C7.64637 14.8601 7.28306 15.5165 6.95608 16.1893C6.09418 17.9632 5.49034 19.8399 5.16211 21.7667L10.3962 22.1125C10.6556 20.8559 11.074 19.6295 11.6403 18.4644Z" fill="url(#paint3_linear_251_237)"/>
<path d="M10.7368 29.2896L5.45508 29.5777C5.60663 30.3043 5.7983 31.0258 6.02881 31.7362C6.25935 32.4465 6.52745 33.1457 6.83312 33.8297C7.63742 35.6299 8.68725 37.2986 9.9513 38.7882L13.5806 34.9998C12.7864 33.9938 12.1149 32.885 11.5862 31.7036C11.2392 30.9243 10.9523 30.1126 10.7368 29.2896Z" fill="url(#paint4_linear_251_237)"/>
<path d="M36.7868 14.0139L41.2178 11.1237C40.2281 10.0163 39.112 9.00902 37.8993 8.13083C36.3019 6.97329 34.5581 6.05372 32.7178 5.396L31.4688 10.4911C32.6614 10.9646 33.7964 11.5898 34.845 12.349C35.5353 12.8489 36.1893 13.4088 36.7868 14.0139Z" fill="url(#paint5_linear_251_237)"/>
<path d="M21.6929 40.2553C20.8724 40.021 20.0668 39.7178 19.2976 39.3545L16.123 43.5852C17.4322 44.288 18.8253 44.853 20.2647 45.2627C22.1239 45.7926 24.0369 46.0607 25.9524 46.0607C25.9913 46.0607 25.5002 40.8453 25.5002 40.8453C24.2186 40.8078 22.937 40.6098 21.6929 40.2553Z" fill="url(#paint6_linear_251_237)"/>
<path d="M32.5098 39.2656L33.71 44.4171C35.0905 43.8658 36.4185 43.1605 37.6588 42.3224C39.2924 41.2162 40.7532 39.8932 42.0009 38.3887L37.6399 35.4722C36.7868 36.4305 35.8109 37.2837 34.7397 38.0091C34.0344 38.4864 33.284 38.9098 32.5098 39.2656Z" fill="url(#paint7_linear_251_237)"/>
<path d="M15.5215 7.24035C17.11 6.34198 18.8225 5.65868 20.6163 5.20789C21.9462 4.8737 23.3082 4.673 24.6694 4.61035L24.0987 9.32805C23.3068 9.40468 22.5181 9.54099 21.7508 9.73397C20.5526 10.0344 19.3942 10.4733 18.304 11.0396L15.5215 7.24035Z" fill="url(#paint8_linear_251_237)"/>
<path d="M5.48242 21.5161C5.81619 19.7188 6.39355 17.9679 7.20036 16.3072C7.52269 15.6441 7.88341 14.9925 8.27254 14.3706C8.60489 13.8396 8.96583 13.3183 9.3478 12.8174L12.5953 16.2866C12.1445 16.9439 11.7421 17.6356 11.3974 18.3457C10.856 19.4597 10.4474 20.6297 10.1813 21.8265L5.48242 21.5161Z" fill="url(#paint9_linear_251_237)"/>
<path d="M9.96519 38.3824C8.8024 36.9703 7.83274 35.4029 7.08047 33.7192C6.78163 33.0504 6.51449 32.3552 6.28649 31.6526C6.09257 31.0551 5.92502 30.4436 5.78711 29.8307L10.5326 29.5718C10.7427 30.3299 11.0136 31.0831 11.339 31.8137C11.8438 32.9418 12.4771 34.0061 13.2235 34.9812L9.96519 38.3824Z" fill="url(#paint10_linear_251_237)"/>
<path d="M36.8205 13.6675C36.2573 13.1134 35.6463 12.5968 35.0015 12.13C33.9979 11.4033 32.9169 10.798 31.7852 10.3285L32.9065 5.75439C34.6213 6.39604 36.2453 7.26851 37.7382 8.35034C38.8479 9.15395 39.8773 10.0682 40.8017 11.0707L36.8205 13.6675Z" fill="url(#paint11_linear_251_237)"/>
<path d="M25.6688 45.788C23.8723 45.7629 22.0802 45.4989 20.3381 45.0023C19.0218 44.6277 17.7421 44.1207 16.5293 43.4937L19.3817 39.6924C20.1042 40.0214 20.8554 40.298 21.6177 40.5156C22.8039 40.8537 24.0253 41.0524 25.2519 41.1071C25.4079 42.7702 25.6135 45.0249 25.6688 45.788Z" fill="url(#paint12_linear_251_237)"/>
<path d="M32.8242 39.4178C33.5386 39.0771 34.2335 38.6792 34.8925 38.2332C35.9177 37.539 36.8561 36.7303 37.6849 35.8271L41.6 38.4455C40.4126 39.8347 39.0372 41.0625 37.5079 42.0981C36.369 42.8677 35.1574 43.5223 33.9026 44.0462L32.8242 39.4178Z" fill="url(#paint13_linear_251_237)"/>
<path d="M30.0485 7.03652C29.9616 6.90939 29.5302 6.4589 29.224 6.03043C28.9951 5.71035 28.8646 5.37335 28.8453 5.35107C28.8255 5.36446 28.5822 5.66323 28.2908 5.91056C27.8306 6.30126 27.407 6.53525 27.1757 6.79117C26.8178 7.18716 26.849 7.59965 26.9427 7.84038C27.0973 8.23783 27.4962 8.46625 27.9143 8.39716C28.0488 8.37493 28.1697 8.3242 28.2828 8.2574L27.8184 9.09409L28.972 9.24188L28.7176 8.34141C28.8475 8.46625 28.9976 8.55922 29.1776 8.59983C29.5352 8.68052 29.9058 8.53177 30.1079 8.22542C30.1483 8.16413 30.2672 7.95304 30.2686 7.67884C30.27 7.44158 30.1808 7.23002 30.0485 7.03652Z" fill="url(#paint14_linear_251_237)"/>
<path d="M7.52159 24.3665C7.39699 24.457 6.95898 24.901 6.5394 25.2194C6.22596 25.4573 5.89283 25.5974 5.87109 25.6173C5.88505 25.6368 6.19064 25.8714 6.44616 26.1556C6.84984 26.6045 7.09581 27.0212 7.3582 27.2451C7.76424 27.5916 8.17569 27.5487 8.41364 27.4482C8.80651 27.2823 9.02346 26.8771 8.94248 26.461C8.91644 26.3272 8.86229 26.2079 8.79228 26.0967L9.64188 26.5371L9.7567 25.3797L8.86384 25.6597C8.98492 25.5263 9.07358 25.3736 9.10905 25.1925C9.17952 24.8328 9.02026 24.4666 8.70828 24.2733C8.64585 24.2346 8.43146 24.1218 8.15733 24.1282C7.92017 24.1336 7.71127 24.2288 7.52159 24.3665Z" fill="url(#paint15_linear_251_237)"/>
<path d="M30.9622 41.6828C30.6897 41.3548 30.2389 41.2645 29.8642 41.4625C29.7437 41.5261 29.6451 41.6125 29.559 41.7117L29.7345 40.771L28.5934 40.9962L29.1199 41.7697C28.9572 41.6925 28.7853 41.6518 28.6017 41.6703C28.237 41.7071 27.9326 41.9655 27.838 42.3201C27.819 42.391 27.7732 42.6289 27.8586 42.8895C27.9325 43.1149 28.084 43.2873 28.2708 43.429C28.3935 43.522 28.9454 43.8127 29.3716 44.1221C29.6901 44.3533 29.9206 44.6315 29.946 44.6466C29.9605 44.6276 30.0966 44.2671 30.2947 43.9403C30.6074 43.4239 30.9351 43.0678 31.0734 42.7518C31.2875 42.2628 31.1273 41.8815 30.9622 41.6828Z" fill="url(#paint16_linear_251_237)"/>
<path d="M14.6673 10.6776C14.5336 10.7843 14.4447 10.9259 14.4016 11.0788C14.2857 10.9591 14.3027 10.7069 14.2773 10.6027C14.2477 10.4809 14.1918 10.3636 14.1085 10.2592C13.8024 9.87559 13.2433 9.81277 12.8597 10.1189C12.4762 10.4249 12.4134 10.984 12.7194 11.3676C12.8462 11.5264 13.0163 11.6302 13.1993 11.6756C13.2737 11.6941 13.43 11.7169 13.5149 11.8342C13.3359 11.8294 13.1543 11.8849 13.0034 12.0054C12.6638 12.2764 12.6081 12.7714 12.8791 13.111C13.1501 13.4506 13.6451 13.5062 13.9848 13.2352C14.2726 13.0055 14.3555 12.6151 14.2094 12.2946C14.3387 12.5191 14.5646 12.9542 14.7144 13.4819L15.7562 12.6506C15.7562 12.6506 15.1437 12.3101 14.7141 11.9421C14.9919 12.1321 15.3719 12.1284 15.6487 11.9074C15.9883 11.6364 16.0439 11.1414 15.7729 10.8018C15.502 10.4622 15.0069 10.4066 14.6673 10.6776Z" fill="url(#paint17_linear_251_237)"/>
<path d="M16.1617 39.5644C15.8787 39.3286 15.4797 39.3259 15.1951 39.5336C15.389 39.3618 15.7698 39.0529 16.2565 38.8L15.2326 37.9468C15.2326 37.9468 15.0223 38.6153 14.7483 39.1101C14.8785 38.7997 14.7984 38.4283 14.5263 38.2015C14.1926 37.9234 13.6965 37.9685 13.4183 38.3023C13.1402 38.6361 13.1853 39.1321 13.519 39.4103C13.6504 39.5198 13.807 39.5785 13.9655 39.5899C13.8715 39.7275 13.6211 39.7615 13.5241 39.8074C13.4108 39.8609 13.3071 39.9393 13.2216 40.0419C12.9074 40.4189 12.9584 40.9792 13.3353 41.2933C13.7123 41.6075 14.2726 41.5565 14.5867 41.1796C14.7168 41.0235 14.7843 40.836 14.792 40.6475C14.7951 40.5709 14.786 40.4133 14.8838 40.3065C14.9151 40.4828 15.0061 40.6495 15.1544 40.7731C15.4882 41.0513 15.9842 41.0062 16.2624 40.6724C16.5406 40.3386 16.4954 39.8426 16.1617 39.5644Z" fill="url(#paint18_linear_251_237)"/>
<defs>
<linearGradient id="paint0_linear_251_237" x1="3" y1="25.132" x2="47.2786" y2="25.132" gradientUnits="userSpaceOnUse">
<stop stop-color="#FFD7C0"/>
<stop offset="1" stop-color="#B96330"/>
</linearGradient>
<linearGradient id="paint1_linear_251_237" x1="31.0687" y1="25.1309" x2="22.3189" y2="25.1309" gradientUnits="userSpaceOnUse">
<stop stop-color="#FFD7C0"/>
<stop offset="1" stop-color="#B96330"/>
</linearGradient>
<linearGradient id="paint2_linear_251_237" x1="20.0644" y1="5.93335" x2="22.4755" y2="35.9223" gradientUnits="userSpaceOnUse">
<stop stop-color="#B96330"/>
<stop offset="1" stop-color="#FFD7C0"/>
</linearGradient>
<linearGradient id="paint3_linear_251_237" x1="8.07778" y1="6.89735" x2="10.4889" y2="36.8863" gradientUnits="userSpaceOnUse">
<stop stop-color="#B96330"/>
<stop offset="1" stop-color="#FFD7C0"/>
</linearGradient>
<linearGradient id="paint4_linear_251_237" x1="7.4802" y1="6.94526" x2="9.89138" y2="36.9343" gradientUnits="userSpaceOnUse">
<stop stop-color="#B96330"/>
<stop offset="1" stop-color="#FFD7C0"/>
</linearGradient>
<linearGradient id="paint5_linear_251_237" x1="35.8493" y1="4.664" x2="38.2605" y2="34.653" gradientUnits="userSpaceOnUse">
<stop stop-color="#B96330"/>
<stop offset="1" stop-color="#FFD7C0"/>
</linearGradient>
<linearGradient id="paint6_linear_251_237" x1="17.9305" y1="6.1051" x2="20.3417" y2="36.094" gradientUnits="userSpaceOnUse">
<stop stop-color="#B96330"/>
<stop offset="1" stop-color="#FFD7C0"/>
</linearGradient>
<linearGradient id="paint7_linear_251_237" x1="34.5172" y1="4.77149" x2="36.9284" y2="34.7605" gradientUnits="userSpaceOnUse">
<stop stop-color="#B96330"/>
<stop offset="1" stop-color="#FFD7C0"/>
</linearGradient>
<linearGradient id="paint8_linear_251_237" x1="20.1083" y1="6.08558" x2="22.2933" y2="33.2608" gradientUnits="userSpaceOnUse">
<stop stop-color="#FFD7C0"/>
<stop offset="1" stop-color="#B96330"/>
</linearGradient>
<linearGradient id="paint9_linear_251_237" x1="8.14012" y1="7.72315" x2="10.3737" y2="35.5039" gradientUnits="userSpaceOnUse">
<stop stop-color="#FFD7C0"/>
<stop offset="1" stop-color="#B96330"/>
</linearGradient>
<linearGradient id="paint10_linear_251_237" x1="7.60903" y1="8.82105" x2="9.84782" y2="36.666" gradientUnits="userSpaceOnUse">
<stop stop-color="#FFD7C0"/>
<stop offset="1" stop-color="#B96330"/>
</linearGradient>
<linearGradient id="paint11_linear_251_237" x1="35.8413" y1="5.07675" x2="38.0592" y2="32.6609" gradientUnits="userSpaceOnUse">
<stop stop-color="#FFD7C0"/>
<stop offset="1" stop-color="#B96330"/>
</linearGradient>
<linearGradient id="paint12_linear_251_237" x1="18.2638" y1="9.37209" x2="20.4618" y2="36.7099" gradientUnits="userSpaceOnUse">
<stop stop-color="#FFD7C0"/>
<stop offset="1" stop-color="#B96330"/>
</linearGradient>
<linearGradient id="paint13_linear_251_237" x1="34.6991" y1="7.67654" x2="36.9108" y2="35.1841" gradientUnits="userSpaceOnUse">
<stop stop-color="#FFD7C0"/>
<stop offset="1" stop-color="#B96330"/>
</linearGradient>
<linearGradient id="paint14_linear_251_237" x1="26.8809" y1="7.29645" x2="30.2687" y2="7.29645" gradientUnits="userSpaceOnUse">
<stop stop-color="#FFD7C0"/>
<stop offset="1" stop-color="#B96330"/>
</linearGradient>
<linearGradient id="paint15_linear_251_237" x1="7.87296" y1="27.5249" x2="7.77641" y2="24.1385" gradientUnits="userSpaceOnUse">
<stop stop-color="#FFD7C0"/>
<stop offset="1" stop-color="#B96330"/>
</linearGradient>
<linearGradient id="paint16_linear_251_237" x1="27.8086" y1="42.7088" x2="31.1765" y2="42.7088" gradientUnits="userSpaceOnUse">
<stop stop-color="#FFD7C0"/>
<stop offset="1" stop-color="#B96330"/>
</linearGradient>
<linearGradient id="paint17_linear_251_237" x1="12.5902" y1="12.7539" x2="15.4838" y2="10.4448" gradientUnits="userSpaceOnUse">
<stop stop-color="#FFD7C0"/>
<stop offset="1" stop-color="#B96330"/>
</linearGradient>
<linearGradient id="paint18_linear_251_237" x1="13.0156" y1="39.723" x2="16.4448" y2="39.723" gradientUnits="userSpaceOnUse">
<stop stop-color="#FFD7C0"/>
<stop offset="1" stop-color="#B96330"/>
</linearGradient>
</defs>
</svg>
