<svg width="20" height="20" viewBox="0 0 20 20" fill="none" xmlns="http://www.w3.org/2000/svg">
<g opacity="0.6">
<path d="M19.8672 15.1953C18.0898 11.4687 18.0469 11.4258 17.9531 11.3359C17.7852 11.1758 17.5312 11.1406 17.3242 11.2422C17.3047 11.2539 15.4102 12.1953 13.957 12.1797C13.6133 11.2461 13.1836 10.2813 12.6562 9.42578C13.3281 8.77734 14.2227 8.51172 15.0469 8.42578C15.2148 8.40625 15.3672 8.3125 15.457 8.17187C15.5469 8.02734 15.5664 7.85156 15.5078 7.69141C15.3164 7.15625 15.0664 6.65234 14.7734 6.17969C14.9727 6.09766 15.1602 6.02734 15.3203 5.96875C15.6055 5.86328 15.7539 5.54687 15.6484 5.26172C15.543 4.97656 15.2266 4.83203 14.9414 4.93359C14.7109 5.01953 14.4258 5.12891 14.1094 5.26172C12.625 3.5 10.4141 2.42188 8.02734 2.42188C3.64453 2.42188 0.078125 5.98828 0.078125 10.3711C0.078125 13.4102 1.85156 16.2227 4.59766 17.5391C4.67187 17.5742 4.91406 17.6172 5.10547 17.5234C5.26562 17.4453 5.36719 17.2773 5.38281 17.0977C5.47656 16.1523 6.28906 15.4453 7.27344 15.4414C7.84766 15.4375 8.10547 15.6094 8.1875 15.6328C9.125 15.8867 10.2227 15.5742 10.8906 14.7773C11.7461 15.0117 12.7109 15.1953 13.7266 15.2539C13.9297 16.0977 14.0273 16.668 14.0312 16.6875C14.0664 16.9023 14.2187 17.1172 14.4375 17.1328C17.0391 17.3398 19.5586 15.9688 19.6602 15.9063C19.8984 15.7539 19.9883 15.4492 19.8672 15.1953ZM13.7539 6.625C13.9258 6.88672 14.082 7.16016 14.2148 7.44922C13.5391 7.60156 12.7187 7.91016 12.0195 8.51953C11.8437 8.29688 11.6602 8.08594 11.4648 7.89453C12.25 7.375 13.0469 6.95313 13.7539 6.625ZM8.48047 14.5664C8.42578 14.5508 7.98437 14.3398 7.27344 14.3359C6 14.3281 4.90625 15.1055 4.47266 16.2148C2.45312 14.9844 1.17969 12.7578 1.17969 10.3672C1.17969 6.59375 4.25 3.52344 8.02344 3.52344C9.97266 3.52344 11.7852 4.35938 13.0547 5.73438C11.2969 6.58203 9.06641 7.96484 7.73047 9.92969C7.62891 9.91016 7.52344 9.90234 7.41406 9.90234C6.40234 9.90234 5.57812 10.7266 5.57812 11.7383C5.57812 12.75 6.40234 13.5742 7.41406 13.5742C7.52344 13.5742 7.625 13.5625 7.73047 13.5469C8.05078 13.7148 8.74219 14.0586 9.66797 14.3906C9.30859 14.6094 8.87891 14.6758 8.48047 14.5664ZM8.14844 11.7383C8.14844 12.1445 7.82031 12.4727 7.41406 12.4727C7.00781 12.4727 6.67969 12.1445 6.67969 11.7383C6.67969 11.332 7.00781 11.0039 7.41406 11.0039C7.82031 11.0039 8.14844 11.332 8.14844 11.7383ZM10.5 12.7773C10.5117 13.0117 10.4727 13.2461 10.3984 13.4609C9.78125 13.2578 9.25391 13.0391 8.86328 12.8633C9.10547 12.5508 9.25391 12.1602 9.25391 11.7344C9.25391 11.2305 9.05078 10.7734 8.71875 10.4414C9.22266 9.72656 9.86328 9.09375 10.5586 8.54688C10.8203 8.78516 11.0625 9.05859 11.2891 9.36328C10.7695 10.1602 10.4336 11.2539 10.5 12.7773ZM11.457 13.7695C11.5664 13.4375 11.6172 13.0859 11.6016 12.7305C11.5586 11.7695 11.7031 11.0195 11.9687 10.4297C12.8398 12.0156 13.3125 13.7227 13.4258 14.1094C12.7305 14.0469 12.0664 13.9219 11.457 13.7695ZM14.3281 13.2734C15.4648 13.1953 16.668 12.7422 17.3242 12.4609C17.4453 12.7109 17.6094 13.0469 17.7891 13.418C16.75 13.918 15.6523 14.125 14.582 14.1484C14.5078 13.8711 14.4219 13.5742 14.3281 13.2734ZM15.0469 16.125C15.0039 15.9102 14.9453 15.6094 14.8633 15.2539C15.9922 15.1953 17.1523 14.9492 18.2695 14.4102C18.3984 14.6797 18.5273 14.9531 18.6484 15.207C17.793 15.6484 16.2695 16.2656 15.0469 16.125Z" fill="white"/>
</g>
</svg>
