<svg width="20" height="20" viewBox="0 0 20 20" fill="none" xmlns="http://www.w3.org/2000/svg">
<g opacity="0.6" clip-path="url(#clip0_103_4572)">
<path d="M19.6095 19.6067L18.4029 5.03636C18.3639 4.43194 18.1271 3.85714 17.7289 3.40069L15.5215 0.805772C15.0955 0.304991 14.3409 0.252608 13.8498 0.689718C13.377 1.1105 13.3238 1.83066 13.7296 2.31636L15.7525 4.73792C15.6082 4.67222 15.448 4.6353 15.2791 4.6353C14.7183 4.6353 14.2401 5.04191 14.15 5.59546V9.3371C14.15 9.84761 14.2844 10.3491 14.5398 10.7912L15.243 12.0087C15.6025 12.6348 15.7579 13.1265 15.7157 13.7959L15.4681 19.6067" stroke="white" stroke-width="0.78125" stroke-miterlimit="10" stroke-linecap="round" stroke-linejoin="round"/>
<path d="M7.97648 2.56172C7.45797 2.4143 6.91078 2.335 6.34496 2.335C6.33012 2.335 6.31535 2.33543 6.30051 2.33555C5.82973 3.20117 5.58512 4.23351 5.56543 5.18793C6.39105 5.16016 9.8418 5.21109 12.278 7.78613C12.1699 6.49496 11.6498 5.32094 10.8497 4.3959" stroke="white" stroke-width="0.78125" stroke-miterlimit="10" stroke-linecap="round" stroke-linejoin="round"/>
<path d="M3.90199 10.5931C3.34652 9.70734 1.78125 6.81816 2.6741 3.60098C1.28391 4.69098 0.390625 6.38586 0.390625 8.28941C0.390625 9.39008 0.689609 10.4207 1.21027 11.3053C2.13813 11.2816 3.10238 11.005 3.90199 10.5931Z" stroke="white" stroke-width="0.78125" stroke-miterlimit="10" stroke-linecap="round" stroke-linejoin="round"/>
<path d="M3.90167 10.5931C4.90112 10.0784 5.75425 9.28808 6.34468 8.28941C5.80311 7.32859 5.54315 6.25625 5.56518 5.18797C5.58483 4.23355 5.82948 3.20121 6.30026 2.33558C4.93253 2.34558 3.6744 2.81644 2.67378 3.60097C1.78093 6.81816 3.3462 9.70734 3.90167 10.5931Z" stroke="white" stroke-width="0.78125" stroke-miterlimit="10" stroke-linecap="round" stroke-linejoin="round"/>
<path d="M12.2783 7.78613C9.84211 5.21109 6.39136 5.16015 5.56574 5.18793C5.54375 6.25625 5.80371 7.32855 6.34523 8.28937C7.43531 8.30066 8.48199 8.60496 9.38883 9.14613C10.2192 9.64168 11.0037 10.3769 11.5246 11.2284C12.0177 10.3612 12.2996 9.35824 12.2996 8.28937C12.2996 8.11988 12.2921 7.95211 12.2783 7.78613Z" stroke="white" stroke-width="0.78125" stroke-miterlimit="10" stroke-linecap="round" stroke-linejoin="round"/>
<path d="M9.38828 9.14617C8.48141 8.60496 7.43477 8.30066 6.34469 8.28941C5.75426 9.28805 4.90113 10.0784 3.90168 10.5931C3.10207 11.005 2.13781 11.2816 1.20996 11.3053C1.82785 12.355 2.75824 13.1987 3.87355 13.7081C7.20133 12.8873 8.93566 10.008 9.38828 9.14617Z" stroke="white" stroke-width="0.78125" stroke-miterlimit="10" stroke-linecap="round" stroke-linejoin="round"/>
<path d="M9.38879 9.14617C8.93617 10.008 7.20184 12.8873 3.87402 13.7081C4.6268 14.052 5.46355 14.2438 6.3452 14.2438C8.56484 14.2438 10.5005 13.0291 11.5246 11.2284C11.0036 10.377 10.2191 9.64172 9.38879 9.14617Z" stroke="white" stroke-width="0.78125" stroke-miterlimit="10" stroke-linecap="round" stroke-linejoin="round"/>
<path d="M14.1504 8.16413V5.5955C14.2405 5.04194 14.7186 4.63534 15.2795 4.63534C15.9112 4.63534 16.4234 5.14749 16.4234 5.77925V8.51218" stroke="white" stroke-width="0.78125" stroke-miterlimit="10" stroke-linecap="round" stroke-linejoin="round"/>
<circle cx="9.5791" cy="3.28976" r="0.390625" fill="white"/>
</g>
<defs>
<clipPath id="clip0_103_4572">
<rect width="20" height="20" fill="white"/>
</clipPath>
</defs>
</svg>
