<svg width="20" height="20" viewBox="0 0 20 20" fill="none" xmlns="http://www.w3.org/2000/svg">
<g opacity="0.6" clip-path="url(#clip0_103_4437)">
<path d="M14.2931 16.6133H9.72276L7.26964 11.2266C7.14464 10.9531 6.82823 10.832 6.55089 10.9492L6.03135 11.1719L1.13292 0.402342C1.00401 0.124998 0.679792 -2.12621e-06 0.402448 0.128904C0.125105 0.253904 0.000104685 0.582029 0.129011 0.859373L5.01573 11.6016L4.52354 11.8125C4.38682 11.8711 4.05089 12.0859 4.23839 12.5469L7.15245 18.9531C7.42198 19.543 8.01182 19.9219 8.65636 19.9219H14.2931C15.2032 19.9219 15.9454 19.1797 15.9454 18.2695C15.9454 17.3555 15.2032 16.6133 14.2931 16.6133ZM8.15636 18.4961L5.47667 12.6055L6.49229 12.1758L8.86729 17.3945C8.95714 17.5898 9.15245 17.7187 9.36729 17.7187H12.1837V18.8203H8.65636C8.44151 18.8203 8.24229 18.6914 8.15636 18.4961ZM14.2931 18.8203H13.2853V17.7187H14.2931C14.5978 17.7187 14.8439 17.9648 14.8439 18.2695C14.8439 18.5703 14.5939 18.8203 14.2931 18.8203Z" fill="white"/>
<path d="M18.0898 11.9727C17.082 11.9727 16.2578 12.793 16.2578 13.8047C16.2578 14.8125 17.0781 15.6367 18.0898 15.6367C19.0977 15.6367 19.9219 14.8164 19.9219 13.8047C19.9219 12.793 19.1016 11.9727 18.0898 11.9727ZM18.0898 14.5312C17.6875 14.5312 17.3633 14.2031 17.3633 13.8047C17.3633 13.4023 17.6914 13.0781 18.0898 13.0781C18.4922 13.0781 18.8164 13.4062 18.8164 13.8047C18.8203 14.2031 18.4922 14.5312 18.0898 14.5312Z" fill="white"/>
</g>
<defs>
<clipPath id="clip0_103_4437">
<rect width="20" height="20" fill="white"/>
</clipPath>
</defs>
</svg>
