<svg width="22" height="20" viewBox="0 0 22 20" fill="none" xmlns="http://www.w3.org/2000/svg">
<g opacity="0.6">
<mask id="mask0_103_4556" style="mask-type:luminance" maskUnits="userSpaceOnUse" x="0" y="0" width="22" height="20">
<path d="M0 1.90735e-06H22V20H0V1.90735e-06Z" fill="white"/>
</mask>
<g mask="url(#mask0_103_4556)">
<path d="M8.37911 16.7085H9.17562H9.19023C9.87451 16.7069 10.5523 16.5659 11.1936 16.3111L14.8519 14.6802V6.80436L11.8653 4.34127C10.9577 3.69036 9.89698 3.31394 8.80416 3.28993C8.75861 3.28892 8.71311 3.28846 8.66752 3.28846H5.77426C4.68698 3.28846 3.71189 4.00374 3.32113 5.08801L2.83751 6.43019C2.84542 6.42835 2.85328 6.42674 2.86119 6.425C2.70234 6.46049 2.5467 6.51256 2.39678 6.58125C0.904222 7.26481 0.11437 9.02212 0.548054 10.6943L1.57393 14.6497C1.8895 15.8663 2.92573 16.7085 4.10716 16.7085H4.6016M2.87782 6.42133C2.90528 6.41554 2.9323 6.41044 2.9589 6.40581C2.93183 6.41067 2.90472 6.41554 2.87782 6.42133ZM3.26896 6.37192C3.32732 6.36907 3.36272 6.3694 3.36272 6.3694C3.33144 6.3694 3.30016 6.37063 3.26896 6.37192Z" stroke="white" stroke-width="0.859375" stroke-miterlimit="10" stroke-linecap="round" stroke-linejoin="round"/>
<path d="M19.0456 15.7741C17.9104 15.9925 16.7481 15.9965 15.6116 15.7859L15.5275 15.7703C15.1368 15.6979 14.8516 15.3356 14.8516 14.912V6.5962C14.8516 6.17354 15.1355 5.81186 15.5249 5.73834L15.5676 5.73031C16.703 5.51597 17.8649 5.51597 19.0004 5.73031L19.0429 5.73834C19.4325 5.81186 19.7164 6.17354 19.7164 6.5962V14.9167C19.7164 15.3383 19.4338 15.6994 19.0456 15.7741Z" stroke="white" stroke-width="0.859375" stroke-miterlimit="10" stroke-linecap="round" stroke-linejoin="round"/>
<path d="M20.7458 14.9167H19.7168V6.59619H20.7458C21.2012 6.59619 21.5704 6.99075 21.5704 7.47742V14.0355C21.5704 14.5222 21.2012 14.9167 20.7458 14.9167Z" stroke="white" stroke-width="0.859375" stroke-miterlimit="10" stroke-linecap="round" stroke-linejoin="round"/>
<path d="M17.3296 13.6907H14.8516V7.85464H17.3296V13.6907Z" stroke="white" stroke-width="0.859375" stroke-miterlimit="10" stroke-linecap="round" stroke-linejoin="round"/>
<path d="M3.3623 6.3694H6.96227C7.29162 6.3694 7.61496 6.4638 7.89852 6.64278L8.79596 7.20925" stroke="white" stroke-width="0.859375" stroke-miterlimit="10" stroke-linecap="round" stroke-linejoin="round"/>
</g>
</g>
</svg>
