<svg width="20" height="20" viewBox="0 0 20 20" fill="none" xmlns="http://www.w3.org/2000/svg">
<g opacity="0.6">
<path fill-rule="evenodd" clip-rule="evenodd" d="M10 0.625C10.3452 0.625 10.625 0.904822 10.625 1.25V3.77463C14.6475 4.09303 17.8125 7.45816 17.8125 11.5625C17.8125 15.8772 14.3147 19.375 10 19.375C5.68528 19.375 2.1875 15.8772 2.1875 11.5625C2.1875 7.45816 5.3525 4.09303 9.375 3.77463V1.25C9.375 0.904822 9.65481 0.625 10 0.625ZM3.79875 9.40978C3.56469 10.0841 3.4375 10.8085 3.4375 11.5625C3.4375 12.8154 3.78863 13.9863 4.39784 14.9822C4.69003 14.7642 4.99538 14.5627 5.3125 14.3793V11.25C5.3125 10.338 4.66144 9.57812 3.79875 9.40978ZM4.33094 8.25459C5.6215 8.63894 6.5625 9.83459 6.5625 11.25V13.7754C7.62697 13.3557 8.78672 13.125 9.99991 13.125C11.2132 13.125 12.373 13.3557 13.4375 13.7755V11.25C13.4375 9.83459 14.3785 8.63894 15.669 8.25459C14.5306 6.30775 12.418 5 10 5C7.58197 5 5.46938 6.30775 4.33094 8.25459ZM16.2013 9.40978C15.3386 9.57812 14.6875 10.338 14.6875 11.25V14.3794C15.0046 14.5628 15.3099 14.7643 15.6021 14.9823C16.2113 13.9864 16.5625 12.8155 16.5625 11.5625C16.5625 10.8085 16.4353 10.0841 16.2013 9.40978ZM14.8515 15.9818C13.4974 14.9722 11.819 14.375 9.99991 14.375C8.18088 14.375 6.5025 14.9722 5.14847 15.9817C6.34869 17.2986 8.07784 18.125 10 18.125C11.9221 18.125 13.6513 17.2986 14.8515 15.9818Z" fill="white"/>
</g>
</svg>
