<svg width="20" height="20" viewBox="0 0 20 20" fill="none" xmlns="http://www.w3.org/2000/svg">
<g opacity="0.6" clip-path="url(#clip0_103_4413)">
<path fill-rule="evenodd" clip-rule="evenodd" d="M10 0.625C10.2423 0.625 10.4628 0.765075 10.5658 0.984441L13.128 6.44319L18.8444 7.31656C19.076 7.35197 19.2683 7.51384 19.3427 7.736C19.4171 7.95812 19.361 8.20322 19.1974 8.37088L15.0426 12.6291L16.0246 18.6494C16.0632 18.8856 15.9634 19.1231 15.7678 19.2609C15.5721 19.3988 15.3149 19.4128 15.1055 19.297L10 16.4748L4.89458 19.297C4.68511 19.4128 4.42793 19.3988 4.23227 19.2609C4.03658 19.1231 3.93683 18.8856 3.97536 18.6494L4.95739 12.6291L0.80267 8.37088C0.639076 8.20322 0.582979 7.95812 0.657345 7.736C0.731711 7.51384 0.924051 7.35197 1.15562 7.31656L6.87205 6.44319L9.43424 0.984441C9.53721 0.765075 9.75768 0.625 10 0.625ZM10 2.72094L7.86189 7.27622C7.77333 7.46487 7.59655 7.597 7.39052 7.62847L2.54679 8.36853L6.07236 11.982C6.21089 12.124 6.2738 12.3233 6.24186 12.5191L5.41627 17.5803L9.69764 15.2137C9.8858 15.1096 10.1142 15.1096 10.3024 15.2137L14.5838 17.5803L13.7582 12.5191C13.7262 12.3233 13.7891 12.124 13.9277 11.982L17.4532 8.36853L12.6095 7.62847C12.4035 7.597 12.2267 7.46487 12.1381 7.27622L10 2.72094Z" fill="white"/>
</g>
<defs>
<clipPath id="clip0_103_4413">
<rect width="20" height="20" fill="white"/>
</clipPath>
</defs>
</svg>
