<svg width="20" height="20" viewBox="0 0 20 20" fill="none" xmlns="http://www.w3.org/2000/svg">
<g opacity="0.6">
<path d="M7.05022 2.3571C8.733 0.880969 11.2541 0.880966 12.9368 2.3571L14.3773 3.62066C14.6488 3.85884 14.6625 4.27697 14.4071 4.53238C14.1742 4.76522 13.8006 4.77744 13.5531 4.56028L12.1128 3.29688C10.9016 2.23438 9.0855 2.23438 7.87428 3.29688L1.95216 8.49178C1.80094 8.62444 1.88914 8.88125 2.10267 8.88125C2.99894 8.88125 3.68707 9.67344 3.56553 10.5585C3.32432 12.3147 3.18294 13.4918 3.13494 14.5504C3.06133 16.1733 4.51032 17.5 6.29963 17.5H13.7373C15.5215 17.5 16.9676 16.1821 16.8943 14.57C16.8458 13.5057 16.6977 12.3289 16.4429 10.5622C16.3153 9.67728 17.0019 8.88125 17.8989 8.88125C18.1074 8.88125 18.1933 8.63066 18.0458 8.50131L15.9072 6.62538C15.6357 6.38719 15.622 5.96906 15.8774 5.71366C16.1103 5.48078 16.4839 5.46859 16.7315 5.68575L18.8698 7.56156C19.8926 8.45872 19.2497 10.1312 17.8989 10.1312C17.7643 10.1312 17.6607 10.2513 17.6798 10.3837C17.9345 12.1492 18.0912 13.3809 18.1427 14.5132C18.2556 16.9944 16.0662 18.75 13.7373 18.75H6.29963C3.95957 18.75 1.77369 16.9803 1.88646 14.4938C1.93733 13.3719 2.08632 12.1437 2.32739 10.3884C2.34596 10.2533 2.2401 10.1312 2.10267 10.1312C0.746884 10.1312 0.101559 8.4525 1.12811 7.552L7.05022 2.3571Z" fill="white"/>
<path d="M6.56152 15C6.56152 15.3452 6.84127 15.625 7.1864 15.625H12.8103C13.1554 15.625 13.4352 15.3452 13.4352 15C13.4352 14.6548 13.1554 14.375 12.8103 14.375H7.1864C6.84127 14.375 6.56152 14.6548 6.56152 15Z" fill="white"/>
</g>
</svg>
