<svg width="20" height="20" viewBox="0 0 20 20" fill="none" xmlns="http://www.w3.org/2000/svg">
<g opacity="0.6">
<path d="M10.625 6.875C10.625 6.52981 10.3452 6.25 10 6.25C9.65481 6.25 9.375 6.52981 9.375 6.875V6.99575C8.47031 7.09556 7.8125 7.89697 7.8125 8.80516C7.8125 9.77609 8.56437 10.625 9.56597 10.625H10.434C10.6789 10.625 10.9375 10.846 10.9375 11.1948C10.9375 11.5437 10.6789 11.7647 10.434 11.7647H8.4375C8.09231 11.7647 7.8125 12.0445 7.8125 12.3897C7.8125 12.7349 8.09231 13.0147 8.4375 13.0147H9.375V13.125C9.375 13.4702 9.65481 13.75 10 13.75C10.3452 13.75 10.625 13.4702 10.625 13.125V13.0043C11.5297 12.9044 12.1875 12.103 12.1875 11.1948C12.1875 10.2239 11.4356 9.375 10.434 9.375H9.56597C9.32109 9.375 9.0625 9.154 9.0625 8.80516C9.0625 8.45628 9.32109 8.23528 9.56597 8.23528H11.5625C11.9077 8.23528 12.1875 7.95547 12.1875 7.61028C12.1875 7.26512 11.9077 6.98528 11.5625 6.98528H10.625V6.875Z" fill="white"/>
<path fill-rule="evenodd" clip-rule="evenodd" d="M6.09422 2.1219C6.27366 1.25038 7.04091 0.625 7.93072 0.625H12.0694C12.9592 0.625 13.7265 1.25038 13.9059 2.1219L14.0481 2.8125H14.375C15.7557 2.8125 16.875 3.93178 16.875 5.3125V14.6875C16.875 16.0682 15.7557 17.1875 14.375 17.1875H14.0481L13.9059 17.8781C13.7265 18.7496 12.9592 19.375 12.0694 19.375H7.93072C7.04091 19.375 6.27366 18.7496 6.09422 17.8781L5.95203 17.1875H5.625C4.24428 17.1875 3.125 16.0682 3.125 14.6875V5.3125C3.125 3.93178 4.24428 2.8125 5.625 2.8125H5.95203L6.09422 2.1219ZM12.6816 2.37397L12.7719 2.8125H7.22825L7.31853 2.37397C7.37834 2.08346 7.63409 1.875 7.93072 1.875H12.0694C12.366 1.875 12.6218 2.08346 12.6816 2.37397ZM7.22825 17.1875H12.7719L12.6816 17.626C12.6218 17.9165 12.366 18.125 12.0694 18.125H7.93072C7.63409 18.125 7.37834 17.9165 7.31853 17.626L7.22825 17.1875ZM15.625 5.3125C15.625 4.62216 15.0653 4.0625 14.375 4.0625H5.625C4.93466 4.0625 4.375 4.62216 4.375 5.3125V14.6875C4.375 15.3778 4.93466 15.9375 5.625 15.9375H14.375C15.0653 15.9375 15.625 15.3778 15.625 14.6875V5.3125Z" fill="white"/>
</g>
</svg>
