<svg width="20" height="20" viewBox="0 0 20 20" fill="none" xmlns="http://www.w3.org/2000/svg">
<g opacity="0.6">
<path d="M16.2932 3.70684C14.6826 2.09632 12.4577 1.10019 10 1.10019C7.54232 1.10019 5.31736 2.09632 3.70684 3.70684C2.09632 5.31736 1.10019 7.54234 1.10019 10C1.10019 12.4577 2.09632 14.6826 3.70684 16.2932C5.31736 17.9037 7.54232 18.8998 10 18.8998C12.4577 18.8998 14.6826 17.9037 16.2932 16.2932C17.9037 14.6826 18.8998 12.4577 18.8998 10C18.8998 7.54234 17.9037 5.31736 16.2932 3.70684ZM10 0C12.7613 0 15.2613 1.11931 17.071 2.92896C18.8807 4.73864 20 7.23864 20 10C20 12.7613 18.8807 15.2614 17.071 17.071C15.2613 18.8807 12.7614 20 10 20C7.23862 20 4.73861 18.8807 2.92896 17.071C1.11931 15.2613 0 12.7613 0 10C0 7.23864 1.11931 4.73864 2.92896 2.92896C4.73861 1.11931 7.23862 0 10 0Z" fill="white"/>
<path d="M2.78462 3.57671C3.22778 3.65887 3.63144 3.7832 3.99356 3.94338C4.37572 4.1124 4.71815 4.32387 5.01797 4.57035C6.10971 5.46773 6.44834 6.58379 6.38897 7.74673C6.33356 8.83221 5.92057 9.93768 5.4693 10.9236C5.31367 11.2636 5.14217 11.6141 4.9715 11.963C4.21152 13.5164 3.46884 15.0344 3.81784 16.5428L2.74776 16.7878C2.31226 14.9055 3.14018 13.2133 3.98735 11.4816C4.14953 11.1501 4.3125 10.8171 4.47226 10.468C4.87681 9.58422 5.24639 8.60554 5.29308 7.69087C5.33581 6.85364 5.09607 6.05346 4.32174 5.41699C4.10269 5.23695 3.84523 5.07922 3.5509 4.94903C3.25901 4.81993 2.93702 4.72035 2.58691 4.65543L2.78462 3.57671Z" fill="white"/>
<path d="M17.2727 4.68487C16.9487 4.75485 16.6541 4.85303 16.3901 4.9753C16.1206 5.10015 15.8829 5.24879 15.6782 5.41697C14.9039 6.05346 14.6642 6.85362 14.7069 7.69085C14.7536 8.60552 15.1232 9.5842 15.5277 10.468C15.6875 10.817 15.8504 11.1501 16.0126 11.4816C16.8461 13.1853 17.6609 14.8507 17.2715 16.6993L16.1971 16.4759C16.5099 14.991 15.7775 13.4941 15.0285 11.963C14.8578 11.6141 14.6863 11.2636 14.5307 10.9236C14.0794 9.93766 13.6664 8.83219 13.611 7.74671C13.5516 6.58379 13.8903 5.46771 14.982 4.57032C15.2615 4.34063 15.5783 4.14126 15.9303 3.97825C16.2688 3.82147 16.6396 3.6971 17.0406 3.61045L17.2727 4.68487Z" fill="white"/>
<path d="M10.5719 0.603745H9.47168V19.4281H10.5719V0.603745Z" fill="white"/>
<path d="M0.208008 10.2451C1.20279 9.15151 2.64859 8.24154 4.38493 7.61439C6.03913 7.01693 7.95855 6.67437 10.0004 6.67437C12.0575 6.67437 13.9892 7.02136 15.65 7.62597C17.3913 8.25989 18.8395 9.18145 19.8311 10.2894L19.0145 11.02C18.1444 10.0477 16.8494 9.23017 15.2761 8.6574C13.7353 8.09647 11.9321 7.77454 10.0004 7.77454C8.08 7.77454 6.28773 8.09203 4.75455 8.6458C3.1903 9.21078 1.89771 10.0197 1.02028 10.9842L0.208008 10.2451Z" fill="white"/>
</g>
</svg>
