<svg width="20" height="20" viewBox="0 0 20 20" fill="none" xmlns="http://www.w3.org/2000/svg">
<g opacity="0.6">
<path d="M15.7466 10.5618H12.9453L15.9864 4.76301C16.0163 4.7059 16.032 4.64242 16.032 4.57793V0.398398C16.032 0.178398 15.8536 0 15.6336 0H12.1601C12.0131 0 11.878 0.0809375 11.8087 0.210625L9.85391 3.86883H4.33762C4.11758 3.86883 3.93922 4.04723 3.93922 4.26723V8.98332C3.93922 9.20332 4.11758 9.38172 4.33762 9.38172H6.90809L3.90148 15.0084C3.87063 15.0662 3.85449 15.1306 3.85449 15.1962V19.6016C3.85449 19.8216 4.03285 20 4.25289 20H7.75465C7.90281 20 8.03871 19.9179 8.1075 19.7866L10.0542 16.0746H15.7466C15.9666 16.0746 16.145 15.8963 16.145 15.6763V10.9602C16.145 10.7402 15.9666 10.5618 15.7466 10.5618ZM15.3481 15.2779H9.81324C9.66512 15.2779 9.52922 15.36 9.46043 15.4912L7.51375 19.2032H4.65137V15.2959L7.92414 9.17109C7.99012 9.04762 7.98645 8.89859 7.91445 8.77852C7.84246 8.65848 7.71273 8.58496 7.57273 8.58496H4.73605V4.66566H10.0927C10.2398 4.66566 10.3748 4.58469 10.4441 4.45504L12.3989 0.796836H15.2351V4.47988L11.9336 10.7752C11.8689 10.8987 11.8734 11.0471 11.9455 11.1664C12.0177 11.2857 12.147 11.3586 12.2864 11.3586H15.3481V15.2779H15.3481Z" fill="white"/>
<path d="M12.8685 13.9841H10.3984C10.1784 13.9841 10 14.1625 10 14.3825C10 14.6025 10.1784 14.7809 10.3984 14.7809H12.8685C13.0886 14.7809 13.2669 14.6025 13.2669 14.3825C13.2669 14.1625 13.0886 13.9841 12.8685 13.9841Z" fill="white"/>
<path d="M14.4226 13.9841H14.1836C13.9635 13.9841 13.7852 14.1625 13.7852 14.3825C13.7852 14.6025 13.9635 14.7809 14.1836 14.7809H14.4226C14.6427 14.7809 14.821 14.6025 14.821 14.3825C14.821 14.1625 14.6427 13.9841 14.4226 13.9841Z" fill="white"/>
</g>
</svg>
