<svg width="24" height="20" viewBox="0 0 24 20" fill="none" xmlns="http://www.w3.org/2000/svg">
<g opacity="0.6">
<path d="M6 7.03167V10.8417H7.875C8.08211 10.8417 8.25 11.0312 8.25 11.265C8.25 11.4988 8.08211 11.6883 7.875 11.6883H5.625C5.41789 11.6883 5.25 11.4988 5.25 11.265V7.03167C5.25 6.79786 5.41789 6.60833 5.625 6.60833C5.83211 6.60833 6 6.79786 6 7.03167Z" fill="white"/>
<path d="M9.75 7.03167C9.75 6.79786 9.58211 6.60833 9.375 6.60833C9.16789 6.60833 9 6.79786 9 7.03167V11.265C9 11.4988 9.16789 11.6883 9.375 11.6883C9.58211 11.6883 9.75 11.4988 9.75 11.265V7.03167Z" fill="white"/>
<path d="M16.5 7.455H18.375C18.5821 7.455 18.75 7.26547 18.75 7.03167C18.75 6.79786 18.5821 6.60833 18.375 6.60833H16.125C15.9179 6.60833 15.75 6.79786 15.75 7.03167V11.265V11.2677C15.7513 11.5003 15.9187 11.6883 16.125 11.6883H18.375C18.5821 11.6883 18.75 11.4988 18.75 11.265C18.75 11.0312 18.5821 10.8417 18.375 10.8417H16.5V9.57167H18.375C18.5821 9.57167 18.75 9.38214 18.75 9.14833C18.75 8.91453 18.5821 8.725 18.375 8.725H16.5V7.455Z" fill="white"/>
<path d="M12.7501 11.6883C12.608 11.6883 12.4782 11.5977 12.4147 11.4543L10.5397 7.22098C10.4471 7.01185 10.5221 6.75756 10.7074 6.65299C10.8926 6.54847 11.1179 6.63322 11.2105 6.84235L12.7501 10.3184L14.2897 6.84235C14.3823 6.63322 14.6075 6.54847 14.7928 6.65299C14.978 6.75756 15.0531 7.01185 14.9605 7.22098L13.0855 11.4543C13.022 11.5977 12.8921 11.6883 12.7501 11.6883Z" fill="white"/>
<path fill-rule="evenodd" clip-rule="evenodd" d="M3.75 3.645C3.54289 3.645 3.375 3.83453 3.375 4.06833V14.2283C3.375 14.4621 3.54289 14.6517 3.75 14.6517H20.25C20.4571 14.6517 20.625 14.4621 20.625 14.2283V4.06833C20.625 3.83453 20.4571 3.645 20.25 3.645H3.75ZM4.125 13.805V4.49167H19.875V13.805H4.125Z" fill="white"/>
<path fill-rule="evenodd" clip-rule="evenodd" d="M2.25 3.645C2.25 2.94358 2.75368 2.375 3.375 2.375H20.625C21.2463 2.375 21.75 2.94358 21.75 3.645V14.6517C21.75 14.8001 21.7274 14.9426 21.686 15.075H22.125C22.3321 15.075 22.5 15.2645 22.5 15.4983V15.9217C22.5 16.8569 21.8284 17.615 21 17.615H3C2.17157 17.615 1.5 16.8569 1.5 15.9217V15.4983C1.5 15.2645 1.66789 15.075 1.875 15.075H2.31402C2.27256 14.9426 2.25 14.8001 2.25 14.6517V3.645ZM21 14.6517C21 14.8855 20.8321 15.075 20.625 15.075H3.375C3.16789 15.075 3 14.8855 3 14.6517V3.645C3 3.41119 3.16789 3.22167 3.375 3.22167H20.625C20.8321 3.22167 21 3.41119 21 3.645V14.6517ZM2.25 15.9217H21.75C21.75 16.3893 21.4142 16.7683 21 16.7683H3C2.58579 16.7683 2.25 16.3893 2.25 15.9217Z" fill="white"/>
</g>
</svg>
