<svg width="20" height="20" viewBox="0 0 20 20" fill="none" xmlns="http://www.w3.org/2000/svg">
<g opacity="0.6" clip-path="url(#clip0_103_4629)">
<path d="M19.3331 0.211445C19.2632 0.13371 19.1675 0.0880071 19.0632 0.0825383L17.4956 0.000507081C17.2804 -0.0104304 17.0964 0.155585 17.0851 0.370038L17.0039 1.90785C16.0968 1.44066 14.2159 0.550702 12.4145 0.190702C11.2243 -0.0471882 9.59577 -0.244493 9.19683 0.784296C9.18175 0.823163 9.17304 0.86414 9.17089 0.90578L8.95425 5.18426C5.49913 4.58566 1.5323 3.4918 1.49097 3.48035C1.37675 3.44863 1.25429 3.47066 1.15816 3.54004C1.06202 3.60941 1.00261 3.71867 0.996595 3.83707L0.566908 12.3308C0.557689 12.5135 0.676478 12.6782 0.852767 12.727C1.11011 12.7982 7.19788 14.4759 10.9341 14.7929C11.3371 14.8271 11.6967 14.8445 12.0158 14.8445C13.0838 14.8445 13.6968 14.6499 13.9581 14.2421C14.1767 13.9008 14.2487 13.5293 14.1704 13.1602L14.3184 10.23C15.3145 10.6336 16.14 11.0599 16.51 11.259L16.0744 19.5071C16.069 19.6114 16.1046 19.7114 16.1744 19.7892C16.2444 19.8665 16.3401 19.9122 16.4444 19.9177L18.0119 19.9997C18.019 20.0001 18.026 20.0001 18.0326 20.0001C18.2401 20.0001 18.4116 19.8376 18.4225 19.6302L18.5284 17.6193C18.5342 17.5154 18.4986 17.415 18.4287 17.3376C18.3592 17.2599 18.2631 17.2142 18.1592 17.2087C17.944 17.1978 17.76 17.3634 17.7487 17.5775C17.7482 17.5779 17.7482 17.5779 17.7482 17.5782L17.6627 19.1989L16.8752 19.1579L17.2818 11.4594L18.0678 11.5286L17.9338 14.0673C17.9283 14.1716 17.9635 14.2716 18.0334 14.3493C18.1029 14.427 18.199 14.4727 18.3029 14.4782C18.5193 14.4903 18.7025 14.3231 18.7139 14.1087L19.433 0.493124C19.4386 0.388788 19.403 0.288788 19.3331 0.211445ZM4.42386 12.8241L4.49206 11.4757C5.29663 11.6582 6.08363 11.8275 6.84093 11.9811L6.77195 13.3434C5.95792 13.1761 5.15683 12.9964 4.42386 12.8241ZM1.53749 8.60902C2.02046 8.73859 2.83921 8.95371 3.82519 9.19445L3.7589 10.5043C2.70187 10.255 1.88577 10.0462 1.47027 9.93773L1.53749 8.60902ZM8.74327 9.34609C8.73257 9.37976 8.72382 9.41281 8.71706 9.44519C8.40992 9.39121 8.09027 9.33176 7.76034 9.26734L7.8287 7.91711C8.16648 7.98148 8.49359 8.04078 8.80714 8.09441C8.80714 8.09441 8.74355 9.34523 8.74327 9.34609ZM18.4449 4.38594L17.6599 4.30223L17.7298 2.97937L18.5143 3.07176L18.4449 4.38594ZM12.0883 6.63582C11.8644 6.59105 11.6511 6.55406 11.4503 6.52496L11.5195 5.16055C11.6853 5.18586 11.8604 5.21676 12.0441 5.25348C12.5665 5.35785 13.1437 5.52121 13.7632 5.74L13.6957 7.07644C13.1237 6.88309 12.5845 6.73488 12.0883 6.63582ZM10.7036 11.8809C9.75167 11.7359 8.72949 11.5567 7.65523 11.3467L7.72046 10.0554C8.15784 10.1399 8.57695 10.2156 8.97277 10.2815C9.33285 10.7086 10.0057 11.0718 10.7273 11.4103L10.7036 11.8809ZM7.05421 7.76422L6.98601 9.11105C6.24933 8.95812 5.46273 8.78238 4.63824 8.58652L4.70593 7.24859C5.52679 7.44066 6.31363 7.61344 7.05421 7.76422ZM7.09413 6.97508C6.35331 6.82293 5.56648 6.64887 4.74605 6.45566L4.81335 5.12453C5.63402 5.31652 6.42097 5.48934 7.16163 5.64016L7.09413 6.97508ZM4.59808 9.38004C5.42296 9.57473 6.20976 9.74922 6.94609 9.9007L6.88085 11.192C6.1232 11.0373 5.3362 10.867 4.53214 10.6836L4.59808 9.38004ZM9.84285 3.08644C9.93855 2.99777 10.1923 2.86934 10.8519 2.89398L10.7808 4.30133C10.3836 4.28617 10.0497 4.31637 9.77679 4.39254L9.84285 3.08644ZM9.73226 5.27281C9.8289 5.18433 10.0836 5.05668 10.7413 5.08133L10.6719 6.44969C10.2748 6.43453 9.94097 6.46469 9.66812 6.54078L9.73226 5.27281ZM10.3957 8.49402C10.0971 8.49402 9.81253 8.52363 9.56402 8.59836L9.62359 7.42094C9.72019 7.33262 9.97484 7.20523 10.6324 7.22984L10.5683 8.49758C10.5104 8.49555 10.4527 8.49402 10.3957 8.49402ZM14.6416 3.84312C15.6419 4.24707 16.4748 4.67605 16.8471 4.87586L16.777 6.20426C16.2794 5.94758 15.4871 5.56301 14.5724 5.20734L14.6416 3.84312ZM16.9567 2.76652L16.8925 4.01652C16.394 3.75988 15.5998 3.37488 14.6834 3.01914L14.7464 1.73367C15.7489 2.13809 16.5825 2.56633 16.9567 2.76652ZM13.8044 4.92766C13.2318 4.73406 12.6929 4.58641 12.1972 4.48738C11.9733 4.44262 11.7599 4.40559 11.5592 4.37652L11.6302 2.97289C11.7962 2.9982 11.9718 3.0293 12.1558 3.06601C12.6819 3.17125 13.2588 3.33445 13.8741 3.55199L13.8044 4.92766ZM10.8914 2.11383C10.494 2.09879 10.1602 2.12898 9.88742 2.20531L9.94722 1.0234C10.0232 0.903984 10.2103 0.827695 10.5045 0.796249C10.637 0.782109 10.7881 0.778202 10.9569 0.784257L10.8914 2.11383ZM3.86542 8.39996C2.83179 8.14601 1.99968 7.92492 1.57792 7.81082L1.64503 6.48426C2.12773 6.61273 2.94659 6.82609 3.933 7.06473L3.86542 8.39996ZM1.36316 12.0557L1.42949 10.7443C1.90984 10.8679 2.7364 11.067 3.71882 11.2974L3.65464 12.6401C2.61546 12.3873 1.78452 12.1687 1.36316 12.0557ZM7.61538 12.1349C8.68937 12.3435 9.71148 12.5213 10.6638 12.6651L10.5977 13.9757C9.67101 13.8773 8.61363 13.7036 7.54827 13.4981L7.61538 12.1349ZM11.9848 8.68449C11.7827 8.6441 11.5678 8.60527 11.3486 8.57305L11.4106 7.30883C11.5764 7.3341 11.7517 7.36523 11.9352 7.40195C12.4585 7.50641 13.0358 7.6698 13.6546 7.88844L13.5941 9.125C13.0699 8.94773 12.5243 8.7923 11.9848 8.68449ZM14.5307 6.03121C15.5289 6.43496 16.3597 6.86391 16.7316 7.06387L16.6637 8.35008C16.1669 8.09398 15.3766 7.71051 14.4638 7.35558L14.5307 6.03121ZM17.6187 5.08351L18.4036 5.16723L18.216 8.72199L17.431 8.63668L17.6187 5.08351ZM18.6319 0.842304L18.5555 2.28996L17.7711 2.19758L17.8448 0.801288L18.6319 0.842304ZM13.9807 1.44371L13.9152 2.73996C13.3462 2.54754 12.8075 2.39957 12.3089 2.29984C12.0845 2.25508 11.8709 2.21809 11.6699 2.18902L11.7371 0.863593C11.902 0.888866 12.0768 0.919882 12.2614 0.956796C12.8334 1.07113 13.4204 1.2457 13.9807 1.44371ZM8.84687 7.30848C8.53331 7.25418 8.20613 7.19418 7.86859 7.12918L7.93617 5.79254C8.2646 5.85527 8.59191 5.91492 8.91452 5.97016L8.84687 7.30848ZM4.04046 4.93984L3.97316 6.27051C2.9389 6.01871 2.10714 5.79957 1.68535 5.68633L1.75245 4.35988C2.23382 4.48789 3.05054 4.70043 4.04046 4.93984ZM13.3003 13.8206C13.2914 13.8347 13.0719 14.1433 11.3766 14.0418L11.4922 11.7549C13.2942 12.6173 13.3923 13.267 13.3935 13.2713C13.4489 13.4598 13.4195 13.6346 13.3003 13.8206ZM13.4449 12.0392C13.4414 12.036 13.4377 12.0331 13.4341 12.0299C12.9472 11.5975 12.3071 11.2578 11.7515 11.0154C11.7514 11.0154 11.7514 11.0154 11.7513 11.0153C11.5991 10.949 10.2148 10.3516 9.70929 9.92082C9.6082 9.83469 9.47343 9.66285 9.49558 9.56047C9.52941 9.40426 9.74648 9.32508 10.0748 9.29C10.4872 9.2459 11.0784 9.29992 11.8317 9.45051C12.404 9.56488 12.9903 9.7393 13.5491 9.9373L13.4449 12.0392ZM14.3603 9.40379L14.4221 8.17976C15.4187 8.58285 16.2474 9.01031 16.6183 9.20965L16.5555 10.3984C16.0585 10.1413 15.2692 9.75723 14.3603 9.40379ZM17.3232 10.6787L17.3898 9.41801L18.1748 9.50332L18.1091 10.7479L17.3232 10.6787Z" fill="white"/>
<path d="M18.2314 16.234C18.4472 16.234 18.6221 16.0591 18.6221 15.8434C18.6221 15.6276 18.4472 15.4527 18.2314 15.4527C18.0157 15.4527 17.8408 15.6276 17.8408 15.8434C17.8408 16.0591 18.0157 16.234 18.2314 16.234Z" fill="white"/>
</g>
<defs>
<clipPath id="clip0_103_4629">
<rect width="20" height="20" fill="white"/>
</clipPath>
</defs>
</svg>
