<svg width="20" height="20" viewBox="0 0 20 20" fill="none" xmlns="http://www.w3.org/2000/svg">
<g opacity="0.6" clip-path="url(#clip0_103_4546)">
<path d="M13.2032 12.7285C13.1974 12.6997 13.1889 12.6714 13.1777 12.6445C13.1665 12.6171 13.1525 12.5911 13.1363 12.5668C13.1197 12.5421 13.1009 12.5192 13.0802 12.4985C13.0595 12.4779 13.0366 12.459 13.0119 12.4428C12.9877 12.4266 12.9616 12.4127 12.9346 12.4015C12.9073 12.3903 12.8789 12.3817 12.8507 12.3759C12.7927 12.3642 12.733 12.3642 12.675 12.3759C12.6463 12.3817 12.618 12.3903 12.5911 12.4015C12.5637 12.4127 12.5376 12.4266 12.5134 12.4428C12.4887 12.459 12.4657 12.4779 12.4451 12.4985C12.4244 12.5192 12.4055 12.5421 12.3894 12.5668C12.3732 12.5911 12.3593 12.6171 12.348 12.6445C12.3368 12.6714 12.3283 12.6997 12.3225 12.7285C12.3166 12.7572 12.3135 12.7869 12.3135 12.8161C12.3135 12.8452 12.3166 12.8749 12.3225 12.9041C12.3283 12.9324 12.3368 12.9607 12.348 12.9881C12.3593 13.015 12.3732 13.0411 12.3894 13.0654C12.4055 13.09 12.4244 13.113 12.4451 13.1336C12.4657 13.1543 12.4886 13.1732 12.5134 13.1898C12.5376 13.2059 12.5637 13.2198 12.5911 13.2311C12.618 13.2423 12.6463 13.2509 12.675 13.2567C12.7038 13.2625 12.7334 13.2652 12.7626 13.2652C12.7918 13.2652 12.8214 13.2625 12.8507 13.2567C12.8789 13.2509 12.9073 13.2423 12.9346 13.2311C12.9616 13.2199 12.9877 13.2059 13.0119 13.1898C13.0366 13.1732 13.0595 13.1543 13.0802 13.1336C13.1009 13.113 13.1197 13.0901 13.1363 13.0654C13.1525 13.0411 13.1664 13.015 13.1777 12.9881C13.1889 12.9607 13.1974 12.9324 13.2032 12.9041C13.2091 12.8749 13.2118 12.8453 13.2118 12.8161C13.2118 12.7868 13.2091 12.7572 13.2032 12.7285Z" fill="white"/>
<path d="M19.6629 13.9454C19.5775 13.8439 19.4517 13.7854 19.3191 13.7854H16.2441H15.0314H13.169H9.95781V8.62203H12.3139V11.3339C12.3139 11.582 12.515 11.7831 12.763 11.7831C13.0111 11.7831 13.2121 11.582 13.2121 11.3339V8.62203H18.2674C18.3962 8.62203 18.5188 8.56676 18.6041 8.4702C18.6893 8.37363 18.729 8.24516 18.7131 8.11734C18.2398 4.32219 15.4931 1.29301 11.9443 0.325703C11.9311 0.32082 11.9177 0.316367 11.9039 0.312695C11.756 0.273242 11.6069 0.23875 11.4573 0.206758C11.4422 0.203516 11.4272 0.200234 11.4121 0.19707C11.3549 0.185117 11.2977 0.173633 11.2403 0.162773C11.2088 0.156797 11.177 0.151328 11.1454 0.145625C11.0723 0.132617 10.9991 0.120312 10.9257 0.109023C10.8729 0.100898 10.8202 0.0929297 10.7672 0.0857031C10.7304 0.0807031 10.6936 0.0760547 10.6567 0.0714453C10.5974 0.0640625 10.5381 0.0573438 10.4785 0.0511328C10.4507 0.0482031 10.4229 0.0450391 10.3951 0.0423828C10.309 0.0341797 10.2226 0.0271484 10.1359 0.0213281C10.1133 0.0198047 10.0906 0.0187109 10.0679 0.0173828C9.99789 0.0131641 9.92766 0.00976562 9.85727 0.00714844C9.83152 0.00621094 9.80582 0.00515625 9.78016 0.00445313C9.68988 0.00179687 9.59949 0 9.50875 0C4.39379 0 0.232422 4.16133 0.232422 9.27633C0.232422 11.037 0.727851 12.7502 1.6652 14.2309C2.53496 15.6048 3.74742 16.724 5.18059 17.4812C5.45574 18.9139 6.71805 20 8.22984 20C9.9423 20 11.3354 18.6068 11.3354 16.8944C11.3354 16.03 10.9801 15.2472 10.4082 14.6837H12.635L12.2771 16.7426L11.8277 19.3276C11.8049 19.4582 11.8411 19.5922 11.9264 19.6937C12.0118 19.7951 12.1375 19.8537 12.2701 19.8537H15.3451H18.4202C18.6385 19.8537 18.8253 19.6966 18.8627 19.4815L19.3121 16.8965L19.7615 14.3115C19.7843 14.1808 19.7482 14.0468 19.6629 13.9454ZM11.7852 1.21359C14.7948 2.06469 17.1516 4.56121 17.7431 7.72379H9.50875C9.2607 7.72379 9.05961 7.92488 9.05961 8.17293V13.9017C9.05223 13.8996 9.04484 13.898 9.03746 13.8959C9.01652 13.8903 8.99555 13.8848 8.97449 13.8796C8.95105 13.8739 8.92746 13.8686 8.90391 13.8633C8.87191 13.8562 8.8398 13.8496 8.80746 13.8435C8.78285 13.8388 8.7582 13.8343 8.73344 13.8302C8.71293 13.8269 8.69234 13.8237 8.67168 13.8207C8.64043 13.8163 8.6091 13.8123 8.57773 13.8087C8.56062 13.8068 8.54348 13.8049 8.52625 13.8033C8.48758 13.7996 8.44883 13.7967 8.41 13.7945C8.39645 13.7937 8.38281 13.793 8.36922 13.7924C8.32281 13.7903 8.27637 13.7888 8.22984 13.7888C8.17859 13.7888 8.12766 13.7902 8.07707 13.7927C8.06031 13.7935 8.04379 13.7951 8.02711 13.7962C7.99332 13.7984 7.95961 13.8006 7.92613 13.8039C7.90641 13.8058 7.88688 13.8084 7.8673 13.8107C7.83711 13.8143 7.80699 13.8179 7.77711 13.8222C7.75648 13.8252 7.73605 13.8288 7.71559 13.8322C7.68703 13.837 7.65855 13.8419 7.63031 13.8475C7.60941 13.8516 7.58871 13.8561 7.56801 13.8606C7.54043 13.8666 7.51293 13.8729 7.48562 13.8796C7.46492 13.8847 7.4443 13.89 7.42379 13.8955C7.39676 13.9028 7.36988 13.9105 7.34316 13.9185C7.32297 13.9245 7.30277 13.9306 7.2827 13.9371C7.25582 13.9457 7.22926 13.9548 7.2027 13.9642C7.18332 13.9711 7.16395 13.9777 7.14477 13.9849C7.14273 13.9857 7.14066 13.9863 7.13863 13.9871C6.18891 12.5956 5.68867 10.9746 5.68867 9.27637C5.68867 8.42316 5.81848 7.59352 6.06078 6.80871H14.0592C14.3073 6.80871 14.5084 6.60762 14.5084 6.35957C14.5084 6.11152 14.3073 5.91043 14.0592 5.91043H6.39516C7.3807 3.66762 9.32711 1.9073 11.7852 1.21359ZM5.33633 15.7663C5.32047 15.8071 5.30531 15.8481 5.29113 15.8896C5.28895 15.896 5.28695 15.9025 5.2848 15.9089C5.27848 15.9279 5.27203 15.947 5.26602 15.9661C5.26523 15.9685 5.26441 15.9709 5.26367 15.9733C5.25879 15.9891 5.25406 16.0048 5.24945 16.0207C5.24598 16.0325 5.24297 16.0445 5.23965 16.0563C5.23586 16.0699 5.23207 16.0834 5.22848 16.0971C5.22609 16.1061 5.2234 16.115 5.22105 16.124C5.21832 16.1347 5.21562 16.1455 5.21297 16.1563C5.20848 16.1745 5.2048 16.1931 5.20063 16.2115C5.19906 16.2185 5.19746 16.2255 5.19594 16.2325C5.19277 16.247 5.18922 16.2613 5.18625 16.2759C5.18488 16.2825 5.18352 16.2891 5.18219 16.2957C5.1768 16.3231 5.1725 16.3509 5.16781 16.3786C5.165 16.3954 5.16172 16.412 5.15914 16.4289C5.15871 16.4319 5.15805 16.4348 5.15762 16.4378C2.6566 14.9225 1.13063 12.2395 1.13063 9.27621C1.13066 4.6566 4.88906 0.898242 9.50871 0.898242C9.58836 0.898242 9.66785 0.899766 9.7473 0.902031C9.76957 0.902656 9.79176 0.903477 9.81398 0.904258C9.87727 0.906563 9.94051 0.90957 10.0036 0.913242C10.0168 0.914023 10.03 0.914648 10.0431 0.91543C7.82969 1.98066 6.14109 3.88363 5.32723 6.16758C5.31367 6.19625 5.30293 6.22645 5.29566 6.25805C4.96738 7.21039 4.79039 8.22727 4.79039 9.27625C4.79039 11.1281 5.32766 12.8973 6.34863 14.4225C5.8907 14.7707 5.5432 15.2359 5.33734 15.7636C5.33699 15.7645 5.33668 15.7654 5.33633 15.7663ZM10.4373 16.8944C10.4373 18.1115 9.44707 19.1017 8.22992 19.1017C7.09492 19.1017 6.15766 18.2405 6.03625 17.1374C6.02719 17.0545 6.02258 16.9727 6.02258 16.8944C6.02258 16.8606 6.02359 16.8271 6.02516 16.7937C6.02555 16.785 6.02602 16.7763 6.02648 16.7676C6.02824 16.7365 6.03051 16.7055 6.03359 16.6746C6.03383 16.6723 6.03395 16.67 6.03418 16.6677C6.03754 16.6348 6.04187 16.6021 6.04672 16.5696C6.04789 16.5618 6.0491 16.554 6.05035 16.5462C6.05527 16.515 6.06074 16.4841 6.06695 16.4534C6.06723 16.452 6.06746 16.4507 6.06777 16.4493C6.07477 16.4152 6.08266 16.3814 6.09121 16.3479C6.09207 16.3445 6.09301 16.3411 6.09391 16.3377C6.34129 15.3892 7.20516 14.6871 8.23 14.6871C8.27316 14.6871 8.31625 14.6887 8.35922 14.6912C8.37039 14.6918 8.38148 14.693 8.3927 14.6938C8.42559 14.6962 8.45836 14.6992 8.49102 14.7031C8.50211 14.7044 8.5132 14.7059 8.52426 14.7073C8.55902 14.712 8.59363 14.7175 8.62812 14.7238C8.6359 14.7252 8.64375 14.7265 8.65148 14.728C8.73629 14.7445 8.82004 14.7659 8.90223 14.7921C8.91352 14.7958 8.92461 14.7997 8.93582 14.8036C8.9632 14.8128 8.99043 14.8225 9.01746 14.8329C9.03371 14.8391 9.04988 14.8455 9.06598 14.8521C9.08687 14.8606 9.10746 14.8697 9.12812 14.8789C9.1468 14.8873 9.16566 14.8954 9.1841 14.9043C9.19664 14.9103 9.20879 14.9169 9.22121 14.9232C9.94164 15.2868 10.4373 16.0336 10.4373 16.8944ZM14.9675 18.9554H12.8042L13.0974 17.2686H15.2607L14.9675 18.9554ZM15.4169 16.3704H13.2536L13.5468 14.6836H15.0314H15.7101L15.4169 16.3704ZM18.0425 18.9554H15.8792L16.1724 17.2686H18.3357L18.0425 18.9554ZM18.4919 16.3704H16.3286L16.6218 14.6836H18.7852L18.4919 16.3704Z" fill="white"/>
<path d="M15.9815 6.27176C15.9757 6.24301 15.9671 6.21473 15.9559 6.18777C15.9447 6.16039 15.9308 6.13433 15.9146 6.11008C15.898 6.08539 15.8791 6.06246 15.8585 6.0418C15.8378 6.02113 15.8149 6.00226 15.7902 5.98609C15.7659 5.96992 15.7399 5.95601 15.7129 5.94476C15.6855 5.93355 15.6572 5.925 15.6289 5.91918C15.483 5.88953 15.3276 5.93758 15.2234 6.0418C15.2027 6.06246 15.1839 6.08535 15.1677 6.11008C15.1515 6.13433 15.1376 6.16039 15.1264 6.18777C15.1152 6.21473 15.1066 6.24301 15.1008 6.27176C15.095 6.30051 15.0918 6.33016 15.0918 6.35933C15.0918 6.38851 15.095 6.41816 15.1008 6.44738C15.1067 6.47566 15.1152 6.50398 15.1264 6.53137C15.1376 6.55832 15.1515 6.58437 15.1677 6.60863C15.1839 6.63332 15.2027 6.65625 15.2234 6.67691C15.307 6.7609 15.4228 6.80851 15.5409 6.80851C15.5706 6.80851 15.5998 6.80582 15.629 6.8C15.6573 6.79418 15.6856 6.78562 15.713 6.77441C15.7399 6.7632 15.766 6.74926 15.7902 6.73309C15.8149 6.71648 15.8379 6.69805 15.8585 6.67695C15.8792 6.65629 15.898 6.6334 15.9146 6.60867C15.9308 6.58441 15.9447 6.55836 15.956 6.5314C15.9672 6.50402 15.9757 6.4757 15.9816 6.44742C15.9874 6.41824 15.9901 6.38859 15.9901 6.35937C15.99 6.33016 15.9873 6.30051 15.9815 6.27176Z" fill="white"/>
</g>
<defs>
<clipPath id="clip0_103_4546">
<rect width="20" height="20" fill="white"/>
</clipPath>
</defs>
</svg>
