<svg width="20" height="20" viewBox="0 0 20 20" fill="none" xmlns="http://www.w3.org/2000/svg">
<g opacity="0.6" clip-path="url(#clip0_103_4534)">
<path d="M12.461 19.2913C11.6755 19.4988 10.8507 19.6094 10 19.6094C4.69289 19.6094 0.390625 15.3071 0.390625 10C0.390625 4.69289 4.69289 0.390625 10 0.390625C15.3071 0.390625 19.6094 4.69289 19.6094 10C19.6094 13.2237 18.022 16.0766 15.5862 17.8198" stroke="white" stroke-width="0.78125" stroke-miterlimit="10" stroke-linecap="round" stroke-linejoin="round"/>
<path d="M14.0238 19.1197C14.5265 19.1197 14.5273 18.3384 14.0238 18.3384C13.5211 18.3384 13.5203 19.1197 14.0238 19.1197Z" fill="white"/>
<path d="M9.99992 10C8.47781 7.97965 8.39258 5.86887 8.39258 5.19531C8.39258 4.52176 8.47781 2.41098 9.99992 0.390625" stroke="white" stroke-width="0.78125" stroke-miterlimit="10" stroke-linejoin="round"/>
<path d="M4.13745 2.38594C3.81284 3.42699 3.3962 5.25805 3.70511 7.5C4.1569 10.7791 5.88682 12.9487 6.64253 13.7945" stroke="white" stroke-width="0.78125" stroke-miterlimit="10" stroke-linejoin="round"/>
<path d="M6.33691 18.8841C7.40078 18.6447 9.19484 18.09 10.982 16.7015C13.5958 14.6707 14.6099 12.0877 14.9645 11.0103" stroke="white" stroke-width="0.78125" stroke-miterlimit="10" stroke-linejoin="round"/>
<path d="M19.5252 8.72996C18.786 7.92832 17.4085 6.65195 15.3125 5.79852C12.2469 4.55027 9.50289 4.96355 8.39258 5.19516" stroke="white" stroke-width="0.78125" stroke-miterlimit="10" stroke-linejoin="round"/>
<path d="M9.99969 10C9.01105 12.3284 7.2257 13.4576 6.64238 13.7943C6.05906 14.1311 4.18848 15.1127 1.67773 14.8047" stroke="white" stroke-width="0.78125" stroke-miterlimit="10" stroke-linejoin="round"/>
<path d="M10 10C12.5107 9.69199 14.3813 10.6736 14.9646 11.0104C15.548 11.3471 17.3333 12.4763 18.322 14.8047" stroke="white" stroke-width="0.78125" stroke-miterlimit="10" stroke-linejoin="round"/>
</g>
<defs>
<clipPath id="clip0_103_4534">
<rect width="20" height="20" fill="white"/>
</clipPath>
</defs>
</svg>
