<svg width="24" height="20" viewBox="0 0 24 20" fill="none" xmlns="http://www.w3.org/2000/svg">
<g opacity="0.6" clip-path="url(#clip0_103_4441)">
<path d="M4.7573 13.8702L4.76809 14.0688C4.77577 14.2081 4.78313 14.3427 4.78905 14.472L5.60639 15.5821L6.96885 15.1427L9.51268 19.4198C9.70513 19.7434 10.023 19.9187 10.347 19.9187C10.5367 19.9187 10.7287 19.8586 10.8986 19.733C11.3589 19.3929 11.4847 18.7013 11.1796 18.1883L8.22996 13.229C7.9884 12.8229 7.53805 12.6387 7.11867 12.7742L4.72754 13.5452C4.7349 13.652 4.74386 13.7581 4.75642 13.8627L4.7573 13.8702Z" fill="white"/>
<path d="M0.99987 19.5594H6.1832C6.56979 19.5594 6.92174 19.3109 7.08708 18.9214C7.25242 18.5318 7.20138 18.071 6.95606 17.7379L4.60844 14.5496C4.59988 14.3433 4.58668 14.1221 4.57429 13.89C4.49798 13.2557 4.52061 12.5776 4.58796 11.9118C4.54005 11.8626 4.49678 11.807 4.45982 11.7449L3.07328 9.41936C2.95154 9.21502 2.90834 8.9701 2.95186 8.72964C2.9593 8.68836 2.97001 8.64851 2.98217 8.60937L2.20179 8.60946C2.19052 8.64236 2.17932 8.67544 2.16884 8.70958C1.62451 10.5081 1.50748 11.679 1.71434 13.6597C1.83208 14.3348 2.18244 14.911 2.59678 15.3311L4.06907 17.3306H0.99987C0.447702 17.3306 0 17.8296 0 18.4451C0 19.0605 0.447702 19.5594 0.99987 19.5594Z" fill="white"/>
<path d="M7.73611 9.20627L7.30945 9.0259C7.28969 9.12701 7.25506 9.22624 7.20274 9.31879L6.66113 10.2776L7.43167 10.6034C7.50438 10.6342 7.58133 10.6498 7.65868 10.6498C7.6858 10.6498 7.713 10.6479 7.74011 10.644L9.95606 10.3273L9.95598 8.88914L7.73611 9.20627Z" fill="white"/>
<path d="M11.4133 9.39992C11.392 9.21465 11.3085 9.05559 11.1895 8.94432L11.1895 10.0367C11.3506 9.88573 11.4421 9.64991 11.4133 9.39992Z" fill="white"/>
<path d="M4.86387 6.56865H6.3644L6.58709 6.96531L7.69255 6.96522C7.80925 6.69936 7.87492 6.40068 7.87492 6.08471C7.87492 4.97675 7.06927 4.07867 6.07516 4.07867C5.08121 4.07867 4.27539 4.97675 4.27539 6.08471C4.27539 6.40077 4.34114 6.69963 4.45801 6.96549H4.86387V6.56865Z" fill="white"/>
<path d="M3.05667 8.43301C3.1185 8.31987 3.20153 8.22171 3.30351 8.14619C3.43918 8.04571 3.59668 7.99266 3.75889 7.99266C4.03582 7.99266 4.29258 8.14601 4.44568 8.40279L5.12736 9.54605L5.80863 8.34002C5.96037 8.07139 6.22129 7.911 6.50654 7.911C6.66156 7.911 6.81314 7.95976 6.9448 8.05213C7.08118 8.14789 7.18293 8.28144 7.24772 8.43265L8.25607 8.43256V8.63424L10.1144 8.63406V10.2144L11.0315 10.2142L11.0313 8.63415L17.3596 8.6337V6.93892L17.0458 6.93901V6.20596H16.8044L16.8045 6.93901L9.55926 6.93945L9.55918 6.65031H10.0538L10.0537 6.21986L8.09897 6.22004L8.09905 6.65031H8.56347L8.56371 6.93945L8.25599 6.93954V7.1413L6.49966 7.14148L6.27697 6.74473L5.02209 6.74482V7.14166L1.98145 7.14193L1.98153 8.43301H3.05667ZM9.57702 7.33754H16.8441V7.5163H9.57702V7.33754Z" fill="white"/>
<path d="M6.84644 8.22572C6.54744 8.01593 6.15229 8.11596 5.96399 8.44923L5.13122 9.92353L4.29213 8.51628C4.09656 8.18827 3.69941 8.09893 3.40497 8.31701C3.1106 8.535 3.03053 8.97776 3.22619 9.30585L4.61265 11.6313C4.73135 11.8304 4.93149 11.9498 5.14562 11.9498H5.15354C5.37063 11.9468 5.57156 11.8214 5.68715 11.6166L7.04697 9.20939C7.23527 8.87603 7.14544 8.43568 6.84644 8.22572Z" fill="white"/>
<path d="M18.7314 7.23795L20.2424 6.19642L20.0237 6.81686L21.157 6.46228L20.6599 7.12713L21.8528 7.26006L20.8588 7.68115L21.5546 8.47893L20.481 8.19086L21.0377 9.52046L19.2085 8.43462L19.2483 9.18808L17.8654 7.98045L17.8516 8.39031L19.462 10.4346L19.5962 9.17141L21.9098 10.6175L21.1138 8.95538L23.0656 9.21019L21.6113 7.92491L24 7.19364L21.5118 6.89443L22.9381 5.36539L20.7821 5.99697L21.157 4.86673L19.2284 6.0856L19.3477 5.15489L17.8964 7.06062L17.8904 7.23902L18.8308 6.51774L18.7314 7.23795Z" fill="white"/>
</g>
<defs>
<clipPath id="clip0_103_4441">
<rect width="24" height="20" fill="white"/>
</clipPath>
</defs>
</svg>
