<svg width="20" height="20" viewBox="0 0 20 20" fill="none" xmlns="http://www.w3.org/2000/svg">
<g opacity="0.6">
<path d="M8.63969 12.92V14.88C7.83969 15 7.15969 15.56 6.91969 16.36H6.47969C5.55969 16.36 4.83969 17.08 4.83969 18C4.83969 18.92 5.55969 19.64 6.47969 19.64H13.4397C14.3597 19.64 15.0797 18.92 15.0797 18C15.0797 17.08 14.3597 16.36 13.4397 16.36H12.9997C12.7597 15.6 12.1597 15.04 11.3997 14.92V12.96C14.3597 12.32 16.3597 9.68 16.3597 6.8C16.3197 3.2 13.4397 0.400002 9.99969 0.400002C6.51969 0.400002 3.67969 3.24 3.67969 6.72C3.67969 9.68 5.71969 12.24 8.63969 12.92ZM5.23969 3.92L5.83969 4.6L5.27969 6.32L4.47969 6.48C4.51969 5.52 4.79969 4.68 5.23969 3.92ZM7.51969 11.68C6.83969 11.32 6.19969 10.84 5.67969 10.2L6.15969 10L7.59969 11.08L7.51969 11.68ZM11.3597 11.36L12.8397 10.28L13.7997 10.72C13.1197 11.36 12.3597 11.8 11.4397 12.04L11.3597 11.36ZM9.99969 13.08C10.1997 13.08 10.3597 13.08 10.5597 13.04V14.84H9.43969V13.04C9.59969 13.04 9.79969 13.08 9.99969 13.08ZM14.2397 17.96C14.2397 18.4 13.8797 18.8 13.3997 18.8H6.43969C5.99969 18.8 5.59969 18.44 5.59969 17.96C5.59969 17.48 5.95969 17.12 6.43969 17.12H13.3997C13.8397 17.12 14.2397 17.52 14.2397 17.96ZM12.1197 16.32H7.75969C8.15969 15.52 8.99969 15.64 9.03969 15.64C10.2797 15.76 11.5597 15.28 12.1197 16.32ZM15.5197 6.72V7.08L14.3197 6.84L13.7597 5.12L14.7997 3.96C15.2797 4.84 15.5197 5.76 15.5197 6.72ZM9.91969 1.2C10.4797 1.2 11.0797 1.28 11.5997 1.44L10.9197 2.64H9.11969L8.43969 1.44C8.87969 1.28 9.39969 1.2 9.91969 1.2ZM7.63969 1.72L8.51969 3.2C8.59969 3.32 8.71969 3.4 8.87969 3.4H11.1597C11.3197 3.4 11.4397 3.32 11.5197 3.2L12.3997 1.72C13.1597 2.08 13.8397 2.6 14.3597 3.28L13.0397 4.72C12.9597 4.84 12.9197 4.96 12.9597 5.12L13.6797 7.28C13.7197 7.4 13.8397 7.52 13.9597 7.56L15.4397 7.88C15.2797 8.72 14.8797 9.48 14.3997 10.12L12.9597 9.48C12.8397 9.44 12.6797 9.44 12.5597 9.52L10.7197 10.84C10.5997 10.92 10.5597 11.08 10.5597 11.2L10.6797 12.16C10.0797 12.28 9.15969 12.24 8.31969 11.96L8.43969 10.84C8.43969 10.68 8.39969 10.56 8.27969 10.48L6.43969 9.2C6.31969 9.12 6.15969 9.08 6.03969 9.16L5.23969 9.52C4.83969 8.84 4.59969 8.08 4.51969 7.28L5.71969 7.04C5.87969 7 5.95969 6.92 5.99969 6.76L6.71969 4.6C6.75969 4.48 6.71969 4.32 6.63969 4.2L5.75969 3.24C6.23969 2.6 6.91969 2.08 7.63969 1.72Z" fill="white"/>
<path d="M8.51984 8.88001C8.59984 9.00001 8.71984 9.08001 8.87984 9.08001H11.1598C11.3198 9.08001 11.4398 9.00001 11.5198 8.88001L12.6798 6.92001C12.7598 6.80001 12.7598 6.64001 12.6798 6.52001L11.5598 4.56001C11.4798 4.44001 11.3598 4.36001 11.1998 4.36001H8.91984C8.75984 4.36001 8.63984 4.44001 8.55984 4.56001L7.39984 6.52001C7.31984 6.64001 7.31984 6.80001 7.39984 6.92001L8.51984 8.88001ZM9.11984 5.16001H10.9198L11.7998 6.72001L10.8798 8.28001H9.07984L8.19984 6.72001L9.11984 5.16001Z" fill="white"/>
</g>
</svg>
