<svg width="22" height="20" viewBox="0 0 22 20" fill="none" xmlns="http://www.w3.org/2000/svg">
<g opacity="0.6">
<path d="M6.99329 8.41359V8.41697L9.27449 8.41091C9.75612 8.41059 10.1466 8.83569 10.1466 9.36079C10.147 9.75422 9.92743 10.0919 9.61495 10.2364C9.51046 10.2847 9.39573 10.3114 9.27505 10.3113H9.27712C9.75875 10.311 10.1492 10.7361 10.1492 11.2612C10.1496 11.6546 9.93006 11.9924 9.61758 12.1368C9.51309 12.1851 9.39835 12.2118 9.27768 12.2117H9.27974C9.76138 12.2114 10.1518 12.6365 10.1518 13.1616C10.1522 13.555 9.93268 13.8928 9.62021 14.0372C9.51572 14.0855 9.40098 14.1122 9.2803 14.1121C9.76194 14.1118 10.1593 14.5338 10.1593 15.0589C10.1597 15.4524 9.94013 15.7901 9.62765 15.9345C9.52317 15.9828 9.40843 16.0096 9.28775 16.0095L5.68212 16.019C4.11534 16.019 2.38948 14.2089 2.33558 14.1331L0.814825 14.1324C0.603392 14.1323 0.431999 13.9455 0.431956 13.715L0.43187 13.401L0.430664 9.66773V9.17797C0.430578 8.94723 0.60223 8.76019 0.81392 8.76033L2.09535 8.76103C2.37717 8.37891 3.35606 6.57662 5.12217 6.3037L6.08342 6.10793C6.71315 5.97968 7.35498 6.25311 7.73794 6.81285L8.69862 8.21692" stroke="white" stroke-width="0.861057" stroke-miterlimit="10" stroke-linecap="round" stroke-linejoin="round"/>
<path d="M9.27706 10.3113H8.60156" stroke="white" stroke-width="0.861057" stroke-miterlimit="10" stroke-linecap="round" stroke-linejoin="round"/>
<path d="M9.27706 12.2084H8.60156" stroke="white" stroke-width="0.861057" stroke-miterlimit="10" stroke-linecap="round" stroke-linejoin="round"/>
<path d="M9.27706 14.1106H8.60156" stroke="white" stroke-width="0.861057" stroke-miterlimit="10" stroke-linecap="round" stroke-linejoin="round"/>
<path d="M21.5696 9.39162L21.5697 9.17792C21.5698 8.94719 21.3981 8.76014 21.1865 8.76028L19.905 8.76098C19.6232 8.37887 18.6443 6.57658 16.8782 6.30365L15.917 6.10788C15.2872 5.97963 14.6454 6.25307 14.2624 6.8128L13.3018 8.21688" stroke="white" stroke-width="0.861057" stroke-miterlimit="10" stroke-linecap="round" stroke-linejoin="round"/>
<path d="M15.0068 8.41359V8.41697L12.7256 8.41092C12.244 8.41059 11.8535 8.83569 11.8535 9.3608C11.8531 9.75422 12.0727 10.092 12.3851 10.2364C12.4896 10.2847 12.6044 10.3114 12.725 10.3113H12.723C12.2413 10.311 11.8509 10.7361 11.8509 11.2612C11.8505 11.6546 12.07 11.9924 12.3825 12.1368C12.487 12.1851 12.6017 12.2118 12.7224 12.2117H12.7203C12.2387 12.2114 11.8483 12.6365 11.8483 13.1616C11.8479 13.555 12.0674 13.8928 12.3799 14.0372C12.4844 14.0855 12.5991 14.1122 12.7198 14.1122C12.2382 14.1118 11.8408 14.5338 11.8408 15.0589C11.8404 15.4524 12.06 15.7901 12.3724 15.9345C12.4769 15.9828 12.5917 16.0096 12.7123 16.0095L16.318 16.019C17.8239 16.019 19.6106 14.2089 19.6645 14.1331L21.1853 14.1324C21.3967 14.1323 21.5681 13.9455 21.5681 13.715V13.6675" stroke="white" stroke-width="0.861057" stroke-miterlimit="10" stroke-linecap="round" stroke-linejoin="round"/>
<path d="M12.7227 10.3113H13.3982" stroke="white" stroke-width="0.861057" stroke-miterlimit="10" stroke-linecap="round" stroke-linejoin="round"/>
<path d="M12.7227 12.2084H13.3982" stroke="white" stroke-width="0.861057" stroke-miterlimit="10" stroke-linecap="round" stroke-linejoin="round"/>
<path d="M12.7227 14.1106H13.3982" stroke="white" stroke-width="0.861057" stroke-miterlimit="10" stroke-linecap="round" stroke-linejoin="round"/>
<path d="M11 3.97899V4.55444" stroke="white" stroke-width="0.861057" stroke-miterlimit="10" stroke-linecap="round" stroke-linejoin="round"/>
<path d="M8.79785 4.69452L9.06185 5.19288" stroke="white" stroke-width="0.861057" stroke-miterlimit="10" stroke-linecap="round" stroke-linejoin="round"/>
<path d="M13.2025 4.69452L12.9385 5.19288" stroke="white" stroke-width="0.861057" stroke-miterlimit="10" stroke-linecap="round" stroke-linejoin="round"/>
<ellipse cx="21.5682" cy="11.5334" rx="0.430528" ry="0.46926" fill="white"/>
</g>
</svg>
