<svg width="20" height="20" viewBox="0 0 20 20" fill="none" xmlns="http://www.w3.org/2000/svg">
<g opacity="0.6">
<path d="M10.6799 13.8C10.0799 15.04 10.1599 16.52 10.8799 17.72C12.6799 20.6 17.1599 20.2 18.1599 16.68C18.9599 14 16.8399 11.56 14.2799 11.56C12.7199 11.52 11.3599 12.4 10.6799 13.8ZM11.3599 14.12C12.0399 12.72 13.6399 12 15.1599 12.4C12.5199 12.92 11.1199 15.76 12.3199 18.16C11.0799 17.2 10.6399 15.52 11.3599 14.12ZM17.3599 16.64C16.7999 18.2 15.2799 19.04 13.7599 18.76C11.3599 16.6 13.3199 12.56 16.5199 13.16C17.3999 13.96 17.8399 15.36 17.3599 16.64Z" fill="white"/>
<path d="M5.67993 11.76C5.51993 11.72 5.35993 11.8 5.31993 11.92C4.91993 12.56 6.67993 9.72 1.75993 17.68C1.63993 17.88 1.71993 18.08 1.87993 18.2L3.59993 19.32C3.75993 19.44 3.99993 19.36 4.11993 19.2C5.71993 16.64 6.15993 15.92 7.67993 13.44C7.75993 13.32 7.75993 13.16 7.67993 13.04L9.63993 11.68C11.7999 11.84 13.8399 10.56 14.9599 8.76C16.7199 5.92 15.9999 2.56 13.6799 1.12C11.1999 -0.399998 7.91993 0.720001 6.27993 3.36C5.11993 5.2 4.91993 7.6 5.99993 9.4L5.67993 11.76ZM6.07993 6.52L6.95993 7.08L6.27993 8.16C6.11993 7.64 6.07993 7.08 6.07993 6.52ZM11.7199 6.84L10.6799 8.48L8.03993 6.8L9.07993 5.16L11.7199 6.84ZM9.47993 4.52L10.5999 2.68L13.2399 4.32L12.1199 6.16L9.47993 4.52ZM10.2799 9.12L9.19993 10.84C8.19993 10.64 7.27993 10.04 6.67993 9L7.63993 7.48L10.2799 9.12ZM5.75993 12.68L6.83993 13.36L6.35993 14.12L5.27993 13.44L5.75993 12.68ZM5.47993 15.56L4.39993 14.88L4.91993 14.08L5.99993 14.76L5.47993 15.56ZM4.55993 17.04L3.47993 16.36L3.99993 15.56L5.07993 16.24L4.55993 17.04ZM3.67993 18.44L2.59993 17.76L3.07993 17L4.15993 17.68L3.67993 18.44ZM6.99993 12.56C6.95993 12.52 6.35993 12.16 6.39993 12.2L6.67993 10.28C7.23993 10.84 7.87993 11.24 8.59993 11.48L6.99993 12.56ZM10.0799 10.92L10.9599 9.52L12.2399 10.32C11.5599 10.68 10.7999 10.88 10.0799 10.92ZM12.9199 9.88L11.3199 8.88L12.3599 7.24L14.2799 8.44C13.9199 8.96 13.4399 9.48 12.9199 9.88ZM14.6399 7.72L12.7599 6.56L13.8799 4.72L15.1599 5.52C15.1599 6.28 14.9599 7.04 14.6399 7.72ZM15.1199 4.6L14.3199 4.08L14.7599 3.36C15.0399 4 15.0799 4.48 15.1199 4.6ZM14.2799 2.64L13.6399 3.68L10.9999 2.04L11.5199 1.2C12.1599 1.24 12.7599 1.44 13.2799 1.76C13.6799 2 13.9999 2.28 14.2799 2.64ZM10.3599 1.64L9.91993 1.36C10.1599 1.28 10.3599 1.24 10.5999 1.2L10.3599 1.64ZM9.03993 1.76L9.91993 2.32L8.79993 4.12L7.31993 3.2C7.79993 2.6 8.39993 2.08 9.03993 1.76ZM6.87993 3.84L8.39993 4.8L7.39993 6.4L6.19993 5.64C6.31993 5.04 6.55993 4.4 6.87993 3.84Z" fill="white"/>
</g>
</svg>
