<svg width="24" height="24" viewBox="0 0 24 24" fill="none" xmlns="http://www.w3.org/2000/svg">
<mask id="mask0_1_304" style="mask-type:luminance" maskUnits="userSpaceOnUse" x="1" y="1" width="22" height="22">
<path fill-rule="evenodd" clip-rule="evenodd" d="M18.8463 7.50311H20.6147C20.2815 6.49885 19.8587 5.52653 19.3516 4.59785L18.7074 3.24627L18.3663 2.55153L17.899 1.56627C17.8821 1.51574 17.8484 1.49469 17.7979 1.50311H16.5347C16.5011 1.49469 16.4716 1.51153 16.4463 1.55364L15.3474 3.89048L14.7158 5.24206L14.6653 5.30522C14.6003 5.08712 14.4871 4.88644 14.3341 4.71807C14.181 4.54969 13.992 4.41794 13.7811 4.33258V4.29469L13.8063 4.28206C14 4.15574 14.1558 3.98732 14.2737 3.77679C14.4084 3.50732 14.459 3.221 14.4253 2.91785C14.4145 2.732 14.3627 2.55083 14.2737 2.38732C14.0887 2.06555 13.792 1.82284 13.44 1.70522C13.0462 1.56663 12.6322 1.49408 12.2147 1.49048H9.53685C9.49474 1.49048 9.47369 1.51153 9.47369 1.55364V7.37679C9.47369 7.47785 9.47369 7.49048 9.57474 7.49048H10.5347L12.4421 7.47785C12.8126 7.47785 13.1663 7.41048 13.5032 7.27574L13.6295 7.22521L13.7684 7.17469L13.7305 7.26311L13.6926 7.32627C13.6042 7.49048 13.6547 7.49048 13.8063 7.49048H15.5368C15.5621 7.49048 15.5832 7.47364 15.6 7.43995L16.0674 6.35364C16.0842 6.31995 16.1095 6.30311 16.1432 6.30311H18.139C18.1811 6.30311 18.2063 6.32416 18.2147 6.36627L18.4421 6.87153L18.6695 7.37679C18.7032 7.46943 18.7621 7.51153 18.8463 7.50311ZM12.0632 6.06311H11.3053C11.2632 6.07153 11.2421 6.05048 11.2421 5.99995V5.26732C11.2337 5.22522 11.2505 5.20416 11.2926 5.20416H12.24C12.4084 5.20416 12.5642 5.24206 12.7074 5.31785C13.0232 5.44416 12.96 5.79785 12.7705 5.92416C12.6442 6.00837 12.5179 6.05048 12.3916 6.05048L12.0632 6.06311ZM12.0253 3.75153H11.3053C11.2632 3.75153 11.2421 3.73048 11.2421 3.68837V3.03153C11.2421 2.98943 11.2632 2.96837 11.3053 2.96837H12.0379C12.1726 2.97679 12.3032 3.00627 12.4295 3.05679C12.5642 3.0989 12.6358 3.19574 12.6442 3.34732C12.6442 3.49048 12.5768 3.59574 12.4421 3.66311C12.3092 3.71598 12.1682 3.74588 12.0253 3.75153ZM17.1284 3.89048L17.5453 4.87574H16.699L17.1284 3.89048ZM1.16211 17.1789V17.2294C3.88211 17.2294 6.58948 17.2421 9.28421 17.2673L9.29685 17.2168L9.33474 17.0905L9.56211 16.0421L9.78948 14.981C9.82737 14.8168 9.82737 14.8168 9.66316 14.8168H6.30316V14.7789L6.39158 14.7284L7.90737 13.9705L8.50106 13.68L9.68843 13.0736C10.0926 12.88 10.3453 12.5642 10.4463 12.1263L10.6484 11.1157L10.7747 10.5473L10.9011 9.87785C10.939 9.461 10.699 9.11995 10.32 9.03153L10.0421 9.0189H3.82737L3.54948 9.03153C3.3218 9.08272 3.11275 9.19598 2.94553 9.35875C2.7783 9.52151 2.65943 9.72743 2.60211 9.95364C2.47579 10.3494 2.37053 10.7536 2.28632 11.1663L2.16 11.6336C2.13474 11.7347 2.17264 11.7768 2.27369 11.76H4.67369C4.74948 11.76 4.8 11.7263 4.82527 11.6589L4.95158 11.3557L5.02737 11.1536C5.04421 11.0694 5.09474 11.0315 5.17895 11.04H8.08421L8.07158 11.0778V11.1031C8.00421 11.3052 7.93263 11.5115 7.85685 11.7221C7.84842 11.7557 7.81895 11.7852 7.76842 11.8105L7.41474 12.0126L7.07369 12.2021L4.45895 13.6547C3.51579 14.16 2.57685 14.6821 1.64211 15.221C1.58316 15.2463 1.54948 15.2884 1.54106 15.3473L1.16211 17.0147V17.1789ZM7.28842 4.90101H7.27579L7.25053 4.87574L7.2379 4.86311L7.17474 4.77469C7.17474 4.74943 7.1579 4.72416 7.12421 4.6989L5.78527 2.69048L5.40632 2.12206L5.02737 1.56627C5.01053 1.53258 4.97685 1.51574 4.92632 1.51574H2.84211V7.47785C2.85895 7.49469 2.90948 7.50311 2.99369 7.50311H4.50948C4.5979 7.50311 4.61053 7.50311 4.61053 7.38943V4.04206L4.66106 4.06732L4.85053 4.37048L5.45685 5.25469L6.92211 7.43995C6.95579 7.49048 6.9979 7.51574 7.04842 7.51574H8.98106C9.06948 7.51574 9.06948 7.51574 9.06948 7.41469V1.60416C9.08632 1.53679 9.05685 1.51153 8.98106 1.52837H7.30106V4.90101M10.1811 17.2547L10.1684 17.1789V17.0905L11.0526 13.1621L11.8232 9.68837L11.8737 9.4989L11.9368 9.14522C11.9621 9.04416 12.0253 9.00206 12.1263 9.0189H14.8168C14.9432 9.0189 15.0147 9.02732 15.0316 9.04416C15.04 9.06943 15.0316 9.13679 15.0063 9.24627L14.7158 10.3957L14.4253 11.5578L14.3874 11.7221L14.4632 11.6715L14.5137 11.6336L17.1663 9.06943C17.21 9.03663 17.2632 9.0189 17.3179 9.0189H20.5516L20.6653 9.04416L20.6526 9.08206L20.6021 9.14522L19.0484 10.6863L18.3158 11.4189L16.9516 12.7578H15.4105C14.1726 12.7578 13.1621 13.7684 13.1621 15.0189V17.2673L10.1811 17.2547ZM13.8947 14.9936C13.8947 14.1726 14.5768 13.5031 15.4105 13.5031H21.3979C22.2316 13.5031 22.9011 14.1726 22.9011 15.0063V20.9936C22.9011 21.8273 22.2316 22.5094 21.3979 22.5094H15.4105C14.5895 22.5094 13.9074 21.8273 13.9074 20.9936L13.8947 14.9936ZM15.4105 21.0063V20.1978L16.9768 17.2926C17.0611 17.1578 17.1032 17.0315 17.1032 16.9136L17.1158 16.2821L17.0779 16.0673C17.0499 16.0065 17.0063 15.9542 16.9516 15.9157C16.8775 15.8655 16.788 15.8431 16.699 15.8526C16.5642 15.8526 16.459 15.8905 16.3832 15.9663C16.3074 16.0421 16.2695 16.1473 16.2695 16.2821V16.7621H15.3979V16.2947C15.3969 16.1254 15.4299 15.9577 15.495 15.8015C15.5601 15.6452 15.656 15.5037 15.7768 15.3852C15.8947 15.2589 16.0337 15.1663 16.1937 15.1073C16.3524 15.0349 16.5245 14.9962 16.699 14.9936C16.8909 14.9876 17.0816 15.0255 17.2567 15.1043C17.4318 15.1831 17.5867 15.3008 17.7095 15.4484C17.8105 15.5915 17.8821 15.7515 17.9242 15.9284C17.9663 16.1052 17.9916 16.2947 18 16.4968L17.9621 17.1284L17.8737 17.4063L17.7095 17.7347L16.4211 20.1473H18V21.0063H15.4105ZM20.1095 21.0063V20.1221H18.3663V19.3136L19.6295 15.0442H20.5516L19.2379 19.3136H20.1095V17.621H20.9811V19.3136H21.3979V20.1094H20.9811V20.9936L20.1095 21.0063Z" fill="white"/>
</mask>
<g mask="url(#mask0_1_304)">
<path fill-rule="evenodd" clip-rule="evenodd" d="M18.8463 7.50311H20.6147C20.2815 6.49885 19.8587 5.52653 19.3516 4.59785L18.7074 3.24627L18.3663 2.55153L17.899 1.56627C17.8821 1.51574 17.8484 1.49469 17.7979 1.50311H16.5347C16.5011 1.49469 16.4716 1.51153 16.4463 1.55364L15.3474 3.89048L14.7158 5.24206L14.6653 5.30522C14.6003 5.08712 14.4871 4.88644 14.3341 4.71807C14.181 4.54969 13.992 4.41794 13.7811 4.33258V4.29469L13.8063 4.28206C14 4.15574 14.1558 3.98732 14.2737 3.77679C14.4084 3.50732 14.459 3.221 14.4253 2.91785C14.4145 2.732 14.3627 2.55083 14.2737 2.38732C14.0887 2.06555 13.792 1.82284 13.44 1.70522C13.0462 1.56663 12.6322 1.49408 12.2147 1.49048H9.53685C9.49474 1.49048 9.47369 1.51153 9.47369 1.55364V7.37679C9.47369 7.47785 9.47369 7.49048 9.57474 7.49048H10.5347L12.4421 7.47785C12.8126 7.47785 13.1663 7.41048 13.5032 7.27574L13.6295 7.22521L13.7684 7.17469L13.7305 7.26311L13.6926 7.32627C13.6042 7.49048 13.6547 7.49048 13.8063 7.49048H15.5368C15.5621 7.49048 15.5832 7.47364 15.6 7.43995L16.0674 6.35364C16.0842 6.31995 16.1095 6.30311 16.1432 6.30311H18.139C18.1811 6.30311 18.2063 6.32416 18.2147 6.36627L18.4421 6.87153L18.6695 7.37679C18.7032 7.46943 18.7621 7.51153 18.8463 7.50311ZM12.0632 6.06311H11.3053C11.2632 6.07153 11.2421 6.05048 11.2421 5.99995V5.26732C11.2337 5.22522 11.2505 5.20416 11.2926 5.20416H12.24C12.4084 5.20416 12.5642 5.24206 12.7074 5.31785C13.0232 5.44416 12.96 5.79785 12.7705 5.92416C12.6442 6.00837 12.5179 6.05048 12.3916 6.05048L12.0632 6.06311ZM12.0253 3.75153H11.3053C11.2632 3.75153 11.2421 3.73048 11.2421 3.68837V3.03153C11.2421 2.98943 11.2632 2.96837 11.3053 2.96837H12.0379C12.1726 2.97679 12.3032 3.00627 12.4295 3.05679C12.5642 3.0989 12.6358 3.19574 12.6442 3.34732C12.6442 3.49048 12.5768 3.59574 12.4421 3.66311C12.3092 3.71598 12.1682 3.74588 12.0253 3.75153ZM17.1284 3.89048L17.5453 4.87574H16.699L17.1284 3.89048ZM1.16211 17.1789V17.2294C3.88211 17.2294 6.58948 17.2421 9.28421 17.2673L9.29685 17.2168L9.33474 17.0905L9.56211 16.0421L9.78948 14.981C9.82737 14.8168 9.82737 14.8168 9.66316 14.8168H6.30316V14.7789L6.39158 14.7284L7.90737 13.9705L8.50106 13.68L9.68843 13.0736C10.0926 12.88 10.3453 12.5642 10.4463 12.1263L10.6484 11.1157L10.7747 10.5473L10.9011 9.87785C10.939 9.461 10.699 9.11995 10.32 9.03153L10.0421 9.0189H3.82737L3.54948 9.03153C3.3218 9.08272 3.11275 9.19598 2.94553 9.35875C2.7783 9.52151 2.65943 9.72743 2.60211 9.95364C2.47579 10.3494 2.37053 10.7536 2.28632 11.1663L2.16 11.6336C2.13474 11.7347 2.17264 11.7768 2.27369 11.76H4.67369C4.74948 11.76 4.8 11.7263 4.82527 11.6589L4.95158 11.3557L5.02737 11.1536C5.04421 11.0694 5.09474 11.0315 5.17895 11.04H8.08421L8.07158 11.0778V11.1031C8.00421 11.3052 7.93263 11.5115 7.85685 11.7221C7.84842 11.7557 7.81895 11.7852 7.76842 11.8105L7.41474 12.0126L7.07369 12.2021L4.45895 13.6547C3.51579 14.16 2.57685 14.6821 1.64211 15.221C1.58316 15.2463 1.54948 15.2884 1.54106 15.3473L1.16211 17.0147V17.1789ZM7.28842 4.90101H7.27579L7.25053 4.87574L7.2379 4.86311L7.17474 4.77469C7.17474 4.74943 7.1579 4.72416 7.12421 4.6989L5.78527 2.69048L5.40632 2.12206L5.02737 1.56627C5.01053 1.53258 4.97685 1.51574 4.92632 1.51574H2.84211V7.47785C2.85895 7.49469 2.90948 7.50311 2.99369 7.50311H4.50948C4.5979 7.50311 4.61053 7.50311 4.61053 7.38943V4.04206L4.66106 4.06732L4.85053 4.37048L5.45685 5.25469L6.92211 7.43995C6.95579 7.49048 6.9979 7.51574 7.04842 7.51574H8.98106C9.06948 7.51574 9.06948 7.51574 9.06948 7.41469V1.60416C9.08632 1.53679 9.05685 1.51153 8.98106 1.52837H7.30106V4.90101M10.1811 17.2547L10.1684 17.1789V17.0905L11.0526 13.1621L11.8232 9.68837L11.8737 9.4989L11.9368 9.14522C11.9621 9.04416 12.0253 9.00206 12.1263 9.0189H14.8168C14.9432 9.0189 15.0147 9.02732 15.0316 9.04416C15.04 9.06943 15.0316 9.13679 15.0063 9.24627L14.7158 10.3957L14.4253 11.5578L14.3874 11.7221L14.4632 11.6715L14.5137 11.6336L17.1663 9.06943C17.21 9.03663 17.2632 9.0189 17.3179 9.0189H20.5516L20.6653 9.04416L20.6526 9.08206L20.6021 9.14522L19.0484 10.6863L18.3158 11.4189L16.9516 12.7578H15.4105C14.1726 12.7578 13.1621 13.7684 13.1621 15.0189V17.2673L10.1811 17.2547ZM13.8947 14.9936C13.8947 14.1726 14.5768 13.5031 15.4105 13.5031H21.3979C22.2316 13.5031 22.9011 14.1726 22.9011 15.0063V20.9936C22.9011 21.8273 22.2316 22.5094 21.3979 22.5094H15.4105C14.5895 22.5094 13.9074 21.8273 13.9074 20.9936L13.8947 14.9936ZM15.4105 21.0063V20.1978L16.9768 17.2926C17.0611 17.1578 17.1032 17.0315 17.1032 16.9136L17.1158 16.2821L17.0779 16.0673C17.0499 16.0065 17.0063 15.9542 16.9516 15.9157C16.8775 15.8655 16.788 15.8431 16.699 15.8526C16.5642 15.8526 16.459 15.8905 16.3832 15.9663C16.3074 16.0421 16.2695 16.1473 16.2695 16.2821V16.7621H15.3979V16.2947C15.3969 16.1254 15.4299 15.9577 15.495 15.8015C15.5601 15.6452 15.656 15.5037 15.7768 15.3852C15.8947 15.2589 16.0337 15.1663 16.1937 15.1073C16.3524 15.0349 16.5245 14.9962 16.699 14.9936C16.8909 14.9876 17.0816 15.0255 17.2567 15.1043C17.4318 15.1831 17.5867 15.3008 17.7095 15.4484C17.8105 15.5915 17.8821 15.7515 17.9242 15.9284C17.9663 16.1052 17.9916 16.2947 18 16.4968L17.9621 17.1284L17.8737 17.4063L17.7095 17.7347L16.4211 20.1473H18V21.0063H15.4105ZM20.1095 21.0063V20.1221H18.3663V19.3136L19.6295 15.0442H20.5516L19.2379 19.3136H20.1095V17.621H20.9811V19.3136H21.3979V20.1094H20.9811V20.9936L20.1095 21.0063Z" fill="white"/>
</g>
</svg>
