<svg width="175" height="131" viewBox="0 0 175 131" fill="none" xmlns="http://www.w3.org/2000/svg">
<g opacity="0.2">
<path d="M87.2365 81.181V102.476L81.0098 97.6195L87.2365 81.181Z" fill="#151C19"/>
<path d="M79.0176 79.8111L87.2368 81.1809L81.01 97.6195L79.0176 79.8111Z" fill="#151D1B"/>
<path d="M71.5449 85.6018L79.017 79.8111L81.0094 97.6195L71.5449 85.6018Z" fill="#151F21"/>
<path d="M71.9185 92.14L71.5449 85.6018L81.0094 97.6195L71.9185 92.14Z" fill="#152F3E"/>
<path d="M87.2368 59.6364V81.1809L79.0176 79.8111L87.2368 59.6364Z" fill="#26EBFF"/>
<path d="M87.2368 55.2156V59.6365L79.0176 79.8111L87.2368 55.2156Z" fill="#27EBFF"/>
<path d="M85.3691 52.7247L87.237 55.2156V10.5077L85.3691 52.7247Z" fill="#045072"/>
<path d="M85.3691 24.6424V52.7247L87.237 10.5077L85.3691 24.6424Z" fill="#0171DF"/>
<path d="M87.2365 108.454V102.476L81.0098 97.6195L87.2365 108.454Z" fill="#0077AE"/>
<path d="M87.2357 113.248V108.454L81.3203 112.065L87.2357 113.248Z" fill="#153F36"/>
<path d="M87.2357 113.248L82.6278 114.307L81.3203 112.065L87.2357 113.248Z" fill="#152122"/>
<path d="M87.2368 124.581V113.248L82.6289 114.307L87.2368 124.581Z" fill="#2AFFFF"/>
<path d="M73.1016 117.109L79.0171 124.021L82.6284 114.307L73.1016 117.109Z" fill="#3FF0FF"/>
<path d="M87.2368 124.581L79.0176 124.021L82.6288 114.307L87.2368 124.581Z" fill="#2DECFF"/>
<path d="M58.127 111.271L64.0736 116.642L87.237 108.454L58.127 111.271Z" fill="#4CD9FF"/>
<path d="M60.6487 108.454L58.127 111.271L87.237 108.454H60.6487Z" fill="#4CE5FF"/>
<path d="M81.01 97.6195L60.6484 108.454H87.2368L81.01 97.6195Z" fill="#3BFEFF"/>
<path d="M55.6055 96.1873L60.6491 108.454L81.0106 97.6195L55.6055 96.1873Z" fill="#3FC2FF"/>
<path d="M71.9197 92.14L81.0106 97.6195L55.6055 96.1873L71.9197 92.14Z" fill="#3DEDFF"/>
<path d="M59.3416 78.877L55.6055 96.1873L71.9197 92.14L59.3416 78.877Z" fill="#2FDCFF"/>
<path d="M71.5444 85.6018L59.3398 78.877L71.9179 92.14L71.5444 85.6018Z" fill="#2CC4FF"/>
<path d="M79.0165 79.8111L59.3398 78.877L71.5444 85.6018L79.0165 79.8111Z" fill="#26DEFF"/>
<path d="M67.4347 67.9803L59.3398 78.877L79.0165 79.8111L67.4347 67.9803Z" fill="#27D8FF"/>
<path d="M68.3071 63.0612L67.4355 67.9803L79.0173 79.8111L68.3071 63.0612Z" fill="#23A6FF"/>
<path d="M85.3689 52.7247L87.2368 55.2156L79.0176 79.8111L85.3689 52.7247Z" fill="#28F3FF"/>
<path d="M58.1274 111.271L60.6491 108.454L55.6055 96.1873L58.1274 111.271Z" fill="#151E1A"/>
<path d="M53.0508 96.3896L58.1255 111.271L55.6036 96.1873L53.0508 96.3896Z" fill="#151E1A"/>
<path d="M58.1255 77.1957L53.0508 96.3896L55.6036 96.1873L58.1255 77.1957Z" fill="#15201C"/>
<path d="M59.3416 78.877L58.1274 77.1957L55.6055 96.1873L59.3416 78.877Z" fill="#151E1A"/>
<path d="M65.0076 67.2018L58.127 77.1957L59.3412 78.877L65.0076 67.2018Z" fill="#151E1A"/>
<path d="M67.4347 67.9803L65.0062 67.2018L59.3398 78.877L67.4347 67.9803Z" fill="#171919"/>
<path d="M66.7825 56.9745L68.3079 63.0612L65.0078 67.2018L66.7825 56.9745Z" fill="#15362F"/>
<path d="M67.4363 67.9803L68.3079 63.0612L65.0078 67.2018L67.4363 67.9803Z" fill="#15322D"/>
<path d="M67.4351 48.7552L68.3067 63.0612L66.7812 56.9746L67.4351 48.7552Z" fill="#153A3E"/>
<path d="M65.0078 52.7247L66.7825 56.9746L67.4363 48.7552L65.0078 52.7247Z" fill="#151E1A"/>
<path d="M63.7617 45.1127L67.4355 48.7552L65.007 52.7247L63.7617 45.1127Z" fill="#171817"/>
<path d="M61.9258 53.9392L63.7626 51.7441L65.0079 52.7247L61.9258 53.9392Z" fill="#171917"/>
<path d="M63.7617 45.1127V51.7441L65.007 52.7247L63.7617 45.1127Z" fill="#181818"/>
<path d="M55.6055 53.9391H61.9259L61.5678 55.2156L55.6055 53.9391Z" fill="#151D1A"/>
<path d="M65.0066 52.7247L61.5664 55.2156L61.9245 53.9391L65.0066 52.7247Z" fill="#152021"/>
<path d="M52.3516 55.6204L61.5672 55.2156L55.6049 53.9391L52.3516 55.6204Z" fill="#00243D"/>
<path d="M46.9336 50.9034L52.3508 55.6204L55.6041 53.9392L46.9336 50.9034Z" fill="#004E9F"/>
<path d="M44.459 46.3269L46.934 50.9034L55.6045 53.9392L44.459 46.3269Z" fill="#043159"/>
<path d="M50.0317 43.4315L44.459 46.3269L50.3898 49.1289L50.0317 43.4315Z" fill="#171919"/>
<path d="M55.6045 53.9392L50.3898 49.1289L44.459 46.3269L55.6045 53.9392Z" fill="#15393D"/>
<path d="M41.0039 46.2802L44.4598 46.3269L50.0325 43.4315L41.0039 46.2802Z" fill="#152678"/>
<path d="M53.7051 44.5056L54.9193 48.0546L57.8615 48.7552L53.7051 44.5056Z" fill="#151C19"/>
<path d="M57.6279 44.5056L57.8615 48.7552L53.7051 44.5056H57.6279Z" fill="#151D1A"/>
<path d="M50.0312 43.4315L53.705 44.5056H57.6279L50.0312 43.4315Z" fill="#FF8C15"/>
<path d="M54.5925 42.2639L50.0312 43.4315L57.6279 44.5056L54.5925 42.2639Z" fill="#021F38"/>
<path d="M61.2719 43.3847L54.5938 42.2639L57.6292 44.5056L61.2719 43.3847Z" fill="#151C19"/>
<path d="M63.7622 45.1127L61.2716 43.3848L57.6289 44.5056L63.7622 45.1127Z" fill="#043663"/>
<path d="M62.2988 46.7237L63.7621 51.7441V45.1127L62.2988 46.7237Z" fill="#043159"/>
<path d="M57.6289 44.5056L62.299 46.7237L63.7622 45.1127L57.6289 44.5056Z" fill="#151F1A"/>
<path d="M50.3893 49.1289L53.705 44.5056L50.0312 43.4315L50.3893 49.1289Z" fill="#FFE117"/>
<path d="M54.9186 48.0546L53.7044 44.5056L50.3887 49.1289L54.9186 48.0546Z" fill="#FFC715"/>
<path d="M55.6033 53.9391L54.9186 48.0546L50.3887 49.1289L55.6033 53.9391Z" fill="#FFE117"/>
<path d="M62.299 46.7237L57.8625 48.7552L57.6289 44.5056L62.299 46.7237Z" fill="#FFA715"/>
<path d="M63.7611 51.7441L57.8613 48.7552L62.2978 46.7237L63.7611 51.7441Z" fill="#FFE117"/>
<path d="M61.9243 53.9392L57.8613 48.7552L63.7611 51.7441L61.9243 53.9392Z" fill="#FFC715"/>
<path d="M55.6055 53.9392L57.8629 48.7552L61.9259 53.9392H55.6055Z" fill="#FFE117"/>
<path d="M54.9199 48.0546L57.8621 48.7552L55.6047 53.9391L54.9199 48.0546Z" fill="#FFC715"/>
<path d="M64.5396 55.2156H61.5664L65.0066 52.7247L64.5396 55.2156Z" fill="#15221C"/>
<path d="M66.7826 56.9746L64.541 55.2156L65.008 52.7247L66.7826 56.9746Z" fill="#01A4FE"/>
<path d="M58.7652 57.7684L52.3516 55.6204L61.5672 55.2156L58.7652 57.7684Z" fill="#043159"/>
<path d="M64.5409 55.2156L58.7656 57.7684L61.5676 55.2156H64.5409Z" fill="#15AFA7"/>
<path d="M65.008 67.2018L64.541 55.2156L66.7826 56.9746L65.008 67.2018Z" fill="#2BCAFF"/>
<path d="M58.7656 57.7684L65.0079 67.2018L64.5409 55.2156L58.7656 57.7684Z" fill="#56D6FF"/>
<path d="M58.127 63.7927L58.7653 57.7684L65.0076 67.2018L58.127 63.7927Z" fill="#4BD5FF"/>
<path d="M52.6543 58.3755L58.7642 57.7684L58.1258 63.7927L52.6543 58.3755Z" fill="#28FAFF"/>
<path d="M52.3516 55.6204L52.6553 58.3755L58.7652 57.7684L52.3516 55.6204Z" fill="#67AAEC"/>
<path d="M44.0527 53.0984L52.6536 58.3755L52.3499 55.6204L44.0527 53.0984Z" fill="#15BBD8"/>
<path d="M44.4577 46.3269L44.0527 53.0985L46.9327 50.9034L44.4577 46.3269Z" fill="#1590C2"/>
<path d="M52.3499 55.6204L46.9327 50.9034L44.0527 53.0985L52.3499 55.6204Z" fill="#15C9E1"/>
<path d="M41.0039 46.2802L44.0548 53.0985L44.4598 46.3269L41.0039 46.2802Z" fill="#30EBFF"/>
<path d="M37.9531 45.568L41.0042 46.2802L50.0328 43.4315L37.9531 45.568Z" fill="#00081B"/>
<path d="M51.2703 40.5204L37.9531 45.568L50.0328 43.4315L51.2703 40.5204Z" fill="#0061BC"/>
<path d="M54.5925 42.2639L51.2688 40.5204L50.0312 43.4315L54.5925 42.2639Z" fill="#043663"/>
<path d="M61.2713 43.3847L51.2695 40.5204L54.5932 42.2639L61.2713 43.3847Z" fill="#021F38"/>
<path d="M34.1211 59.9476L41.0019 46.2802L44.0527 53.0985L34.1211 59.9476Z" fill="#004E9F"/>
<path d="M25.5293 65.5206L37.9518 45.568L41.0028 46.2802L25.5293 65.5206Z" fill="#28DCFF"/>
<path d="M34.122 59.9476L25.5293 65.5206L41.0028 46.2802L34.122 59.9476Z" fill="#047BAF"/>
<path d="M30.7209 69.2254L34.122 59.9476L25.5293 65.5205L30.7209 69.2254Z" fill="#26CFFF"/>
<path d="M52.6536 58.3755L44.0527 53.0984L34.1211 59.9476L52.6536 58.3755Z" fill="#2AECFF"/>
<path d="M58.127 77.1958V63.7926L65.0076 67.2018L58.127 77.1958Z" fill="#27F1FF"/>
<path d="M52.3125 64.68L58.1267 63.7926L52.6551 58.3755L52.3125 64.68Z" fill="#24F4FF"/>
<path d="M58.1267 77.1958L52.3125 64.68L58.1267 63.7926V77.1958Z" fill="#29B7FF"/>
<path d="M34.1211 59.9476L52.6536 58.3755L52.311 64.68L34.1211 59.9476Z" fill="#2ACDFF"/>
<path d="M41.2196 65.5205L34.1211 59.9476L52.311 64.68L41.2196 65.5205Z" fill="#2DC0FF"/>
<path d="M58.1262 77.1958L41.2207 65.5206L52.3121 64.6801L58.1262 77.1958Z" fill="#2AD1FF"/>
<path d="M41.0019 71.6384L41.2196 65.5205L34.1211 59.9476L41.0019 71.6384Z" fill="#2AE0FF"/>
<path d="M34.3238 64.68L41.0019 71.6384L34.1211 59.9476L34.3238 64.68Z" fill="#2CD4FF"/>
<path d="M30.7207 69.2254L34.3245 64.68L34.1218 59.9476L30.7207 69.2254Z" fill="#2AD4FF"/>
<path d="M58.1272 77.1958L41.0039 71.6385L41.2217 65.5206L58.1272 77.1958Z" fill="#28DAFF"/>
<path d="M45.6271 78.2232L41.0039 71.6385L58.1272 77.1958L45.6271 78.2232Z" fill="#28CCFF"/>
<path d="M46.4512 83.2357L53.0513 96.3896L58.126 77.1957L46.4512 83.2357Z" fill="#2AEBFF"/>
<path d="M45.627 78.2231L46.4522 83.2357L58.127 77.1957L45.627 78.2231Z" fill="#29CCFF"/>
<path d="M30.7207 69.2254L41.0026 71.6385L34.3245 64.6801L30.7207 69.2254Z" fill="#2ACBFF"/>
<path d="M45.6258 78.2231L30.7207 69.2254L41.0026 71.6384L45.6258 78.2231Z" fill="#2ADAFF"/>
<path d="M46.4511 83.2357L45.6258 78.2231L30.7207 69.2254L46.4511 83.2357Z" fill="#28D4FF"/>
<path d="M36.4789 81.1809L30.7207 69.2254L46.4511 83.2357L36.4789 81.1809Z" fill="#28E5FF"/>
<path d="M53.0508 96.3896L36.4785 81.181L46.4507 83.2357L53.0508 96.3896Z" fill="#2AB4FF"/>
<path d="M76.277 52.7247L79.0168 79.8111L68.3066 63.0612L76.277 52.7247Z" fill="#23A2FF"/>
<path d="M85.3685 52.7247H76.2773L79.0172 79.8111L85.3685 52.7247Z" fill="#2CDAFF"/>
<path d="M67.4355 48.7552L76.2775 52.7247L68.3071 63.0612L67.4355 48.7552Z" fill="#24B6FF"/>
<path d="M66.7817 44.5056L67.4355 48.7552L63.7617 45.1127L66.7817 44.5056Z" fill="#151F20"/>
<path d="M62.2989 36.1929L61.2715 43.3847L63.7621 45.1127L62.2989 36.1929Z" fill="#1EE8FF"/>
<path d="M65.6612 34.5583L62.2988 36.193L63.7621 45.1127L65.6612 34.5583Z" fill="#153935"/>
<path d="M66.7817 44.5056L63.7617 45.1127L65.6609 34.5583L66.7817 44.5056Z" fill="#171919"/>
<path d="M76.277 52.7247L66.7812 44.5056L67.4351 48.7552L76.277 52.7247Z" fill="#25D6FF"/>
<path d="M85.3685 24.6424V52.7247H76.2773L85.3685 24.6424Z" fill="#0097CA"/>
<path d="M66.7812 44.5055L85.3681 24.6424L76.277 52.7247L66.7812 44.5055Z" fill="#40CEFF"/>
<path d="M65.6602 34.5583L85.3679 24.6424L66.781 44.5055L65.6602 34.5583Z" fill="#42DAFF"/>
<path d="M65.6612 23.5836V34.5583L62.2988 36.1929L65.6612 23.5836Z" fill="#0086A8"/>
<path d="M61.2715 27.7402L65.6613 23.5836L62.2989 36.1929L61.2715 27.7402Z" fill="#01A4FE"/>
<path d="M51.2695 40.5204L62.2987 36.1929L61.2713 43.3847L51.2695 40.5204Z" fill="#28F8FF"/>
<path d="M61.2713 27.7402L62.2987 36.193L51.2695 40.5204L61.2713 27.7402Z" fill="#2DF1FF"/>
<path d="M75.514 26.2924L65.6602 34.5583L85.3679 24.6424L75.514 26.2924Z" fill="#3EC4FF"/>
<path d="M65.6602 23.5836L75.514 26.2924L65.6602 34.5583V23.5836Z" fill="#47C7FF"/>
<path d="M87.2354 10.5077L75.5137 26.2924L79.81 24.0975L87.2354 10.5077Z" fill="#14BEFF"/>
<path d="M85.3675 24.6424L79.81 24.0975L75.5137 26.2924L85.3675 24.6424Z" fill="#47D7FF"/>
<path d="M87.2359 10.5077L79.8105 24.0975L85.368 24.6424L87.2359 10.5077Z" fill="#00A7C6"/>
<path d="M61.8941 16.2364L61.2715 27.7402L65.6613 23.5836L61.8941 16.2364Z" fill="#0880B5"/>
<path d="M69.6297 16.2364L65.6602 23.5836L75.514 26.2924L69.6297 16.2364Z" fill="#47D3FF"/>
<path d="M75.5152 18.4V26.2924L69.6309 16.2364L75.5152 18.4Z" fill="#3FCFFF"/>
<path d="M87.2354 10.5077L75.5137 18.4V26.2924L87.2354 10.5077Z" fill="#27C5FF"/>
<path d="M87.2362 0.0467133V10.5077L81.959 0L87.2362 0.0467133Z" fill="#008BB2"/>
<path d="M69.6309 16.2364L87.2369 10.5077L75.5152 18.4L69.6309 16.2364Z" fill="#38D2FF"/>
<path d="M75.0938 0H81.9585L87.2357 10.5077L75.0938 0Z" fill="#00B4D8"/>
<path d="M69.6313 16.2364H61.8945L65.6617 23.5836L69.6313 16.2364Z" fill="#00ABFD"/>
<path d="M87.2373 10.5077L61.8945 16.2364H69.6313L87.2373 10.5077Z" fill="#02C3FF"/>
<path d="M71.5463 118.884L64.0742 116.642L73.1028 117.109L71.5463 118.884Z" fill="#36EBFF"/>
<path d="M79.017 124.021L71.5449 118.884L73.1014 117.109L79.017 124.021Z" fill="#47C8FF"/>
<path d="M87.2368 126.325V124.581L79.0176 124.021L87.2368 126.325Z" fill="#30FBFF"/>
<path d="M36.479 81.1809L25.5293 65.5206L30.7209 69.2254L36.479 81.1809Z" fill="#2DC0FF"/>
<path d="M26.5879 76.2307L36.479 81.1809L25.5293 65.5206L26.5879 76.2307Z" fill="#2EA8FF"/>
<path d="M26.8993 85.4773L26.5879 76.2307L36.479 81.1809L26.8993 85.4773Z" fill="#28DAFF"/>
<path d="M32.8156 89.7739L26.9004 85.4773L36.4801 81.181L32.8156 89.7739Z" fill="#2FECFF"/>
<path d="M43.0307 93.8523L53.0508 96.3896L36.4785 81.181L43.0307 93.8523Z" fill="#29C5FF"/>
<path d="M51.2695 102.395L53.052 96.3896L58.1267 111.271L51.2695 102.395Z" fill="#15241C"/>
<path d="M19.8008 46.3269L37.9518 45.568L25.5293 65.5206L19.8008 46.3269Z" fill="#26D4FF"/>
<path d="M19.8008 63.7927V46.3269L25.5293 65.5206L19.8008 63.7927Z" fill="#1596CD"/>
<path d="M21.0463 76.2307L19.8008 63.7926L25.5293 65.5206L21.0463 76.2307Z" fill="#29F1FF"/>
<path d="M26.5886 76.2308L25.5299 65.5206L21.0469 76.2308H26.5886Z" fill="#28DAFF"/>
<path d="M26.8999 85.4773L21.0469 76.2307H26.5886L26.8999 85.4773Z" fill="#2AD1FF"/>
<path d="M23.6309 86.6915L21.0469 76.2307L26.8999 85.4773L23.6309 86.6915Z" fill="#2FECFF"/>
<path d="M43.0311 93.8523L32.8145 89.7739L36.479 81.181L43.0311 93.8523Z" fill="#2AC4FF"/>
<path d="M28.3942 95.9381L26.8998 85.4773L23.6309 86.6915L28.3942 95.9381Z" fill="#2AFAFF"/>
<path d="M46.4511 104.967L37.9227 113.186L33.873 107.395L46.4511 104.967Z" fill="#2AE8FF"/>
<path d="M31.0039 102.476L43.031 93.8523L33.873 107.395L31.0039 102.476Z" fill="#36BFFF"/>
<path d="M28.3926 95.9381L43.0301 93.8523L31.003 102.476L28.3926 95.9381Z" fill="#2AE8FF"/>
<path d="M32.8156 89.7738L28.3947 95.9381L26.9004 85.4773L32.8156 89.7738Z" fill="#2ECBFF"/>
<path d="M43.0301 93.8523L28.3926 95.9381L32.8135 89.7739L43.0301 93.8523Z" fill="#28C5FF"/>
<path d="M51.269 102.395L43.0312 93.8523L53.0514 96.3896L51.269 102.395Z" fill="#4CC0FF"/>
<path d="M46.4511 104.967L43.0311 93.8523L33.873 107.395L46.4511 104.967Z" fill="#2CCDFF"/>
<path d="M51.269 102.395L46.4513 104.967L43.0312 93.8523L51.269 102.395Z" fill="#3CB5FF"/>
<path d="M58.126 111.271L51.2689 102.395L46.4512 104.967L58.126 111.271Z" fill="#4CC0FF"/>
<path d="M53.7364 113.56L46.4512 104.967L58.126 111.271L53.7364 113.56Z" fill="#4FC3FF"/>
<path d="M46.5137 29.0711L61.8936 16.2364L61.271 27.7402L46.5137 29.0711Z" fill="#47E5FF"/>
<path d="M51.2692 40.5204L46.5137 29.0711L61.271 27.7402L51.2692 40.5204Z" fill="#3AEDFF"/>
<path d="M37.9531 45.568L46.5148 29.0711L51.2703 40.5204L37.9531 45.568Z" fill="#2EDCFF"/>
<path d="M30.8843 38.2788L19.8008 46.3269L37.9518 45.568L30.8843 38.2788Z" fill="#26CCFF"/>
<path d="M46.5139 29.0711L30.8848 38.2788L37.9522 45.568L46.5139 29.0711Z" fill="#26D4FF"/>
<path d="M60.1342 120.004L58.1259 111.271L53.7363 113.56L60.1342 120.004Z" fill="#55BAFF"/>
<path d="M64.0736 116.642L60.1352 120.004L58.127 111.271L64.0736 116.642Z" fill="#62BCFF"/>
<path d="M66.4393 118.884L60.1348 120.004L64.0732 116.642L66.4393 118.884Z" fill="#7BA1FF"/>
<path d="M71.5463 118.884H66.4403L64.0742 116.642L71.5463 118.884Z" fill="#5EC2FF"/>
<path d="M37.9238 113.186L53.7374 113.56L46.4522 104.967L37.9238 113.186Z" fill="#33FBFF"/>
<path d="M41.8443 117.202L53.7374 113.56L37.9238 113.186L41.8443 117.202Z" fill="#35E5FF"/>
<path d="M51.4462 118.354L41.8438 117.202L53.7369 113.56L51.4462 118.354Z" fill="#36D4FF"/>
<path d="M60.1338 120.004L51.4453 118.354L53.736 113.56L60.1338 120.004Z" fill="#51D4FF"/>
<path d="M56.935 123.523L60.1338 120.004L51.4453 118.354L56.935 123.523Z" fill="#35DEFF"/>
<path d="M54.1901 125.515L56.935 123.523L51.4453 118.354L54.1901 125.515Z" fill="#39DEFF"/>
<path d="M46.6445 121.452L54.1906 125.515L51.4459 118.354L46.6445 121.452Z" fill="#42F0FF"/>
<path d="M41.8438 117.202L46.6449 121.452L51.4462 118.354L41.8438 117.202Z" fill="#41D4FF"/>
<path d="M68.5881 129.812L54.1914 125.515L56.9363 123.522L68.5881 129.812Z" fill="#53D6FF"/>
<path d="M87.2368 130.683V126.325L79.0176 124.021L87.2368 130.683Z" fill="#30F1FF"/>
<path d="M68.5879 129.812L87.2368 130.683L79.0176 124.021L68.5879 129.812Z" fill="#48C3FF"/>
<path d="M60.1344 120.004L68.5873 129.812L56.9355 123.522L60.1344 120.004Z" fill="#4DCCFF"/>
<path d="M66.4395 118.884H71.5454L79.0175 124.021L66.4395 118.884Z" fill="#599AFF"/>
<path d="M68.5879 129.812L69.1792 124.892L79.0176 124.021L68.5879 129.812Z" fill="#3ECFFF"/>
<path d="M60.1348 120.004L69.179 124.892L68.5877 129.812L60.1348 120.004Z" fill="#41D5FF"/>
<path d="M79.0174 124.021L60.1348 120.004L69.179 124.892L79.0174 124.021Z" fill="#4EAFFF"/>
<path d="M24.3463 23.5836L30.8843 38.2788L19.8008 46.3269L24.3463 23.5836Z" fill="#15AAFF"/>
<path d="M46.5147 29.0711L24.3477 23.5836L30.8856 38.2788L46.5147 29.0711Z" fill="#41DAFF"/>
<path d="M20.859 16.6721L24.3461 23.5836L11.8926 11.0681L20.859 16.6721Z" fill="#0B7BAD"/>
<path d="M23.0385 14.7419L20.859 16.6721L11.8926 11.0681L23.0385 14.7419Z" fill="#1B58AE"/>
<path d="M14.1342 7.39429L23.0385 14.7419L11.8926 11.0681L14.1342 7.39429Z" fill="#008CE6"/>
<path d="M62.2988 1.44781L75.0948 0L62.5166 4.34326L62.2988 1.44781Z" fill="#00A5D2"/>
<path d="M51.2793 4.65463L62.2985 1.44781L62.5162 4.34326L51.2793 4.65463Z" fill="#008CE6"/>
<path d="M54.2038 7.3943L51.2793 4.65464L62.5162 4.34326L54.2038 7.3943Z" fill="#00BBF8"/>
<path d="M61.8945 16.2364L62.5171 4.34326L87.2373 10.5077L61.8945 16.2364Z" fill="#00AFEF"/>
<path d="M75.0939 0L62.5156 4.34326L87.2359 10.5077L75.0939 0Z" fill="#00AAEA"/>
<path d="M54.2051 7.3943L61.8949 16.2364L62.5175 4.34326L54.2051 7.3943Z" fill="#0AAFFF"/>
<path d="M54.2037 10.5077L61.8936 16.2364L46.5137 29.0711L54.2037 10.5077Z" fill="#47E7FF"/>
<path d="M54.2051 7.39429V10.5077L61.8949 16.2364L54.2051 7.39429Z" fill="#1BA9FF"/>
<path d="M51.2793 4.65463L54.2038 10.5077V7.3943L51.2793 4.65463Z" fill="#009CBD"/>
<path d="M42.125 9.99582L51.2803 4.65463L54.2048 10.5077L42.125 9.99582Z" fill="#008CE6"/>
<path d="M46.5148 29.0711L42.125 9.99582L54.2048 10.5077L46.5148 29.0711Z" fill="#19A2FF"/>
<path d="M23.0391 14.7419L42.124 9.99582L46.5138 29.0711L23.0391 14.7419Z" fill="#0099FA"/>
<path d="M20.8594 16.6721L23.0388 14.7419L46.5136 29.0711L20.8594 16.6721Z" fill="#17A7FF"/>
<path d="M24.3465 23.5836L20.8594 16.6721L46.5136 29.0711L24.3465 23.5836Z" fill="#00A4FC"/>
<path d="M28.4095 9.99582L23.0391 14.7419L42.124 9.99582H28.4095Z" fill="#00ABD6"/>
<path d="M14.1348 7.39429L28.4095 9.99581L23.039 14.7419L14.1348 7.39429Z" fill="#0086CA"/>
<path d="M13.5742 2.17163L28.4092 9.99582L14.1344 7.3943L13.5742 2.17163Z" fill="#008CE6"/>
<path d="M7.09766 2.75548L13.5736 2.17163L14.1339 7.3943L7.09766 2.75548Z" fill="#59E6FF"/>
<path d="M1.49414 6.61976L4.10947 3.40912L14.1344 7.39428L1.49414 6.61976Z" fill="#59E6FF"/>
<path d="M7.10002 2.75549L4.11133 3.40914L14.1362 7.39431L7.10002 2.75549Z" fill="#77F0FA"/>
<path d="M11.8928 11.0681L1.49414 6.61978L14.1344 7.39431L11.8928 11.0681Z" fill="#1DE8FF"/>
<path d="M0 13.3721L1.49435 6.61978L11.893 11.0681L0 13.3721Z" fill="#27DCFF"/>
<path d="M5.94629 32.8616L19.8008 46.3269L0.498047 20.9063L5.94629 32.8616Z" fill="#3CD3FF"/>
<path d="M0 13.372L0.498237 20.9063L19.8009 46.3269L0 13.372Z" fill="#00AEF4"/>
<path d="M11.5818 20.9063L0 13.372L19.8009 46.3269L11.5818 20.9063Z" fill="#3BCCFF"/>
<path d="M24.3468 23.5836L11.582 20.9063L19.8012 46.3269L24.3468 23.5836Z" fill="#2CAFFF"/>
<path d="M11.8932 11.0681L11.582 20.9063L24.3468 23.5836L11.8932 11.0681Z" fill="#0068CE"/>
<path d="M0 13.372L11.893 11.0681L11.5818 20.9063L0 13.372Z" fill="#47DFFF"/>
<path d="M60.1348 120.004L66.4393 118.884L79.0174 124.021L60.1348 120.004Z" fill="#49AAFF"/>
<path d="M81.3209 112.065L73.1016 117.109L82.6284 114.307L81.3209 112.065Z" fill="#154F62"/>
<path d="M64.0742 116.642L81.3222 112.065L87.2376 108.454L64.0742 116.642Z" fill="#21DDFF"/>
<path d="M73.1028 117.109L81.3222 112.065L64.0742 116.642L73.1028 117.109Z" fill="#45FEFF"/>
<path d="M87.2363 81.181V102.476L93.4633 97.6195L87.2363 81.181Z" fill="#151C19"/>
<path d="M95.4557 79.8111L87.2363 81.1809L93.4633 97.6195L95.4557 79.8111Z" fill="#151D1B"/>
<path d="M102.927 85.6018L95.4553 79.8111L93.4629 97.6195L102.927 85.6018Z" fill="#151F21"/>
<path d="M102.554 92.14L102.927 85.6018L93.4629 97.6195L102.554 92.14Z" fill="#152F3E"/>
<path d="M87.2363 59.6364V81.1809L95.4557 79.8111L87.2363 59.6364Z" fill="#26EBFF"/>
<path d="M87.2363 55.2156V59.6365L95.4557 79.8111L87.2363 55.2156Z" fill="#27EBFF"/>
<path d="M89.1044 52.7247L87.2363 55.2156V10.5077L89.1044 52.7247Z" fill="#045072"/>
<path d="M89.1044 24.6424V52.7247L87.2363 10.5077L89.1044 24.6424Z" fill="#0171DF"/>
<path d="M87.2363 108.454V102.476L93.4633 97.6195L87.2363 108.454Z" fill="#0077AE"/>
<path d="M87.2363 113.248V108.454L93.1517 112.065L87.2363 113.248Z" fill="#153F36"/>
<path d="M87.2363 113.248L91.8442 114.307L93.1517 112.065L87.2363 113.248Z" fill="#152122"/>
<path d="M87.2363 124.581V113.248L91.8442 114.307L87.2363 124.581Z" fill="#2AFFFF"/>
<path d="M101.371 117.109L95.4552 124.021L91.8438 114.307L101.371 117.109Z" fill="#3FF0FF"/>
<path d="M87.2363 124.581L95.4557 124.021L91.8442 114.307L87.2363 124.581Z" fill="#2DECFF"/>
<path d="M116.346 111.271L110.4 116.642L87.2363 108.454L116.346 111.271Z" fill="#4CD9FF"/>
<path d="M113.824 108.454L116.346 111.271L87.2363 108.454H113.824Z" fill="#4CE5FF"/>
<path d="M93.4633 97.6195L113.824 108.454H87.2363L93.4633 97.6195Z" fill="#3BFEFF"/>
<path d="M118.868 96.1873L113.824 108.454L93.4629 97.6195L118.868 96.1873Z" fill="#3FC2FF"/>
<path d="M102.554 92.14L93.4629 97.6195L118.868 96.1873L102.554 92.14Z" fill="#3DEDFF"/>
<path d="M115.133 78.877L118.869 96.1873L102.555 92.14L115.133 78.877Z" fill="#2FDCFF"/>
<path d="M102.928 85.6018L115.133 78.877L102.555 92.14L102.928 85.6018Z" fill="#2CC4FF"/>
<path d="M95.4551 79.8111L115.132 78.877L102.927 85.6018L95.4551 79.8111Z" fill="#26DEFF"/>
<path d="M107.037 67.9803L115.132 78.877L95.4551 79.8111L107.037 67.9803Z" fill="#27D8FF"/>
<path d="M106.165 63.0612L107.037 67.9803L95.4551 79.8111L106.165 63.0612Z" fill="#23A6FF"/>
<path d="M89.1044 52.7247L87.2363 55.2156L95.4557 79.8111L89.1044 52.7247Z" fill="#28F3FF"/>
<path d="M116.346 111.271L113.824 108.454L118.868 96.1873L116.346 111.271Z" fill="#151E1A"/>
<path d="M121.42 96.3896L116.346 111.271L118.867 96.1873L121.42 96.3896Z" fill="#151E1A"/>
<path d="M116.346 77.1957L121.42 96.3896L118.867 96.1873L116.346 77.1957Z" fill="#15201C"/>
<path d="M115.131 78.877L116.345 77.1957L118.867 96.1873L115.131 78.877Z" fill="#151E1A"/>
<path d="M109.467 67.2018L116.347 77.1957L115.133 78.877L109.467 67.2018Z" fill="#151E1A"/>
<path d="M107.037 67.9803L109.465 67.2018L115.132 78.877L107.037 67.9803Z" fill="#171919"/>
<path d="M107.691 56.9745L106.166 63.0612L109.466 67.2018L107.691 56.9745Z" fill="#15362F"/>
<path d="M107.038 67.9803L106.166 63.0612L109.466 67.2018L107.038 67.9803Z" fill="#15322D"/>
<path d="M107.038 48.7552L106.166 63.0612L107.691 56.9746L107.038 48.7552Z" fill="#153A3E"/>
<path d="M109.465 52.7247L107.691 56.9746L107.037 48.7552L109.465 52.7247Z" fill="#151E1A"/>
<path d="M110.711 45.1127L107.037 48.7552L109.465 52.7247L110.711 45.1127Z" fill="#171817"/>
<path d="M112.549 53.9392L110.712 51.7441L109.467 52.7247L112.549 53.9392Z" fill="#171917"/>
<path d="M110.712 45.1127V51.7441L109.467 52.7247L110.712 45.1127Z" fill="#181818"/>
<path d="M118.867 53.9391H112.547L112.905 55.2156L118.867 53.9391Z" fill="#151D1A"/>
<path d="M109.467 52.7247L112.907 55.2156L112.549 53.9391L109.467 52.7247Z" fill="#152021"/>
<path d="M122.122 55.6204L112.906 55.2156L118.868 53.9391L122.122 55.6204Z" fill="#00243D"/>
<path d="M127.54 50.9034L122.123 55.6204L118.869 53.9392L127.54 50.9034Z" fill="#004E9F"/>
<path d="M130.015 46.3269L127.54 50.9034L118.869 53.9392L130.015 46.3269Z" fill="#043159"/>
<path d="M124.44 43.4315L130.013 46.3269L124.082 49.1289L124.44 43.4315Z" fill="#171919"/>
<path d="M118.869 53.9392L124.084 49.1289L130.015 46.3269L118.869 53.9392Z" fill="#15393D"/>
<path d="M133.47 46.2802L130.014 46.3269L124.441 43.4315L133.47 46.2802Z" fill="#152678"/>
<path d="M120.768 44.5056L119.553 48.0546L116.611 48.7552L120.768 44.5056Z" fill="#151C19"/>
<path d="M116.845 44.5056L116.611 48.7552L120.768 44.5056H116.845Z" fill="#151D1A"/>
<path d="M124.441 43.4315L120.767 44.5056H116.844L124.441 43.4315Z" fill="#FF8C15"/>
<path d="M119.879 42.2639L124.441 43.4315L116.844 44.5056L119.879 42.2639Z" fill="#021F38"/>
<path d="M113.201 43.3847L119.879 42.2639L116.844 44.5056L113.201 43.3847Z" fill="#151C19"/>
<path d="M110.711 45.1127L113.201 43.3848L116.844 44.5056L110.711 45.1127Z" fill="#043663"/>
<path d="M112.174 46.7237L110.711 51.7441V45.1127L112.174 46.7237Z" fill="#043159"/>
<path d="M116.844 44.5056L112.174 46.7237L110.711 45.1127L116.844 44.5056Z" fill="#151F1A"/>
<path d="M124.083 49.1289L120.768 44.5056L124.442 43.4315L124.083 49.1289Z" fill="#FFE117"/>
<path d="M119.553 48.0546L120.767 44.5056L124.083 49.1289L119.553 48.0546Z" fill="#FFC715"/>
<path d="M118.869 53.9391L119.554 48.0546L124.084 49.1289L118.869 53.9391Z" fill="#FFE117"/>
<path d="M112.176 46.7237L116.612 48.7552L116.846 44.5056L112.176 46.7237Z" fill="#FFA715"/>
<path d="M110.711 51.7441L116.611 48.7552L112.174 46.7237L110.711 51.7441Z" fill="#FFE117"/>
<path d="M112.547 53.9392L116.611 48.7552L110.711 51.7441L112.547 53.9392Z" fill="#FFC715"/>
<path d="M118.867 53.9392L116.61 48.7552L112.547 53.9392H118.867Z" fill="#FFE117"/>
<path d="M119.553 48.0546L116.611 48.7552L118.868 53.9391L119.553 48.0546Z" fill="#FFC715"/>
<path d="M109.934 55.2156H112.907L109.467 52.7247L109.934 55.2156Z" fill="#15221C"/>
<path d="M107.691 56.9746L109.933 55.2156L109.466 52.7247L107.691 56.9746Z" fill="#01A4FE"/>
<path d="M115.708 57.7684L122.122 55.6204L112.906 55.2156L115.708 57.7684Z" fill="#043159"/>
<path d="M109.934 55.2156L115.709 57.7684L112.907 55.2156H109.934Z" fill="#15AFA7"/>
<path d="M109.466 67.2018L109.933 55.2156L107.691 56.9746L109.466 67.2018Z" fill="#2BCAFF"/>
<path d="M115.709 57.7684L109.467 67.2018L109.934 55.2156L115.709 57.7684Z" fill="#56D6FF"/>
<path d="M116.347 63.7927L115.709 57.7684L109.467 67.2018L116.347 63.7927Z" fill="#4BD5FF"/>
<path d="M121.819 58.3755L115.709 57.7684L116.347 63.7927L121.819 58.3755Z" fill="#28FAFF"/>
<path d="M122.122 55.6204L121.819 58.3755L115.709 57.7684L122.122 55.6204Z" fill="#67AAEC"/>
<path d="M130.419 53.0984L121.818 58.3755L122.122 55.6204L130.419 53.0984Z" fill="#15BBD8"/>
<path d="M130.012 46.3269L130.417 53.0985L127.537 50.9034L130.012 46.3269Z" fill="#1590C2"/>
<path d="M122.121 55.6204L127.538 50.9034L130.418 53.0985L122.121 55.6204Z" fill="#15C9E1"/>
<path d="M133.47 46.2802L130.418 53.0985L130.014 46.3269L133.47 46.2802Z" fill="#30EBFF"/>
<path d="M136.521 45.568L133.47 46.2802L124.441 43.4315L136.521 45.568Z" fill="#00081B"/>
<path d="M123.203 40.5204L136.52 45.568L124.441 43.4315L123.203 40.5204Z" fill="#0061BC"/>
<path d="M119.879 42.2639L123.203 40.5204L124.44 43.4315L119.879 42.2639Z" fill="#043663"/>
<path d="M113.201 43.3847L123.203 40.5204L119.879 42.2639L113.201 43.3847Z" fill="#021F38"/>
<path d="M140.35 59.9476L133.469 46.2802L130.418 53.0985L140.35 59.9476Z" fill="#004E9F"/>
<path d="M148.942 65.5206L136.52 45.568L133.469 46.2802L148.942 65.5206Z" fill="#28DCFF"/>
<path d="M140.349 59.9476L148.942 65.5206L133.469 46.2802L140.349 59.9476Z" fill="#047BAF"/>
<path d="M143.753 69.2254L140.352 59.9476L148.944 65.5205L143.753 69.2254Z" fill="#26CFFF"/>
<path d="M121.818 58.3755L130.419 53.0984L140.351 59.9476L121.818 58.3755Z" fill="#2AECFF"/>
<path d="M116.347 77.1958V63.7926L109.467 67.2018L116.347 77.1958Z" fill="#27F1FF"/>
<path d="M122.16 64.68L116.346 63.7926L121.817 58.3755L122.16 64.68Z" fill="#24F4FF"/>
<path d="M116.346 77.1958L122.16 64.68L116.346 63.7926V77.1958Z" fill="#29B7FF"/>
<path d="M140.351 59.9476L121.818 58.3755L122.161 64.68L140.351 59.9476Z" fill="#2ACDFF"/>
<path d="M133.253 65.5205L140.352 59.9476L122.162 64.68L133.253 65.5205Z" fill="#2DC0FF"/>
<path d="M116.346 77.1958L133.251 65.5206L122.16 64.6801L116.346 77.1958Z" fill="#2AD1FF"/>
<path d="M133.47 71.6384L133.252 65.5205L140.351 59.9476L133.47 71.6384Z" fill="#2AE0FF"/>
<path d="M140.147 64.68L133.469 71.6384L140.349 59.9476L140.147 64.68Z" fill="#2CD4FF"/>
<path d="M143.752 69.2254L140.148 64.68L140.351 59.9476L143.752 69.2254Z" fill="#2AD4FF"/>
<path d="M116.346 77.1958L133.469 71.6385L133.251 65.5206L116.346 77.1958Z" fill="#28DAFF"/>
<path d="M128.846 78.2232L133.469 71.6385L116.346 77.1958L128.846 78.2232Z" fill="#28CCFF"/>
<path d="M128.021 83.2357L121.42 96.3896L116.346 77.1957L128.021 83.2357Z" fill="#2AEBFF"/>
<path d="M128.846 78.2231L128.021 83.2357L116.346 77.1957L128.846 78.2231Z" fill="#29CCFF"/>
<path d="M143.751 69.2254L133.469 71.6385L140.147 64.6801L143.751 69.2254Z" fill="#2ACBFF"/>
<path d="M128.846 78.2231L143.751 69.2254L133.469 71.6384L128.846 78.2231Z" fill="#2ADAFF"/>
<path d="M128.021 83.2357L128.847 78.2231L143.752 69.2254L128.021 83.2357Z" fill="#28D4FF"/>
<path d="M137.993 81.1809L143.752 69.2254L128.021 83.2357L137.993 81.1809Z" fill="#28E5FF"/>
<path d="M121.42 96.3896L137.992 81.181L128.02 83.2357L121.42 96.3896Z" fill="#2AB4FF"/>
<path d="M98.1949 52.7247L95.4551 79.8111L106.165 63.0612L98.1949 52.7247Z" fill="#23A2FF"/>
<path d="M89.1035 52.7247H98.1947L95.4548 79.8111L89.1035 52.7247Z" fill="#2CDAFF"/>
<path d="M107.037 48.7552L98.1953 52.7247L106.165 63.0612L107.037 48.7552Z" fill="#24B6FF"/>
<path d="M107.691 44.5056L107.037 48.7552L110.711 45.1127L107.691 44.5056Z" fill="#151F20"/>
<path d="M112.174 36.1929L113.201 43.3847L110.711 45.1127L112.174 36.1929Z" fill="#1EE8FF"/>
<path d="M108.812 34.5583L112.175 36.193L110.712 45.1127L108.812 34.5583Z" fill="#153935"/>
<path d="M107.691 44.5056L110.712 45.1127L108.812 34.5583L107.691 44.5056Z" fill="#171919"/>
<path d="M98.1953 52.7247L107.691 44.5056L107.037 48.7552L98.1953 52.7247Z" fill="#25D6FF"/>
<path d="M89.1035 24.6424V52.7247H98.1947L89.1035 24.6424Z" fill="#0097CA"/>
<path d="M107.69 44.5055L89.1035 24.6424L98.1947 52.7247L107.69 44.5055Z" fill="#40CEFF"/>
<path d="M108.811 34.5583L89.1035 24.6424L107.69 44.5055L108.811 34.5583Z" fill="#42DAFF"/>
<path d="M108.812 23.5836V34.5583L112.175 36.1929L108.812 23.5836Z" fill="#0086A8"/>
<path d="M113.202 27.7402L108.812 23.5836L112.175 36.1929L113.202 27.7402Z" fill="#01A4FE"/>
<path d="M123.205 40.5204L112.176 36.1929L113.203 43.3847L123.205 40.5204Z" fill="#28F8FF"/>
<path d="M113.203 27.7402L112.176 36.193L123.205 40.5204L113.203 27.7402Z" fill="#2DF1FF"/>
<path d="M98.9572 26.2924L108.811 34.5583L89.1035 24.6424L98.9572 26.2924Z" fill="#3EC4FF"/>
<path d="M108.811 23.5836L98.957 26.2924L108.811 34.5583V23.5836Z" fill="#47C7FF"/>
<path d="M87.2363 10.5077L98.9581 26.2924L94.6617 24.0975L87.2363 10.5077Z" fill="#14BEFF"/>
<path d="M89.1035 24.6424L94.6608 24.0975L98.9572 26.2924L89.1035 24.6424Z" fill="#47D7FF"/>
<path d="M87.2363 10.5077L94.6617 24.0975L89.1044 24.6424L87.2363 10.5077Z" fill="#00A7C6"/>
<path d="M112.58 16.2364L113.202 27.7402L108.812 23.5836L112.58 16.2364Z" fill="#0880B5"/>
<path d="M104.841 16.2364L108.811 23.5836L98.957 26.2924L104.841 16.2364Z" fill="#47D3FF"/>
<path d="M98.957 18.4V26.2924L104.841 16.2364L98.957 18.4Z" fill="#3FCFFF"/>
<path d="M87.2363 10.5077L98.9581 18.4V26.2924L87.2363 10.5077Z" fill="#27C5FF"/>
<path d="M87.2363 0.0467133V10.5077L92.5135 0L87.2363 0.0467133Z" fill="#008BB2"/>
<path d="M104.842 16.2364L87.2363 10.5077L98.9581 18.4L104.842 16.2364Z" fill="#38D2FF"/>
<path d="M99.3785 0H92.5135L87.2363 10.5077L99.3785 0Z" fill="#00B4D8"/>
<path d="M104.842 16.2364H112.579L108.811 23.5836L104.842 16.2364Z" fill="#00ABFD"/>
<path d="M87.2363 10.5077L112.579 16.2364H104.842L87.2363 10.5077Z" fill="#02C3FF"/>
<path d="M102.928 118.884L110.4 116.642L101.371 117.109L102.928 118.884Z" fill="#36EBFF"/>
<path d="M95.4551 124.021L102.927 118.884L101.37 117.109L95.4551 124.021Z" fill="#47C8FF"/>
<path d="M87.2363 126.325V124.581L95.4557 124.021L87.2363 126.325Z" fill="#30FBFF"/>
<path d="M137.992 81.1809L148.942 65.5206L143.751 69.2254L137.992 81.1809Z" fill="#2DC0FF"/>
<path d="M147.883 76.2307L137.992 81.1809L148.942 65.5206L147.883 76.2307Z" fill="#2EA8FF"/>
<path d="M147.572 85.4773L147.883 76.2307L137.992 81.1809L147.572 85.4773Z" fill="#28DAFF"/>
<path d="M141.657 89.7739L147.572 85.4773L137.992 81.181L141.657 89.7739Z" fill="#2FECFF"/>
<path d="M131.44 93.8523L121.42 96.3896L137.992 81.181L131.44 93.8523Z" fill="#29C5FF"/>
<path d="M123.203 102.395L121.42 96.3896L116.346 111.271L123.203 102.395Z" fill="#15241C"/>
<path d="M154.67 46.3269L136.52 45.568L148.942 65.5206L154.67 46.3269Z" fill="#26D4FF"/>
<path d="M154.672 63.7927V46.3269L148.943 65.5206L154.672 63.7927Z" fill="#1596CD"/>
<path d="M153.427 76.2307L154.672 63.7926L148.943 65.5206L153.427 76.2307Z" fill="#29F1FF"/>
<path d="M147.885 76.2308L148.944 65.5206L153.427 76.2308H147.885Z" fill="#28DAFF"/>
<path d="M147.572 85.4773L153.425 76.2307H147.883L147.572 85.4773Z" fill="#2AD1FF"/>
<path d="M150.841 86.6915L153.425 76.2307L147.572 85.4773L150.841 86.6915Z" fill="#2FECFF"/>
<path d="M131.441 93.8523L141.658 89.7739L137.994 81.181L131.441 93.8523Z" fill="#2AC4FF"/>
<path d="M146.078 95.9381L147.573 85.4773L150.842 86.6915L146.078 95.9381Z" fill="#2AFAFF"/>
<path d="M128.021 104.967L136.55 113.186L140.599 107.395L128.021 104.967Z" fill="#2AE8FF"/>
<path d="M143.469 102.476L131.441 93.8523L140.6 107.395L143.469 102.476Z" fill="#36BFFF"/>
<path d="M146.079 95.9381L131.441 93.8523L143.469 102.476L146.079 95.9381Z" fill="#2AE8FF"/>
<path d="M141.658 89.7738L146.079 95.9381L147.573 85.4773L141.658 89.7738Z" fill="#2ECBFF"/>
<path d="M131.441 93.8523L146.079 95.9381L141.658 89.7739L131.441 93.8523Z" fill="#28C5FF"/>
<path d="M123.203 102.395L131.44 93.8523L121.42 96.3896L123.203 102.395Z" fill="#4CC0FF"/>
<path d="M128.021 104.967L131.441 93.8523L140.599 107.395L128.021 104.967Z" fill="#2CCDFF"/>
<path d="M123.203 102.395L128.021 104.967L131.44 93.8523L123.203 102.395Z" fill="#3CB5FF"/>
<path d="M116.346 111.271L123.203 102.395L128.021 104.967L116.346 111.271Z" fill="#4CC0FF"/>
<path d="M120.735 113.56L128.021 104.967L116.346 111.271L120.735 113.56Z" fill="#4FC3FF"/>
<path d="M127.958 29.0711L112.578 16.2364L113.201 27.7402L127.958 29.0711Z" fill="#47E5FF"/>
<path d="M123.203 40.5204L127.958 29.0711L113.201 27.7402L123.203 40.5204Z" fill="#3AEDFF"/>
<path d="M136.52 45.568L127.958 29.0711L123.203 40.5204L136.52 45.568Z" fill="#2EDCFF"/>
<path d="M143.587 38.2788L154.67 46.3269L136.52 45.568L143.587 38.2788Z" fill="#26CCFF"/>
<path d="M127.959 29.0711L143.588 38.2788L136.521 45.568L127.959 29.0711Z" fill="#26D4FF"/>
<path d="M114.338 120.004L116.346 111.271L120.736 113.56L114.338 120.004Z" fill="#55BAFF"/>
<path d="M110.4 116.642L114.339 120.004L116.347 111.271L110.4 116.642Z" fill="#62BCFF"/>
<path d="M108.033 118.884L114.338 120.004L110.399 116.642L108.033 118.884Z" fill="#7BA1FF"/>
<path d="M102.928 118.884H108.034L110.4 116.642L102.928 118.884Z" fill="#5EC2FF"/>
<path d="M136.55 113.186L120.736 113.56L128.022 104.967L136.55 113.186Z" fill="#33FBFF"/>
<path d="M132.629 117.202L120.736 113.56L136.55 113.186L132.629 117.202Z" fill="#35E5FF"/>
<path d="M123.027 118.354L132.629 117.202L120.736 113.56L123.027 118.354Z" fill="#36D4FF"/>
<path d="M114.338 120.004L123.026 118.354L120.736 113.56L114.338 120.004Z" fill="#51D4FF"/>
<path d="M117.537 123.523L114.338 120.004L123.026 118.354L117.537 123.523Z" fill="#35DEFF"/>
<path d="M120.282 125.515L117.537 123.523L123.027 118.354L120.282 125.515Z" fill="#39DEFF"/>
<path d="M127.827 121.452L120.281 125.515L123.026 118.354L127.827 121.452Z" fill="#42F0FF"/>
<path d="M132.628 117.202L127.827 121.452L123.025 118.354L132.628 117.202Z" fill="#41D4FF"/>
<path d="M105.885 129.812L120.281 125.515L117.536 123.522L105.885 129.812Z" fill="#53D6FF"/>
<path d="M87.2363 130.683V126.325L95.4557 124.021L87.2363 130.683Z" fill="#30F1FF"/>
<path d="M105.886 129.812L87.2363 130.683L95.4557 124.021L105.886 129.812Z" fill="#48C3FF"/>
<path d="M114.338 120.004L105.885 129.812L117.536 123.522L114.338 120.004Z" fill="#4DCCFF"/>
<path d="M108.033 118.884H102.927L95.4551 124.021L108.033 118.884Z" fill="#599AFF"/>
<path d="M105.885 129.812L105.293 124.892L95.4551 124.021L105.885 129.812Z" fill="#3ECFFF"/>
<path d="M114.337 120.004L105.293 124.892L105.884 129.812L114.337 120.004Z" fill="#41D5FF"/>
<path d="M95.4551 124.021L114.338 120.004L105.293 124.892L95.4551 124.021Z" fill="#4EAFFF"/>
<path d="M150.126 23.5836L143.588 38.2788L154.671 46.3269L150.126 23.5836Z" fill="#15AAFF"/>
<path d="M127.959 29.0711L150.126 23.5836L143.588 38.2788L127.959 29.0711Z" fill="#41DAFF"/>
<path d="M153.614 16.6721L150.127 23.5836L162.581 11.0681L153.614 16.6721Z" fill="#0B7BAD"/>
<path d="M151.434 14.7419L153.613 16.6721L162.579 11.0681L151.434 14.7419Z" fill="#1B58AE"/>
<path d="M160.338 7.39429L151.434 14.7419L162.579 11.0681L160.338 7.39429Z" fill="#008CE6"/>
<path d="M112.175 1.44781L99.3789 0L111.957 4.34326L112.175 1.44781Z" fill="#00A5D2"/>
<path d="M123.194 4.65463L112.175 1.44781L111.957 4.34326L123.194 4.65463Z" fill="#008CE6"/>
<path d="M120.27 7.3943L123.194 4.65464L111.957 4.34326L120.27 7.3943Z" fill="#00BBF8"/>
<path d="M112.579 16.2364L111.957 4.34326L87.2363 10.5077L112.579 16.2364Z" fill="#00AFEF"/>
<path d="M99.3785 0L111.957 4.34326L87.2363 10.5077L99.3785 0Z" fill="#00AAEA"/>
<path d="M120.27 7.3943L112.58 16.2364L111.957 4.34326L120.27 7.3943Z" fill="#0AAFFF"/>
<path d="M120.268 10.5077L112.578 16.2364L127.958 29.0711L120.268 10.5077Z" fill="#47E7FF"/>
<path d="M120.268 7.39429V10.5077L112.578 16.2364L120.268 7.39429Z" fill="#1BA9FF"/>
<path d="M123.194 4.65463L120.27 10.5077V7.3943L123.194 4.65463Z" fill="#009CBD"/>
<path d="M132.349 9.99582L123.194 4.65463L120.27 10.5077L132.349 9.99582Z" fill="#008CE6"/>
<path d="M127.959 29.0711L132.349 9.99582L120.27 10.5077L127.959 29.0711Z" fill="#19A2FF"/>
<path d="M151.434 14.7419L132.349 9.99582L127.959 29.0711L151.434 14.7419Z" fill="#0099FA"/>
<path d="M153.613 16.6721L151.434 14.7419L127.959 29.0711L153.613 16.6721Z" fill="#17A7FF"/>
<path d="M150.126 23.5836L153.613 16.6721L127.959 29.0711L150.126 23.5836Z" fill="#00A4FC"/>
<path d="M146.064 9.99582L151.435 14.7419L132.35 9.99582H146.064Z" fill="#00ABD6"/>
<path d="M160.339 7.39429L146.064 9.99581L151.435 14.7419L160.339 7.39429Z" fill="#0086CA"/>
<path d="M160.9 2.17163L146.064 9.99582L160.339 7.3943L160.9 2.17163Z" fill="#008CE6"/>
<path d="M167.374 2.75548L160.898 2.17163L160.338 7.3943L167.374 2.75548Z" fill="#59E6FF"/>
<path d="M172.978 6.61976L170.363 3.40912L160.338 7.39428L172.978 6.61976Z" fill="#59E6FF"/>
<path d="M167.374 2.75549L170.363 3.40914L160.338 7.39431L167.374 2.75549Z" fill="#77F0FA"/>
<path d="M162.58 11.0681L172.978 6.61978L160.338 7.39431L162.58 11.0681Z" fill="#1DE8FF"/>
<path d="M174.473 13.3721L172.979 6.61978L162.58 11.0681L174.473 13.3721Z" fill="#27DCFF"/>
<path d="M168.527 32.8616L154.672 46.3269L173.975 20.9063L168.527 32.8616Z" fill="#3CD3FF"/>
<path d="M174.473 13.372L173.975 20.9063L154.672 46.3269L174.473 13.372Z" fill="#00AEF4"/>
<path d="M162.891 20.9063L174.473 13.372L154.672 46.3269L162.891 20.9063Z" fill="#3BCCFF"/>
<path d="M150.127 23.5836L162.892 20.9063L154.673 46.3269L150.127 23.5836Z" fill="#2CAFFF"/>
<path d="M162.581 11.0681L162.892 20.9063L150.127 23.5836L162.581 11.0681Z" fill="#0068CE"/>
<path d="M174.473 13.372L162.58 11.0681L162.891 20.9063L174.473 13.372Z" fill="#47DFFF"/>
<path d="M114.338 120.004L108.033 118.884L95.4551 124.021L114.338 120.004Z" fill="#49AAFF"/>
<path d="M93.1512 112.065L101.371 117.109L91.8438 114.307L93.1512 112.065Z" fill="#154F62"/>
<path d="M110.4 116.642L93.1517 112.065L87.2363 108.454L110.4 116.642Z" fill="#21DDFF"/>
<path d="M101.372 117.109L93.1523 112.065L110.4 116.642L101.372 117.109Z" fill="#45FEFF"/>
</g>
</svg>
