<svg width="20" height="20" viewBox="0 0 20 20" fill="none" xmlns="http://www.w3.org/2000/svg">
<mask id="mask0_68_1148" style="mask-type:luminance" maskUnits="userSpaceOnUse" x="0" y="0" width="20" height="20">
<path d="M0 0H20V20H0V0Z" fill="white"/>
</mask>
<g mask="url(#mask0_68_1148)">
<path d="M10.7907 0.591316C11.493 0.210496 12.3669 0.384364 12.87 1.00491C13.2234 1.44077 13.773 1.66843 14.3311 1.61011C15.1256 1.52706 15.8665 2.02206 16.0938 2.78792C16.2535 3.32581 16.6742 3.74651 17.2121 3.90616C17.9779 4.1335 18.473 4.87436 18.3899 5.66893C18.3316 6.22694 18.5593 6.77663 18.9951 7.12999C19.6156 7.63307 19.7895 8.50702 19.4087 9.20928C19.1412 9.70253 19.1412 10.2975 19.4087 10.7907V10.7907C19.7895 11.493 19.6156 12.3669 18.9951 12.87C18.5593 13.2233 18.3316 13.7731 18.3899 14.3311C18.473 15.1256 17.9779 15.8665 17.2121 16.0938C16.6742 16.2535 16.2535 16.6742 16.0938 17.2121C15.8665 17.9779 15.1256 18.473 14.3311 18.3899C13.773 18.3316 13.2234 18.5592 12.87 18.9951C12.3669 19.6157 11.493 19.7895 10.7907 19.4087C10.2975 19.1412 9.7025 19.1412 9.2093 19.4087C8.50703 19.7895 7.63309 19.6157 7.12996 18.9951C6.77664 18.5592 6.22692 18.3316 5.66891 18.3899C4.87438 18.473 4.13348 17.9779 3.90617 17.2121C3.74652 16.6742 3.32578 16.2535 2.78793 16.0938C2.02207 15.8665 1.52703 15.1256 1.61012 14.3311C1.66844 13.7731 1.44074 13.2233 1.00488 12.87C0.384337 12.3669 0.210509 11.493 0.591329 10.7907V10.7907C0.858751 10.2975 0.858751 9.70253 0.591329 9.20928C0.210509 8.50702 0.384337 7.63307 1.00488 7.12999C1.44074 6.77663 1.66844 6.22694 1.61012 5.66893C1.52703 4.87436 2.02207 4.1335 2.78793 3.90616C3.32578 3.74651 3.74652 3.32581 3.90617 2.78792C4.13348 2.02206 4.87438 1.52706 5.66891 1.61011C6.22692 1.66843 6.77664 1.44077 7.12996 1.00491C7.63309 0.384364 8.50699 0.210496 9.20926 0.591316C9.70246 0.858777 10.2975 0.858777 10.7907 0.591316Z" stroke="white" stroke-width="0.78125" stroke-miterlimit="10" stroke-linecap="round" stroke-linejoin="round"/>
<path d="M17.1094 10C17.1094 13.9264 13.9264 17.1094 10 17.1094C6.07359 17.1094 2.89062 13.9264 2.89062 10C2.89062 6.07359 6.07359 2.89062 10 2.89062C13.9264 2.89062 17.1094 6.07359 17.1094 10Z" stroke="white" stroke-width="0.78125" stroke-miterlimit="10" stroke-linecap="round" stroke-linejoin="round"/>
<path d="M10.3147 6.39888L11.2444 8.28154L13.3224 8.58291C13.6112 8.62478 13.7266 8.97959 13.5177 9.18334L12.0145 10.6494L12.37 12.7188C12.4194 13.0063 12.1176 13.2257 11.8593 13.09L10.0005 12.1134L8.14222 13.091C7.88401 13.2269 7.5821 13.0076 7.63136 12.7201L7.98573 10.6504L6.48175 9.18521C6.27276 8.98158 6.388 8.62673 6.67671 8.5847L8.75456 8.2822L9.68331 6.39904C9.81237 6.13736 10.1855 6.13728 10.3147 6.39888Z" fill="white"/>
</g>
</svg>
