<svg width="12" height="12" viewBox="0 0 12 12" fill="none" xmlns="http://www.w3.org/2000/svg">
<g clip-path="url(#clip0_118_11326)">
<path d="M11.69 3.29121L8.70765 0.308836C8.5085 0.109664 8.2437 0 7.96206 0C7.68041 0 7.41561 0.109688 7.21644 0.308859C6.80541 0.72 6.80541 1.38893 7.21646 1.8L7.46499 2.04848L5.60115 3.9124C4.53596 3.56998 3.35595 3.70373 2.40092 4.28456C1.8282 4.63289 1.76961 5.44069 2.23784 5.90895L3.92628 7.59738L0.105501 11.3994C-0.032077 11.5363 -0.0326395 11.7589 0.104282 11.8965C0.172954 11.9655 0.263189 12 0.353423 12C0.443071 12 0.532767 11.9659 0.601345 11.8977L4.42337 8.09452L6.08989 9.76104C6.55827 10.2294 7.36574 10.171 7.71427 9.59798C8.29515 8.64298 8.42888 7.46295 8.08644 6.39773L9.95038 4.53384L10.1989 4.78235C10.4044 4.98792 10.6744 5.09067 10.9444 5.09067C11.2144 5.09067 11.4845 4.98787 11.69 4.78235C12.1011 4.37126 12.1011 3.7023 11.69 3.29121ZM11.193 4.28527C11.0559 4.42233 10.833 4.42235 10.6959 4.28529L10.1989 3.78823L8.21061 1.79995L7.71355 1.30291C7.57653 1.1659 7.57653 0.942914 7.71355 0.805852C7.77992 0.739477 7.86817 0.702914 7.96206 0.702914C8.05595 0.702914 8.14419 0.739477 8.21056 0.805852L11.193 3.78825C11.33 3.92529 11.33 4.14825 11.193 4.28527Z" fill="white" fill-opacity="0.6"/>
</g>
<defs>
<clipPath id="clip0_118_11326">
<rect width="12" height="12" fill="white"/>
</clipPath>
</defs>
</svg>
