<svg width="20" height="20" viewBox="0 0 20 20" fill="none" xmlns="http://www.w3.org/2000/svg">
<path d="M4.4585 2.49251C4.4585 2.32001 4.31881 2.18001 4.146 2.18001C3.97318 2.18001 3.8335 2.32001 3.8335 2.49251V3.7172C3.8335 3.8897 3.97318 4.0297 4.146 4.0297C4.31881 4.0297 4.4585 3.8897 4.4585 3.7172V2.49251Z" fill="white"/>
<path d="M12.0313 0.625H3.5C2.9125 0.625 2.4375 1.1 2.4375 1.6875V14.675C2.4375 15.2625 2.9125 15.7375 3.5 15.7375H8.1875C8.39375 16.6094 8.8375 17.3781 9.44688 17.9844C10.3094 18.85 11.5063 19.375 12.8094 19.375C14.0969 19.375 15.2656 18.8594 16.1219 18.025C16.1219 18.0219 16.125 18.0219 16.1281 18.0187C16.1406 18.0094 16.1563 17.9969 16.1688 17.9844V17.9813C16.1781 17.975 16.1813 17.9687 16.1875 17.9625C17.0344 17.1031 17.5625 15.9219 17.5625 14.6187C17.5625 13.3312 17.0469 12.1625 16.2125 11.3094C16.2094 11.3094 16.2094 11.3063 16.2094 11.3063C16.1969 11.2875 16.1844 11.2719 16.1688 11.2563C16.1531 11.2406 16.1375 11.2281 16.1188 11.2156C16.1156 11.2156 16.1156 11.2125 16.1125 11.2125C15.325 10.4469 14.2688 9.95313 13.0938 9.87813V1.6875C13.0938 1.1 12.6156 0.625 12.0313 0.625ZM8.59062 12.425C8.48125 12.6344 8.3875 12.8531 8.3125 13.0781C8.2875 13.1406 8.26875 13.2031 8.25 13.2687C8.20937 13.4 8.17812 13.5312 8.15 13.6656C8.1375 13.7187 8.12812 13.7687 8.12187 13.8219C8.075 14.0812 8.05313 14.3469 8.05313 14.6187C8.05313 14.7312 8.05625 14.8406 8.06562 14.95C8.06562 15.0031 8.07187 15.0563 8.07812 15.1063V15.1125H3.5C3.25937 15.1125 3.0625 14.9156 3.0625 14.675V1.6875C3.0625 1.44688 3.25937 1.25 3.5 1.25H12.0313C12.2719 1.25 12.4688 1.44688 12.4688 1.6875V9.875C12.45 9.875 12.4344 9.87813 12.4156 9.88125C12.2969 9.8875 12.175 9.90313 12.0594 9.925C11.9031 9.94688 11.7469 9.98125 11.5969 10.0219C11.5906 10.025 11.5812 10.0281 11.5719 10.0281C11.5 10.0469 11.4281 10.0688 11.3594 10.0906C11.2156 10.1375 11.0781 10.1875 10.9406 10.2469C10.875 10.275 10.8062 10.3063 10.7406 10.3375C10.4531 10.4813 10.1813 10.6469 9.92813 10.8438C9.875 10.8813 9.825 10.9219 9.77188 10.9656C9.71875 11.0125 9.6625 11.0594 9.60938 11.1094C9.57188 11.1437 9.53438 11.1781 9.49688 11.2125C9.49688 11.2156 9.49375 11.2156 9.49062 11.2188C9.475 11.2281 9.45938 11.2406 9.44688 11.2563C9.4375 11.2656 9.425 11.2781 9.41875 11.2906C9.4125 11.2938 9.40937 11.3 9.40625 11.3063C9.3625 11.3469 9.32188 11.3906 9.28125 11.4375C9.23438 11.4875 9.1875 11.5406 9.14375 11.5969C9.00937 11.7563 8.8875 11.925 8.77813 12.1031C8.74688 12.15 8.71563 12.2 8.6875 12.2531C8.65313 12.3094 8.62187 12.3687 8.59062 12.425ZM12.0091 10.5741C11.9994 10.5759 11.9897 10.5772 11.98 10.5794C11.9816 10.5791 11.9828 10.5788 11.9844 10.5784C11.9925 10.5766 12.0009 10.5756 12.0091 10.5741ZM11.6078 10.6747C11.5522 10.6916 11.4966 10.7088 11.4422 10.7281C11.4556 10.7225 11.4694 10.7166 11.4813 10.7125C11.5031 10.7062 11.525 10.7 11.5469 10.6906C11.5669 10.6841 11.5878 10.6806 11.6078 10.6747ZM11.2322 10.81C11.2222 10.8141 11.2116 10.8178 11.2016 10.8222C11.2041 10.8213 11.2066 10.82 11.2091 10.8191C11.2166 10.8156 11.2244 10.8134 11.2322 10.81ZM11.0388 10.8972C11.0113 10.9103 10.9831 10.9228 10.9559 10.9366C10.9591 10.935 10.9625 10.9328 10.9656 10.9312C10.9897 10.9187 11.0147 10.9091 11.0388 10.8972ZM10.9075 10.9613C10.7544 11.0413 10.6066 11.1303 10.4656 11.2284C10.5375 11.1784 10.6125 11.1284 10.6906 11.0816C10.7594 11.0409 10.8281 11.0003 10.8969 10.9659C10.9003 10.9634 10.9041 10.9628 10.9075 10.9613ZM8.69062 14.3066C8.73437 13.7159 8.90625 13.1597 9.175 12.6628C9.20938 12.5972 9.24687 12.5316 9.2875 12.4691C9.325 12.4066 9.36563 12.3441 9.40938 12.2847C9.45938 12.2097 9.5125 12.1347 9.575 12.0628C9.60938 12.0191 9.64375 11.9753 9.68125 11.9347L10.3969 12.6534C10.0125 13.1284 9.775 13.6972 9.71563 14.3066H8.69062ZM12.4969 18.7378C11.5969 18.6722 10.7687 18.3159 10.1156 17.7534L10.8406 17.0284C11.3156 17.4159 11.8875 17.6503 12.4969 17.7097V18.7378ZM16.925 14.9316C16.8594 15.8347 16.4969 16.6628 15.9375 17.3097L15.2125 16.5878V16.5847C15.6 16.1097 15.8375 15.5409 15.8969 14.9316H16.925ZM13.1219 10.5034C14.025 10.5691 14.8469 10.9316 15.4938 11.4909L14.7719 12.2128C14.3 11.8253 13.7281 11.5878 13.1219 11.5284V10.5034ZM14.5625 12.8659C15.0312 13.3316 15.2875 13.9566 15.2875 14.6191C15.2875 15.2816 15.0312 15.9066 14.5625 16.3753C14.0937 16.8441 13.4719 17.1003 12.8094 17.1003C12.1469 17.1003 11.5219 16.8441 11.0531 16.3753C10.5844 15.9066 10.325 15.2816 10.325 14.6191C10.325 13.9566 10.5844 13.3316 11.05 12.8659C11.5219 12.3972 12.1469 12.1378 12.8094 12.1378C13.4719 12.1378 14.0937 12.3972 14.5625 12.8659Z" fill="white"/>
<path d="M11.1657 7.30313C11.1657 6.73125 10.9438 6.19375 10.5407 5.79375C9.79069 5.04375 8.60007 4.97188 7.76569 5.58438C6.93132 4.97188 5.74069 5.04375 4.99069 5.79375C4.17194 6.6125 4.15944 7.95625 4.96882 8.79063L7.54382 11.3656C7.60632 11.4281 7.68444 11.4594 7.76569 11.4594C7.84694 11.4594 7.92507 11.4281 7.98757 11.3656L10.5657 8.7875C10.9532 8.38438 11.1657 7.85938 11.1657 7.30313Z" fill="white"/>
<path d="M12.5875 12.8063L10.9937 14.3969C10.8719 14.5219 10.8719 14.7188 10.9937 14.8406L12.5875 16.4313C12.6469 16.4938 12.7281 16.5219 12.8062 16.5219C12.8875 16.5219 12.9687 16.4938 13.0281 16.4313L14.6187 14.8406C14.7406 14.7188 14.7406 14.5219 14.6187 14.3969L13.0281 12.8063C12.9125 12.6906 12.7031 12.6906 12.5875 12.8063Z" fill="white"/>
</svg>
