<svg width="20" height="20" viewBox="0 0 20 20" fill="none" xmlns="http://www.w3.org/2000/svg">
<path d="M4.24025 17H15.7597C16.4436 17 17 16.4436 17 15.7598V4.24025C17 3.55641 16.4436 3 15.7597 3H4.24025C3.55641 3 3 3.55641 3 4.24025V15.7598C3 16.4436 3.55641 17 4.24025 17ZM13.4723 15.3336C12.4458 15.3336 11.6114 14.4987 11.6114 13.4727C11.6114 12.4468 12.4463 11.6119 13.4723 11.6119C14.4983 11.6119 15.3331 12.4468 15.3331 13.4727C15.3331 14.4987 14.4983 15.3336 13.4723 15.3336ZM13.4723 4.66641C14.4987 4.66641 15.3331 5.50126 15.3331 6.52725C15.3331 7.55324 14.4983 8.3881 13.4723 8.3881C12.4463 8.3881 11.6114 7.55324 11.6114 6.52725C11.6114 5.50126 12.4463 4.66641 13.4723 4.66641ZM9.99976 8.13892C11.0262 8.13892 11.8606 8.97377 11.8606 9.99976C11.8606 11.0258 11.0258 11.8606 9.99976 11.8606C8.97377 11.8606 8.13939 11.0258 8.13939 9.99976C8.13939 8.97377 8.97425 8.13892 9.99976 8.13892ZM6.52773 4.66641C7.55419 4.66641 8.38857 5.50126 8.38857 6.52725C8.38857 7.55324 7.55372 8.3881 6.52773 8.3881C5.50174 8.3881 4.66688 7.55324 4.66688 6.52725C4.66688 5.50126 5.50174 4.66641 6.52773 4.66641ZM6.52773 11.6114C7.55419 11.6114 8.38857 12.4463 8.38857 13.4723C8.38857 14.4983 7.55372 15.3331 6.52773 15.3331C5.50174 15.3331 4.66688 14.4983 4.66688 13.4723C4.66688 12.4463 5.50174 11.6114 6.52773 11.6114Z" fill="white"/>
<path d="M10.0005 10.9172C10.5059 10.9172 10.9175 10.5057 10.9175 10.0003C10.9175 9.49481 10.5059 9.08328 10.0005 9.08328C9.49504 9.08328 9.08398 9.49481 9.08398 10.0003C9.08398 10.5057 9.49504 10.9172 10.0005 10.9172Z" fill="white"/>
<path d="M13.4726 7.44424C13.9781 7.44424 14.3896 7.03271 14.3896 6.52726C14.3896 6.02182 13.9781 5.61029 13.4726 5.61029C12.9672 5.61029 12.5557 6.02182 12.5557 6.52726C12.5557 7.03271 12.9672 7.44424 13.4726 7.44424Z" fill="white"/>
<path d="M6.5283 14.3897C7.03374 14.3897 7.44527 13.9782 7.44527 13.4727C7.44527 12.9673 7.03374 12.5558 6.5283 12.5558C6.02286 12.5558 5.61133 12.9673 5.61133 13.4727C5.61133 13.9782 6.02286 14.3897 6.5283 14.3897Z" fill="white"/>
<path d="M13.4726 12.5558C12.9672 12.5558 12.5557 12.9673 12.5557 13.4727C12.5557 13.9782 12.9672 14.3897 13.4726 14.3897C13.9781 14.3897 14.3896 13.9782 14.3896 13.4727C14.3896 12.9673 13.9781 12.5558 13.4726 12.5558Z" fill="white"/>
<path d="M6.5283 7.44424C7.03374 7.44424 7.44527 7.03271 7.44527 6.52726C7.44527 6.02182 7.03374 5.61029 6.5283 5.61029C6.02286 5.61029 5.61133 6.02182 5.61133 6.52726C5.61133 7.03271 6.02286 7.44424 6.5283 7.44424Z" fill="white"/>
</svg>
