<svg width="24" height="24" viewBox="0 0 24 24" fill="none" xmlns="http://www.w3.org/2000/svg">
<path fill-rule="evenodd" clip-rule="evenodd" d="M11 5.94C9.67392 5.94 8.40215 6.46678 7.46447 7.40447C6.52678 8.34215 6 9.61392 6 10.94C6 12.2661 6.52678 13.5379 7.46447 14.4755C8.40215 15.4132 9.67392 15.94 11 15.94C12.3261 15.94 13.5979 15.4132 14.5355 14.4755C15.4732 13.5379 16 12.2661 16 10.94C16 9.61392 15.4732 8.34215 14.5355 7.40447C13.5979 6.46678 12.3261 5.94 11 5.94ZM4 10.94C4 10.0207 4.18106 9.1105 4.53284 8.26122C4.88463 7.41194 5.40024 6.64026 6.05025 5.99025C6.70026 5.34024 7.47194 4.82463 8.32122 4.47284C9.17049 4.12106 10.0807 3.94 11 3.94C11.9193 3.94 12.8295 4.12106 13.6788 4.47284C14.5281 4.82463 15.2997 5.34024 15.9497 5.99025C16.5998 6.64026 17.1154 7.41194 17.4672 8.26122C17.8189 9.1105 18 10.0207 18 10.94C18 12.7965 17.2625 14.577 15.9497 15.8897C14.637 17.2025 12.8565 17.94 11 17.94C9.14348 17.94 7.36301 17.2025 6.05025 15.8897C4.7375 14.577 4 12.7965 4 10.94Z" fill="white"/>
<path fill-rule="evenodd" clip-rule="evenodd" d="M14.8 14.73C14.9869 14.5468 15.2383 14.4441 15.5 14.4441C15.7618 14.4441 16.0131 14.5468 16.2 14.73L19.7 18.23C19.8653 18.4201 19.9527 18.6656 19.9448 18.9174C19.9369 19.1692 19.8343 19.4088 19.6574 19.5881C19.4805 19.7675 19.2425 19.8736 18.9908 19.885C18.7392 19.8965 18.4925 19.8126 18.3 19.65L14.8 16.15C14.7063 16.057 14.6319 15.9464 14.5811 15.8246C14.5303 15.7027 14.5042 15.572 14.5042 15.44C14.5042 15.308 14.5303 15.1773 14.5811 15.0554C14.6319 14.9336 14.7063 14.823 14.8 14.73Z" fill="white"/>
</svg>
