<svg width="20" height="20" viewBox="0 0 20 20" fill="none" xmlns="http://www.w3.org/2000/svg">
<path d="M2.73428 19.3469C2.77803 19.3656 2.82178 19.375 2.86865 19.375C2.94053 19.375 3.0124 19.35 3.06865 19.3031L4.18115 18.3719C4.4999 18.1062 4.90303 17.9594 5.31865 17.9594H10.4437C10.8343 17.9594 11.2187 17.8531 11.553 17.6562L16.2812 14.8687C16.5249 14.725 16.6937 14.4969 16.7624 14.225C16.828 13.9531 16.7843 13.6687 16.6374 13.4312C16.3624 12.9844 15.7968 12.8125 15.3218 13.0312L12.1155 14.5031C12.0312 14.0219 11.6093 13.6531 11.103 13.6531H8.5749C8.46553 13.6531 8.3624 13.6094 8.2874 13.5344C7.77178 13.0187 7.09053 12.7375 6.3624 12.7375H6.1499C5.2874 12.7375 4.4749 13.0719 3.86553 13.6844L2.64678 14.9031C2.5874 14.9594 2.55615 15.0406 2.55615 15.1219V19.0625C2.55615 19.1844 2.6249 19.2937 2.73428 19.3469ZM3.18115 15.2531L4.30615 14.125C4.7999 13.6344 5.45303 13.3625 6.1499 13.3625H6.3624C6.92178 13.3625 7.4499 13.5812 7.84678 13.975C8.0374 14.1687 8.30303 14.2781 8.5749 14.2781H11.103C11.3249 14.2781 11.5062 14.4594 11.5062 14.6812C11.5062 14.7406 11.4937 14.7969 11.4718 14.8469C11.4593 14.8656 11.4468 14.8844 11.4405 14.9031C11.3655 15.0156 11.2437 15.0875 11.103 15.0875H8.32803C8.15615 15.0875 8.01553 15.2281 8.01553 15.4C8.01553 15.5719 8.15615 15.7125 8.32803 15.7125H11.103C11.453 15.7125 11.7624 15.5375 11.9468 15.2687L15.5843 13.6C15.7718 13.5125 15.9968 13.5812 16.1062 13.7594C16.1655 13.8531 16.1812 13.9656 16.1562 14.075C16.128 14.1844 16.0593 14.275 15.9655 14.3312L11.2374 17.1156C10.9968 17.2594 10.7218 17.3344 10.4437 17.3344H5.31865C4.75615 17.3344 4.20928 17.5312 3.78115 17.8906L3.18115 18.3937V15.2531Z" fill="white"/>
<path d="M4.40625 8.2H5.3C5.3625 8.2 5.41562 8.24375 5.44062 8.30938C5.48125 8.41875 5.525 8.525 5.57187 8.63125C5.6 8.69375 5.59375 8.75937 5.55313 8.8L4.91875 9.43438C4.79687 9.55625 4.79687 9.75625 4.91875 9.87813L6.75937 11.7188C6.88125 11.8438 7.08125 11.8438 7.20312 11.7188L7.8375 11.0844C7.87812 11.0438 7.94375 11.0375 8.00625 11.0656C8.1125 11.1125 8.22187 11.1563 8.32812 11.1969C8.39375 11.2219 8.4375 11.275 8.4375 11.3375V12.2312C8.4375 12.4031 8.57812 12.5437 8.75 12.5437H11.3562C11.5281 12.5437 11.6687 12.4031 11.6687 12.2312V11.3375C11.6687 11.275 11.7125 11.2219 11.7781 11.1969C11.8875 11.1563 11.9938 11.1125 12.1 11.0656C12.1625 11.0375 12.2281 11.0437 12.2687 11.0875L12.9031 11.7188C13.025 11.8438 13.225 11.8438 13.3469 11.7188L15.1875 9.87813C15.2469 9.81875 15.2813 9.74062 15.2813 9.65625C15.2813 9.575 15.2469 9.49375 15.1875 9.43438L14.5563 8.8C14.5125 8.75937 14.5062 8.69375 14.5344 8.63125C14.5812 8.525 14.625 8.41875 14.6656 8.30938C14.6906 8.24375 14.7437 8.2 14.8062 8.2H15.7C15.8719 8.2 16.0125 8.05937 16.0125 7.8875V5.28125C16.0125 5.10937 15.8719 4.96875 15.7 4.96875H14.8062C14.7437 4.96875 14.6906 4.92813 14.6656 4.85938C14.625 4.75 14.5812 4.64375 14.5344 4.5375C14.5062 4.475 14.5125 4.40937 14.5531 4.36875L15.1875 3.73437C15.2469 3.675 15.2813 3.59687 15.2813 3.5125C15.2813 3.43125 15.2469 3.35 15.1875 3.29062L13.3469 1.45C13.225 1.32812 13.025 1.32812 12.9031 1.45L12.2687 2.08438C12.2281 2.125 12.1625 2.13125 12.1 2.10313C11.9938 2.05625 11.8875 2.0125 11.7781 1.97187C11.7125 1.94687 11.6687 1.89375 11.6687 1.83125V0.9375C11.6687 0.765625 11.5281 0.625 11.3562 0.625H8.75C8.57812 0.625 8.4375 0.765625 8.4375 0.9375V1.83125C8.4375 1.89375 8.39375 1.94687 8.33125 1.97187C8.22187 2.0125 8.1125 2.05625 8.00625 2.10313C7.94375 2.13125 7.87812 2.125 7.8375 2.08438L7.20312 1.45C7.08125 1.32812 6.88125 1.32812 6.75937 1.45L4.91875 3.29062C4.79687 3.41562 4.79687 3.6125 4.91875 3.73437L5.55313 4.36875C5.59375 4.40937 5.6 4.475 5.57187 4.5375C5.525 4.64375 5.48125 4.75313 5.44062 4.8625C5.41562 4.92813 5.3625 4.96875 5.3 4.96875H4.40625C4.23437 4.96875 4.09375 5.10937 4.09375 5.28125V7.8875C4.09375 8.05937 4.23437 8.2 4.40625 8.2ZM7.4125 6.58437C7.4125 5.12812 8.59687 3.94375 10.0531 3.94375C11.5094 3.94375 12.6937 5.12812 12.6937 6.58437C12.6937 8.04062 11.5094 9.225 10.0531 9.225C8.59687 9.225 7.4125 8.04062 7.4125 6.58437Z" fill="white"/>
<path d="M10.0529 8.69686C11.2186 8.69686 12.1654 7.74999 12.1654 6.58436C12.1654 5.41874 11.2186 4.47186 10.0529 4.47186C8.8873 4.47186 7.94043 5.42186 7.94043 6.58436C7.94043 7.74686 8.8873 8.69686 10.0529 8.69686ZM10.0529 5.09686C10.8717 5.09686 11.5404 5.76561 11.5404 6.58436C11.5404 7.40311 10.8717 8.07186 10.0529 8.07186C9.23418 8.07186 8.56543 7.40311 8.56543 6.58436C8.56543 5.76561 9.23418 5.09686 10.0529 5.09686Z" fill="white"/>
</svg>
