<svg width="24" height="24" viewBox="0 0 24 24" fill="none" xmlns="http://www.w3.org/2000/svg">
<path d="M10.03 22.5H13.97C14.47 22.5 14.92 22.16 15.03 21.67L15.47 19.7C16.0547 19.4495 16.6111 19.1378 17.13 18.77L19.12 19.37C19.3525 19.4421 19.6022 19.435 19.8302 19.35C20.0582 19.2649 20.2516 19.1067 20.38 18.9L22.36 15.6C22.61 15.17 22.52 14.63 22.15 14.3L20.61 12.93C20.6767 12.31 20.6767 11.69 20.61 11.07L22.15 9.71C22.52 9.37 22.61 8.83 22.35 8.41L20.4 5.08C20.2711 4.87123 20.076 4.71157 19.8459 4.62641C19.6158 4.54124 19.3638 4.53547 19.13 4.61L17.14 5.22C16.6211 4.85221 16.0647 4.54047 15.48 4.29L15.04 2.32C14.93 1.83 14.49 1.49 13.98 1.49H10.04C9.54003 1.49 9.09003 1.83 8.98003 2.32L8.53003 4.3C7.94539 4.55047 7.38895 4.86221 6.87003 5.23L4.87003 4.63C4.6376 4.55794 4.38784 4.56498 4.15984 4.65003C3.93184 4.73507 3.73848 4.89332 3.61003 5.1L1.64003 8.4C1.39003 8.83 1.48003 9.37 1.85003 9.7L3.39003 11.07C3.31771 11.6879 3.31771 12.3121 3.39003 12.93L1.85003 14.3C1.48003 14.63 1.39003 15.17 1.65003 15.6L3.60003 18.9C3.86003 19.33 4.38003 19.53 4.87003 19.38L6.86003 18.76C7.37895 19.1278 7.93539 19.4395 8.52003 19.69L8.96003 21.66C9.07003 22.15 9.51003 22.49 10.02 22.49M12 7.8C14.4 7.8 16.33 9.68 16.33 12C16.33 14.32 14.4 16.2 12 16.2C10.8709 16.2134 9.78254 15.779 8.97293 14.9919C8.16333 14.2048 7.69846 13.129 7.68003 12C7.68003 9.68 9.61003 7.8 12 7.8Z" fill="white" fill-opacity="0.84"/>
</svg>
