<svg width="20" height="20" viewBox="0 0 20 20" fill="none" xmlns="http://www.w3.org/2000/svg">
<path d="M3.99375 1.00626V2.85626H3.74688C2.35313 2.85626 1.21875 3.99063 1.21875 5.38438V16.7781C1.21875 18.1719 2.35313 19.3063 3.74688 19.3063H11.4781C12.8719 19.3063 14.0031 18.1719 14.0031 16.7781V12.7688H15.3188C15.4938 12.7688 15.6313 12.6281 15.6313 12.4563V11.3375H16.3781C16.9531 11.3375 17.425 10.8688 17.425 10.2906V7.89063C18.1969 7.74376 18.7813 7.06876 18.7813 6.25313C18.7813 5.33438 18.0313 4.58751 17.1125 4.58751C16.1938 4.58751 15.4469 5.33438 15.4469 6.25313C15.4469 7.06876 16.0281 7.74376 16.8 7.89063V10.2906C16.8 10.525 16.6094 10.7125 16.3781 10.7125H15.6313V9.59376C15.6313 9.42188 15.4938 9.28126 15.3188 9.28126H14.0031V5.38438C14.0031 3.99063 12.8719 2.85626 11.4781 2.85626H11.2313V1.00626C11.2313 0.834381 11.0906 0.693756 10.9188 0.693756H4.30625C4.13125 0.693756 3.99375 0.834381 3.99375 1.00626ZM11.4781 18.6813H11.4469V15.15C11.4469 14.9781 11.3094 14.8375 11.1344 14.8375H4.0875C3.91563 14.8375 3.775 14.9781 3.775 15.15V18.6813H3.74688C2.69688 18.6813 1.84375 17.8281 1.84375 16.7781V13.0709H9.63313C9.63313 13.0709 9.63594 13.0719 9.6375 13.0719H13.3781V16.7781C13.3781 17.8281 12.525 18.6813 11.4781 18.6813ZM5.27313 12.4459H1.84469V8.03407H5.27281V12.4459H5.27313ZM13.3781 9.59376V12.4469H9.95094V8.03438H13.3781V9.59376ZM9.325 12.4459H5.89813V8.03407H9.325V12.4459ZM13.3781 5.38438V7.40938H9.63938H9.63875H1.84375V5.38469C1.84375 4.33469 2.69688 3.48157 3.74688 3.48157H11.4781C12.525 3.48157 13.3781 4.33469 13.3781 5.38469V5.38438Z" fill="white"/>
<path d="M3.14484 9.51813H3.84109L2.87765 11.1131C2.78828 11.2609 2.83578 11.4528 2.98359 11.5422C3.03422 11.5728 3.08984 11.5872 3.14484 11.5872C3.25078 11.5872 3.3539 11.5334 3.41265 11.4363L4.66265 9.36719C4.72109 9.27063 4.72265 9.15031 4.66734 9.05219C4.61203 8.95406 4.50796 8.89313 4.39515 8.89313H3.14515C2.97265 8.89313 2.83265 9.03313 2.83265 9.20563C2.83265 9.37813 2.97234 9.51813 3.14484 9.51813Z" fill="white"/>
<path d="M7.20685 9.51813H7.9031L6.93966 11.1131C6.85029 11.2609 6.89779 11.4528 7.0456 11.5422C7.09623 11.5728 7.15185 11.5872 7.20685 11.5872C7.31279 11.5872 7.41591 11.5334 7.47466 11.4363L8.72466 9.36719C8.7831 9.27063 8.78466 9.15031 8.72935 9.05219C8.67404 8.95406 8.56998 8.89313 8.45716 8.89313H7.20716C7.03466 8.89313 6.89466 9.03313 6.89466 9.20563C6.89466 9.37813 7.03435 9.51813 7.20685 9.51813Z" fill="white"/>
<path d="M11.0403 9.51813H11.7366L10.7732 11.1131C10.6838 11.2609 10.7313 11.4528 10.8791 11.5422C10.9297 11.5728 10.9853 11.5872 11.0403 11.5872C11.1463 11.5872 11.2494 11.5334 11.3082 11.4363L12.5582 9.36719C12.6166 9.27063 12.6182 9.15031 12.5628 9.05219C12.5075 8.95406 12.4035 8.89313 12.2907 8.89313H11.0407C10.8682 8.89313 10.7282 9.03313 10.7282 9.20563C10.7282 9.37813 10.8682 9.51813 11.0407 9.51813H11.0403Z" fill="white"/>
</svg>
