<svg width="366" height="366" viewBox="0 0 366 366" fill="none" xmlns="http://www.w3.org/2000/svg">
<g clip-path="url(#clip0_168_12710)">
<g opacity="0.1">
<path opacity="0.1" d="M295.683 262.196L271.803 276.192L247.777 262.196L271.658 248.201L295.683 262.196Z" fill="#0071BC"/>
</g>
<g opacity="0.1">
<path opacity="0.1" d="M265.268 280.589L251.331 288.796L237.25 280.589L251.186 272.455L265.268 280.589Z" fill="#0071BC"/>
</g>
<g opacity="0.1">
<path opacity="0.1" d="M191.233 313.192L169.53 325.868L147.682 313.192L169.385 300.442L191.233 313.192Z" fill="#0071BC"/>
</g>
<g opacity="0.1">
<path opacity="0.1" d="M110.01 283.299L96.0011 291.506L81.9922 283.299L95.9285 275.092L110.01 283.299Z" fill="#0071BC"/>
</g>
<g opacity="0.3">
<g filter="url(#filter0_f_168_12710)">
<path d="M307.577 224.402C315.038 228.748 315.043 239.524 307.586 243.877L205.556 303.738C197.604 308.403 187.755 308.418 179.789 303.777L76.9836 243.877C69.5138 239.516 69.5022 228.727 76.9626 224.35L178.943 164.523C186.894 159.859 196.741 159.843 204.706 164.483L307.577 224.402Z" fill="url(#paint0_linear_168_12710)"/>
</g>
</g>
<path d="M324.28 200.911L324.208 206.846L192.684 284.005V278.069L324.28 200.911Z" fill="url(#paint1_linear_168_12710)"/>
<path d="M192.684 278.07V284.005L60.2891 206.846V200.911L192.684 278.07Z" fill="url(#paint2_linear_168_12710)"/>
<path d="M324.281 200.908L192.684 278.066L60.2891 200.908L191.813 123.749L324.281 200.908Z" fill="url(#paint3_linear_168_12710)"/>
<path d="M300.982 200.909L192.613 264.438L83.5898 200.909L191.959 137.379L300.982 200.909Z" fill="url(#paint4_linear_168_12710)"/>
<path d="M253.147 239.379L254.454 238.646L247.921 234.836L246.614 235.569L253.147 239.379ZM268.68 230.366L269.987 229.633L263.454 225.823L262.148 226.556L268.68 230.366ZM272.527 228.095L273.834 227.362L267.301 223.551L265.995 224.284L272.527 228.095ZM257.067 237.107L258.373 236.375L251.841 232.564L250.534 233.297L257.067 237.107ZM276.447 225.823L277.753 225.09L271.221 221.28L269.914 222.013L276.447 225.823ZM260.914 234.909L262.22 234.176L255.688 230.366L254.381 231.099L260.914 234.909ZM264.761 232.638L266.067 231.905L259.535 228.095L258.228 228.827L264.761 232.638ZM291.98 216.81L293.287 216.077L286.754 212.267L285.447 213L291.98 216.81ZM295.827 214.539L297.134 213.806L290.601 209.996L289.294 210.728L295.827 214.539ZM280.294 223.551L281.6 222.819L275.068 219.008L273.761 219.741L280.294 223.551ZM299.747 212.267L301.053 211.534L294.521 207.724L293.214 208.457L299.747 212.267ZM288.061 219.008L289.367 218.276L282.834 214.465L281.528 215.198L288.061 219.008ZM284.213 221.28L285.52 220.547L278.987 216.737L277.681 217.47L284.213 221.28ZM210.467 264.292L211.774 263.56L205.241 259.749L203.934 260.482L210.467 264.292ZM214.314 262.021L215.621 261.288L209.088 257.478L207.781 258.211L214.314 262.021ZM307.513 207.724L308.82 206.991L302.287 203.181L300.981 203.914L307.513 207.724ZM249.3 241.65L250.607 240.918L244.074 237.107L242.767 237.84L249.3 241.65ZM218.234 259.749L219.54 259.017L213.008 255.206L211.701 255.939L218.234 259.749ZM206.548 266.564L207.854 265.831L201.321 262.021L200.015 262.754L206.548 266.564ZM202.701 268.836L204.007 268.103L197.474 264.292L196.168 265.025L202.701 268.836ZM222.081 257.478L223.387 256.745L216.855 252.935L215.548 253.668L222.081 257.478ZM241.534 246.194L242.84 245.461L236.307 241.65L235.001 242.383L241.534 246.194ZM226 255.206L227.307 254.474L220.774 250.663L219.468 251.396L226 255.206ZM237.614 248.465L238.92 247.732L232.388 243.922L231.081 244.655L237.614 248.465ZM245.381 243.922L246.687 243.189L240.154 239.379L238.848 240.112L245.381 243.922ZM229.847 253.008L231.154 252.275L224.621 248.465L223.315 249.198L229.847 253.008ZM233.767 250.737L235.073 250.004L228.541 246.194L227.234 246.926L233.767 250.737ZM303.594 209.996L304.9 209.263L298.368 205.453L297.061 206.185L303.594 209.996ZM156.101 246.12L149.568 249.931L150.875 250.663L157.407 246.853L156.101 246.12ZM152.181 243.849L145.649 247.659L146.955 248.392L153.488 244.581L152.181 243.849ZM191.014 266.491L184.482 270.301L185.788 271.034L192.321 267.223L198.854 271.034L200.16 270.301L193.627 266.491L192.393 267.223L191.014 266.491ZM148.334 241.577L141.802 245.387L143.108 246.12L149.641 242.31L148.334 241.577ZM163.868 250.663L157.335 254.474L158.641 255.206L165.174 251.396L163.868 250.663ZM140.568 237.107L134.035 240.918L135.342 241.65L141.874 237.84L140.568 237.107ZM144.415 239.379L137.882 243.189L139.189 243.922L145.721 240.112L144.415 239.379ZM175.481 257.478L168.948 261.288L170.255 262.021L176.788 258.211L175.481 257.478ZM183.248 261.948L176.715 265.758L178.022 266.491L184.554 262.68L183.248 261.948ZM187.167 264.219L180.635 268.029L181.941 268.762L188.474 264.952L187.167 264.219ZM167.715 252.935L161.182 256.745L162.488 257.478L169.021 253.668L167.715 252.935ZM179.401 259.676L172.868 263.486L174.175 264.219L180.707 260.409L179.401 259.676ZM171.634 255.206L165.102 259.017L166.408 259.749L172.941 255.939L171.634 255.206ZM136.648 234.836L130.116 238.646L131.422 239.379L137.955 235.569L136.648 234.836ZM159.948 248.392L153.415 252.202L154.722 252.935L161.255 249.125L159.948 248.392ZM105.582 216.737L99.0491 220.547L100.356 221.28L106.888 217.47L105.582 216.737ZM101.735 214.465L95.2021 218.276L96.5087 219.008L103.041 215.198L101.735 214.465ZM132.801 232.564L126.269 236.375L127.575 237.107L134.108 233.297L132.801 232.564ZM97.8878 212.194L91.3551 216.004L92.6617 216.737L99.1943 212.927L97.8878 212.194ZM82.3546 203.181L75.8219 206.991L77.1285 207.724L83.6611 203.914L82.3546 203.181ZM86.2016 205.379L79.6689 209.19L80.9755 209.922L87.5081 206.112L86.2016 205.379ZM90.1212 207.651L83.5885 211.461L84.8951 212.194L91.4277 208.384L90.1212 207.651ZM125.035 228.021L118.502 231.832L119.808 232.564L126.341 228.754L125.035 228.021ZM121.115 225.75L114.582 229.56L115.889 230.293L122.422 226.482L121.115 225.75ZM109.501 219.008L102.969 222.819L104.275 223.551L110.808 219.741L109.501 219.008ZM128.882 230.293L122.349 234.103L123.655 234.836L130.188 231.026L128.882 230.293ZM113.348 221.28L106.816 225.09L108.122 225.823L114.655 222.013L113.348 221.28ZM117.268 223.478L110.735 227.289L112.042 228.021L118.575 224.211L117.268 223.478ZM93.9682 209.922L87.4355 213.733L88.7421 214.465L95.2747 210.655L93.9682 209.922ZM82.3546 198.638L83.6611 197.905L77.1285 194.095L75.8219 194.828L82.3546 198.638ZM90.1212 194.168L91.4277 193.435L84.8951 189.625L83.5885 190.358L90.1212 194.168ZM171.634 146.613L172.941 145.88L166.408 142.07L165.102 142.802L171.634 146.613ZM167.715 148.884L169.021 148.151L162.488 144.341L161.182 145.074L167.715 148.884ZM86.2016 196.366L87.5081 195.634L80.9755 191.823L79.6689 192.556L86.2016 196.366ZM175.481 144.341L176.788 143.608L170.255 139.798L168.948 140.531L175.481 144.341ZM93.9682 191.897L95.2747 191.164L88.7421 187.354L87.4355 188.086L93.9682 191.897ZM97.8878 189.625L99.1943 188.892L92.6617 185.082L91.3551 185.815L97.8878 189.625ZM159.948 153.427L161.255 152.694L154.722 148.884L153.415 149.617L159.948 153.427ZM148.334 160.169L149.641 159.436L143.108 155.625L141.802 156.358L148.334 160.169ZM101.735 187.354L103.041 186.621L96.5087 182.811L95.2021 183.543L101.735 187.354ZM78.435 200.909L71.9023 204.72L73.2089 205.453L79.7415 201.642L78.435 200.909L79.7415 200.177L73.2089 196.366L71.9023 197.099L78.435 200.909ZM144.415 162.44L145.721 161.707L139.189 157.897L137.882 158.63L144.415 162.44ZM152.181 157.97L153.488 157.237L146.955 153.427L145.649 154.16L152.181 157.97ZM136.648 166.983L137.955 166.25L131.422 162.44L130.116 163.173L136.648 166.983ZM163.868 151.156L165.174 150.423L158.641 146.613L157.335 147.345L163.868 151.156ZM140.568 164.712L141.874 163.979L135.342 160.169L134.035 160.901L140.568 164.712ZM109.501 182.811L110.808 182.078L104.275 178.267L102.969 179L109.501 182.811ZM113.348 180.539L114.655 179.806L108.122 175.996L106.816 176.729L113.348 180.539ZM117.268 178.267L118.575 177.535L112.042 173.724L110.735 174.457L117.268 178.267ZM183.248 139.871L184.554 139.139L178.022 135.328L176.715 136.061L183.248 139.871ZM128.882 171.526L130.188 170.793L123.655 166.983L122.349 167.716L128.882 171.526ZM121.115 176.069L122.422 175.336L115.889 171.526L114.582 172.259L121.115 176.069ZM187.167 137.6L188.474 136.867L181.941 133.057L180.635 133.789L187.167 137.6ZM179.401 142.07L180.707 141.337L174.175 137.526L172.868 138.259L179.401 142.07ZM125.035 173.798L126.341 173.065L119.808 169.255L118.502 169.987L125.035 173.798ZM105.582 185.082L106.888 184.349L100.356 180.539L99.0491 181.272L105.582 185.082ZM132.801 169.255L134.108 168.522L127.575 164.712L126.269 165.444L132.801 169.255ZM156.101 155.699L157.407 154.966L150.875 151.156L149.568 151.888L156.101 155.699ZM275.068 182.811L281.6 179L280.294 178.267L273.761 182.078L275.068 182.811ZM306.062 200.909L304.828 201.642L311.36 205.453L312.667 204.72L306.062 200.909L312.667 197.099L311.36 196.366L304.828 200.177L306.062 200.909ZM247.921 166.983L254.454 163.173L253.147 162.44L246.614 166.25L247.921 166.983ZM302.215 198.638L308.747 194.828L307.441 194.095L300.908 197.905L302.215 198.638ZM298.368 196.366L304.9 192.556L303.594 191.823L297.061 195.634L298.368 196.366ZM282.834 187.354L289.367 183.543L288.061 182.811L281.528 186.621L282.834 187.354ZM286.681 189.625L293.214 185.815L291.908 185.082L285.375 188.892L286.681 189.625ZM294.448 194.168L300.981 190.358L299.674 189.625L293.141 193.435L294.448 194.168ZM278.915 185.082L285.447 181.272L284.141 180.539L277.608 184.349L278.915 185.082ZM290.601 191.897L297.134 188.086L295.827 187.354L289.294 191.164L290.601 191.897ZM271.148 180.539L277.681 176.729L276.374 175.996L269.842 179.806L271.148 180.539ZM224.621 153.427L231.154 149.617L229.847 148.884L223.315 152.694L224.621 153.427ZM228.468 155.699L235.001 151.888L233.694 151.156L227.162 154.966L228.468 155.699ZM212.935 146.613L219.468 142.802L218.161 142.07L211.629 145.88L212.935 146.613ZM216.855 148.884L223.387 145.074L222.081 144.341L215.548 148.151L216.855 148.884ZM220.702 151.156L227.234 147.345L225.928 146.613L219.395 150.423L220.702 151.156ZM244.001 164.712L250.534 160.901L249.228 160.169L242.695 163.979L244.001 164.712ZM240.154 162.44L246.687 158.63L245.381 157.897L238.848 161.707L240.154 162.44ZM236.235 160.169L242.767 156.358L241.461 155.625L234.928 159.436L236.235 160.169ZM232.388 157.97L238.92 154.16L237.614 153.427L231.081 157.237L232.388 157.97ZM263.382 176.069L269.914 172.259L268.608 171.526L262.075 175.336L263.382 176.069ZM209.088 144.341L215.621 140.531L214.314 139.798L207.781 143.608L209.088 144.341ZM255.615 171.526L262.148 167.716L260.841 166.983L254.309 170.793L255.615 171.526ZM267.301 178.267L273.834 174.457L272.527 173.724L265.995 177.535L267.301 178.267ZM251.768 169.255L258.301 165.444L256.994 164.712L250.461 168.522L251.768 169.255ZM259.535 173.798L266.067 169.987L264.761 169.255L258.228 173.065L259.535 173.798ZM192.248 134.522L185.716 130.712L184.409 131.445L190.942 135.255L192.248 134.522L193.482 135.328L200.015 131.518L198.708 130.785L192.248 134.522ZM205.168 142.07L211.701 138.259L210.395 137.526L203.862 141.337L205.168 142.07ZM201.321 139.871L207.854 136.061L206.548 135.328L200.015 139.139L201.321 139.871ZM197.402 137.6L203.934 133.789L202.628 133.057L196.095 136.867L197.402 137.6Z" fill="#4F6B81"/>
<path d="M252.202 194.416L252.13 209.951L192.465 244.976V229.442L252.202 194.416Z" fill="url(#paint5_linear_168_12710)"/>
<path d="M192.466 229.442V244.976L132.365 209.951V194.417L192.466 229.442Z" fill="url(#paint6_linear_168_12710)"/>
<path d="M133.672 194.415L192.103 160.123L250.969 194.415L192.466 228.708L133.672 194.415Z" fill="url(#paint7_linear_168_12710)"/>
<path d="M154.941 194.415L192.178 172.579L229.631 194.415L192.395 216.251L154.941 194.415Z" fill="url(#paint8_radial_168_12710)"/>
<path d="M157.043 192.951L158.567 192.071L152.833 188.701L151.309 189.58L157.043 192.951ZM200.594 218.304L202.118 217.425L196.384 214.054L194.86 215.007L200.594 218.304ZM206.836 214.713L208.36 213.834L202.626 210.464L201.102 211.343L206.836 214.713ZM213.078 211.05L214.603 210.17L208.868 206.8L207.344 207.679L213.078 211.05ZM163.285 189.287L164.809 188.408L159.075 185.037L157.551 185.916L163.285 189.287ZM165.317 207.459L171.052 204.089L169.527 203.209L163.793 206.58L165.317 207.459ZM183.972 218.304L189.706 214.933L188.182 214.054L182.448 217.425L183.972 218.304ZM177.73 214.713L183.464 211.343L181.939 210.464L176.205 213.834L177.73 214.713ZM159.075 203.795L164.809 200.425L163.285 199.546L157.551 202.916L159.075 203.795ZM152.833 200.205L158.567 196.834L157.043 195.955L151.309 199.326L152.833 200.205ZM171.487 211.05L177.221 207.679L175.697 206.8L169.963 210.17L171.487 211.05ZM169.455 185.697L170.979 184.817L165.245 181.447L163.721 182.326L169.455 185.697ZM225.49 203.795L227.015 202.916L221.281 199.546L219.756 200.425L225.49 203.795ZM208.868 182.033L214.603 178.662L213.078 177.783L207.344 181.153L208.868 182.033ZM221.353 189.287L227.087 185.916L225.563 185.037L219.829 188.408L221.353 189.287ZM215.111 185.697L220.845 182.326L219.321 181.447L213.587 184.817L215.111 185.697ZM202.626 178.442L208.36 175.072L206.836 174.192L201.102 177.563L202.626 178.442ZM196.384 174.779L202.118 171.408L200.594 170.529L194.86 173.899L196.384 174.779ZM231.733 200.205L233.257 199.326L227.523 195.955L225.999 196.834L231.733 200.205ZM181.939 178.442L183.464 177.563L177.73 174.192L176.205 175.072L181.939 178.442ZM175.697 182.033L177.221 181.153L171.487 177.783L169.963 178.662L175.697 182.033ZM219.248 207.459L220.772 206.58L215.038 203.209L213.514 204.089L219.248 207.459ZM188.182 174.779L189.706 173.899L183.972 170.529L182.448 171.408L188.182 174.779ZM227.523 192.951L233.257 189.58L231.733 188.701L225.999 192.071L227.523 192.951Z" fill="#6B8497"/>
<g opacity="0.31">
<path opacity="0.4" d="M60.2891 5.51221V208.704L192.684 285.863L324.208 208.704V5.51221H60.2891Z" fill="url(#paint9_linear_168_12710)"/>
<path opacity="0.4" d="M97.2363 61.8625V208.193L192.613 263.736L287.264 208.193V61.8625H97.2363Z" fill="url(#paint10_linear_168_12710)"/>
<path opacity="0.4" d="M133.311 6.68555V194.123L192.467 228.563L251.261 194.123V6.68555H133.311Z" fill="url(#paint11_linear_168_12710)"/>
</g>
<g opacity="0.1">
<path opacity="0.1" d="M102.344 300.378L85.6503 310.157L68.957 300.378L85.5638 290.598L102.344 300.378Z" fill="#0071BC"/>
</g>
<path d="M200.696 162.46L202.722 160.469L146.592 124.146L136.289 130.15L191.884 167.595L200.696 162.46Z" fill="url(#paint12_linear_168_12710)"/>
<path d="M136.362 130.369L203.216 92.5787L203.214 92.047L192.834 85.8327L162.082 103.097L136.446 117.537L136.362 130.369Z" fill="url(#paint13_linear_168_12710)"/>
<path d="M207.56 152.367L155.862 119.021L146.578 124.459L202.723 160.466L207.56 152.367Z" fill="url(#paint14_linear_168_12710)"/>
<path d="M146.368 136.7L203.202 104.171L203.203 91.9915L136.29 130.179L146.368 136.7Z" fill="url(#paint15_linear_168_12710)"/>
<path d="M182.527 161.36L238.695 123.994L248.871 129.925L193.751 169.028L182.527 161.36Z" fill="url(#paint16_linear_168_12710)"/>
<path d="M248.775 130.13L182.4 92.6108L182.403 92.08L192.705 85.9117L223.237 103.052L248.691 117.389L248.775 130.13Z" fill="url(#paint17_linear_168_12710)"/>
<path d="M238.842 136.414L182.637 104.245L182.638 92.1539L248.848 129.94L238.842 136.414Z" fill="url(#paint18_linear_168_12710)"/>
<path d="M192.788 85.699L192.786 85.6992L192.944 154.167L202.766 147.706L202.636 91.4354L192.788 85.699Z" fill="url(#paint19_linear_168_12710)"/>
<path d="M182.571 91.6547L182.732 161.211L192.971 154.475L192.812 85.8369L182.571 91.6547Z" fill="url(#paint20_linear_168_12710)"/>
<path d="M182.805 161.245L182.805 148.683L219.149 124.95L229.046 130.541L182.805 161.245Z" fill="url(#paint21_linear_168_12710)"/>
<path d="M150.35 96.6588L192.711 72.3164L237.027 97.9746" stroke="url(#paint22_linear_168_12710)" stroke-width="1.13026"/>
<path d="M237.027 153.898L194.666 178.24L150.35 152.582" stroke="url(#paint23_linear_168_12710)" stroke-width="1.13026"/>
</g>
<defs>
<filter id="filter0_f_168_12710" x="-175.187" y="-85.5481" width="734.924" height="639.358" filterUnits="userSpaceOnUse" color-interpolation-filters="sRGB">
<feFlood flood-opacity="0" result="BackgroundImageFix"/>
<feBlend mode="normal" in="SourceGraphic" in2="BackgroundImageFix" result="shape"/>
<feGaussianBlur stdDeviation="123.281" result="effect1_foregroundBlur_168_12710"/>
</filter>
<linearGradient id="paint0_linear_168_12710" x1="432.919" y1="338.28" x2="428.278" y2="213.072" gradientUnits="userSpaceOnUse">
<stop offset="0.120359" stop-color="#01C3FD" stop-opacity="0"/>
<stop offset="0.22146" stop-color="#87E3FE" stop-opacity="0.285515"/>
<stop offset="0.311574" stop-color="white" stop-opacity="0.54"/>
<stop offset="0.879956" stop-color="#E7F9FF" stop-opacity="0.69"/>
</linearGradient>
<linearGradient id="paint1_linear_168_12710" x1="227.294" y1="204.557" x2="288.451" y2="280.598" gradientUnits="userSpaceOnUse">
<stop stop-color="#AFDFE8"/>
<stop offset="0.711861" stop-color="#133856"/>
</linearGradient>
<linearGradient id="paint2_linear_168_12710" x1="125.317" y1="188.551" x2="155.073" y2="262.275" gradientUnits="userSpaceOnUse">
<stop stop-color="#AFDFE8"/>
<stop offset="0.711861" stop-color="#133856"/>
</linearGradient>
<linearGradient id="paint3_linear_168_12710" x1="189.953" y1="100.795" x2="242.396" y2="240.301" gradientUnits="userSpaceOnUse">
<stop stop-color="#AFDFE8"/>
<stop offset="0.711861" stop-color="#133856"/>
</linearGradient>
<linearGradient id="paint4_linear_168_12710" x1="190.366" y1="118.48" x2="233.541" y2="233.348" gradientUnits="userSpaceOnUse">
<stop stop-color="#AFDFE8"/>
<stop offset="0.711861" stop-color="#133856"/>
</linearGradient>
<linearGradient id="paint5_linear_168_12710" x1="239.241" y1="153.02" x2="281.573" y2="250.041" gradientUnits="userSpaceOnUse">
<stop stop-color="#AFDFE8"/>
<stop offset="0.711861" stop-color="#264E6F"/>
</linearGradient>
<linearGradient id="paint6_linear_168_12710" x1="179.426" y1="153.02" x2="221.583" y2="250.228" gradientUnits="userSpaceOnUse">
<stop stop-color="#AFDFE8"/>
<stop offset="0.711861" stop-color="#264E6F"/>
</linearGradient>
<linearGradient id="paint7_linear_168_12710" x1="191.285" y1="149.921" x2="228.152" y2="249.882" gradientUnits="userSpaceOnUse">
<stop stop-color="#AFDFE8"/>
<stop offset="0.711861" stop-color="#133856"/>
</linearGradient>
<radialGradient id="paint8_radial_168_12710" cx="0" cy="0" r="1" gradientTransform="matrix(2.80683e-06 107.457 -150.207 54.3151 191.996 204.005)" gradientUnits="userSpaceOnUse">
<stop stop-color="#AFDFE8"/>
<stop offset="0.711861" stop-color="#133856"/>
</radialGradient>
<linearGradient id="paint9_linear_168_12710" x1="202.067" y1="359.646" x2="214.707" y2="-23.0618" gradientUnits="userSpaceOnUse">
<stop stop-color="white"/>
<stop offset="0.852811" stop-color="white" stop-opacity="0"/>
</linearGradient>
<linearGradient id="paint10_linear_168_12710" x1="199.32" y1="316.865" x2="208.422" y2="41.2872" gradientUnits="userSpaceOnUse">
<stop stop-color="white"/>
<stop offset="0.852811" stop-color="white" stop-opacity="0"/>
</linearGradient>
<linearGradient id="paint11_linear_168_12710" x1="196.674" y1="286.957" x2="214.348" y2="-15.2255" gradientUnits="userSpaceOnUse">
<stop stop-color="white"/>
<stop offset="0.852811" stop-color="white" stop-opacity="0"/>
</linearGradient>
<linearGradient id="paint12_linear_168_12710" x1="190.67" y1="162.624" x2="151.596" y2="135.155" gradientUnits="userSpaceOnUse">
<stop stop-color="#02064A"/>
<stop offset="0.0001" stop-color="#89B2C1"/>
<stop offset="1" stop-color="#456783"/>
</linearGradient>
<linearGradient id="paint13_linear_168_12710" x1="141.196" y1="120.263" x2="188.051" y2="95.9572" gradientUnits="userSpaceOnUse">
<stop stop-color="#A2CBD6"/>
<stop offset="1" stop-color="#56778C"/>
</linearGradient>
<linearGradient id="paint14_linear_168_12710" x1="188.793" y1="148.714" x2="157.895" y2="125.602" gradientUnits="userSpaceOnUse">
<stop stop-color="#8CB1BE"/>
<stop offset="1" stop-color="#5A7B8F"/>
</linearGradient>
<linearGradient id="paint15_linear_168_12710" x1="144.955" y1="132.276" x2="186.671" y2="113.526" gradientUnits="userSpaceOnUse">
<stop stop-color="#698FA5"/>
<stop offset="1" stop-color="#63899F"/>
</linearGradient>
<linearGradient id="paint16_linear_168_12710" x1="235.372" y1="133.597" x2="160.633" y2="174.285" gradientUnits="userSpaceOnUse">
<stop stop-color="#55768B"/>
<stop offset="1" stop-color="#91B7C3"/>
</linearGradient>
<linearGradient id="paint17_linear_168_12710" x1="244.53" y1="121.529" x2="199.564" y2="97.8198" gradientUnits="userSpaceOnUse">
<stop stop-color="#88AEBC"/>
<stop offset="1" stop-color="#B1D9E1"/>
</linearGradient>
<linearGradient id="paint18_linear_168_12710" x1="202.568" y1="96.8727" x2="199.763" y2="174.041" gradientUnits="userSpaceOnUse">
<stop stop-color="#8BB3C3"/>
<stop offset="1" stop-color="#446783"/>
</linearGradient>
<linearGradient id="paint19_linear_168_12710" x1="198.812" y1="96.2388" x2="199.45" y2="148.082" gradientUnits="userSpaceOnUse">
<stop stop-color="#8EB3C0"/>
<stop offset="1" stop-color="#53748A"/>
</linearGradient>
<linearGradient id="paint20_linear_168_12710" x1="191.295" y1="89.283" x2="191.295" y2="141.127" gradientUnits="userSpaceOnUse">
<stop stop-color="#B3DAE3"/>
<stop offset="1" stop-color="#62869C"/>
</linearGradient>
<linearGradient id="paint21_linear_168_12710" x1="163.111" y1="170.846" x2="246.291" y2="113.418" gradientUnits="userSpaceOnUse">
<stop stop-color="#8AB0BD"/>
<stop offset="1" stop-color="#B1D8E1"/>
</linearGradient>
<linearGradient id="paint22_linear_168_12710" x1="193.688" y1="72.3164" x2="193.688" y2="97.9746" gradientUnits="userSpaceOnUse">
<stop stop-color="white"/>
<stop offset="1" stop-color="white" stop-opacity="0"/>
</linearGradient>
<linearGradient id="paint23_linear_168_12710" x1="193.689" y1="178.24" x2="193.689" y2="152.582" gradientUnits="userSpaceOnUse">
<stop stop-color="white"/>
<stop offset="1" stop-color="white" stop-opacity="0"/>
</linearGradient>
<clipPath id="clip0_168_12710">
<rect width="366" height="366" fill="white"/>
</clipPath>
</defs>
</svg>
