<svg width="24" height="24" viewBox="0 0 24 24" fill="none" xmlns="http://www.w3.org/2000/svg">
<path d="M7.30802 16.6681L7.27202 16.6921L5.86802 17.8681L5.34002 18.3121L5.84402 18.7681C7.52753 20.3007 9.72339 21.1482 12 21.1441C12.456 21.1441 12.904 21.1121 13.344 21.0481L14.34 20.9041L13.74 20.1001L11.94 17.7001L14.016 15.3241L14.16 15.1561V15.1081L14.22 15.1201L17.556 15.3721V19.4161L18.588 18.3361C20.0801 16.7944 20.9809 14.7761 21.132 12.6361L21.168 12.0961L20.628 12.0001L20.232 11.9281L20.052 11.9041L18.948 8.12405L18.912 8.00405L18.996 7.68005L19.236 6.78005L19.308 6.48005L19.116 6.24005C17.7822 4.59048 15.9151 3.45747 13.836 3.03605L13.884 2.97605L12.78 2.88005C11.5045 2.77063 10.2202 2.93098 9.01068 3.35068C7.80119 3.77039 6.69362 4.44003 5.76002 5.31605L4.68002 6.32405H4.82402C3.42023 8.09389 2.72323 10.3217 2.86802 12.5761L2.90402 13.1401H5.90402L5.91602 13.1761L7.30802 16.6681ZM12.744 10.2601L8.62802 9.30005V6.44405L12.276 5.01605L12.396 5.11205L14.724 7.12805L12.888 10.2961L12.744 10.2601ZM12 21.3721C10.7693 21.3721 9.55058 21.1296 8.41351 20.6587C7.27645 20.1877 6.24329 19.4973 5.37302 18.6271C4.50275 17.7568 3.81241 16.7236 3.34142 15.5866C2.87044 14.4495 2.62802 13.2308 2.62802 12.0001C2.62802 10.7693 2.87044 9.55061 3.34142 8.41354C3.81241 7.27648 4.50275 6.24332 5.37302 5.37305C6.24329 4.50278 7.27645 3.81244 8.41351 3.34145C9.55058 2.87047 10.7693 2.62805 12 2.62805C14.4856 2.62805 16.8694 3.61546 18.627 5.37305C20.3846 7.13064 21.372 9.51444 21.372 12.0001C21.372 14.4857 20.3846 16.8695 18.627 18.6271C16.8694 20.3846 14.4856 21.3721 12 21.3721Z" fill="white" stroke="white" stroke-width="1.2"/>
</svg>
