<svg width="20" height="20" viewBox="0 0 20 20" fill="none" xmlns="http://www.w3.org/2000/svg">
<path fill-rule="evenodd" clip-rule="evenodd" d="M9.62391 6.58823C8.01035 5.54926 6.18591 4.88218 4.28273 4.63529C5.19576 3.66669 6.3392 2.94509 7.60643 2.53777C8.87366 2.13044 10.2234 2.05067 11.5298 2.30588C11.2677 3.87534 10.612 5.35274 9.62391 6.59999M10.7886 7.45882C11.8753 6.08207 12.603 4.45694 12.9063 2.7294C13.8922 3.12453 14.7881 3.71484 15.5402 4.46489C16.2922 5.21494 16.885 6.10925 17.2827 7.09411C15.518 7.42352 13.9063 8.1647 12.5533 9.22352C12.0278 8.58039 11.4396 7.99215 10.7886 7.45882ZM2.15332 9.99999C2.15332 8.52941 2.56508 7.15293 3.2592 5.97646C5.23567 6.09411 7.0592 6.68235 8.63567 7.67058C6.88578 9.32091 4.57043 10.2386 2.16509 10.2353L2.15332 9.99999ZM15.3651 15.7176C15.118 13.7647 14.4239 11.9529 13.4004 10.3765C14.6476 9.38839 16.125 8.73267 17.6945 8.47058C17.9497 9.77697 17.8699 11.1267 17.4626 12.3939C17.0553 13.6612 16.3337 14.8046 15.3651 15.7176ZM2.32979 11.6706C5.14418 11.6242 7.83243 10.495 9.83567 8.51764C10.4318 9.0196 10.9808 9.56862 11.4827 10.1647C9.50538 12.1679 8.37615 14.8562 8.32979 17.6706C6.86161 17.3468 5.51665 16.6099 4.45354 15.5468C3.39044 14.4837 2.65355 13.1388 2.32979 11.6706ZM10.0004 17.8471H9.76509C9.76509 15.3294 10.7416 13.0588 12.3298 11.3529C13.3399 12.9731 13.9227 14.8229 14.0239 16.7294C12.8474 17.4353 11.471 17.8471 10.0004 17.8471Z" fill="white"/>
</svg>
