<svg width="163" height="94" viewBox="0 0 163 94" fill="none" xmlns="http://www.w3.org/2000/svg">
<path d="M64.8769 35.5493V18.9332H58.324V15.0717H76.1687V18.9332H69.6159V35.5493H64.8769ZM77.9416 35.5493V32.4776L85.84 25.018C86.4641 24.4524 86.9224 23.9453 87.215 23.4968C87.5075 23.0482 87.7025 22.6387 87.8 22.2681C87.917 21.8976 87.9755 21.5563 87.9755 21.2443C87.9755 20.4252 87.6928 19.8011 87.1272 19.372C86.5811 18.9235 85.7718 18.6992 84.6991 18.6992C83.841 18.6992 83.0414 18.865 82.3003 19.1965C81.5788 19.528 80.9644 20.0449 80.4574 20.7469L77.0054 18.5237C77.7855 17.3535 78.8777 16.4272 80.2818 15.7446C81.686 15.062 83.3047 14.7207 85.1379 14.7207C86.6591 14.7207 87.9853 14.9742 89.1164 15.4813C90.2671 15.9689 91.1544 16.6612 91.7785 17.5583C92.4221 18.4554 92.7439 19.528 92.7439 20.7762C92.7439 21.4393 92.6561 22.1024 92.4806 22.7654C92.3246 23.409 91.993 24.0916 91.486 24.8132C90.9984 25.5348 90.2768 26.3441 89.3212 27.2412L82.7684 33.4138L81.8615 31.6878H93.4167V35.5493H77.9416ZM104.148 35.9003C102.471 35.9003 100.969 35.4908 99.6432 34.6717C98.317 33.8331 97.2736 32.6239 96.513 31.0442C95.7524 29.4645 95.3721 27.5533 95.3721 25.3105C95.3721 23.0677 95.7524 21.1565 96.513 19.5768C97.2736 17.9971 98.317 16.7977 99.6432 15.9786C100.969 15.14 102.471 14.7207 104.148 14.7207C105.845 14.7207 107.347 15.14 108.653 15.9786C109.979 16.7977 111.023 17.9971 111.783 19.5768C112.544 21.1565 112.924 23.0677 112.924 25.3105C112.924 27.5533 112.544 29.4645 111.783 31.0442C111.023 32.6239 109.979 33.8331 108.653 34.6717C107.347 35.4908 105.845 35.9003 104.148 35.9003ZM104.148 31.8926C104.948 31.8926 105.64 31.6683 106.225 31.2197C106.83 30.7712 107.298 30.0593 107.629 29.0842C107.98 28.1091 108.156 26.8512 108.156 25.3105C108.156 23.7698 107.98 22.5119 107.629 21.5368C107.298 20.5617 106.83 19.8498 106.225 19.4013C105.64 18.9527 104.948 18.7284 104.148 18.7284C103.368 18.7284 102.676 18.9527 102.071 19.4013C101.486 19.8498 101.018 20.5617 100.667 21.5368C100.335 22.5119 100.17 23.7698 100.17 25.3105C100.17 26.8512 100.335 28.1091 100.667 29.0842C101.018 30.0593 101.486 30.7712 102.071 31.2197C102.676 31.6683 103.368 31.8926 104.148 31.8926Z" fill="white"/>
<path d="M36.9497 13.9215V13.2315C36.9497 12.999 36.7606 12.8098 36.528 12.8098H35.8036V12.4487C35.8036 12.0626 35.4895 11.7487 35.1035 11.7487H34.6519C34.4102 11.7487 34.1967 11.8719 34.0708 12.0588C33.9449 11.8719 33.7316 11.7487 33.4897 11.7487H33.038C32.7974 11.7487 32.585 11.8708 32.4589 12.0561C32.3328 11.8708 32.1204 11.7487 31.8799 11.7487H31.4282C31.1876 11.7487 30.9752 11.8708 30.8491 12.0561C30.723 11.8708 30.5106 11.7487 30.27 11.7487H29.8183C29.4322 11.7487 29.1183 12.0628 29.1183 12.4487V12.8098H28.5001C28.3355 12.8098 28.1942 12.9055 28.1247 13.0433C28.0551 12.9055 27.9138 12.8098 27.7493 12.8098H26.9229V12.4449C26.9229 12.061 26.6105 11.7487 26.2266 11.7487H25.79C25.5509 11.7487 25.3397 11.8699 25.2142 12.0541C25.0888 11.8699 24.8777 11.7487 24.6385 11.7487H24.2018C23.9637 11.7487 23.7535 11.869 23.6281 12.0519C23.5024 11.8692 23.2922 11.7487 23.0543 11.7487H22.6177C22.3796 11.7487 22.1694 11.869 22.0439 12.0519C21.9183 11.8692 21.7081 11.7487 21.4702 11.7487H21.0336C20.6497 11.7487 20.3373 12.061 20.3373 12.4449V12.8098H19.7218C19.4892 12.8098 19.3001 12.999 19.3001 13.2315V13.9215C19.3001 14.1397 19.4673 14.3177 19.6799 14.339H18.0361V54.5131C18.0361 54.6522 18.0909 54.7781 18.1806 54.8704C18.2629 54.9688 18.3742 55.0292 18.4967 55.0292H20.0914C20.2172 55.0292 20.3313 54.9655 20.4144 54.8619C20.4992 54.7705 20.5508 54.6475 20.5508 54.5131V54.466C20.5513 54.4611 20.5513 54.4559 20.5513 54.451V54.21H20.5508V45.7049H20.5513V33.9079V33.7082V21.9117L20.5508 21.9121V15.2756C20.6763 15.3968 20.8462 15.4723 21.0338 15.4723H21.4705C21.7086 15.4723 21.9188 15.352 22.0442 15.1691C22.1698 15.3518 22.38 15.4723 22.6179 15.4723H23.0546C23.2927 15.4723 23.5029 15.352 23.6283 15.1691C23.754 15.3518 23.9641 15.4723 24.202 15.4723H24.6387C24.8777 15.4723 25.089 15.3511 25.2144 15.1669C25.3399 15.3511 25.5509 15.4723 25.7902 15.4723H26.2268C26.429 15.4723 26.6096 15.3842 26.7371 15.2463V54.5134C26.7371 54.6509 26.7907 54.7756 26.8788 54.868C26.9611 54.9679 27.0731 55.0294 27.1968 55.0294H28.7919C28.9166 55.0294 29.03 54.9668 29.1125 54.8653C29.1986 54.7734 29.2516 54.6493 29.2516 54.5134V54.4512V54.2102V45.706C29.2525 45.706 29.2527 45.7055 29.2536 45.7053V33.9083V33.7087V21.9121C29.2529 21.9126 29.2525 21.9128 29.2516 21.9133V15.1803C29.3788 15.3565 29.5847 15.4726 29.8181 15.4726H30.2698C30.5104 15.4726 30.7228 15.3505 30.8489 15.1651C30.975 15.3505 31.1874 15.4726 31.428 15.4726H31.8796C32.1202 15.4726 32.3326 15.3505 32.4587 15.1651C32.5848 15.3505 32.7972 15.4726 33.0378 15.4726H33.4895C33.7312 15.4726 33.9447 15.3494 34.0706 15.1624C34.1964 15.3494 34.4098 15.4726 34.6517 15.4726H35.1033C35.2925 15.4726 35.464 15.3963 35.5901 15.274V54.5105C35.5901 54.6388 35.6368 54.7557 35.7144 54.8456C35.7978 54.9588 35.9172 55.0294 36.0498 55.0294H37.6448C37.779 55.0294 37.8995 54.9572 37.9834 54.8421C37.984 54.8414 37.9849 54.84 37.9854 54.8394C38.0598 54.7506 38.1048 54.6355 38.1048 54.5102V54.4512V54.2102V45.7051V33.9081V33.7084V21.9119V14.3363H36.6002C36.7983 14.3014 36.9497 14.1292 36.9497 13.9215ZM28.4583 14.339H27.7915C27.938 14.3242 28.0614 14.2354 28.1249 14.1098C28.1882 14.2357 28.3118 14.3244 28.4583 14.339Z" fill="white"/>
<path d="M40.0978 4.27546C39.8176 2.88139 39.0112 1.68005 37.827 0.892343C36.9495 0.308553 35.931 0 34.8817 0C33.0928 0 31.4338 0.887648 30.4442 2.37451C30.1108 2.87535 29.8664 3.42225 29.7182 3.99955C29.5748 4.55763 29.5236 5.13315 29.5663 5.71023C29.6513 6.86149 30.1155 7.97049 30.8734 8.83309C30.9067 8.872 30.9383 8.9071 30.9694 8.94019C31.2536 9.24696 31.576 9.5213 31.9277 9.75495C32.257 9.97362 32.6067 10.1547 32.9673 10.2927C33.0116 10.3101 33.0599 10.328 33.1192 10.3488C33.6833 10.5467 34.2736 10.6468 34.8732 10.6468C36.6622 10.6468 38.3209 9.7592 39.3105 8.27278C40.0983 7.0891 40.378 5.66954 40.0978 4.27546Z" fill="white"/>
<path d="M146.396 19.4831C148.052 16.3441 150.046 12.6795 151.087 10.7743C151.332 10.3267 151.169 9.76304 150.724 9.51798L150.718 9.51441C150.687 9.49294 150.656 9.4726 150.622 9.45449L150.123 9.18596L149.496 8.84006C149.458 8.81905 149.418 8.80161 149.378 8.78618C149.248 8.71866 149.103 8.68243 148.958 8.68243C148.615 8.68243 148.304 8.87226 148.146 9.17768C147.532 10.3638 145.384 14.5009 143.54 17.9316C143.493 18.0188 143.446 18.1029 143.398 18.1854C142.819 19.1602 142.195 19.7943 141.541 20.0707C141.534 20.0727 141.527 20.0749 141.521 20.0774C141.514 20.0801 141.507 20.0828 141.501 20.0852C141.498 20.0864 141.495 20.0875 141.493 20.0884C141.487 20.0899 141.482 20.0917 141.476 20.0937L141.43 20.0687L141.346 20.1018C141.202 20.1581 141.059 20.1957 140.918 20.2183C140.875 20.2214 140.832 20.2243 140.789 20.2243C140.065 20.2243 139.522 19.7919 139.373 19.6593C139.371 19.6582 139.37 19.6571 139.369 19.6559C139.311 19.6065 139.238 19.5795 139.163 19.5795C139.11 19.5795 139.057 19.5936 139.01 19.6204C138.991 19.6313 138.974 19.6445 138.958 19.66C138.957 19.6609 138.956 19.6618 138.955 19.6627C138.951 19.6653 138.948 19.668 138.944 19.6709C138.919 19.6919 138.897 19.7177 138.881 19.7469L131.977 32.5583L130.866 34.6185L120.935 53.0467C120.804 53.2908 120.821 53.5813 120.981 53.804C121.589 54.6556 122.658 55.8664 124.304 56.7971C126.035 57.7785 127.705 58.0553 128.8 58.1145C128.814 58.1154 128.828 58.1157 128.841 58.1157C129.099 58.1157 129.337 57.9726 129.461 57.742L142.422 33.6944L143.531 31.6334L147.407 24.4423C147.408 24.4416 147.408 24.4407 147.408 24.4401C147.452 24.3558 147.457 24.2572 147.422 24.1698C147.386 24.0823 147.314 24.0155 147.223 23.9864C147.221 23.9855 147.218 23.9848 147.215 23.9839C146.939 23.9048 146.055 23.5784 145.762 22.608L145.784 22.6015L145.738 22.3755C145.6 21.704 145.752 20.8736 146.186 19.9032C146.252 19.7662 146.321 19.626 146.396 19.4831Z" fill="white"/>
<path d="M153.171 93.0128H9.07499L0 52.5301H162.246L153.171 93.0128Z" fill="white"/>
<path d="M41.0386 81.2989C39.4589 81.2989 37.9864 81.0453 36.6213 80.5383C35.2756 80.0117 34.1054 79.2706 33.1108 78.315C32.1162 77.3594 31.3361 76.238 30.7705 74.9508C30.2245 73.6637 29.9514 72.2498 29.9514 70.7091C29.9514 69.1684 30.2245 67.7545 30.7705 66.4673C31.3361 65.1801 32.1162 64.0587 33.1108 63.1031C34.125 62.1475 35.3048 61.4162 36.6505 60.9091C37.9962 60.3825 39.4686 60.1193 41.0678 60.1193C42.8425 60.1193 44.4417 60.4313 45.8654 61.0554C47.3086 61.66 48.5177 62.5571 49.4928 63.7467L46.4505 66.5551C45.7484 65.7555 44.9683 65.1606 44.1102 64.7706C43.2521 64.361 42.316 64.1563 41.3018 64.1563C40.3462 64.1563 39.4686 64.3123 38.669 64.6243C37.8694 64.9364 37.1771 65.3849 36.592 65.97C36.0069 66.5551 35.5486 67.2474 35.2171 68.047C34.905 68.8466 34.749 69.7339 34.749 70.7091C34.749 71.6842 34.905 72.5715 35.2171 73.3711C35.5486 74.1707 36.0069 74.8631 36.592 75.4482C37.1771 76.0332 37.8694 76.4818 38.669 76.7938C39.4686 77.1059 40.3462 77.2619 41.3018 77.2619C42.316 77.2619 43.2521 77.0669 44.1102 76.6768C44.9683 76.2673 45.7484 75.6529 46.4505 74.8338L49.4928 77.6422C48.5177 78.8318 47.3086 79.7387 45.8654 80.3628C44.4417 80.9868 42.8328 81.2989 41.0386 81.2989ZM52.3714 80.9478V65.2094H56.7301V69.6559L56.1158 68.3688C56.5839 67.2571 57.3347 66.4185 58.3683 65.853C59.402 65.2679 60.6599 64.9754 62.1421 64.9754V69.1879C61.947 69.1684 61.7715 69.1586 61.6155 69.1586C61.4595 69.1391 61.2937 69.1294 61.1182 69.1294C59.87 69.1294 58.8559 69.4902 58.0758 70.2118C57.3152 70.9138 56.9349 72.0157 56.9349 73.5174V80.9478H52.3714ZM64.8841 80.9478V65.2094H69.4477V80.9478H64.8841ZM67.1659 63.0154C66.3273 63.0154 65.6447 62.7716 65.1182 62.284C64.5916 61.7965 64.3283 61.1919 64.3283 60.4703C64.3283 59.7487 64.5916 59.1441 65.1182 58.6566C65.6447 58.169 66.3273 57.9252 67.1659 57.9252C68.0045 57.9252 68.6871 58.1593 69.2137 58.6273C69.7402 59.0759 70.0035 59.661 70.0035 60.3825C70.0035 61.1431 69.7402 61.777 69.2137 62.284C68.7066 62.7716 68.024 63.0154 67.1659 63.0154ZM81.289 81.1819C79.5923 81.1819 78.0808 80.8406 76.7547 80.158C75.4285 79.4559 74.3851 78.4905 73.6245 77.2619C72.8835 76.0332 72.5129 74.6388 72.5129 73.0786C72.5129 71.4989 72.8835 70.1045 73.6245 68.8953C74.3851 67.6667 75.4285 66.7111 76.7547 66.0285C78.0808 65.3264 79.5923 64.9754 81.289 64.9754C82.9467 64.9754 84.3899 65.3264 85.6185 66.0285C86.8472 66.7111 87.754 67.6959 88.3391 68.9831L84.7994 70.8846C84.3899 70.1435 83.8731 69.5974 83.249 69.2464C82.6444 68.8953 81.9813 68.7198 81.2597 68.7198C80.4796 68.7198 79.7776 68.8953 79.1535 69.2464C78.5294 69.5974 78.0321 70.0947 77.6615 70.7383C77.3105 71.3819 77.135 72.162 77.135 73.0786C77.135 73.9952 77.3105 74.7753 77.6615 75.4189C78.0321 76.0625 78.5294 76.5598 79.1535 76.9108C79.7776 77.2619 80.4796 77.4374 81.2597 77.4374C81.9813 77.4374 82.6444 77.2716 83.249 76.9401C83.8731 76.589 84.3899 76.0332 84.7994 75.2726L88.3391 77.2034C87.754 78.471 86.8472 79.4559 85.6185 80.158C84.3899 80.8406 82.9467 81.1819 81.289 81.1819ZM94.6547 77.7299L94.7717 72.1717L102.114 65.2094H107.556L100.505 72.3765L98.1359 74.3073L94.6547 77.7299ZM90.881 80.9478V59.2417H95.4445V80.9478H90.881ZM102.612 80.9478L97.2875 74.3365L100.154 70.7968L108.141 80.9478H102.612ZM117.347 81.1819C115.552 81.1819 113.973 80.8308 112.607 80.1287C111.262 79.4266 110.218 78.471 109.477 77.2619C108.736 76.0332 108.366 74.6388 108.366 73.0786C108.366 71.4989 108.727 70.1045 109.448 68.8953C110.189 67.6667 111.194 66.7111 112.461 66.0285C113.729 65.3264 115.162 64.9754 116.762 64.9754C118.302 64.9754 119.687 65.3069 120.916 65.97C122.164 66.6136 123.149 67.5497 123.87 68.7783C124.592 69.9875 124.953 71.4404 124.953 73.1371C124.953 73.3126 124.943 73.5174 124.923 73.7514C124.904 73.966 124.884 74.1707 124.865 74.3658H112.081V71.7037H122.466L120.711 72.4935C120.711 71.6744 120.545 70.9626 120.213 70.358C119.882 69.7535 119.424 69.2854 118.839 68.9539C118.253 68.6028 117.571 68.4273 116.791 68.4273C116.011 68.4273 115.318 68.6028 114.714 68.9539C114.129 69.2854 113.67 69.7632 113.339 70.3873C113.007 70.9919 112.842 71.7134 112.842 72.552V73.2541C112.842 74.1122 113.027 74.8728 113.397 75.5359C113.787 76.1795 114.324 76.6768 115.006 77.0278C115.708 77.3594 116.527 77.5252 117.464 77.5252C118.302 77.5252 119.034 77.3984 119.658 77.1449C120.301 76.8913 120.886 76.511 121.413 76.004L123.841 78.6368C123.119 79.4559 122.212 80.0897 121.12 80.5383C120.028 80.9673 118.77 81.1819 117.347 81.1819ZM134.427 81.1819C132.574 81.1819 131.131 80.7138 130.097 79.7777C129.063 78.8221 128.547 77.4081 128.547 75.5359V61.7282H133.11V75.4774C133.11 76.1405 133.286 76.6573 133.637 77.0278C133.988 77.3789 134.466 77.5544 135.07 77.5544C135.792 77.5544 136.406 77.3594 136.913 76.9693L138.142 80.1872C137.674 80.5188 137.108 80.7723 136.445 80.9478C135.801 81.1038 135.129 81.1819 134.427 81.1819ZM126.119 69.0709V65.5604H137.03V69.0709H126.119Z" fill="#30345D"/>
</svg>
