<svg width="536" height="100" viewBox="0 0 536 100" fill="none" xmlns="http://www.w3.org/2000/svg">
<path d="M534.222 49.8601C534.222 60.3551 529.967 69.8577 523.088 76.7364C516.209 83.6151 506.707 87.8702 496.212 87.8702H41.1468C20.1567 87.8702 3.13672 70.8502 3.13672 49.8601C3.13672 39.3651 7.39184 29.8626 14.2705 22.9839C21.1492 16.1052 30.6518 11.85 41.1468 11.85H203.941L213.127 63.7866H324.227L333.418 11.85H496.212C517.202 11.85 534.222 28.8701 534.222 49.8601Z" fill="#464646" stroke="white" stroke-width="2.11166" stroke-miterlimit="10"/>
<g opacity="0.1">
<mask id="mask0_122_112" style="mask-type:luminance" maskUnits="userSpaceOnUse" x="0" y="9" width="532" height="77">
<path d="M493.075 85.4104H38.0101C17.0178 85.4104 0 68.3928 0 47.4003C0 26.408 17.0176 9.39023 38.0101 9.39023H493.075C514.068 9.39023 531.085 26.408 531.085 47.4003C531.085 68.3928 514.068 85.4104 493.075 85.4104Z" fill="white"/>
</mask>
<g mask="url(#mask0_122_112)">
<path d="M8.4607 88.6463C8.42157 86.5909 9.94801 84.9405 11.9833 84.8377C14.1452 84.7288 15.8827 86.34 15.9236 88.4914C15.9648 90.6515 14.2979 92.3284 12.1383 92.2998C10.0835 92.2727 8.4996 90.6991 8.4607 88.6463Z" fill="white"/>
<path d="M529 82.4466C528.895 84.6116 527.154 86.1401 524.952 85.9994C522.89 85.8677 521.419 84.2501 521.459 82.1553C521.5 79.9679 523.173 78.3914 525.375 78.4649C527.551 78.5376 529.106 80.2458 529 82.4466Z" fill="white"/>
<path d="M5.7909 10.0162C3.61918 9.98224 2.04132 8.34736 2.07575 6.16692C2.10996 3.99498 3.74461 2.41757 5.92549 2.452C8.09744 2.48621 9.67508 4.12087 9.64065 6.30154C9.60644 8.47236 7.97111 10.0504 5.7909 10.0162Z" fill="white"/>
<path d="M9.62866 82.2263C9.63358 84.4193 7.99736 86.0352 5.80172 86.0059C3.61145 85.9766 2.02576 84.3146 2.08769 82.1132C2.14627 80.0298 3.69395 78.5022 5.78316 78.4651C7.98149 78.4265 9.62374 80.0325 9.62866 82.2263Z" fill="white"/>
<path d="M9.61 44.1851C9.63594 46.3481 8.00418 47.9942 5.84208 47.9862C3.78372 47.9785 2.19267 46.4577 2.10636 44.4148C2.01446 42.2448 3.59032 40.5415 5.74325 40.483C7.91296 40.4239 9.58406 42.0239 9.61 44.1851Z" fill="white"/>
<path d="M529.011 6.44595C528.907 8.59396 527.199 10.1211 525.017 10.0158C522.869 9.91224 521.341 8.20357 521.447 6.02157C521.55 3.87356 523.259 2.34644 525.441 2.45175C527.589 2.55528 529.117 4.26417 529.011 6.44595Z" fill="white"/>
<path d="M15.9158 12.4676C15.9663 14.5056 14.4412 16.1742 12.4224 16.2893C10.2807 16.4117 8.52103 14.7998 8.46804 12.667C8.41482 10.5246 10.0821 8.82686 12.223 8.84363C14.2599 8.85973 15.8655 10.4354 15.9158 12.4676Z" fill="white"/>
<path d="M522.619 12.6674C522.566 14.7998 520.806 16.4118 518.664 16.2895C516.646 16.1744 515.121 14.5058 515.171 12.4677C515.224 10.3354 516.984 8.7233 519.126 8.8456C521.144 8.96098 522.669 10.6298 522.619 12.6674Z" fill="white"/>
<path d="M9.61862 19.0179C9.55937 21.1853 7.86166 22.7538 5.67496 22.6614C3.52158 22.5707 1.97345 20.8345 2.1 18.6525C2.21895 16.6006 3.83035 15.1147 5.90928 15.1402C8.08636 15.1668 9.67854 16.8312 9.61862 19.0179Z" fill="white"/>
<path d="M525.018 22.6613C522.867 22.556 521.333 20.8089 521.474 18.6244C521.606 16.5759 523.23 15.1005 525.309 15.1398C527.483 15.1809 529.064 16.859 528.99 19.0459C528.917 21.208 527.203 22.7684 525.018 22.6613Z" fill="white"/>
<path d="M525.185 40.4944C527.259 40.4725 528.884 42.0034 528.97 44.0598C529.06 46.2436 527.447 47.9522 525.272 47.9753C523.096 47.9983 521.442 46.3245 521.488 44.1465C521.533 42.0752 523.111 40.5163 525.185 40.4944Z" fill="white"/>
<path d="M528.981 69.5187C529.007 71.6817 527.376 73.3277 525.213 73.3197C523.155 73.3121 521.564 71.7912 521.477 69.7483C521.386 67.5786 522.961 65.8751 525.114 65.8165C527.284 65.7577 528.955 67.3577 528.981 69.5187Z" fill="white"/>
<path d="M9.6101 31.615C9.5855 33.7762 7.91507 35.3775 5.74559 35.3196C3.59131 35.2622 2.01591 33.5609 2.10623 31.3901C2.19142 29.3476 3.78203 27.8249 5.83972 27.8162C8.00204 27.8073 9.63469 29.452 9.6101 31.615Z" fill="white"/>
<path d="M9.61923 69.5844C9.61141 71.7595 7.9573 73.3716 5.77664 73.3293C3.60313 73.2873 2.02259 71.6084 2.09727 69.4214C2.1677 67.3564 3.73304 65.8324 5.80839 65.808C7.98905 65.7821 9.62728 67.4056 9.61923 69.5844Z" fill="white"/>
<path d="M528.981 31.615C528.956 33.7762 527.286 35.3775 525.117 35.3196C522.962 35.2622 521.387 33.5609 521.477 31.3901C521.562 29.3476 523.153 27.8249 525.211 27.8162C527.373 27.8073 529.006 29.452 528.981 31.615Z" fill="white"/>
<path d="M525.438 53.1614C527.49 53.2638 529.009 54.9058 528.97 56.9791C528.929 59.1499 527.202 60.7509 525.02 60.642C522.869 60.5346 521.319 58.7383 521.499 56.561C521.667 54.5196 523.361 53.0576 525.438 53.1614Z" fill="white"/>
<path d="M5.80825 53.1497C7.97147 53.1237 9.61754 54.7552 9.60971 56.9173C9.60211 58.9757 8.08104 60.5665 6.03811 60.6531C3.86818 60.745 2.16465 59.1694 2.10607 57.0164C2.04705 54.8467 3.64727 53.1756 5.80825 53.1497Z" fill="white"/>
<path d="M518.765 92.3003C516.619 92.2323 515.031 90.4684 515.168 88.3067C515.298 86.2703 516.964 84.7723 519.027 84.8378C521.173 84.906 522.761 86.6692 522.623 88.8313C522.493 90.8679 520.828 92.3655 518.765 92.3003Z" fill="white"/>
<path d="M15.9062 75.9147C15.8997 77.9586 14.2872 79.5887 12.2451 79.6164C10.0973 79.6455 8.39874 77.9062 8.47722 75.7575C8.55145 73.7229 10.2257 72.1472 12.2704 72.1877C14.3107 72.2284 15.9129 73.8705 15.9062 75.9147Z" fill="white"/>
<path d="M512.657 15.2212C514.633 15.2744 516.295 17.0242 516.242 18.9965C516.188 20.9728 514.438 22.6345 512.466 22.5813C510.489 22.5278 508.828 20.7782 508.881 18.806C508.935 16.8294 510.685 15.168 512.657 15.2212Z" fill="white"/>
<path d="M15.9061 25.345C15.8493 27.3831 14.1918 28.9721 12.1473 28.9491C9.9955 28.9247 8.34676 27.1465 8.47912 24.9927C8.60344 22.9663 10.3253 21.4291 12.368 21.5206C14.3989 21.6111 15.9631 23.3019 15.9061 25.345Z" fill="white"/>
<path d="M22.2182 6.24823C22.2104 8.23727 20.5653 9.89876 18.5764 9.92626C16.4863 9.95533 14.7506 8.17624 14.8329 6.08904C14.9111 4.1029 16.6167 2.49887 18.6051 2.54157C20.5905 2.58428 22.2258 4.26187 22.2182 6.24823Z" fill="white"/>
<path d="M518.922 28.941C516.896 28.955 515.237 27.3486 515.189 25.3271C515.138 23.1983 516.871 21.4708 519 21.5281C521.02 21.5824 522.622 23.2482 522.602 25.2734C522.582 27.2978 520.947 28.9266 518.922 28.941Z" fill="white"/>
<path d="M18.6142 85.9221C16.6256 85.971 14.8877 84.3147 14.8389 82.3241C14.7902 80.3348 16.4456 78.5978 18.4369 78.5488C20.4262 78.5001 22.1635 80.1555 22.2122 82.1466C22.261 84.1352 20.6046 85.8731 18.6142 85.9221Z" fill="white"/>
<path d="M516.249 82.1396C516.302 84.1277 514.649 85.869 512.658 85.922C510.67 85.9748 508.928 84.322 508.875 82.3314C508.822 80.3431 510.475 78.602 512.466 78.549C514.455 78.4962 516.196 80.1492 516.249 82.1396Z" fill="white"/>
<path d="M18.5484 22.5809C16.5705 22.5939 14.859 20.9031 14.8458 18.9232C14.8328 16.9454 16.5236 15.234 18.5037 15.2208C20.4816 15.2078 22.1931 16.8986 22.2063 18.8785C22.2197 20.8564 20.5287 22.5679 18.5484 22.5809Z" fill="white"/>
<path d="M12.0734 41.6078C10.0537 41.5457 8.45776 39.8732 8.48571 37.8482C8.515 35.723 10.3178 34.0597 12.4426 34.1974C14.4511 34.3276 15.9956 36.0651 15.8988 38.0861C15.8024 40.0991 14.0962 41.67 12.0734 41.6078Z" fill="white"/>
<path d="M518.998 72.1878C521.037 72.2402 522.629 73.8932 522.61 75.9379C522.591 78.083 520.809 79.7425 518.662 79.615C516.636 79.4949 515.094 77.7762 515.181 75.7342C515.268 73.7022 516.954 72.1353 518.998 72.1878Z" fill="white"/>
<path d="M522.597 37.8653C522.616 39.8713 521 41.5485 518.997 41.6019C516.888 41.658 515.142 39.914 515.195 37.8053C515.245 35.8011 516.919 34.1839 518.926 34.2C520.93 34.2159 522.578 35.8612 522.597 37.8653Z" fill="white"/>
<path d="M518.882 54.2695C516.879 54.2617 515.222 52.6217 515.195 50.6197C515.166 48.5103 516.933 46.786 519.041 46.8674C521.042 46.9445 522.639 48.6436 522.597 50.6483C522.555 52.6521 520.887 54.2771 518.882 54.2695Z" fill="white"/>
<path d="M12.1404 46.8618C14.1656 46.8347 15.8374 48.4314 15.8987 50.4508C15.9631 52.5794 14.241 54.3184 12.1122 54.2746C10.0896 54.233 8.47778 52.5794 8.48538 50.5541C8.49298 48.5293 10.1167 46.8888 12.1404 46.8618Z" fill="white"/>
<path d="M512.541 9.92653C510.55 9.9149 508.893 8.26772 508.869 6.27801C508.845 4.18812 510.627 2.45554 512.714 2.54185C514.7 2.62391 516.301 4.33323 516.255 6.32116C516.208 8.30707 514.528 9.93815 512.541 9.92653Z" fill="white"/>
<path d="M18.3206 73.2486C16.3521 73.1337 14.7311 71.3213 14.8456 69.3631C14.9607 67.3942 16.7724 65.7738 18.7309 65.8883C20.7 66.0035 22.3204 67.8152 22.2059 69.7736C22.091 71.7425 20.2792 73.3631 18.3206 73.2486Z" fill="white"/>
<path d="M522.602 63.2882C522.574 65.3115 520.933 66.935 518.908 66.9415C516.779 66.9484 515.087 65.178 515.189 63.0503C515.285 61.0374 516.992 59.4662 519.014 59.5284C521.034 59.5907 522.63 61.2632 522.602 63.2882Z" fill="white"/>
<path d="M15.8989 63.1425C15.9469 65.1667 14.3666 66.8588 12.3505 66.9415C10.2224 67.0287 8.46386 65.3248 8.48555 63.1962C8.50612 61.1716 10.1403 59.543 12.1654 59.5287C14.1911 59.5144 15.8508 61.1211 15.8989 63.1425Z" fill="white"/>
<path d="M31.3246 2.63649C33.2052 2.71653 34.8294 4.43302 34.79 6.29932C34.7484 8.28322 32.8801 9.98831 30.9295 9.82263C29.0454 9.66254 27.4767 7.88098 27.5952 6.0357C27.7159 4.15644 29.47 2.55778 31.3246 2.63649Z" fill="white"/>
<path d="M503.492 6.28126C503.464 8.16097 501.791 9.81955 499.913 9.83073C497.94 9.84258 496.183 8.00714 496.297 6.0541C496.406 4.18355 498.16 2.5688 500.008 2.63655C501.889 2.70541 503.521 4.41295 503.492 6.28126Z" fill="white"/>
<path d="M24.9404 16.2151C22.993 16.2634 21.2208 14.5375 21.211 12.5829C21.2011 10.6337 22.967 8.81209 24.9073 8.93998C27.0238 9.0795 28.2793 10.3231 28.4857 12.4226C28.6753 14.3493 26.8944 16.1666 24.9404 16.2151Z" fill="white"/>
<path d="M506.309 16.2151C504.362 16.2634 502.59 14.5375 502.58 12.5829C502.57 10.6337 504.336 8.81209 506.276 8.93998C508.393 9.0795 509.648 10.3231 509.855 12.4226C510.044 14.3493 508.263 16.1666 506.309 16.2151Z" fill="white"/>
<path d="M31.1771 22.4712C29.313 22.4616 27.6524 20.8171 27.6225 18.9503C27.591 16.9922 29.3935 15.237 31.3399 15.3304C33.2113 15.4206 34.8126 17.1283 34.7639 18.9821C34.7147 20.8508 33.0391 22.4808 31.1771 22.4712Z" fill="white"/>
<path d="M503.464 18.9042C503.462 20.7674 501.823 22.4335 499.955 22.4707C497.996 22.5096 496.237 20.7157 496.323 18.7656C496.406 16.8941 498.107 15.2881 499.963 15.3297C501.831 15.3715 503.467 17.0417 503.464 18.9042Z" fill="white"/>
<path d="M24.8121 21.5991C26.7539 21.5703 28.5058 23.3078 28.4948 25.2519C28.4838 27.2032 26.7144 28.9966 24.7781 28.8481C22.6746 28.6869 21.4281 27.4424 21.2454 25.3451C21.0773 23.4147 22.8599 21.6282 24.8121 21.5991Z" fill="white"/>
<path d="M509.85 25.2296C509.853 27.1931 508.053 28.9344 506.101 28.8562C504.235 28.7815 502.608 27.0983 502.605 25.2387C502.603 23.2754 504.403 21.5339 506.355 21.6121C508.221 21.6868 509.847 23.37 509.85 25.2296Z" fill="white"/>
<path d="M22.1953 31.5116C22.2275 33.474 20.5492 35.2043 18.5821 35.2365C16.6192 35.2687 14.8891 33.5907 14.8569 31.6238C14.8247 29.6611 16.5027 27.931 18.4699 27.8988C20.4332 27.8666 22.1629 29.5442 22.1953 31.5116Z" fill="white"/>
<path d="M27.6382 31.3708C27.7598 29.4833 29.5355 27.8942 31.3902 28.0136C33.2786 28.1352 34.867 29.9099 34.7476 31.765C34.626 33.6532 32.8511 35.2416 30.996 35.1222C29.1076 35.0005 27.5188 33.2255 27.6382 31.3708Z" fill="white"/>
<path d="M499.958 35.1226C498.081 35.1615 496.379 33.5192 496.34 31.6319C496.301 29.7544 497.942 28.0527 499.83 28.0136C501.707 27.9747 503.409 29.6162 503.449 31.5038C503.488 33.3815 501.846 35.0834 499.958 35.1226Z" fill="white"/>
<path d="M516.231 31.5507C516.241 33.5147 514.545 35.2265 512.579 35.2366C510.615 35.2466 508.903 33.5505 508.893 31.5845C508.883 29.6205 510.578 27.9087 512.545 27.8984C514.508 27.8883 516.221 29.5847 516.231 31.5507Z" fill="white"/>
<path d="M28.4818 37.9168C28.472 39.8843 26.6641 41.614 24.7126 41.5233C22.8463 41.4363 21.228 39.7424 21.2373 37.8855C21.2474 35.9197 23.0569 34.1882 25.0066 34.279C26.8733 34.366 28.4912 36.0596 28.4818 37.9168Z" fill="white"/>
<path d="M509.839 37.8283C509.884 39.7724 508.115 41.547 506.17 41.5108C504.311 41.4764 502.661 39.8323 502.618 37.9737C502.573 36.0293 504.341 34.2547 506.286 34.2909C508.145 34.3254 509.796 35.9696 509.839 37.8283Z" fill="white"/>
<path d="M18.7303 40.5657C20.6892 40.682 22.3102 42.4946 22.1944 44.4396C22.0779 46.3989 20.2659 48.0193 18.3205 47.9037C16.361 47.7872 14.7406 45.9752 14.8564 44.03C14.9729 42.0707 16.7849 40.4501 18.7303 40.5657Z" fill="white"/>
<path d="M512.53 47.8991C510.548 47.8796 508.841 46.1117 508.898 44.1372C508.955 42.1613 510.764 40.4757 512.725 40.571C514.602 40.6622 516.206 42.3261 516.226 44.2007C516.247 46.1779 514.507 47.9183 512.53 47.8991Z" fill="white"/>
<path d="M24.8165 46.9463C26.7745 46.9192 28.5362 48.7023 28.4818 50.6565C28.43 52.5237 26.7682 54.1646 24.9028 54.1905C22.9449 54.2178 21.1832 52.4345 21.2376 50.4801C21.2892 48.6133 22.9516 46.972 24.8165 46.9463Z" fill="white"/>
<path d="M509.838 50.5633C509.841 52.5197 508.045 54.2566 506.101 54.1779C504.241 54.1027 502.62 52.4247 502.617 50.5725C502.614 48.6161 504.41 46.8793 506.354 46.9577C508.214 47.0331 509.835 48.7111 509.838 50.5633Z" fill="white"/>
<path d="M18.5459 60.5709C16.5819 60.5827 14.8686 58.8884 14.8565 56.9223C14.8447 54.9586 16.5392 53.2452 18.5053 53.2331C20.4693 53.2213 22.1826 54.9156 22.1947 56.8816C22.207 58.8456 20.5124 60.5588 18.5459 60.5709Z" fill="white"/>
<path d="M31.1347 53.347C33.0129 53.3114 34.7119 54.9552 34.7477 56.8425C34.7833 58.7207 33.1394 60.4195 31.2519 60.4553C29.374 60.4909 27.6743 58.8466 27.6383 56.9595C27.6025 55.0831 29.2481 53.3827 31.1347 53.347Z" fill="white"/>
<path d="M512.5 60.5655C510.52 60.5289 508.823 58.7426 508.898 56.7735C508.973 54.7963 510.797 53.125 512.756 53.2377C514.631 53.3456 516.224 55.0257 516.226 56.8976C516.228 58.8774 514.476 60.6022 512.5 60.5655Z" fill="white"/>
<path d="M28.4824 63.4362C28.3575 65.4025 26.4523 67.0434 24.5283 66.8419C22.653 66.6456 21.1208 64.8724 21.2377 63.034C21.3629 61.0671 23.2675 59.4268 25.1917 59.6283C27.0667 59.8246 28.5994 61.5981 28.4824 63.4362Z" fill="white"/>
<path d="M506.184 66.8575C504.216 66.8302 502.498 65.0068 502.605 63.0605C502.709 61.1962 504.419 59.5875 506.271 59.613C508.239 59.6401 509.957 61.4632 509.85 63.4095C509.746 65.2743 508.036 66.8832 506.184 66.8575Z" fill="white"/>
<path d="M31.2629 66.014C33.1508 66.0565 34.79 67.7609 34.7477 69.6377C34.7052 71.5257 33.0006 73.1646 31.1238 73.1223C29.2351 73.0798 27.5962 71.3759 27.6385 69.4984C27.6808 67.6111 29.3858 65.9717 31.2629 66.014Z" fill="white"/>
<path d="M499.825 73.123C497.937 73.0805 496.297 71.3754 496.34 69.4986C496.382 67.6106 498.087 65.9717 499.964 66.014C501.852 66.0565 503.491 67.7611 503.448 69.6379C503.406 71.5263 501.702 73.1653 499.825 73.123Z" fill="white"/>
<path d="M512.467 65.8995C514.426 65.8458 516.177 67.5087 516.231 69.4733C516.285 71.4322 514.622 73.1836 512.657 73.2374C510.699 73.2911 508.947 71.6269 508.893 69.6636C508.839 67.705 510.503 65.9531 512.467 65.8995Z" fill="white"/>
<path d="M28.4944 75.9719C28.4523 77.9224 26.6589 79.6181 24.724 79.537C22.7732 79.4551 21.0225 77.6163 21.2459 75.7042C21.4891 73.6228 22.7481 72.3895 24.8646 72.2873C26.8101 72.1934 28.5364 74.0275 28.4944 75.9719Z" fill="white"/>
<path d="M509.863 76.026C509.788 77.9766 507.964 79.6506 506.038 79.5368C504.089 79.4215 502.367 77.5552 502.619 75.6502C502.895 73.5724 504.169 72.3556 506.288 72.2874C508.236 72.2248 509.938 74.0886 509.863 76.026Z" fill="white"/>
<path d="M34.7785 82.1856C34.8084 84.0492 33.1847 85.7498 31.3084 85.8202C29.3522 85.8935 27.5557 84.1133 27.6075 82.1531C27.657 80.2783 29.3415 78.6401 31.2093 78.6499C33.0794 78.6596 34.7485 80.3128 34.7785 82.1856Z" fill="white"/>
<path d="M500.006 85.8204C498.161 85.8875 496.417 84.2808 496.309 82.4127C496.196 80.4711 497.953 78.6374 499.914 78.65C501.784 78.662 503.452 80.3168 503.48 82.1889C503.508 84.0525 501.882 85.7522 500.006 85.8204Z" fill="white"/>
<path d="M28.5142 88.6967C28.4384 90.6642 26.6128 92.3376 24.6658 92.2238C22.6958 92.1086 20.9793 90.2441 21.2306 88.313C21.5034 86.2173 22.7843 84.9969 24.9216 84.9343C26.8867 84.8764 28.5896 86.7412 28.5142 88.6967Z" fill="white"/>
<path d="M509.883 88.4927C509.928 90.4563 508.208 92.2172 506.239 92.2235C504.271 92.2298 502.465 90.4728 502.593 88.5146C502.732 86.3888 503.977 85.1326 506.088 84.9347C508.032 84.7525 509.838 86.526 509.883 88.4927Z" fill="white"/>
<path d="M30.9953 47.7719C29.1138 47.6513 27.538 45.8883 27.6567 44.0366C27.7772 42.156 29.5409 40.5795 31.3915 40.698C33.2721 40.8185 34.8489 42.5819 34.7301 44.4326C34.6099 46.3134 32.8457 47.8904 30.9953 47.7719Z" fill="white"/>
<path d="M497.027 75.9197C497.016 77.8247 495.377 79.4175 493.477 79.3683C491.575 79.3191 489.94 77.6382 490.112 75.7547C490.296 73.7401 491.492 72.5741 493.514 72.4532C495.411 72.3398 497.037 74.0161 497.027 75.9197Z" fill="white"/>
<path d="M40.9942 75.8426C41.0291 77.7442 39.4222 79.4397 37.5216 79.35C35.4979 79.2548 34.2883 78.101 34.0786 76.0901C33.8827 74.2119 35.5017 72.508 37.4023 72.4353C39.2969 72.3628 40.9593 73.9398 40.9942 75.8426Z" fill="white"/>
<path d="M503.431 44.3039C503.389 46.187 501.697 47.8132 499.825 47.7711C497.942 47.7289 496.315 46.0379 496.357 44.1651C496.399 42.2818 498.091 40.6556 499.964 40.6977C501.846 40.7397 503.473 42.4314 503.431 44.3039Z" fill="white"/>
<path d="M490.039 88.3713C490.158 86.5001 491.914 84.9314 493.758 85.0486C495.63 85.1675 497.198 86.9213 497.081 88.7662C496.962 90.6387 495.208 92.2061 493.363 92.0889C491.491 91.9702 489.922 90.2159 490.039 88.3713Z" fill="white"/>
<path d="M41.0477 88.7664C40.9287 90.6376 39.1733 92.2063 37.3291 92.0891C35.4566 91.9702 33.889 90.2164 34.0062 88.3713C34.1251 86.499 35.8789 84.9314 37.7242 85.0486C39.5963 85.1675 41.1648 86.922 41.0477 88.7664Z" fill="white"/>
<path d="M40.9712 25.2276C40.9716 27.169 39.3298 28.8146 37.4011 28.6583C35.3553 28.4928 34.1937 27.2879 34.1027 25.2381C34.0166 23.3027 35.7244 21.6548 37.6527 21.8096C39.7009 21.9743 40.7925 23.1886 40.9712 25.2276Z" fill="white"/>
<path d="M497.002 25.3131C496.956 27.2516 495.272 28.8585 493.351 28.6555C491.309 28.4397 490.178 27.2044 490.136 25.1543C490.097 23.2171 491.84 21.6744 493.771 21.7953C495.603 21.9102 497.046 23.4814 497.002 25.3131Z" fill="white"/>
<path d="M37.5402 41.3452C35.5997 41.3499 33.9503 39.7105 34.1025 37.7823C34.2642 35.7365 35.466 34.5723 37.5161 34.4772C39.4512 34.3876 41.1022 36.0918 40.9513 38.0202C40.7912 40.0685 39.5796 41.163 37.5402 41.3452Z" fill="white"/>
<path d="M503.431 56.836C503.47 58.709 501.842 60.3982 499.959 60.438C498.086 60.4776 496.397 58.8496 496.357 56.9668C496.318 55.0935 497.946 53.4045 499.829 53.3648C501.702 53.3252 503.391 54.9529 503.431 56.836Z" fill="white"/>
<path d="M497.057 12.5735C497.053 14.4742 495.383 16.1075 493.488 16.0637C491.586 16.0199 489.909 14.3101 490.083 12.4306C490.27 10.4105 491.475 9.22636 493.502 9.0893C495.392 8.96186 497.061 10.6739 497.057 12.5735Z" fill="white"/>
<path d="M34.0294 12.3703C34.1468 10.4684 35.9073 8.9288 37.7882 9.0833C39.7039 9.24071 41.248 11.0142 40.9819 12.8908C40.6948 14.9176 39.4172 16.0145 37.3955 16.0416C35.4964 16.0671 33.9136 14.2504 34.0294 12.3703Z" fill="white"/>
<path d="M40.9702 63.2598C40.8253 65.2155 39.761 66.4556 37.7158 66.659C35.7943 66.85 34.1192 65.2321 34.0845 63.2938C34.0499 61.3573 35.6637 59.7497 37.5993 59.7922C39.4393 59.8326 40.936 61.3356 40.9702 63.2598Z" fill="white"/>
<path d="M487.436 15.546C489.48 15.836 490.573 16.9937 490.553 19.0528C490.532 21.0239 488.866 22.4551 486.882 22.2069C484.812 21.948 483.778 20.6545 483.925 18.6206C484.076 16.5374 485.421 15.6055 487.436 15.546Z" fill="white"/>
<path d="M47.2189 18.8684C47.0698 20.8984 46.0355 22.1075 43.9622 22.2269C41.9865 22.3405 40.4205 20.783 40.5352 18.808C40.6548 16.747 41.8278 15.5774 43.8881 15.5881C45.9615 15.5988 47.0278 16.8281 47.2189 18.8684Z" fill="white"/>
<path d="M490.556 56.9484C490.348 58.9947 489.273 60.2148 487.181 60.1802C485.1 60.1455 483.923 58.9323 483.95 56.8558C483.977 54.7751 485.195 53.604 487.273 53.6234C489.369 53.6429 490.401 54.9012 490.556 56.9484Z" fill="white"/>
<path d="M490.585 69.5794C490.316 71.7552 489.185 72.9419 487.098 72.8617C485.007 72.7814 483.862 71.5139 483.935 69.4392C484.009 67.3484 485.28 66.2166 487.356 66.2727C489.483 66.3302 490.427 67.676 490.585 69.5794Z" fill="white"/>
<path d="M490.149 50.5314C490.27 48.6318 491.301 47.3873 493.341 47.1773C495.271 46.9788 496.917 48.5361 496.968 50.4782C497.02 52.4234 495.466 53.9993 493.52 53.9758C491.673 53.9532 490.202 52.5039 490.149 50.5314Z" fill="white"/>
<path d="M493.601 41.3188C491.6 41.1804 490.365 40.1394 490.168 38.0983C489.982 36.1671 491.55 34.5325 493.493 34.4938C495.439 34.4551 497.062 36.022 496.952 37.9637C496.837 40.0095 495.657 41.1087 493.601 41.3188Z" fill="white"/>
<path d="M47.2183 69.4686C47.0032 71.6614 45.9244 72.8918 43.8245 72.8627C41.7362 72.8339 40.5458 71.6178 40.5677 69.5322C40.5896 67.4445 41.8097 66.2675 43.8971 66.2716C46.0221 66.2758 47.0097 67.5829 47.2183 69.4686Z" fill="white"/>
<path d="M43.7219 40.9072C45.7766 41.0172 47.0719 42.011 47.1378 44.1076C47.2029 46.1749 46.0698 47.4378 43.987 47.5102C41.9204 47.582 40.6629 46.4441 40.5829 44.3609C40.5031 42.2789 41.6876 41.1614 43.7219 40.9072Z" fill="white"/>
<path d="M487.254 2.83597C489.323 3.03876 490.51 4.13391 490.596 6.21283C490.677 8.18668 489.022 9.77393 487.052 9.6011C484.984 9.41954 483.816 8.18689 483.875 6.12451C483.934 4.04603 485.221 2.99114 487.254 2.83597Z" fill="white"/>
<path d="M490.584 82.4466C490.426 84.2871 489.361 85.4822 487.284 85.5806C485.306 85.6743 483.738 84.074 483.882 82.0975C484.034 80.0322 485.236 78.9224 487.3 78.8911C489.181 78.8627 490.589 80.3582 490.584 82.4466Z" fill="white"/>
<path d="M43.7609 85.6099C41.7081 85.3758 40.5544 84.2657 40.5153 82.191C40.4779 80.2118 42.1206 78.697 44.0998 78.8953C46.1698 79.1026 47.2808 80.3621 47.1892 82.4095C47.0959 84.4857 45.7917 85.4965 43.7609 85.6099Z" fill="white"/>
<path d="M47.2588 6.24884C47.0681 8.30898 45.9816 9.50473 43.9027 9.60244C41.9286 9.69522 40.3324 8.05119 40.4936 6.07936C40.6625 4.01116 41.8857 2.83441 43.9499 2.88181C46.0275 2.92966 47.0947 4.20501 47.2588 6.24884Z" fill="white"/>
<path d="M40.9397 50.5596C40.8664 52.6309 39.2089 54.1678 37.2775 53.9539C35.2373 53.7278 34.1498 52.4829 34.1368 50.4469C34.1245 48.5064 35.8452 46.9726 37.777 47.1823C39.8256 47.4045 40.8284 48.6685 40.9397 50.5596Z" fill="white"/>
<path d="M496.978 63.1694C496.855 65.1596 495.833 66.4101 493.791 66.6246C491.859 66.8271 490.21 65.2788 490.153 63.336C490.095 61.3912 491.647 59.7535 493.59 59.8433C495.637 59.9381 496.749 61.1066 496.978 63.1694Z" fill="white"/>
<path d="M47.2039 56.9116C46.9332 59.0771 45.8132 60.2596 43.7318 60.1791C41.6489 60.0984 40.5115 58.8398 40.5844 56.7732C40.6579 54.6907 41.9205 53.5667 43.9892 53.6219C46.1092 53.6787 47.0445 55.0191 47.2039 56.9116Z" fill="white"/>
<path d="M490.556 44.2812C490.348 46.3275 489.273 47.5477 487.181 47.513C485.1 47.4783 483.923 46.2651 483.95 44.1887C483.977 42.108 485.195 40.9368 487.273 40.9563C489.369 40.9757 490.401 42.2341 490.556 44.2812Z" fill="white"/>
<path d="M47.2054 31.5289C47.0478 33.5841 46.0041 34.8452 43.901 34.8622C41.8154 34.8789 40.5919 33.6964 40.5677 31.6078C40.5436 29.5222 41.732 28.3048 43.8205 28.2734C45.9207 28.2419 47.0008 29.471 47.2054 31.5289Z" fill="white"/>
<path d="M487.265 34.897C485.219 34.7387 483.964 33.7034 483.947 31.6075C483.931 29.5297 485.106 28.3143 487.186 28.2908C489.264 28.2673 490.473 29.4468 490.505 31.5279C490.536 33.6212 489.312 34.6919 487.265 34.897Z" fill="white"/>
<path d="M53.4177 50.1022C53.4859 52.371 52.0805 53.8532 50.1726 53.7903C48.1999 53.7253 47.0897 52.6456 46.973 50.6769C46.8597 48.7676 48.3085 47.292 50.2164 47.3434C52.2108 47.3973 53.2123 48.5387 53.4177 50.1022Z" fill="white"/>
<path d="M56.5619 28.3362C58.4666 28.5653 59.6324 29.5444 59.7118 31.5283C59.7867 33.3991 58.2401 34.9034 56.3734 34.7473C54.4199 34.5839 53.3151 33.4378 53.3607 31.4778C53.407 29.4977 54.637 28.5325 56.5619 28.3362Z" fill="white"/>
<path d="M477.791 69.6308C477.547 71.5253 476.563 72.6866 474.577 72.7515C472.706 72.8125 471.21 71.255 471.38 69.3907C471.558 67.4399 472.712 66.3407 474.672 66.4009C476.65 66.4615 477.61 67.6968 477.791 69.6308Z" fill="white"/>
<path d="M56.8572 66.3733C58.4321 66.5412 59.6078 67.5098 59.7111 69.4908C59.8088 71.3638 58.2821 72.8813 56.4111 72.7478C54.4549 72.6083 53.3857 71.4792 53.3473 69.5152C53.3129 67.7497 54.7476 66.3807 56.8572 66.3733Z" fill="white"/>
<path d="M484.208 88.6146C483.998 90.6443 482.939 91.864 480.852 91.8305C478.778 91.7974 477.609 90.5967 477.633 88.5276C477.658 86.455 478.864 85.2914 480.934 85.3073C483.025 85.3238 484.047 86.5757 484.208 88.6146Z" fill="white"/>
<path d="M471.391 88.9956C471.146 90.5533 470.151 91.6979 468.185 91.7334C466.348 91.7665 464.857 90.1598 465.067 88.3355C465.288 86.4145 466.451 85.3813 468.395 85.407C470.127 85.43 471.457 86.9361 471.391 88.9956Z" fill="white"/>
<path d="M62.7078 85.3584C64.6484 85.4986 65.8421 86.4402 66.0241 88.3847C66.1951 90.2134 64.6895 91.804 62.8529 91.7309C60.9102 91.6536 59.7605 90.5616 59.7133 88.6242C59.6652 86.661 60.8635 85.658 62.7078 85.3584Z" fill="white"/>
<path d="M53.5263 88.4525C53.3003 90.6443 52.2405 91.8638 50.1535 91.8305C48.0802 91.7974 46.9106 90.5967 46.9349 88.5276C46.9593 86.4547 48.1658 85.3017 50.2362 85.3044C52.3538 85.3073 53.3039 86.6195 53.5263 88.4525Z" fill="white"/>
<path d="M56.2687 47.4499C54.4427 47.102 53.3265 46.0665 53.354 44.0913C53.3797 42.2449 55.0318 40.8088 56.8653 41.0758C58.7892 41.356 59.8414 42.5649 59.6802 44.5061C59.5177 46.4585 58.2392 47.3689 56.2687 47.4499Z" fill="white"/>
<path d="M477.786 5.9278C477.754 8.17106 476.27 9.598 474.379 9.44282C472.422 9.28229 471.374 8.14759 471.348 6.18403C471.323 4.29806 472.847 2.87849 474.739 3.0236C476.715 3.17497 477.664 4.36044 477.786 5.9278Z" fill="white"/>
<path d="M56.4417 9.45584C54.5627 9.41045 53.1433 7.9019 53.3206 6.01727C53.5042 4.06467 54.6521 3.02834 56.6159 3.02342C58.4945 3.01872 59.8655 4.56193 59.7506 6.45237C59.6428 8.21805 58.2318 9.49899 56.4417 9.45584Z" fill="white"/>
<path d="M477.807 82.2618C477.607 84.1609 476.641 85.3241 474.672 85.437C472.794 85.5445 471.339 84.095 471.348 82.2177C471.357 80.3427 472.83 78.9053 474.708 79.0345C476.673 79.1696 477.631 80.3418 477.807 82.2618Z" fill="white"/>
<path d="M59.7313 81.7894C59.7857 84.0282 58.3605 85.5135 56.4844 85.435C54.532 85.3532 53.4362 84.2701 53.3284 82.3211C53.2247 80.4454 54.6954 78.9662 56.5718 79.033C58.5463 79.1032 59.5299 80.25 59.7313 81.7894Z" fill="white"/>
<path d="M484.183 76.036C483.917 78.0579 482.807 79.2465 480.716 79.1334C478.622 79.0203 477.538 77.7257 477.664 75.6597C477.783 73.7089 478.987 72.631 480.94 72.6652C483.051 72.7019 484.048 73.9696 484.183 76.036Z" fill="white"/>
<path d="M50.243 72.6099C52.2832 72.836 53.5007 73.9099 53.4278 76.0096C53.3551 78.103 52.0945 79.2183 50.0221 79.1342C48.0702 79.0549 46.9636 77.8806 46.958 75.9251C46.9518 73.8157 48.192 72.7866 50.243 72.6099Z" fill="white"/>
<path d="M480.42 60.013C482.691 59.9424 484.175 61.3463 484.115 63.253C484.052 65.2258 482.974 66.3372 481.005 66.4566C479.095 66.5722 477.618 65.1256 477.667 63.2175C477.719 61.2235 478.859 60.2201 480.42 60.013Z" fill="white"/>
<path d="M477.798 18.826C477.628 20.7755 476.671 21.9645 474.68 22.0909C472.792 22.2105 471.267 20.7136 471.37 18.826C471.478 16.8547 472.594 15.7291 474.568 15.7231C476.566 15.717 477.555 16.9251 477.798 18.826Z" fill="white"/>
<path d="M59.7654 18.765C59.6259 20.7344 58.6805 21.9348 56.6944 22.0902C54.8109 22.2376 53.2625 20.7552 53.3397 18.8708C53.4206 16.8969 54.5204 15.7569 56.4934 15.7233C58.4894 15.6896 59.4964 16.884 59.7654 18.765Z" fill="white"/>
<path d="M474.872 53.7141C476.447 53.8859 477.622 54.8508 477.733 56.8195C477.837 58.6729 476.298 60.2065 474.447 60.0726C472.503 59.9319 471.431 58.8075 471.387 56.8538C471.347 55.106 472.792 53.7249 474.872 53.7141Z" fill="white"/>
<path d="M53.4289 37.9191C53.4199 39.8201 51.9509 41.258 50.0462 41.122C48.0784 40.9816 47.0154 39.8552 46.9725 37.8829C46.9309 35.9833 48.4364 34.5892 50.3449 34.6677C52.1365 34.7412 53.4374 36.113 53.4289 37.9191Z" fill="white"/>
<path d="M480.811 47.3346C482.718 47.2921 484.193 48.7146 484.114 50.6178C484.033 52.5894 482.943 53.6892 480.973 53.7896C479.069 53.8867 477.632 52.4228 477.659 50.5178C477.683 48.7233 479.019 47.3746 480.811 47.3346Z" fill="white"/>
<path d="M484.157 38.0596C483.908 39.934 482.905 41.0743 480.91 41.1259C479.003 41.1753 477.6 39.7001 477.659 37.7877C477.718 35.9 479.237 34.5008 481.137 34.6814C483.118 34.8699 484.049 36.0791 484.157 38.0596Z" fill="white"/>
<path d="M56.3726 53.6813C58.3238 53.8181 59.5218 54.7608 59.7011 56.7163C59.8702 58.5605 58.3701 60.1446 56.5197 60.0733C54.5671 59.9979 53.4167 58.9041 53.3695 56.9569C53.3219 54.9842 54.5192 53.9771 56.3726 53.6813Z" fill="white"/>
<path d="M477.621 12.3514C477.729 10.4749 479.264 9.15791 481.174 9.30257C483.05 9.44477 484.372 11.0023 484.138 12.9122C483.897 14.8746 482.694 15.8531 480.743 15.8276C478.856 15.803 477.51 14.2586 477.621 12.3514Z" fill="white"/>
<path d="M50.1389 28.5157C48.1138 28.2818 46.8984 27.2162 46.9751 25.1231C47.0516 23.0384 48.3064 21.929 50.371 22.0162C52.3149 22.0984 53.4145 23.2678 53.4178 25.2164C53.4212 27.3186 52.1816 28.337 50.1389 28.5157Z" fill="white"/>
<path d="M50.3984 66.5335C48.1833 66.3229 46.9386 65.293 46.9744 63.1926C47.0099 61.1088 48.2296 59.9691 50.3018 60.0154C52.248 60.0588 53.3592 61.2005 53.4211 63.1477C53.4889 65.2825 52.1742 66.2225 50.3984 66.5335Z" fill="white"/>
<path d="M481.031 21.9557C483.035 22.228 484.226 23.3252 484.111 25.4108C483.996 27.4951 482.71 28.5766 480.651 28.4503C478.709 28.3311 477.635 27.1347 477.669 25.1881C477.705 23.0837 478.97 22.095 481.031 21.9557Z" fill="white"/>
<path d="M50.1428 9.29612C52.0562 9.26929 53.4734 10.6703 53.4664 12.5815C53.4593 14.493 52.0301 15.9195 50.1155 15.8283C48.1515 15.7346 47.0503 14.6464 46.9341 12.6848C46.8209 10.7743 48.2389 9.32273 50.1428 9.29612Z" fill="white"/>
<path d="M477.737 44.6473C477.509 46.2098 476.517 47.3615 474.541 47.4091C472.695 47.4534 471.194 45.8596 471.389 44.0226C471.594 42.0893 472.754 41.0478 474.707 41.0623C476.453 41.0753 477.788 42.5648 477.737 44.6473Z" fill="white"/>
<path d="M477.783 31.6001C477.547 33.4934 476.571 34.6585 474.599 34.7417C472.746 34.8197 471.228 33.2591 471.389 31.4129C471.557 29.4731 472.699 28.3629 474.649 28.4092C476.617 28.456 477.58 29.6875 477.783 31.6001Z" fill="white"/>
<path d="M75.4365 9.4892C77.2706 9.70809 78.4995 10.6729 78.5388 12.5018C78.5782 14.3292 77.4126 15.5303 75.5959 15.5751C73.7696 15.6202 72.5728 14.4511 72.5211 12.6333C72.469 10.7927 73.6865 9.80625 75.4365 9.4892Z" fill="white"/>
<path d="M69.1565 53.7958C70.9481 54.0112 72.0792 54.9737 72.2605 56.7901C72.4242 58.4299 70.7576 60.1162 69.114 59.9649C67.304 59.7983 66.147 58.7025 66.1543 56.8834C66.1617 55.0578 67.3637 54.074 69.1565 53.7958Z" fill="white"/>
<path d="M468.283 22.0494C470.159 22.3352 471.385 23.3382 471.339 25.2885C471.294 27.2152 470.101 28.3814 468.171 28.3461C466.245 28.3108 465.085 27.1103 465.111 25.1801C465.137 23.2335 466.389 22.2647 468.283 22.0494Z" fill="white"/>
<path d="M461.95 41.1295C463.742 41.4208 464.94 42.4093 464.933 44.2369C464.927 46.054 463.767 47.1458 461.954 47.2985C460.307 47.4371 458.651 45.7403 458.827 44.1034C459.023 42.2908 460.158 41.3316 461.95 41.1295Z" fill="white"/>
<path d="M69.1124 34.687C67.3434 34.3919 66.138 33.4144 66.1416 31.6071C66.1454 29.6815 67.364 28.4583 69.2853 28.5202C71.1961 28.5817 72.3683 29.8577 72.2454 31.7864C72.1316 33.5724 70.8933 34.5117 69.1124 34.687Z" fill="white"/>
<path d="M66.0648 12.678C65.7639 14.5569 64.7477 15.7721 62.7705 15.7007C60.819 15.6303 59.6724 14.4296 59.7317 12.4753C59.7909 10.5247 60.9996 9.38526 62.9547 9.43423C64.9268 9.48386 65.8846 10.744 66.0648 12.678Z" fill="white"/>
<path d="M465.028 18.8216C464.816 20.6961 463.831 21.9659 461.872 21.9686C460.058 21.9708 458.876 20.8122 458.828 19.0114C458.776 17.0718 459.971 15.8514 461.912 15.8338C463.737 15.817 464.718 17.0203 465.028 18.8216Z" fill="white"/>
<path d="M72.3543 18.9146C71.9661 20.9023 70.9059 22.1224 68.9446 21.9603C67.1561 21.8123 66.0263 20.5953 66.1318 18.7789C66.2436 16.8563 67.5 15.7037 69.4492 15.8396C71.2732 15.9664 72.1314 17.2627 72.3543 18.9146Z" fill="white"/>
<path d="M471.401 63.3092C471.087 65.2019 470.055 66.4379 468.088 66.3352C466.152 66.2344 465.008 64.9812 465.124 63.0328C465.231 61.2336 466.402 60.1103 468.232 60.1289C470.203 60.149 471.18 61.4 471.401 63.3092Z" fill="white"/>
<path d="M461.838 60.0074C460.045 59.718 458.845 58.7309 458.85 56.9035C458.854 55.0864 460.012 53.9924 461.825 53.8386C463.484 53.6977 465.13 55.3806 464.956 57.0291C464.763 58.8427 463.628 59.8019 461.838 60.0074Z" fill="white"/>
<path d="M66.0565 75.9626C65.7759 77.8474 64.7731 79.072 62.808 79.0255C60.8668 78.9794 59.7057 77.7904 59.741 75.8472C59.7761 73.9067 60.9732 72.7529 62.9171 72.7778C64.8786 72.803 65.8466 74.0545 66.0565 75.9626Z" fill="white"/>
<path d="M468.118 79.0949C466.247 78.7901 465.03 77.7748 465.102 75.8103C465.172 73.8718 466.374 72.7215 468.317 72.7812C470.255 72.8407 471.399 74.0505 471.349 75.9941C471.299 77.9521 470.039 78.9106 468.118 79.0949Z" fill="white"/>
<path d="M66.0369 38.0093C65.7026 39.8944 64.6605 41.1255 62.6943 41.0007C60.7633 40.8782 59.6266 39.6196 59.7641 37.6677C59.8909 35.8676 61.0724 34.7572 62.9009 34.7952C64.8682 34.8359 65.8386 36.0932 66.0369 38.0093Z" fill="white"/>
<path d="M72.3439 82.2928C72.0725 84.079 71.105 85.2974 69.2707 85.3152C67.3165 85.3342 66.0827 84.1309 66.121 82.1797C66.159 80.234 67.4281 79.0583 69.3816 79.1567C71.1989 79.2482 72.1505 80.4835 72.3439 82.2928Z" fill="white"/>
<path d="M465.043 82.1608C464.823 84.0492 463.836 85.3224 461.861 85.317C460.035 85.3119 458.855 84.1519 458.813 82.337C458.768 80.3844 459.965 79.1663 461.92 79.1547C463.76 79.1435 464.737 80.354 465.043 82.1608Z" fill="white"/>
<path d="M468.334 34.727C470.219 35.0613 471.45 36.1034 471.325 38.0696C471.202 40.0003 469.944 41.137 467.992 40.9995C466.192 40.8728 465.081 39.6915 465.119 37.8628C465.16 35.8955 466.417 34.9251 468.334 34.727Z" fill="white"/>
<path d="M72.3015 44.2599C72.035 46.0508 71.0597 47.1721 69.231 47.2991C67.5653 47.4147 65.9313 45.7213 66.1332 44.0765C66.3536 42.2811 67.4655 41.1341 69.2896 41.1934C71.1078 41.2522 72.0746 42.4671 72.3015 44.2599Z" fill="white"/>
<path d="M62.8494 60.0493C64.7359 60.2924 65.9788 61.2728 65.977 63.2222C65.9752 65.1525 64.8034 66.3384 62.8752 66.3471C60.9454 66.3559 59.7668 65.1766 59.7483 63.2475C59.7293 61.2974 60.9664 60.3089 62.8494 60.0493Z" fill="white"/>
<path d="M69.1959 72.6918C67.3361 72.4256 66.088 71.4089 66.1423 69.4673C66.1924 67.6788 67.3701 66.5101 69.1677 66.5159C71.0926 66.5219 72.2886 67.7452 72.2492 69.6703C72.2123 71.4695 70.9969 72.4361 69.1959 72.6918Z" fill="white"/>
<path d="M465.01 69.652C464.715 71.4211 463.738 72.6262 461.93 72.6226C460.005 72.6188 458.781 71.4003 458.843 69.479C458.905 67.5684 460.181 66.3961 462.109 66.5191C463.896 66.6331 464.835 67.8712 465.01 69.652Z" fill="white"/>
<path d="M471.447 12.4709C471.167 14.5024 470.172 15.7323 468.194 15.7008C466.239 15.6697 465.073 14.4912 465.093 12.5361C465.113 10.5822 466.299 9.42625 468.255 9.43274C470.238 9.43922 471.164 10.7304 471.447 12.4709Z" fill="white"/>
<path d="M468.113 53.7424C466.229 53.4059 464.998 52.363 465.125 50.3968C465.25 48.4663 466.509 47.3301 468.461 47.4698C470.261 47.5986 471.371 48.7807 471.331 50.6095C471.288 52.5764 470.03 53.5465 468.113 53.7424Z" fill="white"/>
<path d="M455.606 9.49442C457.416 9.79134 458.615 10.7977 458.565 12.6331C458.516 14.4505 457.318 15.6194 455.491 15.5745C453.674 15.5297 452.509 14.3277 452.548 12.5015C452.587 10.6732 453.816 9.7075 455.606 9.49442Z" fill="white"/>
<path d="M66.0386 50.5292C65.7978 52.4315 64.8086 53.6952 62.8393 53.6697C60.8916 53.6442 59.7245 52.429 59.7596 50.4796C59.7924 48.6622 60.941 47.519 62.7557 47.4636C64.7257 47.4034 65.7457 48.6276 66.0386 50.5292Z" fill="white"/>
<path d="M66.0578 24.9583C65.8747 27.0133 64.9193 28.2777 62.9804 28.3472C61.0492 28.4166 59.8289 27.2718 59.7508 25.3521C59.6724 23.4223 60.8238 22.2153 62.7442 22.1185C64.7121 22.0192 65.6715 23.2959 66.0578 24.9583Z" fill="white"/>
<path d="M461.873 28.4623C463.665 28.6948 464.794 29.661 464.956 31.4825C465.103 33.1326 463.428 34.7995 461.783 34.6307C459.978 34.4455 458.824 33.3455 458.849 31.5237C458.875 29.7003 460.081 28.723 461.873 28.4623Z" fill="white"/>
<path d="M75.4898 72.8543C77.264 73.062 78.4803 74.0268 78.5167 75.8405C78.5532 77.6527 77.3952 78.8469 75.5904 78.888C73.7775 78.9294 72.5863 77.7672 72.5422 75.963C72.4979 74.145 73.681 73.1367 75.4898 72.8543Z" fill="white"/>
<path d="M458.605 75.9447C458.318 77.7562 457.307 78.9372 455.489 78.8884C453.685 78.8401 452.525 77.6457 452.571 75.8337C452.616 74.0305 453.811 72.8737 455.625 72.9146C457.44 72.9553 458.4 74.1743 458.605 75.9447Z" fill="white"/>
<path d="M75.5324 47.568C77.3455 47.8046 78.5231 48.8083 78.4741 50.6388C78.4256 52.4595 77.2207 53.5819 75.394 53.5148C73.7057 53.4529 72.5973 52.3289 72.5812 50.6276C72.564 48.7931 73.7262 47.7985 75.5324 47.568Z" fill="white"/>
<path d="M455.582 47.6121C457.401 47.831 458.536 48.8561 458.468 50.7045C458.405 52.4141 457.272 53.5041 455.552 53.4795C453.703 53.4531 452.583 52.2768 452.648 50.4324C452.708 48.7208 453.846 47.7853 455.582 47.6121Z" fill="white"/>
<path d="M84.7978 82.3211C84.5156 84.1695 83.4695 85.2485 81.6217 85.1124C79.9081 84.9863 78.8877 83.8247 78.976 82.1217C79.071 80.2909 80.2587 79.2242 82.1058 79.3572C83.8239 79.4813 84.6807 80.6471 84.7978 82.3211Z" fill="white"/>
<path d="M449.224 85.1688C447.447 84.9888 446.303 84.0042 446.335 82.1571C446.364 80.4482 447.461 79.356 449.172 79.3461C451.014 79.3359 452.141 80.473 452.113 82.3136C452.086 84.0218 450.987 84.9725 449.224 85.1688Z" fill="white"/>
<path d="M458.558 37.9036C458.322 39.7167 457.318 40.8941 455.487 40.8454C453.667 40.7969 452.544 39.5922 452.611 37.7655C452.673 36.0771 453.797 34.9688 455.498 34.9527C457.333 34.9353 458.328 36.0975 458.558 37.9036Z" fill="white"/>
<path d="M458.562 63.1647C458.365 64.976 457.395 66.1802 455.563 66.1798C453.74 66.1795 452.595 65.0039 452.61 63.1759C452.622 61.4752 453.733 60.3548 455.422 60.2877C457.259 60.2146 458.274 61.3668 458.562 63.1647Z" fill="white"/>
<path d="M75.5626 60.2348C77.4014 60.5029 78.5587 61.5345 78.4737 63.3614C78.3894 65.1756 77.1664 66.286 75.3392 66.1809C73.6567 66.0841 72.5636 64.9424 72.5813 63.2391C72.6 61.4055 73.7806 60.4329 75.5626 60.2348Z" fill="white"/>
<path d="M75.4935 28.26C73.6835 27.9863 72.5171 26.9768 72.5618 25.1702C72.6061 23.3741 73.7917 22.2238 75.5943 22.2665C77.39 22.309 78.5372 23.4949 78.4992 25.2983C78.4607 27.1034 77.2547 28.0619 75.4935 28.26Z" fill="white"/>
<path d="M455.52 28.2603C453.709 27.9855 452.543 26.9753 452.589 25.1685C452.635 23.3726 453.821 22.2227 455.624 22.2665C457.419 22.3101 458.566 23.4965 458.526 25.3004C458.487 27.1057 457.28 28.0628 455.52 28.2603Z" fill="white"/>
<path d="M75.4595 34.9012C77.2274 35.0658 78.4455 36.019 78.4748 37.8493C78.5041 39.674 77.3423 40.8326 75.5163 40.8489C73.8139 40.8643 72.6752 39.7663 72.5842 38.0822C72.4853 36.254 73.6084 35.2033 75.4595 34.9012Z" fill="white"/>
<path d="M81.8743 21.8034C80.148 21.6561 79.0323 20.7309 79.0017 18.988C78.9688 17.1139 80.1013 15.9919 81.9729 16.0398C83.712 16.0843 84.7544 17.202 84.7293 18.9446C84.7041 20.6897 83.6235 21.6328 81.8743 21.8034Z" fill="white"/>
<path d="M449.166 21.8037C447.381 21.5855 446.318 20.6008 446.362 18.8617C446.409 16.9876 447.585 15.9229 449.458 16.0492C451.208 16.1673 452.183 17.3436 452.087 19.071C451.991 20.8121 450.854 21.7004 449.166 21.8037Z" fill="white"/>
<path d="M84.7084 56.9481C84.5289 58.7189 83.5773 59.7454 81.8031 59.7079C80.0281 59.6703 79.0237 58.6074 79.0575 56.8412C79.0915 55.0668 80.1566 54.0652 81.9237 54.0949C83.707 54.1251 84.5928 55.2111 84.7084 56.9481Z" fill="white"/>
<path d="M442.935 15.3695C441.212 15.2666 440.15 14.4029 440.124 12.6258C440.098 10.8702 441.064 9.83366 442.832 9.80236C444.587 9.77128 445.62 10.7421 445.656 12.5091C445.692 14.273 444.695 15.2083 442.935 15.3695Z" fill="white"/>
<path d="M90.9812 75.829C90.8837 77.5871 90.011 78.6483 88.2071 78.648C86.4164 78.6478 85.4348 77.6309 85.4494 75.8458C85.463 74.1901 86.4025 73.2177 88.0569 73.1545C89.8386 73.0863 90.8061 74.0526 90.9812 75.829Z" fill="white"/>
<path d="M88.2065 47.8131C89.9529 47.958 90.9584 48.8651 90.9121 50.6424C90.8656 52.424 89.8128 53.3445 88.0585 53.2826C86.4205 53.2247 85.4997 52.2635 85.4798 50.6237C85.4584 48.8423 86.463 47.9482 88.2065 47.8131Z" fill="white"/>
<path d="M442.995 47.828C444.625 48.0109 445.598 48.8695 445.591 50.5421C445.583 52.3409 444.571 53.3106 442.785 53.2661C441.125 53.225 440.193 52.2541 440.188 50.5935C440.183 48.7818 441.235 47.9221 442.995 47.828Z" fill="white"/>
<path d="M442.85 78.6704C441.085 78.5128 440.108 77.5755 440.159 75.7942C440.206 74.1459 441.154 73.2023 442.803 73.1719C444.575 73.1393 445.602 74.0925 445.62 75.8798C445.638 77.6741 444.601 78.5564 442.85 78.6704Z" fill="white"/>
<path d="M94.5348 84.9647C92.8047 84.8207 91.7909 83.9227 91.8448 82.1307C91.8942 80.481 92.855 79.5476 94.5053 79.5496C96.292 79.5516 97.2541 80.564 97.2165 82.3399C97.1817 84.0039 96.1773 84.8233 94.5348 84.9647Z" fill="white"/>
<path d="M439.286 82.2644C439.133 83.9026 438.304 84.8983 436.64 84.922C434.861 84.9472 433.861 83.974 433.871 82.1895C433.881 80.5387 434.823 79.5878 436.473 79.5496C438.268 79.5082 439.153 80.5322 439.286 82.2644Z" fill="white"/>
<path d="M97.2472 18.7562C97.1703 20.4311 96.3866 21.4947 94.7054 21.571C92.9154 21.6521 91.8627 20.6907 91.8594 18.8783C91.8563 17.2081 92.8177 16.2581 94.4881 16.225C96.1706 16.1917 97.0399 17.1598 97.2472 18.7562Z" fill="white"/>
<path d="M449.43 41.4179C451.202 41.673 452.127 42.7105 452.005 44.4547C451.881 46.2306 450.743 47.1344 449.003 47.0154C447.227 46.894 446.326 45.7537 446.442 44.0142C446.561 42.2315 447.71 41.4389 449.43 41.4179Z" fill="white"/>
<path d="M436.583 16.1821C438.214 16.3375 439.214 17.1697 439.232 18.856C439.25 20.5226 438.337 21.5254 436.666 21.571C434.866 21.62 433.856 20.6183 433.883 18.8142C433.909 17.1285 434.94 16.314 436.583 16.1821Z" fill="white"/>
<path d="M88.132 60.4803C89.8758 60.5872 90.9204 61.4505 90.9126 63.2372C90.905 65.0116 89.8959 65.9714 88.1302 65.9502C86.4904 65.9305 85.5393 64.999 85.4814 63.3613C85.4188 61.5927 86.3847 60.652 88.132 60.4803Z" fill="white"/>
<path d="M442.926 65.9905C441.191 65.8718 440.156 64.9975 440.175 63.2126C440.194 61.4358 441.215 60.4875 442.978 60.5204C444.617 60.551 445.56 61.4905 445.606 63.1292C445.657 64.9012 444.682 65.8308 442.926 65.9905Z" fill="white"/>
<path d="M81.9465 47.0797C80.2068 46.9804 79.1049 46.1111 79.0573 44.3268C79.0101 42.5634 79.9959 41.4814 81.7717 41.4298C83.5351 41.3784 84.6126 42.3678 84.6703 44.1433C84.7277 45.9179 83.72 46.8887 81.9465 47.0797Z" fill="white"/>
<path d="M449.118 28.7243C450.848 28.805 451.963 29.6604 452.029 31.4442C452.095 33.2046 451.122 34.303 449.347 34.3726C447.588 34.4417 446.49 33.4673 446.418 31.6911C446.346 29.9258 447.341 28.938 449.118 28.7243Z" fill="white"/>
<path d="M90.96 25.4796C90.7015 27.2131 89.6726 28.1141 87.917 27.9534C86.1193 27.7888 85.3133 26.6259 85.4857 24.8884C85.6502 23.2276 86.7282 22.4211 88.3498 22.5043C90.1542 22.5968 90.9401 23.7121 90.96 25.4796Z" fill="white"/>
<path d="M90.995 12.7849C90.7457 14.5378 89.7167 15.451 87.9788 15.3304C86.2071 15.2075 85.3181 14.0799 85.435 12.348C85.5546 10.5763 86.6849 9.68996 88.417 9.80377C90.1954 9.92071 90.9782 11.061 90.995 12.7849Z" fill="white"/>
<path d="M445.644 38.0003C445.456 39.7412 444.501 40.6946 442.736 40.6163C441.098 40.5437 440.18 39.5795 440.174 37.9411C440.167 36.1709 441.144 35.1793 442.915 35.1865C444.704 35.1936 445.552 36.2525 445.644 38.0003Z" fill="white"/>
<path d="M81.9441 72.4347C80.2408 72.3417 79.1126 71.4814 79.0392 69.7347C78.961 67.8729 80.0119 66.7426 81.8925 66.7422C83.634 66.742 84.6703 67.7904 84.694 69.5319C84.7177 71.2757 83.6941 72.2311 81.9441 72.4347Z" fill="white"/>
<path d="M442.987 22.4676C444.744 22.6514 445.697 23.6159 445.62 25.3894C445.548 27.0373 444.578 27.9591 442.93 27.9654C441.149 27.9723 440.153 26.991 440.16 25.2095C440.168 23.4105 441.23 22.5564 442.987 22.4676Z" fill="white"/>
<path d="M94.155 66.8539C96.0409 66.94 97.1054 67.7201 97.1882 69.3854C97.2763 71.1612 96.3175 72.2174 94.5185 72.2274C92.8613 72.2368 91.9166 71.279 91.8652 69.6213C91.8124 67.9274 92.8575 67.1424 94.155 66.8539Z" fill="white"/>
<path d="M436.624 72.2768C434.985 72.156 433.941 71.3585 433.897 69.6869C433.85 67.9009 434.843 66.8813 436.634 66.9111C438.291 66.9383 439.218 67.9248 439.22 69.5812C439.222 71.2561 438.229 72.0923 436.624 72.2768Z" fill="white"/>
<path d="M84.7079 31.6437C84.5119 33.4176 83.5419 34.428 81.7722 34.3734C79.9963 34.3187 79.0075 33.2385 79.0585 31.4757C79.1099 29.7 80.1926 28.714 81.9556 28.7611C83.7391 28.809 84.61 29.9097 84.7079 31.6437Z" fill="white"/>
<path d="M449.277 54.0522C451.106 54.2725 452.102 55.2594 452.029 57.0251C451.957 58.8008 450.86 59.7754 449.101 59.7065C447.324 59.6372 446.356 58.5376 446.417 56.7784C446.478 54.9855 447.61 54.1513 449.277 54.0522Z" fill="white"/>
<path d="M452.091 69.5679C451.945 71.2929 451.04 72.3759 449.292 72.3947C447.416 72.4148 446.341 71.3085 446.399 69.4415C446.453 67.7009 447.547 66.7059 449.285 66.7386C451.033 66.7714 451.943 67.8364 452.091 69.5679Z" fill="white"/>
<path d="M90.9527 37.899C90.8138 39.6435 89.9148 40.6557 88.1354 40.6159C86.3541 40.5761 85.4278 39.5301 85.4828 37.7745C85.534 36.1365 86.4903 35.2106 88.1301 35.1842C89.9092 35.1556 90.8113 36.1535 90.9527 37.899Z" fill="white"/>
<path d="M439.265 56.8829C438.987 58.6137 438.12 59.6089 436.45 59.5324C434.798 59.4566 433.862 58.4458 433.928 56.7952C433.994 55.1431 435.011 54.2204 436.663 54.2691C438.352 54.3188 439.065 55.441 439.265 56.8829Z" fill="white"/>
<path d="M103.544 12.6263C103.311 14.2122 102.469 15.2304 100.813 15.1875C99.1759 15.145 98.214 14.1521 98.2469 12.5152C98.2798 10.8787 99.2794 9.92357 100.917 9.94749C102.573 9.97164 103.377 11.0189 103.544 12.6263Z" fill="white"/>
<path d="M430.15 22.5738C431.754 22.7643 432.825 23.5777 432.816 25.2329C432.808 26.8691 431.795 27.848 430.158 27.8299C428.648 27.8133 427.696 26.8624 427.625 25.3648C427.547 23.7073 428.574 22.8515 430.15 22.5738Z" fill="white"/>
<path d="M432.918 12.3383C432.735 14.1156 431.93 15.1629 430.275 15.1871C428.637 15.211 427.637 14.2558 427.604 12.6194C427.571 10.9823 428.533 10.0021 430.17 9.94303C431.86 9.88243 432.608 10.9852 432.918 12.3383Z" fill="white"/>
<path d="M97.2256 31.5884C97.0521 33.1855 96.2349 34.1918 94.5801 34.2126C92.9434 34.2332 91.9413 33.3154 91.8926 31.6809C91.8403 29.9155 92.8431 28.9031 94.6123 28.9265C96.2653 28.9482 97.0718 29.9806 97.2256 31.5884Z" fill="white"/>
<path d="M97.2256 56.8825C97.0705 58.4883 96.2656 59.5213 94.6119 59.5427C92.8424 59.5658 91.84 58.5531 91.8926 56.7879C91.9413 55.1535 92.9439 54.2354 94.5804 54.2564C96.2349 54.2774 97.0526 55.284 97.2256 56.8825Z" fill="white"/>
<path d="M100.744 22.5757C102.362 22.7361 103.439 23.5412 103.458 25.1924C103.477 26.8286 102.479 27.8202 100.841 27.831C99.3253 27.8408 98.3668 26.8955 98.2686 25.4055C98.16 23.7482 99.1836 22.8812 100.744 22.5757Z" fill="white"/>
<path d="M439.25 31.6292C439.054 33.2147 438.229 34.2134 436.572 34.2132C434.934 34.2132 433.946 33.2844 433.917 31.6484C433.885 29.8798 434.904 28.8831 436.67 28.9276C438.321 28.9692 439.115 30.0131 439.25 31.6292Z" fill="white"/>
<path d="M430.316 73.242C431.884 73.5311 432.91 74.3915 432.818 76.0491C432.736 77.5436 431.782 78.4923 430.27 78.4979C428.632 78.5042 427.625 77.5201 427.628 75.8839C427.631 74.2309 428.704 73.4198 430.316 73.242Z" fill="white"/>
<path d="M439.241 44.103C439.122 45.7516 438.33 46.8076 436.661 46.865C435.01 46.9218 433.993 45.9915 433.928 44.3391C433.863 42.6884 434.8 41.6784 436.452 41.6037C438.122 41.5282 438.988 42.5245 439.241 44.103Z" fill="white"/>
<path d="M103.532 76.0498C103.225 77.6228 102.339 78.6481 100.671 78.5055C99.0399 78.3657 98.1082 77.2968 98.2652 75.6426C98.4074 74.1428 99.3959 73.2371 100.929 73.2916C102.598 73.3509 103.398 74.41 103.532 76.0498Z" fill="white"/>
<path d="M94.3761 41.5445C96.0261 41.6319 97.0873 42.4122 97.1698 44.0549C97.2583 45.8125 96.2924 46.8648 94.5169 46.8753C92.8791 46.8849 91.9257 45.923 91.8859 44.2854C91.8459 42.6315 92.8241 41.7795 94.3761 41.5445Z" fill="white"/>
<path d="M103.54 63.1328C103.239 64.841 102.392 65.9002 100.758 65.815C99.1587 65.7316 98.1854 64.6829 98.2842 63.0637C98.3739 61.5963 99.3447 60.6577 100.843 60.6463C102.507 60.6337 103.238 61.7613 103.54 63.1328Z" fill="white"/>
<path d="M432.871 63.1194C432.701 64.714 431.89 65.7935 430.266 65.8156C428.652 65.8378 427.651 64.8294 427.639 63.2139C427.627 61.7177 428.583 60.7516 430.051 60.653C431.688 60.5427 432.55 61.5766 432.871 63.1194Z" fill="white"/>
<path d="M109.779 31.535C109.494 33.1153 108.657 34.1235 107.133 34.0736C105.627 34.0244 104.649 33.0176 104.694 31.5021C104.739 29.9967 105.747 29.0283 107.265 29.0603C108.798 29.0927 109.544 30.1704 109.779 31.535Z" fill="white"/>
<path d="M426.454 31.6166C426.185 33.114 425.348 34.1223 423.824 34.0734C422.319 34.0249 421.34 33.0187 421.384 31.503C421.428 29.9969 422.438 29.0234 423.954 29.0619C425.471 29.1005 426.266 30.1378 426.454 31.6166Z" fill="white"/>
<path d="M426.509 82.1916C426.291 83.7466 425.462 84.8165 423.828 84.7897C422.342 84.7651 421.357 83.7875 421.336 82.3038C421.314 80.6877 422.332 79.6715 423.95 79.6822C425.449 79.6918 426.246 80.7143 426.509 82.1916Z" fill="white"/>
<path d="M109.817 82.2511C109.561 83.7988 108.715 84.8604 107.078 84.7886C105.602 84.724 104.626 83.7362 104.646 82.2439C104.668 80.6312 105.699 79.6275 107.319 79.6827C108.808 79.7335 109.601 80.7606 109.817 82.2511Z" fill="white"/>
<path d="M426.494 18.7057C426.352 20.2889 425.557 21.3411 424.069 21.4346C422.432 21.5374 421.372 20.5154 421.354 18.8868C421.337 17.3845 422.334 16.4079 423.838 16.3585C425.378 16.3082 426.159 17.3541 426.494 18.7057Z" fill="white"/>
<path d="M107.247 16.2874C108.78 16.611 109.81 17.438 109.735 18.96C109.655 20.5781 108.589 21.5872 106.946 21.4239C105.475 21.2777 104.534 20.2333 104.658 18.7114C104.781 17.2097 105.847 16.4641 107.247 16.2874Z" fill="white"/>
<path d="M430.315 53.2006C428.733 53.0179 427.658 52.196 427.654 50.5483C427.651 49.0431 428.621 48.0515 430.113 48.003C431.746 47.9498 432.771 48.9582 432.791 50.5884C432.809 52.1063 431.791 52.9139 430.315 53.2006Z" fill="white"/>
<path d="M103.535 50.3363C103.315 52.0803 102.498 53.1553 100.869 53.1484C99.2569 53.1415 98.265 52.1237 98.2825 50.5062C98.2986 49.0174 99.2562 48.0685 100.734 47.981C102.404 47.882 103.158 49.0109 103.535 50.3363Z" fill="white"/>
<path d="M109.764 56.9538C109.493 58.4514 108.655 59.4582 107.131 59.4074C105.625 59.3573 104.648 58.3494 104.694 56.8342C104.74 55.329 105.75 54.3552 107.267 54.3959C108.784 54.4366 109.579 55.474 109.764 56.9538Z" fill="white"/>
<path d="M426.454 69.6168C426.185 71.1149 425.348 72.1228 423.824 72.0741C422.318 72.0258 421.34 71.019 421.384 69.5037C421.429 67.9987 422.437 67.0241 423.954 67.0625C425.472 67.1008 426.266 68.1385 426.454 69.6168Z" fill="white"/>
<path d="M109.787 69.5678C109.561 71.0368 108.759 72.0794 107.264 72.0921C105.646 72.1058 104.61 71.0601 104.678 69.4402C104.74 67.9696 105.759 67.0004 107.263 67.0406C108.762 67.0804 109.56 68.1006 109.787 69.5678Z" fill="white"/>
<path d="M100.886 40.5509C99.3119 40.3206 98.2447 39.4906 98.2843 37.8589C98.3234 36.2517 99.3533 35.2679 100.972 35.3193C102.453 35.3663 103.408 36.3306 103.449 37.8159C103.495 39.4522 102.454 40.2917 100.886 40.5509Z" fill="white"/>
<path d="M432.854 37.9471C432.582 39.5017 431.726 40.5613 430.074 40.4676C428.59 40.3833 427.616 39.3932 427.655 37.8824C427.698 36.2572 428.736 35.2591 430.371 35.3356C431.869 35.4055 432.663 36.4345 432.854 37.9471Z" fill="white"/>
<path d="M115.93 37.9188C115.794 39.3527 115.003 40.2586 113.579 40.2683C112.016 40.2788 111.094 39.303 111.167 37.752C111.234 36.3313 112.189 35.4801 113.616 35.5315C115.041 35.5825 115.814 36.4885 115.93 37.9188Z" fill="white"/>
<path d="M531.038 16.3951C528.812 15.744 527.846 14.5757 527.764 12.7157C527.697 11.2042 528.307 10.0367 529.629 9.24986C530.484 8.74053 531.067 8.62695 531.046 9.94679C531.014 12.0083 531.038 14.0707 531.038 16.3951Z" fill="white"/>
<path d="M426.431 56.857C426.253 58.3229 425.46 59.3491 423.954 59.3882C422.45 59.4274 421.446 58.4617 421.403 56.9666C421.359 55.4632 422.327 54.4617 423.824 54.4147C425.334 54.3676 426.173 55.359 426.431 56.857Z" fill="white"/>
<path d="M0.0501744 16.4777C0.0501744 14.094 0.0939991 12.0956 0.0354188 10.1003C-0.00661585 8.67425 0.551237 8.65613 1.5556 9.29067C2.86068 10.115 3.421 11.3099 3.33335 12.818C3.22402 14.6968 2.15191 15.7562 0.0501744 16.4777Z" fill="white"/>
<path d="M0.102539 41.7819C0.102539 39.0794 0.102539 36.7259 0.102539 34.2483C2.09874 34.5175 3.08208 35.6804 3.27504 37.5082C3.49997 39.6404 2.39701 40.9177 0.102539 41.7819Z" fill="white"/>
<path d="M0.12793 29.0775C0.12793 26.4372 0.12793 24.0864 0.12793 21.6092C2.13419 21.7812 3.06007 23.006 3.27382 24.7942C3.5267 26.9127 2.49573 28.2693 0.12793 29.0775Z" fill="white"/>
<path d="M0.177734 59.4705C2.23408 60.0295 3.29389 61.2042 3.30932 63.2142C3.32474 65.233 2.26024 66.4118 0.177734 67.0184C0.177734 64.4355 0.177734 62.05 0.177734 59.4705Z" fill="white"/>
<path d="M531.038 28.8658C528.243 27.9994 527.157 26.2257 527.941 23.9679C528.367 22.7413 529.28 21.5133 530.505 21.6768C531.676 21.8331 530.926 23.2944 531 24.1515C531.133 25.692 531.038 27.2529 531.038 28.8658Z" fill="white"/>
<path d="M417.57 73.4099C419.091 73.6301 420.065 74.4849 419.998 76.0003C419.931 77.504 418.908 78.4352 417.391 78.3467C416.02 78.2666 415.103 77.3271 415.106 75.9324C415.11 74.4106 416.088 73.593 417.57 73.4099Z" fill="white"/>
<path d="M113.488 73.4095C114.949 73.5624 115.966 74.3613 115.976 75.8797C115.987 77.3913 115.006 78.351 113.489 78.3494C112.096 78.3481 111.16 77.4267 111.087 76.0534C111.007 74.5363 111.948 73.6635 113.488 73.4095Z" fill="white"/>
<path d="M530.867 79.6973C528.728 79.0084 527.713 77.763 527.779 75.7512C527.842 73.8623 528.864 72.7198 530.867 72.1273C530.867 74.6668 530.867 77.054 530.867 79.6973Z" fill="white"/>
<path d="M0.0497652 79.7037C0.0497652 77.4707 0.101414 75.4852 0.0343375 73.5038C-0.0249135 71.752 0.777097 72.1037 1.71147 72.7416C2.97721 73.6058 3.46598 74.8487 3.30141 76.347C3.11047 78.0851 2.14211 79.1487 0.0497652 79.7037Z" fill="white"/>
<path d="M531.037 46.8266C531.037 49.0884 531.018 51.1684 531.045 53.2476C531.06 54.3434 530.624 54.419 529.782 53.945C528.332 53.128 527.643 51.8955 527.799 50.256C527.974 48.4147 528.976 47.2825 531.037 46.8266Z" fill="white"/>
<path d="M423.845 41.6927C425.311 41.8715 426.337 42.665 426.376 44.1705C426.414 45.6745 425.448 46.6778 423.953 46.7207C422.449 46.7639 421.448 45.796 421.402 44.2993C421.355 42.788 422.348 41.9509 423.845 41.6927Z" fill="white"/>
<path d="M417.601 27.665C416.195 27.5557 415.244 26.7988 415.16 25.4117C415.067 23.8895 415.977 22.8693 417.507 22.84C419.035 22.8107 419.984 23.7864 419.952 25.316C419.923 26.7096 419.011 27.5042 417.601 27.665Z" fill="white"/>
<path d="M417.509 65.6339C416.011 65.4414 415.14 64.6079 415.188 63.1879C415.241 61.6328 416.235 60.7501 417.796 60.8822C419.236 61.0041 420.021 62.006 419.922 63.4135C419.822 64.8342 418.868 65.5633 417.509 65.6339Z" fill="white"/>
<path d="M115.965 25.2186C115.799 26.7406 114.952 27.6819 113.422 27.6311C112.028 27.5848 111.124 26.6574 111.134 25.2537C111.145 23.7221 112.115 22.7873 113.643 22.8381C115.035 22.8843 115.821 23.8053 115.965 25.2186Z" fill="white"/>
<path d="M531.037 84.7347C531.037 87.0312 530.994 89.0294 531.052 91.025C531.092 92.4168 530.574 92.5049 529.541 91.8525C528.235 91.0283 527.657 89.8361 527.756 88.3298C527.877 86.4765 528.875 85.3407 531.037 84.7347Z" fill="white"/>
<path d="M111.135 63.2219C111.267 61.7881 112.057 60.8803 113.48 60.8678C115.043 60.8539 115.968 61.8279 115.897 63.3789C115.833 64.798 114.882 65.653 113.453 65.6043C112.028 65.5558 111.254 64.6522 111.135 63.2219Z" fill="white"/>
<path d="M0.0494286 92.4026C0.0494286 90.2539 0.0152193 88.3628 0.0715636 86.4746C0.0872148 85.9525 -0.348113 85.1257 0.508008 84.9596C0.91874 84.8797 1.48822 85.2379 1.88464 85.5335C3.21589 86.5267 3.5714 87.9252 3.2387 89.4819C2.89929 91.0689 1.84507 91.942 0.0494286 92.4026Z" fill="white"/>
<path d="M420.074 12.5316C419.903 13.9852 419.11 14.9989 417.616 15.0354C416.123 15.0718 415.128 14.1151 415.087 12.6282C415.047 11.1346 416.007 10.1421 417.493 10.0994C418.991 10.0565 419.83 11.0333 420.074 12.5316Z" fill="white"/>
<path d="M113.571 10.0484C115.073 10.2954 116.047 11.1381 116.001 12.6348C115.954 14.1204 114.959 15.0798 113.465 15.0346C111.981 14.9899 111.024 13.9947 111.065 12.4998C111.105 11.0042 112.122 10.2174 113.571 10.0484Z" fill="white"/>
<path d="M530.9 41.6333C528.872 41.122 527.826 39.9443 527.786 37.9466C527.746 35.9182 528.872 34.7904 530.9 34.0689C530.9 36.6949 530.9 39.0761 530.9 41.6333Z" fill="white"/>
<path d="M530.944 67.039C528.841 66.3711 527.753 65.208 527.788 63.1896C527.822 61.1919 528.873 60.0147 530.944 59.4917C530.944 62.0134 530.944 64.3512 530.944 67.039Z" fill="white"/>
<path d="M109.741 44.1895C109.563 45.6554 108.771 46.6821 107.265 46.7219C105.761 46.7615 104.757 45.796 104.713 44.3009C104.669 42.7979 105.636 41.7958 107.133 41.7484C108.645 41.7005 109.482 42.6928 109.741 44.1895Z" fill="white"/>
<path d="M0.147461 54.4149C0.147461 51.6764 0.147461 49.3406 0.147461 46.8214C2.21879 47.3567 3.26742 48.5312 3.30073 50.5332C3.33472 52.5634 2.20515 53.6822 0.147461 54.4149Z" fill="white"/>
<path d="M413.46 44.015C413.394 45.5853 412.687 46.4465 411.193 46.4405C409.848 46.4354 409.055 45.6839 409.016 44.337C408.974 42.8656 409.764 42.0356 411.249 42.026C412.614 42.0175 413.285 42.8304 413.46 44.015Z" fill="white"/>
<path d="M413.456 56.9734C413.321 58.3203 412.616 59.1033 411.263 59.1076C409.78 59.1123 408.982 58.2859 409.017 56.8122C409.048 55.4646 409.835 54.7071 411.18 54.6948C412.672 54.6812 413.388 55.5351 413.456 56.9734Z" fill="white"/>
<path d="M419.91 50.5122C419.845 51.8888 419.142 52.8223 417.713 52.8914C416.167 52.9661 415.226 52.0954 415.23 50.5321C415.233 49.106 416.101 48.2557 417.526 48.2392C418.949 48.2226 419.749 49.0503 419.91 50.5122Z" fill="white"/>
<path d="M122.119 31.4448C122.079 32.8697 121.405 33.7625 119.93 33.7925C118.478 33.822 117.654 33.0262 117.639 31.5655C117.625 30.2421 118.353 29.4296 119.675 29.3431C121.109 29.2494 121.947 29.9857 122.119 31.4448Z" fill="white"/>
<path d="M122.101 44.2959C121.972 45.6446 121.271 46.4318 119.917 46.441C118.436 46.4508 117.632 45.6302 117.661 44.1552C117.687 42.8072 118.469 42.0455 119.815 42.0282C121.305 42.0092 122.028 42.8582 122.101 44.2959Z" fill="white"/>
<path d="M413.547 82.1848C413.481 83.5764 412.777 84.4853 411.314 84.5329C409.872 84.5798 408.974 83.7857 408.924 82.3277C408.874 80.886 409.672 79.9889 411.129 79.9379C412.572 79.8874 413.391 80.6912 413.547 82.1848Z" fill="white"/>
<path d="M119.808 67.2881C121.231 67.3604 122.113 68.0763 122.118 69.5535C122.122 71.021 121.278 71.8328 119.815 71.8218C118.481 71.812 117.676 71.0433 117.613 69.7134C117.546 68.2619 118.322 67.4386 119.808 67.2881Z" fill="white"/>
<path d="M419.916 37.911C419.744 39.4249 418.941 40.2613 417.519 40.2271C415.948 40.1893 415.115 39.2024 415.233 37.6726C415.342 36.2546 416.305 35.4841 417.719 35.5736C419.152 35.6646 419.837 36.5969 419.916 37.911Z" fill="white"/>
<path d="M128.435 12.5688C128.334 14.0025 127.578 14.8213 126.096 14.7725C124.748 14.7282 123.995 13.9379 123.994 12.5939C123.993 11.109 124.833 10.3226 126.304 10.3618C127.659 10.398 128.334 11.2116 128.435 12.5688Z" fill="white"/>
<path d="M119.961 54.6486C121.421 54.8058 122.172 55.6259 122.092 57.0672C122.018 58.3913 121.219 59.1282 119.895 59.1287C118.437 59.1291 117.625 58.3193 117.641 56.865C117.656 55.3936 118.535 54.7023 119.961 54.6486Z" fill="white"/>
<path d="M411.306 29.3147C412.767 29.4663 413.521 30.2822 413.446 31.7248C413.377 33.0493 412.582 33.7909 411.258 33.7954C409.803 33.8001 408.984 32.9974 408.995 31.5405C409.007 30.0691 409.88 29.3731 411.306 29.3147Z" fill="white"/>
<path d="M122.192 82.3022C122.029 83.7902 121.205 84.5884 119.763 84.5325C118.305 84.4759 117.514 83.5726 117.569 82.1325C117.625 80.6736 118.529 79.8854 119.969 79.9378C121.433 79.9907 122.131 80.9061 122.192 82.3022Z" fill="white"/>
<path d="M411.296 16.5982C412.764 16.757 413.552 17.5708 413.497 19.0029C413.44 20.4522 412.548 21.2294 411.119 21.176C409.669 21.1217 408.893 20.2262 408.945 18.7984C408.997 17.3453 409.901 16.6541 411.296 16.5982Z" fill="white"/>
<path d="M122.171 18.9098C122.047 20.3633 121.28 21.1955 119.836 21.1767C118.392 21.1582 117.574 20.3097 117.59 18.8709C117.606 17.4267 118.457 16.6111 119.896 16.624C121.346 16.637 122.075 17.5041 122.171 18.9098Z" fill="white"/>
<path d="M113.547 48.2121C114.992 48.3465 115.861 49.1152 115.858 50.5426C115.856 52.1079 114.907 52.9743 113.365 52.892C111.943 52.8162 111.147 51.885 111.204 50.4654C111.261 49.0347 112.156 48.3082 113.547 48.2121Z" fill="white"/>
<path d="M411.023 67.3094C412.575 67.3812 413.442 68.0839 413.446 69.5542C413.45 71.0134 412.624 71.8071 411.171 71.7959C409.845 71.7854 409.064 71.0362 408.993 69.7127C408.914 68.2503 409.723 67.4909 411.023 67.3094Z" fill="white"/>
<path d="M398.505 29.4545C399.78 29.615 400.64 30.2858 400.615 31.6273C400.592 32.822 399.817 33.6061 398.623 33.6273C397.297 33.6508 396.481 32.8356 396.492 31.5075C396.502 30.301 397.316 29.6629 398.505 29.4545Z" fill="white"/>
<path d="M126.262 65.4006C124.931 65.3006 124.1 64.6471 124.074 63.287C124.048 61.941 124.802 61.1414 126.149 61.1101C127.494 61.0786 128.289 61.8346 128.327 63.1835C128.366 64.5427 127.569 65.2362 126.262 65.4006Z" fill="white"/>
<path d="M404.9 35.7472C406.202 35.8955 407.014 36.5687 407 37.9138C406.985 39.2457 406.206 40.0198 404.874 40.0124C403.541 40.005 402.774 39.22 402.774 37.8888C402.775 36.5425 403.596 35.8809 404.9 35.7472Z" fill="white"/>
<path d="M407.053 63.2935C406.888 64.6029 406.194 65.4006 404.835 65.3617C403.488 65.3233 402.73 64.5291 402.762 63.1833C402.794 61.836 403.592 61.0836 404.939 61.1086C406.301 61.1336 406.951 61.9668 407.053 63.2935Z" fill="white"/>
<path d="M400.686 19.0263C400.441 20.2925 399.718 21.1061 398.382 20.9827C397.071 20.8618 396.335 19.9907 396.476 18.6643C396.602 17.4874 397.385 16.7674 398.597 16.8117C399.938 16.8604 400.586 17.7007 400.686 19.0263Z" fill="white"/>
<path d="M134.657 69.5435C134.491 70.8383 133.807 71.6859 132.447 71.641C131.236 71.6012 130.468 70.824 130.463 69.6113C130.457 68.2664 131.276 67.4657 132.623 67.4957C133.846 67.5229 134.476 68.3377 134.657 69.5435Z" fill="white"/>
<path d="M132.375 16.7401C133.848 16.9556 134.683 17.642 134.618 18.9858C134.553 20.3081 133.714 21.0665 132.384 20.9855C131.194 20.9133 130.469 20.1518 130.441 18.9446C130.409 17.5646 131.332 17.0028 132.375 16.7401Z" fill="white"/>
<path d="M128.391 75.8635C128.307 77.1919 127.654 78.0238 126.298 78.0583C124.822 78.0956 124.003 77.2802 124.046 75.8043C124.084 74.4594 124.89 73.7292 126.233 73.7417C127.591 73.7546 128.27 74.5459 128.391 75.8635Z" fill="white"/>
<path d="M128.38 50.4376C128.18 51.9182 127.493 52.7203 126.149 52.6807C124.818 52.6416 124.056 51.8476 124.089 50.517C124.122 49.1871 124.919 48.4448 126.252 48.4513C127.637 48.458 128.172 49.3832 128.38 50.4376Z" fill="white"/>
<path d="M138.928 77.96C137.756 77.8401 136.924 77.2045 136.861 76.0374C136.79 74.7267 137.617 73.8808 138.925 73.8947C140.1 73.9072 140.872 74.7115 140.88 75.8954C140.889 77.0869 140.096 77.7418 138.928 77.96Z" fill="white"/>
<path d="M392.176 73.8437C393.343 73.9794 394.177 74.6115 394.226 75.7851C394.281 77.0944 393.453 77.9362 392.144 77.9092C390.969 77.885 390.202 77.0767 390.206 75.8911C390.21 74.7004 391.007 74.052 392.176 73.8437Z" fill="white"/>
<path d="M407.078 75.956C406.948 77.2733 406.261 78.0691 404.905 78.0602C403.414 78.0503 402.646 77.1832 402.734 75.7252C402.815 74.3826 403.664 73.6845 405 73.7433C406.356 73.8028 407.001 74.6278 407.078 75.956Z" fill="white"/>
<path d="M404.54 23.0496C406.098 23.1115 406.955 23.7376 407.026 25.0724C407.102 26.5199 406.325 27.3776 404.855 27.3749C403.525 27.3724 402.783 26.5997 402.737 25.2671C402.689 23.8842 403.574 23.3103 404.54 23.0496Z" fill="white"/>
<path d="M134.631 44.2016C134.459 45.4541 133.79 46.3109 132.465 46.279C131.288 46.2506 130.506 45.4734 130.491 44.2939C130.475 42.9844 131.294 42.1723 132.603 42.1909C133.791 42.2074 134.427 43.0195 134.631 44.2016Z" fill="white"/>
<path d="M125.984 23.0392C127.5 23.1642 128.322 23.8224 128.341 25.1631C128.362 26.6262 127.535 27.4314 126.078 27.3732C124.748 27.3202 124.043 26.5046 124.051 25.1765C124.059 23.7929 124.957 23.2444 125.984 23.0392Z" fill="white"/>
<path d="M134.628 56.7998C134.506 58.072 133.843 58.9299 132.526 58.946C131.341 58.9603 130.547 58.1912 130.492 57.0218C130.429 55.7098 131.237 54.8837 132.542 54.857C133.736 54.8327 134.385 55.6356 134.628 56.7998Z" fill="white"/>
<path d="M132.5 80.0887C133.819 80.2349 134.663 80.9093 134.632 82.2696C134.603 83.6138 133.781 84.3796 132.434 84.3356C131.22 84.296 130.477 83.545 130.432 82.3315C130.381 80.9703 131.193 80.2756 132.5 80.0887Z" fill="white"/>
<path d="M407.042 50.5531C406.909 51.8587 406.246 52.6797 404.901 52.6808C403.569 52.6819 402.784 51.9128 402.776 50.5806C402.769 49.2501 403.541 48.4695 404.875 48.4554C406.221 48.4409 406.893 49.2527 407.042 50.5531Z" fill="white"/>
<path d="M398.573 46.3304C397.319 46.1475 396.465 45.4729 396.509 44.1482C396.549 42.9719 397.332 42.1949 398.512 42.1918C399.819 42.1884 400.629 43.0094 400.598 44.3214C400.57 45.5087 399.754 46.1379 398.573 46.3304Z" fill="white"/>
<path d="M134.647 31.501C134.498 32.7828 133.83 33.643 132.489 33.6289C131.293 33.6164 130.506 32.8441 130.475 31.6521C130.44 30.3247 131.254 29.505 132.58 29.5066C133.785 29.5077 134.432 30.3151 134.647 31.501Z" fill="white"/>
<path d="M400.715 81.911C400.597 83.4607 399.942 84.3193 398.585 84.3338C397.238 84.3479 396.452 83.5479 396.452 82.2006C396.452 80.9804 397.188 80.2345 398.393 80.131C399.788 80.0109 400.391 80.925 400.715 81.911Z" fill="white"/>
<path d="M128.378 37.5758C128.283 39.1423 127.64 39.9832 126.281 40.0274C124.937 40.071 124.125 39.3285 124.076 37.9818C124.026 36.639 124.772 35.8477 126.12 35.7699C127.521 35.6889 128.097 36.5978 128.378 37.5758Z" fill="white"/>
<path d="M398.517 67.4556C399.789 67.6233 400.648 68.2963 400.615 69.6387C400.586 70.8322 399.809 71.6134 398.613 71.6284C397.286 71.6452 396.474 70.8257 396.492 69.4987C396.509 68.2943 397.324 67.6571 398.517 67.4556Z" fill="white"/>
<path d="M400.647 56.7998C400.525 58.072 399.863 58.9299 398.546 58.946C397.36 58.9603 396.567 58.1912 396.511 57.0218C396.449 55.7098 397.256 54.8837 398.562 54.857C399.755 54.8327 400.404 55.6356 400.647 56.7998Z" fill="white"/>
<path d="M402.682 12.587C402.768 11.2471 403.436 10.4198 404.804 10.3932C406.297 10.3641 407.111 11.1938 407.06 12.6812C407.013 14.0408 406.194 14.7663 404.839 14.7451C403.468 14.7232 402.788 13.9236 402.682 12.587Z" fill="white"/>
<path d="M394.297 12.6262C394.08 13.8028 393.427 14.6034 392.219 14.5979C391.019 14.5923 390.211 13.8236 390.195 12.6312C390.176 11.3046 391.023 10.4773 392.35 10.5426C393.537 10.601 394.171 11.4406 394.297 12.6262Z" fill="white"/>
<path d="M138.901 14.6769C137.644 14.4539 136.835 13.8142 136.824 12.627C136.813 11.3179 137.631 10.4803 138.937 10.5291C140.233 10.5776 141.018 11.4536 140.911 12.7643C140.815 13.9406 139.95 14.5163 138.901 14.6769Z" fill="white"/>
<path d="M145.159 17.0341C146.204 17.0915 146.946 17.6577 147.04 18.7421C147.133 19.8262 146.517 20.6126 145.422 20.7242C144.199 20.8487 143.41 20.1522 143.365 18.9314C143.324 17.8374 144.015 17.2015 145.159 17.0341Z" fill="white"/>
<path d="M387.75 18.9217C387.631 20.0193 387.02 20.7314 385.928 20.7376C384.7 20.7446 383.973 19.9672 384.051 18.7506C384.119 17.6691 384.872 17.0051 385.971 17.0601C387.063 17.1151 387.656 17.8238 387.75 18.9217Z" fill="white"/>
<path d="M392.176 23.1966C393.344 23.3402 394.171 23.9738 394.211 25.1718C394.25 26.3731 393.472 27.1803 392.282 27.2241C391.08 27.2684 390.276 26.4867 390.23 25.2972C390.182 24.0894 390.986 23.4218 392.176 23.1966Z" fill="white"/>
<path d="M138.974 27.2795C137.746 27.1315 136.919 26.4979 136.877 25.3006C136.834 24.0983 137.613 23.2907 138.802 23.2447C140.003 23.1979 140.806 23.9796 140.859 25.1686C140.912 26.3834 140.079 27.0215 138.974 27.2795Z" fill="white"/>
<path d="M138.949 39.8384C137.904 39.7637 137.12 39.2199 136.987 38.1453C136.834 36.9158 137.575 36.1145 138.75 36.0031C139.828 35.9012 140.616 36.5876 140.749 37.6572C140.903 38.8836 140.157 39.5754 138.949 39.8384Z" fill="white"/>
<path d="M147.137 82.1929C147.036 83.2858 146.43 84.0494 145.373 84.133C144.168 84.2282 143.358 83.4796 143.301 82.2774C143.248 81.1885 143.976 80.4227 145.031 80.3384C146.236 80.2423 146.939 80.9983 147.137 82.1929Z" fill="white"/>
<path d="M387.783 82.2031C387.706 83.2571 387.118 84.0081 386.034 84.1003C384.938 84.1933 384.143 83.5344 384.035 82.4457C383.912 81.2149 384.647 80.4124 385.868 80.3724C386.966 80.3364 387.605 81.0583 387.783 82.2031Z" fill="white"/>
<path d="M138.905 65.246C137.756 65.1105 136.942 64.4787 136.901 63.2981C136.86 62.1113 137.632 61.3129 138.806 61.2688C139.991 61.2243 140.789 61.9984 140.835 63.1725C140.881 64.3622 140.093 65.0307 138.905 65.246Z" fill="white"/>
<path d="M394.154 37.858C394.054 38.9509 393.447 39.7145 392.391 39.7981C391.186 39.8934 390.376 39.1448 390.318 37.9426C390.266 36.8537 390.994 36.0881 392.049 36.0038C393.254 35.9075 393.956 36.6634 394.154 37.858Z" fill="white"/>
<path d="M390.209 63.1951C390.428 62.0069 391.098 61.219 392.287 61.2684C393.46 61.3171 394.234 62.116 394.186 63.3024C394.138 64.474 393.341 65.246 392.152 65.202C390.97 65.1582 390.343 64.3418 390.209 63.1951Z" fill="white"/>
<path d="M394.157 50.4871C394.082 51.5317 393.538 52.3156 392.464 52.4493C391.234 52.6023 390.433 51.8613 390.322 50.6854C390.22 49.608 390.906 48.8205 391.976 48.6866C393.202 48.5334 393.894 49.2795 394.157 50.4871Z" fill="white"/>
<path d="M140.803 50.6229C140.593 51.814 139.892 52.5693 138.684 52.4629C137.628 52.3696 136.905 51.6016 136.967 50.5127C137.034 49.3127 137.847 48.5668 139.052 48.6712C140.108 48.7629 140.708 49.5316 140.803 50.6229Z" fill="white"/>
<path d="M387.607 44.1194C387.571 45.279 387.014 45.9441 385.85 45.9356C384.829 45.9283 384.219 45.353 384.185 44.328C384.148 43.1799 384.76 42.5304 385.921 42.5326C386.95 42.5349 387.491 43.1312 387.607 44.1194Z" fill="white"/>
<path d="M374.839 82.3175C374.697 83.3469 374.115 83.9171 373.074 83.8292C372.021 83.7402 371.521 83.0449 371.627 82.0262C371.722 81.1265 372.31 80.6144 373.232 80.6361C374.292 80.6612 374.79 81.2848 374.839 82.3175Z" fill="white"/>
<path d="M151.392 26.8823C150.355 26.7517 149.835 26.1408 149.903 25.1052C149.973 24.0425 150.633 23.5369 151.665 23.6029C152.728 23.6709 153.231 24.3307 153.167 25.3636C153.101 26.4326 152.433 26.8845 151.392 26.8823Z" fill="white"/>
<path d="M381.2 25.3769C381.07 26.4139 380.459 26.9342 379.423 26.866C378.36 26.7958 377.855 26.1362 377.921 25.1048C377.989 24.0421 378.649 23.5388 379.682 23.6025C380.751 23.6683 381.203 24.3359 381.2 25.3769Z" fill="white"/>
<path d="M379.64 52.1772C378.626 52.1144 377.982 51.6158 377.975 50.5851C377.968 49.5628 378.575 48.9768 379.6 48.9873C380.496 48.9965 381.062 49.5358 381.132 50.4225C381.213 51.4499 380.631 52.0095 379.64 52.1772Z" fill="white"/>
<path d="M159.489 82.1112C159.462 83.1554 158.972 83.8047 157.915 83.8302C156.868 83.8557 156.28 83.2636 156.272 82.2157C156.264 81.2967 156.788 80.7212 157.694 80.6414C158.725 80.5506 159.333 81.0872 159.489 82.1112Z" fill="white"/>
<path d="M151.518 48.9463C152.548 49.0317 153.163 49.5619 153.13 50.6159C153.096 51.6656 152.463 52.2143 151.421 52.1644C150.504 52.1206 149.97 51.5657 149.937 50.6514C149.899 49.5994 150.485 49.0521 151.518 48.9463Z" fill="white"/>
<path d="M146.932 44.1249C146.828 45.4244 146.178 46.0088 145.042 45.9328C144.021 45.8644 143.472 45.222 143.5 44.204C143.532 43.0353 144.227 42.4692 145.362 42.5345C146.403 42.5944 146.851 43.2793 146.932 44.1249Z" fill="white"/>
<path d="M373.279 17.3048C374.261 17.4678 374.881 18.0277 374.779 19.0663C374.693 19.9481 374.098 20.5122 373.183 20.465C372.15 20.4116 371.565 19.7668 371.658 18.7347C371.738 17.8448 372.349 17.371 373.279 17.3048Z" fill="white"/>
<path d="M157.853 17.29C158.855 17.3962 159.483 17.9154 159.447 18.9477C159.411 19.9682 158.78 20.5323 157.757 20.4802C156.863 20.4346 156.322 19.8756 156.288 18.9823C156.249 17.9496 156.85 17.4177 157.853 17.29Z" fill="white"/>
<path d="M146.954 31.6263C146.825 32.7834 146.17 33.3761 145.057 33.2958C143.915 33.2133 143.374 32.4551 143.476 31.3582C143.567 30.3688 144.219 29.8119 145.221 29.8353C146.359 29.8622 146.91 30.5329 146.954 31.6263Z" fill="white"/>
<path d="M385.783 29.8106C386.946 29.8759 387.608 30.4395 387.618 31.576C387.627 32.5753 387.064 33.2183 386.069 33.2957C384.967 33.3813 384.228 32.8326 384.156 31.6881C384.085 30.5585 384.721 29.9517 385.783 29.8106Z" fill="white"/>
<path d="M387.603 56.9957C387.478 58.1633 386.781 58.7035 385.664 58.5952C384.645 58.4969 384.126 57.8198 384.184 56.8077C384.252 55.6305 384.994 55.101 386.109 55.2065C387.127 55.3034 387.601 55.9826 387.603 56.9957Z" fill="white"/>
<path d="M379.703 77.5787C378.527 77.5177 377.918 77.0059 377.9 75.9644C377.879 74.7899 378.532 74.1934 379.684 74.2522C380.723 74.3054 381.233 74.9455 381.208 75.9696C381.183 77.0262 380.544 77.4913 379.703 77.5787Z" fill="white"/>
<path d="M151.653 77.5692C150.628 77.5706 149.957 77.1147 149.887 76.0723C149.81 74.9322 150.376 74.2469 151.559 74.2498C152.591 74.2523 153.167 74.8242 153.19 75.8612C153.212 76.892 152.67 77.4615 151.653 77.5692Z" fill="white"/>
<path d="M153.192 63.2425C153.024 64.3848 152.431 64.9248 151.408 64.8514C150.37 64.777 149.849 64.1254 149.919 63.107C149.991 62.0693 150.643 61.5531 151.663 61.6177C152.716 61.6839 153.133 62.3772 153.192 63.2425Z" fill="white"/>
<path d="M374.819 69.3599C374.71 70.471 374.204 71.1232 373.183 71.1178C372.299 71.1133 371.707 70.5365 371.671 69.6607C371.629 68.648 372.243 68.0318 373.255 68.0162C374.17 68.0021 374.577 68.6722 374.819 69.3599Z" fill="white"/>
<path d="M157.789 67.9859C158.695 68.034 159.309 68.5201 159.412 69.3706C159.533 70.3761 158.939 71.0625 157.94 71.1124C156.932 71.1627 156.309 70.5259 156.32 69.5117C156.331 68.6214 156.937 68.1458 157.789 67.9859Z" fill="white"/>
<path d="M381.171 63.106C381.146 64.1484 380.659 64.8006 379.603 64.8295C378.557 64.8581 377.966 64.2703 377.953 63.2205C377.943 62.2993 378.466 61.7249 379.369 61.6415C380.401 61.5463 381.01 62.0834 381.171 63.106Z" fill="white"/>
<path d="M145.147 55.1822C146.239 55.2155 146.909 55.7673 146.903 56.9326C146.897 57.9522 146.327 58.5664 145.3 58.602C144.152 58.6418 143.498 58.0323 143.5 56.8716C143.502 55.8489 144.082 55.2884 145.147 55.1822Z" fill="white"/>
<path d="M153.256 12.5168C153.221 13.6118 152.664 14.2769 151.5 14.2687C150.48 14.2613 149.869 13.686 149.836 12.6611C149.798 11.5129 150.411 10.8616 151.571 10.8663C152.596 10.8704 153.152 11.4535 153.256 12.5168Z" fill="white"/>
<path d="M146.992 69.5775C146.866 70.7283 146.244 71.3868 145.107 71.3295C143.962 71.2719 143.363 70.532 143.44 69.4087C143.509 68.4077 144.157 67.8087 145.167 67.8033C146.313 67.7973 146.897 68.4734 146.992 69.5775Z" fill="white"/>
<path d="M149.894 37.9151C150.076 36.7488 150.69 36.2015 151.717 36.3104C152.761 36.421 153.252 37.128 153.119 38.1485C153.002 39.0484 152.402 39.5385 151.483 39.5014C150.411 39.4583 149.983 38.7761 149.894 37.9151Z" fill="white"/>
<path d="M379.474 10.8423C380.662 10.9134 381.295 11.5068 381.253 12.6618C381.217 13.6859 380.611 14.2636 379.588 14.2685C378.429 14.2741 377.818 13.6239 377.851 12.4742C377.88 11.4392 378.516 10.9375 379.474 10.8423Z" fill="white"/>
<path d="M381.186 37.747C381.087 38.9193 380.554 39.5317 379.501 39.4959C378.451 39.4604 377.903 38.8243 377.956 37.7839C378.002 36.8692 378.559 36.3444 379.473 36.3008C380.553 36.2494 381.031 36.898 381.186 37.747Z" fill="white"/>
<path d="M385.896 71.3227C384.787 71.2375 384.126 70.6575 384.156 69.5228C384.186 68.3877 384.876 67.7913 385.996 67.8379C386.997 67.8794 387.587 68.4845 387.618 69.4864C387.652 70.6177 387.025 71.2192 385.896 71.3227Z" fill="white"/>
<path d="M165.613 25.15C165.576 25.9205 165.153 26.4783 164.421 26.596C163.525 26.7402 162.932 26.1843 162.827 25.3275C162.731 24.5506 163.258 23.9923 163.986 23.8724C164.886 23.7239 165.388 24.3001 165.613 25.15Z" fill="white"/>
<path d="M159.422 44.3302C159.207 45.1577 158.734 45.801 157.842 45.7469C156.854 45.687 156.219 45.0193 156.367 44.0179C156.488 43.1968 157.124 42.5952 158.022 42.719C158.863 42.8351 159.359 43.4341 159.422 44.3302Z" fill="white"/>
<path d="M373.309 45.7419C372.365 45.5478 371.748 45.0803 371.77 44.1743C371.789 43.4054 372.346 42.8556 373.087 42.7908C373.987 42.7121 374.599 43.3062 374.663 44.1681C374.731 45.0799 374.04 45.506 373.309 45.7419Z" fill="white"/>
<path d="M165.689 75.8371C165.58 76.7024 165.106 77.303 164.219 77.3504C163.43 77.3924 162.882 76.8258 162.765 76.1079C162.618 75.201 163.222 74.5734 164.059 74.4614C164.954 74.3413 165.455 74.9812 165.689 75.8371Z" fill="white"/>
<path d="M157.809 30.0245C158.701 30.1309 159.324 30.6047 159.369 31.5051C159.414 32.4182 158.821 33.0186 157.931 33.068C157.019 33.1185 156.42 32.5195 156.367 31.6312C156.312 30.7118 156.94 30.227 157.809 30.0245Z" fill="white"/>
<path d="M374.763 31.5095C374.655 32.399 374.182 33.0235 373.281 33.0682C372.369 33.1133 371.768 32.5204 371.719 31.6307C371.668 30.7183 372.266 30.1202 373.155 30.0667C374.076 30.0113 374.559 30.64 374.763 31.5095Z" fill="white"/>
<path d="M171.892 82.283C171.779 83.0633 171.338 83.5776 170.552 83.5669C169.631 83.5543 169.114 82.9569 169.211 82.0592C169.293 81.2959 169.859 80.8268 170.65 80.9001C171.428 80.9723 171.842 81.4957 171.892 82.283Z" fill="white"/>
<path d="M165.556 63.3094C165.427 64.0886 164.977 64.5957 164.19 64.5657C163.275 64.5308 162.767 63.9343 162.883 63.0321C162.981 62.2628 163.559 61.8109 164.343 61.9008C165.113 61.9891 165.527 62.5179 165.556 63.3094Z" fill="white"/>
<path d="M373.295 58.4587C372.41 58.3806 371.81 57.8896 371.703 57.0427C371.589 56.1425 372.196 55.5095 373.015 55.3973C374.012 55.2604 374.685 55.8968 374.731 56.8891C374.773 57.7765 374.135 58.2541 373.295 58.4587Z" fill="white"/>
<path d="M366.856 74.4545C367.659 74.5549 368.225 75.013 368.293 75.7611C368.375 76.6665 367.786 77.2704 366.896 77.3164C366.108 77.3571 365.544 76.787 365.473 76.044C365.386 75.1356 365.999 74.6336 366.856 74.4545Z" fill="white"/>
<path d="M366.969 26.6438C366.198 26.6067 365.64 26.1839 365.523 25.4525C365.379 24.5559 365.934 23.963 366.791 23.8579C367.568 23.7624 368.126 24.2894 368.246 25.0176C368.395 25.9169 367.819 26.4191 366.969 26.6438Z" fill="white"/>
<path d="M366.86 11.0109C367.729 11.1292 368.331 11.6103 368.401 12.4758C368.473 13.3745 367.871 13.9934 367.039 14.0745C366.04 14.1718 365.376 13.5305 365.371 12.5317C365.366 11.6559 366 11.1757 366.86 11.0109Z" fill="white"/>
<path d="M165.747 12.5076C165.641 13.3981 165.167 14.0224 164.267 14.0673C163.354 14.1132 162.753 13.5198 162.703 12.6303C162.652 11.7179 163.251 11.1191 164.139 11.0652C165.059 11.0097 165.543 11.6387 165.747 12.5076Z" fill="white"/>
<path d="M159.425 56.8556C159.325 57.7305 158.839 58.3297 157.982 58.4163C157.082 58.5073 156.458 57.9018 156.362 57.0768C156.246 56.0775 156.888 55.4117 157.883 55.3877C158.764 55.3667 159.244 56.0011 159.425 56.8556Z" fill="white"/>
<path d="M361.7 18.9749C361.636 19.6801 361.25 20.0558 360.542 20.0435C359.67 20.0283 359.333 19.4896 359.417 18.701C359.493 17.9809 360.013 17.7018 360.689 17.7618C361.404 17.8248 361.716 18.2751 361.7 18.9749Z" fill="white"/>
<path d="M171.724 18.8983C171.689 19.6326 171.314 20.0527 170.592 20.0757C169.711 20.1039 169.304 19.5937 169.365 18.7597C169.419 18.0337 169.891 17.6815 170.611 17.7231C171.339 17.7654 171.696 18.1906 171.724 18.8983Z" fill="white"/>
<path d="M176.87 13.6739C176.129 13.6017 175.728 13.2084 175.781 12.4827C175.834 11.7491 176.315 11.4092 177.021 11.4783C177.612 11.536 177.948 11.9304 177.963 12.5236C177.981 13.2592 177.568 13.6225 176.87 13.6739Z" fill="white"/>
<path d="M368.109 37.9835C367.998 38.8264 367.478 39.2121 366.675 39.1072C365.981 39.0164 365.614 38.5239 365.672 37.8198C365.742 36.969 366.294 36.5925 367.096 36.6949C367.794 36.7841 368.12 37.2772 368.109 37.9835Z" fill="white"/>
<path d="M366.811 64.46C365.988 64.371 365.59 63.8648 365.678 63.0572C365.753 62.3634 366.221 61.978 366.934 62.0209C367.789 62.0723 368.176 62.6087 368.092 63.4145C368.018 64.1121 367.547 64.462 366.811 64.46Z" fill="white"/>
<path d="M162.979 38.014C162.961 37.3138 163.27 36.8044 163.965 36.6993C164.762 36.5788 165.328 36.9442 165.415 37.7927C165.487 38.4914 165.131 38.9998 164.441 39.106C163.645 39.2288 163.111 38.8547 162.979 38.014Z" fill="white"/>
<path d="M354.171 11.4615C354.868 11.4772 355.304 11.8322 355.306 12.562C355.308 13.2894 354.885 13.684 354.156 13.6587C353.566 13.6382 353.178 13.2987 353.126 12.7022C353.063 11.9865 353.418 11.5599 354.171 11.4615Z" fill="white"/>
<path d="M361.653 31.675C361.538 32.4081 361.072 32.7478 360.378 32.6525C359.652 32.553 359.35 32.0195 359.474 31.3313C359.577 30.7601 359.992 30.4376 360.595 30.4739C361.332 30.5184 361.657 30.9604 361.653 31.675Z" fill="white"/>
<path d="M170.596 30.4627C171.35 30.5693 171.705 31.0127 171.624 31.7179C171.539 32.4557 171.007 32.7569 170.323 32.6512C169.753 32.5629 169.417 32.1503 169.443 31.5482C169.474 30.8144 169.902 30.4721 170.596 30.4627Z" fill="white"/>
<path d="M368.067 50.3456C368.085 51.1854 367.771 51.6628 367.044 51.7412C366.351 51.8161 365.809 51.5152 365.717 50.7905C365.615 49.9861 365.966 49.4284 366.857 49.3891C367.599 49.3564 367.956 49.7848 368.067 50.3456Z" fill="white"/>
<path d="M361.778 82.2762C361.705 83.1008 361.22 83.5169 360.403 83.4434C359.709 83.381 359.309 82.9338 359.336 82.2165C359.369 81.3615 359.887 80.9582 360.7 81.0282C361.396 81.0881 361.764 81.5408 361.778 82.2762Z" fill="white"/>
<path d="M164.091 49.344C164.791 49.3261 165.3 49.6351 165.405 50.3298C165.526 51.1269 165.16 51.6923 164.312 51.7798C163.613 51.8518 163.105 51.496 162.998 50.8063C162.876 50.0094 163.25 49.4759 164.091 49.344Z" fill="white"/>
<path d="M360.648 68.4482C361.37 68.5363 361.715 68.9607 361.662 69.6666C361.607 70.3908 361.158 70.7322 360.451 70.6797C359.725 70.6258 359.388 70.1771 359.439 69.4698C359.492 68.7403 359.945 68.4337 360.648 68.4482Z" fill="white"/>
<path d="M169.413 69.5553C169.474 68.8219 169.852 68.4311 170.573 68.4566C171.289 68.4818 171.674 68.8852 171.649 69.6051C171.625 70.3213 171.224 70.7039 170.502 70.6817C169.778 70.6594 169.431 70.2455 169.413 69.5553Z" fill="white"/>
<path d="M183.247 81.2736C183.792 81.4506 184.239 81.7668 184.128 82.3546C184.03 82.8771 183.604 83.2984 183.022 83.1622C182.629 83.0703 182.235 82.7291 182.266 82.2432C182.303 81.6682 182.68 81.3469 183.247 81.2736Z" fill="white"/>
<path d="M361.602 56.9502C361.497 57.6579 361.072 58.0302 360.379 57.9275C359.83 57.8459 359.473 57.451 359.517 56.8547C359.572 56.1303 360.038 55.7802 360.725 55.8763C361.28 55.9539 361.602 56.3508 361.602 56.9502Z" fill="white"/>
<path d="M176.827 76.9369C176.24 76.8287 175.843 76.5096 175.859 75.9113C175.879 75.1799 176.355 74.7893 177.053 74.9018C177.598 74.9897 177.969 75.4252 177.881 76.0224C177.799 76.5894 177.419 76.9199 176.827 76.9369Z" fill="white"/>
<path d="M355.237 75.9574C355.082 76.5269 354.772 76.9566 354.154 76.8924C353.579 76.833 353.174 76.4435 353.23 75.838C353.283 75.2629 353.677 74.8611 354.283 74.9128C354.866 74.9627 355.197 75.3611 355.237 75.9574Z" fill="white"/>
<path d="M354.161 36.9922C354.67 36.9989 355.01 37.3327 355.091 37.7316C355.208 38.308 354.822 38.7051 354.259 38.7896C353.761 38.8643 353.421 38.4627 353.336 38.0694C353.211 37.4872 353.618 37.1467 354.161 36.9922Z" fill="white"/>
<path d="M176.983 36.9956C177.483 37.2129 177.919 37.5219 177.724 38.1303C177.594 38.5357 177.237 38.9068 176.759 38.7861C176.241 38.6551 175.825 38.2788 176.014 37.6746C176.142 37.2668 176.485 36.9746 176.983 36.9956Z" fill="white"/>
<path d="M360.52 43.2027C361.111 43.2262 361.511 43.5576 361.556 44.1284C361.612 44.845 361.186 45.2839 360.465 45.2432C359.889 45.2106 359.524 44.8079 359.535 44.214C359.548 43.6195 359.924 43.2953 360.52 43.2027Z" fill="white"/>
<path d="M171.588 44.1901C171.549 44.8513 171.215 45.2853 170.489 45.2662C169.906 45.251 169.533 44.892 169.506 44.3129C169.473 43.6032 169.867 43.1871 170.584 43.1998C171.169 43.2101 171.497 43.575 171.588 44.1901Z" fill="white"/>
<path d="M176.899 64.2011C176.344 64.0996 175.949 63.7978 175.935 63.2095C175.924 62.7288 176.304 62.393 176.71 62.3114C177.295 62.1935 177.711 62.609 177.797 63.1382C177.893 63.7294 177.444 64.037 176.899 64.2011Z" fill="white"/>
<path d="M354.272 26.23C353.693 26.1813 353.306 25.8479 353.255 25.2952C353.201 24.711 353.613 24.3273 354.158 24.2727C354.742 24.2144 355.122 24.6325 355.182 25.1749C355.249 25.7706 354.805 26.0621 354.272 26.23Z" fill="white"/>
<path d="M177.868 25.2905C177.697 25.8217 177.406 26.2667 176.81 26.1983C176.266 26.1361 175.85 25.7558 175.91 25.172C175.966 24.628 176.351 24.2153 176.935 24.2712C177.486 24.3239 177.82 24.7123 177.868 25.2905Z" fill="white"/>
<path d="M354.137 64.1485C353.611 63.9573 353.189 63.6305 353.349 63.0375C353.456 62.6424 353.798 62.2489 354.294 62.3502C354.84 62.4613 355.234 62.853 355.083 63.4366C354.98 63.8332 354.64 64.1608 354.137 64.1485Z" fill="white"/>
<path d="M176.791 51.4813C176.265 51.2903 175.843 50.9632 176.003 50.3705C176.11 49.9754 176.452 49.5819 176.949 49.683C177.494 49.7941 177.888 50.1858 177.737 50.7694C177.635 51.166 177.294 51.4936 176.791 51.4813Z" fill="white"/>
<path d="M171.604 56.7607C171.521 57.5873 171.141 57.9869 170.43 57.931C169.855 57.8858 169.502 57.5057 169.505 56.9201C169.508 56.1962 169.943 55.8304 170.646 55.8677C171.246 55.8995 171.481 56.3478 171.604 56.7607Z" fill="white"/>
<path d="M348.049 83.2273C347.357 83.1007 346.961 82.7989 346.948 82.2106C346.936 81.7299 347.317 81.3939 347.722 81.3125C348.308 81.1949 348.715 81.6096 348.812 82.1393C348.926 82.7578 348.367 82.9605 348.049 83.2273Z" fill="white"/>
</g>
</g>
<path d="M395.377 23.7004C438.437 23.7004 473.344 18.3949 473.344 11.8502C473.344 5.30552 438.437 0 395.377 0C352.317 0 317.41 5.30552 317.41 11.8502C317.41 18.3949 352.317 23.7004 395.377 23.7004Z" fill="url(#paint0_radial_122_112)"/>
<path d="M141.981 23.7004C185.041 23.7004 219.948 18.3949 219.948 11.8502C219.948 5.30552 185.041 0 141.981 0C98.9215 0 64.0146 5.30552 64.0146 11.8502C64.0146 18.3949 98.9215 23.7004 141.981 23.7004Z" fill="url(#paint1_radial_122_112)"/>
<path d="M413.298 99.7202C456.358 99.7202 491.264 94.4147 491.264 87.87C491.264 81.3254 456.358 76.0198 413.298 76.0198C370.238 76.0198 335.331 81.3254 335.331 87.87C335.331 94.4147 370.238 99.7202 413.298 99.7202Z" fill="url(#paint2_radial_122_112)"/>
<path d="M124.06 99.7202C167.12 99.7202 202.027 94.4147 202.027 87.87C202.027 81.3254 167.12 76.0198 124.06 76.0198C81.0006 76.0198 46.0938 81.3254 46.0938 87.87C46.0938 94.4147 81.0006 99.7202 124.06 99.7202Z" fill="url(#paint3_radial_122_112)"/>
<path d="M267.732 99.7202C310.792 99.7202 345.699 94.4147 345.699 87.87C345.699 81.3254 310.792 76.0198 267.732 76.0198C224.673 76.0198 189.766 81.3254 189.766 87.87C189.766 94.4147 224.673 99.7202 267.732 99.7202Z" fill="url(#paint4_radial_122_112)"/>
<defs>
<radialGradient id="paint0_radial_122_112" cx="0" cy="0" r="1" gradientUnits="userSpaceOnUse" gradientTransform="translate(395.388 11.8471) scale(77.9671 11.8499)">
<stop stop-color="white"/>
<stop offset="1" stop-opacity="0"/>
</radialGradient>
<radialGradient id="paint1_radial_122_112" cx="0" cy="0" r="1" gradientUnits="userSpaceOnUse" gradientTransform="translate(141.97 11.8472) rotate(180) scale(77.9671 11.8499)">
<stop stop-color="white"/>
<stop offset="1" stop-opacity="0"/>
</radialGradient>
<radialGradient id="paint2_radial_122_112" cx="0" cy="0" r="1" gradientUnits="userSpaceOnUse" gradientTransform="translate(413.309 87.8652) scale(77.9671 11.8499)">
<stop stop-color="white"/>
<stop offset="1" stop-opacity="0"/>
</radialGradient>
<radialGradient id="paint3_radial_122_112" cx="0" cy="0" r="1" gradientUnits="userSpaceOnUse" gradientTransform="translate(124.049 87.8652) rotate(180) scale(77.9671 11.8499)">
<stop stop-color="white"/>
<stop offset="1" stop-opacity="0"/>
</radialGradient>
<radialGradient id="paint4_radial_122_112" cx="0" cy="0" r="1" gradientUnits="userSpaceOnUse" gradientTransform="translate(267.743 87.8652) scale(77.9671 11.8499)">
<stop stop-color="white"/>
<stop offset="1" stop-opacity="0"/>
</radialGradient>
</defs>
</svg>
