<svg width="24" height="24" viewBox="0 0 24 24" fill="none" xmlns="http://www.w3.org/2000/svg">
<path d="M16.4352 9.86879C16.9632 9.33119 17.4912 8.08319 15.2832 9.59999C13.216 11.0336 11.136 12.4448 9.0432 13.8336C8.7261 13.9772 8.38331 14.0555 8.03529 14.0637C7.68727 14.072 7.34116 14.01 7.0176 13.8816C5.6928 13.4784 4.1376 12.9408 4.1376 12.9408C4.1376 12.9408 3.0816 12.2688 4.9056 11.5584L15.1872 7.27679L19.6512 5.40479C19.6512 5.40479 21.2448 4.78079 21.1104 6.29759C21.0624 6.92159 20.7168 9.11039 20.3616 11.4816L19.2576 18.48C19.2576 18.48 19.1616 19.4976 18.4128 19.68C17.608 19.6622 16.8317 19.3786 16.2048 18.8736C16.032 18.7392 12.8928 16.7328 11.7504 15.7536C11.6338 15.6734 11.5387 15.5658 11.4734 15.4403C11.4081 15.3147 11.3747 15.1751 11.376 15.0336C11.3804 14.8902 11.4205 14.7502 11.4926 14.6262C11.5646 14.5022 11.6664 14.398 11.7888 14.3232C13.3696 12.8704 14.9184 11.3856 16.4352 9.86879Z" fill="white"/>
</svg>
