<svg width="24" height="24" viewBox="0 0 24 24" fill="none" xmlns="http://www.w3.org/2000/svg">
<mask id="mask0_1_211" style="mask-type:luminance" maskUnits="userSpaceOnUse" x="2" y="2" width="20" height="20">
<path d="M17.172 11.424L18.9 9.71995L17.172 8.02795L15.444 9.71995L17.172 11.424ZM17.7 11.94L18.9 13.116C19.476 12.48 19.884 11.724 20.148 10.956L19.428 10.236L17.7 11.94ZM20.424 8.21995C20.319 7.3436 19.9743 6.51317 19.428 5.81995L17.7 7.49995L19.428 9.20395L20.424 8.21995ZM20.46 9.23995L19.968 9.71995L20.364 10.116C20.412 9.81995 20.444 9.52795 20.46 9.23995ZM16.644 11.94L14.916 10.248L13.188 11.94L14.916 13.644L16.644 11.94ZM17.172 12.468L15.444 14.16L16.176 14.88C16.9872 14.628 17.7357 14.2068 18.372 13.644L17.172 12.468ZM13.356 15.168L14.376 14.16L12.648 12.468L10.932 14.148C11.604 14.712 12.444 15.048 13.356 15.168ZM14.376 15.216C14.696 15.208 15.016 15.168 15.336 15.096L14.916 14.688L14.376 15.216ZM13.176 7.49995L14.916 9.20395L16.644 7.49995L14.916 5.80795L13.176 7.49995ZM12.648 6.98395L14.376 5.27995L13.656 4.58395C12.856 4.83195 12.124 5.23995 11.46 5.80795L12.648 6.98395ZM16.428 4.30795L15.444 5.27995L17.172 6.98395L18.9 5.29195C18.1852 4.73757 17.3283 4.39647 16.428 4.30795ZM15.408 4.27195C15.104 4.28795 14.808 4.31995 14.52 4.36795L14.916 4.76395L15.408 4.27195ZM12.648 8.02795L10.92 9.71995L12.648 11.424L14.376 9.71995L12.648 8.02795ZM12.12 7.49995L10.92 6.33595C10.3544 6.95596 9.92516 7.68772 9.66 8.48395L10.38 9.20395L12.12 7.49995ZM9.36 11.244C9.496 12.156 9.84 12.956 10.392 13.644L12.12 11.928L10.392 10.248L9.36 11.244ZM9.324 10.248L9.852 9.71995L9.432 9.31195C9.376 9.62395 9.336 9.93595 9.312 10.248M8.4 13.284C7.384 16.004 6.544 17.764 5.88 18.564L5.844 18.624L4.236 20.184L5.88 18.6C6.312 18.232 7.072 17.808 8.16 17.328C9.18245 16.8802 10.2234 16.4758 11.28 16.116C10.0117 15.5535 8.98904 14.5521 8.4 13.296M7.8 10.512C7.8 8.55595 8.568 6.52795 10.104 5.01595C12.936 2.23195 17.748 2.06395 20.232 4.48795C22.716 6.91195 22.524 11.652 19.692 14.436C18.1862 15.9024 16.1659 16.7208 14.064 16.716L12.876 17.1C11.4922 17.5774 10.1235 18.0977 8.772 18.66C7.812 19.08 7.152 19.452 6.9 19.668L4.8 21.756C4.65623 21.8981 4.46219 21.9779 4.26 21.9779C4.05781 21.9779 3.86377 21.8981 3.72 21.756L2.664 20.712C2.5932 20.6447 2.53682 20.5637 2.49829 20.474C2.45977 20.3843 2.4399 20.2876 2.4399 20.19C2.4399 20.0923 2.45977 19.9957 2.49829 19.9059C2.53682 19.8162 2.5932 19.7352 2.664 19.668L4.764 17.604C5.448 16.764 6.48 14.364 7.812 10.524L7.8 10.512ZM4.104 6.38395C4.248 5.79995 4.54 5.28795 4.98 4.84795C5.396 4.44795 5.884 4.16795 6.444 4.00795C6.33661 3.72327 6.16311 3.46818 5.93778 3.26371C5.71245 3.05925 5.44175 2.91126 5.148 2.83195C4.996 3.35995 4.716 3.82395 4.308 4.22395C3.892 4.63995 3.4 4.91995 2.832 5.06395C3 5.68795 3.48 6.19195 4.104 6.38395ZM4.86 6.45595C5.29303 6.41314 5.69763 6.22081 6.00423 5.91202C6.31082 5.60323 6.50027 5.19728 6.54 4.76395C6.14342 4.88425 5.78263 5.1005 5.48959 5.39354C5.19655 5.68658 4.9803 6.04737 4.86 6.44395M2.808 4.28395C3.16434 4.16424 3.48938 3.96632 3.7593 3.7047C4.02923 3.44307 4.23721 3.12438 4.368 2.77195C3.576 2.89195 2.94 3.50395 2.808 4.29595M4.668 7.19995C3.204 7.19995 2.028 6.04795 2.028 4.61995C2.028 3.17995 3.204 2.02795 4.668 2.02795C6.12 2.02795 7.308 3.17995 7.308 4.61995C7.296 6.04795 6.12 7.19995 4.656 7.19995" fill="white"/>
</mask>
<g mask="url(#mask0_1_211)">
<path d="M17.172 11.424L18.9 9.71995L17.172 8.02795L15.444 9.71995L17.172 11.424ZM17.7 11.94L18.9 13.116C19.476 12.48 19.884 11.724 20.148 10.956L19.428 10.236L17.7 11.94ZM20.424 8.21995C20.319 7.3436 19.9743 6.51317 19.428 5.81995L17.7 7.49995L19.428 9.20395L20.424 8.21995ZM20.46 9.23995L19.968 9.71995L20.364 10.116C20.412 9.81995 20.444 9.52795 20.46 9.23995ZM16.644 11.94L14.916 10.248L13.188 11.94L14.916 13.644L16.644 11.94ZM17.172 12.468L15.444 14.16L16.176 14.88C16.9872 14.628 17.7357 14.2068 18.372 13.644L17.172 12.468ZM13.356 15.168L14.376 14.16L12.648 12.468L10.932 14.148C11.604 14.712 12.444 15.048 13.356 15.168ZM14.376 15.216C14.696 15.208 15.016 15.168 15.336 15.096L14.916 14.688L14.376 15.216ZM13.176 7.49995L14.916 9.20395L16.644 7.49995L14.916 5.80795L13.176 7.49995ZM12.648 6.98395L14.376 5.27995L13.656 4.58395C12.856 4.83195 12.124 5.23995 11.46 5.80795L12.648 6.98395ZM16.428 4.30795L15.444 5.27995L17.172 6.98395L18.9 5.29195C18.1852 4.73757 17.3283 4.39647 16.428 4.30795ZM15.408 4.27195C15.104 4.28795 14.808 4.31995 14.52 4.36795L14.916 4.76395L15.408 4.27195ZM12.648 8.02795L10.92 9.71995L12.648 11.424L14.376 9.71995L12.648 8.02795ZM12.12 7.49995L10.92 6.33595C10.3544 6.95596 9.92516 7.68772 9.66 8.48395L10.38 9.20395L12.12 7.49995ZM9.36 11.244C9.496 12.156 9.84 12.956 10.392 13.644L12.12 11.928L10.392 10.248L9.36 11.244ZM9.324 10.248L9.852 9.71995L9.432 9.31195C9.376 9.62395 9.336 9.93595 9.312 10.248M8.4 13.284C7.384 16.004 6.544 17.764 5.88 18.564L5.844 18.624L4.236 20.184L5.88 18.6C6.312 18.232 7.072 17.808 8.16 17.328C9.18245 16.8802 10.2234 16.4758 11.28 16.116C10.0117 15.5535 8.98904 14.5521 8.4 13.296M7.8 10.512C7.8 8.55595 8.568 6.52795 10.104 5.01595C12.936 2.23195 17.748 2.06395 20.232 4.48795C22.716 6.91195 22.524 11.652 19.692 14.436C18.1862 15.9024 16.1659 16.7208 14.064 16.716L12.876 17.1C11.4922 17.5774 10.1235 18.0977 8.772 18.66C7.812 19.08 7.152 19.452 6.9 19.668L4.8 21.756C4.65623 21.8981 4.46219 21.9779 4.26 21.9779C4.05781 21.9779 3.86377 21.8981 3.72 21.756L2.664 20.712C2.5932 20.6447 2.53682 20.5637 2.49829 20.474C2.45977 20.3843 2.4399 20.2876 2.4399 20.19C2.4399 20.0923 2.45977 19.9957 2.49829 19.9059C2.53682 19.8162 2.5932 19.7352 2.664 19.668L4.764 17.604C5.448 16.764 6.48 14.364 7.812 10.524L7.8 10.512ZM4.104 6.38395C4.248 5.79995 4.54 5.28795 4.98 4.84795C5.396 4.44795 5.884 4.16795 6.444 4.00795C6.33661 3.72327 6.16311 3.46818 5.93778 3.26371C5.71245 3.05925 5.44175 2.91126 5.148 2.83195C4.996 3.35995 4.716 3.82395 4.308 4.22395C3.892 4.63995 3.4 4.91995 2.832 5.06395C3 5.68795 3.48 6.19195 4.104 6.38395ZM4.86 6.45595C5.29303 6.41314 5.69763 6.22081 6.00423 5.91202C6.31082 5.60323 6.50027 5.19728 6.54 4.76395C6.14342 4.88425 5.78263 5.1005 5.48959 5.39354C5.19655 5.68658 4.9803 6.04737 4.86 6.44395M2.808 4.28395C3.16434 4.16424 3.48938 3.96632 3.7593 3.7047C4.02923 3.44307 4.23721 3.12438 4.368 2.77195C3.576 2.89195 2.94 3.50395 2.808 4.29595M4.668 7.19995C3.204 7.19995 2.028 6.04795 2.028 4.61995C2.028 3.17995 3.204 2.02795 4.668 2.02795C6.12 2.02795 7.308 3.17995 7.308 4.61995C7.296 6.04795 6.12 7.19995 4.656 7.19995" fill="white"/>
</g>
</svg>
