<svg width="24" height="24" viewBox="0 0 24 24" fill="none" xmlns="http://www.w3.org/2000/svg">
<g clip-path="url(#clip0_1_768)">
<path fill-rule="evenodd" clip-rule="evenodd" d="M18.06 6.77C17.9636 6.8603 17.8861 6.96879 17.8318 7.08922C17.7776 7.20966 17.7478 7.33964 17.744 7.47167C17.7403 7.60369 17.7628 7.73515 17.8102 7.85844C17.8575 7.98174 17.9288 8.09442 18.02 8.19L20.68 11L3 11C2.73479 11 2.48043 11.1054 2.2929 11.2929C2.10536 11.4804 2 11.7348 2 12C2 12.2652 2.10536 12.5196 2.2929 12.7071C2.48043 12.8946 2.73479 13 3 13L20.68 13L18.02 15.81C17.837 16.0036 17.7384 16.262 17.7459 16.5283C17.7534 16.7946 17.8664 17.047 18.06 17.23C18.2536 17.413 18.512 17.5116 18.7783 17.5041C19.0446 17.4966 19.297 17.3836 19.48 17.19L23.73 12.69C23.9073 12.504 24.0062 12.2569 24.0062 12C24.0062 11.7431 23.9073 11.496 23.73 11.31L19.48 6.81C19.3897 6.71361 19.2812 6.63606 19.1608 6.58183C19.0404 6.52759 18.9104 6.49776 18.7783 6.49404C18.6463 6.49032 18.5149 6.51279 18.3916 6.56016C18.2683 6.60752 18.1556 6.67884 18.06 6.77ZM15 6C15 5.73479 14.8946 5.48043 14.7071 5.2929C14.5196 5.10536 14.2652 5 14 5L3 5C2.73479 5 2.48043 5.10536 2.2929 5.29289C2.10536 5.48043 2 5.73478 2 6C2 6.26522 2.10536 6.51957 2.2929 6.70711C2.48043 6.89464 2.73479 7 3 7L14 7C14.2652 7 14.5196 6.89465 14.7071 6.70711C14.8946 6.51957 15 6.26522 15 6ZM15 18C15 17.7348 14.8946 17.4804 14.7071 17.2929C14.5196 17.1054 14.2652 17 14 17L3 17C2.73479 17 2.48043 17.1054 2.2929 17.2929C2.10536 17.4804 2 17.7348 2 18C2 18.2652 2.10536 18.5196 2.29289 18.7071C2.48043 18.8946 2.73479 19 3 19L14 19C14.2652 19 14.5196 18.8946 14.7071 18.7071C14.8946 18.5196 15 18.2652 15 18Z" fill="white" fill-opacity="0.84"/>
</g>
<defs>
<clipPath id="clip0_1_768">
<rect width="24" height="24" fill="white"/>
</clipPath>
</defs>
</svg>
