<svg width="131" height="100" viewBox="0 0 131 100" fill="none" xmlns="http://www.w3.org/2000/svg">
<path d="M116.065 88.7562H14.7052L1.25879 12.736H129.512L116.065 88.7562Z" fill="url(#paint0_linear_122_113)" stroke="white" stroke-width="2.11166" stroke-miterlimit="10"/>
<path d="M65.2061 100C93.6487 100 116.706 94.8513 116.706 88.5C116.706 82.1487 93.6487 77 65.2061 77C36.7634 77 13.7061 82.1487 13.7061 88.5C13.7061 94.8513 36.7634 100 65.2061 100Z" fill="url(#paint1_radial_122_113)"/>
<path d="M41.0375 77.153L31.3027 22.6957H39.9122L46.748 65.1447L53.6325 22.6957H62.2467L52.3375 77.153H41.0375Z" fill="#333333"/>
<path d="M93.2778 63.5934C93.3359 67.3895 92.3501 70.6342 90.3226 73.3289C88.9894 75.1542 87.1063 76.4439 84.6726 77.1969C83.3686 77.6023 81.8475 77.8053 80.1091 77.8053C76.8928 77.8053 74.2267 77.0087 72.1118 75.4149C70.3446 74.111 68.9462 72.3366 67.9177 70.0909C66.8892 67.8458 66.288 65.2741 66.1143 62.3764L73.9372 61.8114C74.2853 64.9861 75.1251 67.2868 76.4581 68.7135C77.4428 69.7912 78.5726 70.3013 79.8482 70.2429C81.6443 70.1852 83.0784 69.3005 84.1505 67.5891C84.7007 66.7484 84.9762 65.5451 84.9762 63.9791C84.9762 61.717 83.9472 59.4693 81.8904 57.2365C80.2676 55.6998 77.8336 53.3944 74.5889 50.32C71.8652 47.681 69.9385 45.3172 68.8087 43.2289C67.5917 40.8801 66.9833 38.3281 66.9833 35.573C66.9833 30.6143 68.6489 26.8582 71.9814 24.3061C74.0382 22.7694 76.5882 22.0007 79.6306 22.0007C82.5569 22.0007 85.0632 22.6527 87.1497 23.9565C88.772 24.9711 90.0829 26.3902 91.0826 28.2156C92.0823 30.041 92.6835 32.142 92.8865 34.5174L85.0198 35.9518C84.7875 33.7208 84.1503 31.9824 83.1074 30.7363C82.3537 29.8386 81.2673 29.3892 79.848 29.3892C78.341 29.3892 77.1966 30.056 76.4141 31.3883C75.7766 32.4606 75.4582 33.7937 75.4582 35.3868C75.4582 37.8791 76.5299 40.4142 78.6746 42.9926C79.4851 43.9779 80.7021 45.137 82.3249 46.4694C84.2372 48.0631 85.4978 49.179 86.1062 49.8158C88.1337 51.8442 89.6984 53.8436 90.8002 55.8136C91.3216 56.7413 91.7413 57.5956 92.0606 58.3779C92.8432 60.3193 93.2485 62.058 93.2778 63.5934Z" fill="#333333"/>
<path d="M65.7061 23C101.052 23 129.706 17.8513 129.706 11.5C129.706 5.14873 101.052 0 65.7061 0C30.3598 0 1.70605 5.14873 1.70605 11.5C1.70605 17.8513 30.3598 23 65.7061 23Z" fill="url(#paint2_radial_122_113)"/>
<defs>
<linearGradient id="paint0_linear_122_113" x1="65.3853" y1="11.2766" x2="65.3853" y2="94.7399" gradientUnits="userSpaceOnUse">
<stop stop-color="#DBDBDB"/>
<stop offset="1" stop-color="#999999"/>
</linearGradient>
<radialGradient id="paint1_radial_122_113" cx="0" cy="0" r="1" gradientUnits="userSpaceOnUse" gradientTransform="translate(65.2132 88.4959) scale(51.5002 11.4997)">
<stop stop-color="white"/>
<stop offset="1" stop-opacity="0"/>
</radialGradient>
<radialGradient id="paint2_radial_122_113" cx="0" cy="0" r="1" gradientUnits="userSpaceOnUse" gradientTransform="translate(65.7149 11.4977) scale(64.0003 11.4997)">
<stop stop-color="white"/>
<stop offset="1" stop-opacity="0"/>
</radialGradient>
</defs>
</svg>
