<svg width="24" height="24" viewBox="0 0 24 24" fill="none" xmlns="http://www.w3.org/2000/svg">
<path fill-rule="evenodd" clip-rule="evenodd" d="M5.4336 2.39999H18.5856C19.0848 2.39999 19.5072 2.48639 20.0064 2.73599C20.592 2.98559 20.928 3.40799 21.1008 3.74399C21.1008 3.74399 21.1008 3.82079 21.1776 3.82079C21.4464 4.24319 21.5872 4.74559 21.6 5.32799C21.6179 5.86192 21.4704 6.38833 21.1776 6.83519L12.8928 21.072C12.72 21.408 12.384 21.5808 11.9712 21.5808C11.6352 21.5808 11.2992 21.408 11.0496 21.072L2.928 6.83519C2.7552 6.49919 2.4192 6.08639 2.4192 5.41439C2.3424 4.82879 2.5056 4.32959 2.7552 3.82079C3.0048 3.32159 3.4272 2.89919 4.0128 2.73599C4.512 2.39999 5.0976 2.39999 5.4336 2.39999ZM10.9632 4.41599H5.4336C5.0976 4.41599 4.9344 4.41599 4.8576 4.49279C4.70481 4.5582 4.58169 4.67791 4.512 4.82879C4.4352 4.91519 4.4352 5.07839 4.4352 5.25119C4.4352 5.32799 4.512 5.41439 4.6848 5.75039L10.9632 16.6368V4.41599ZM12.9792 4.41599V16.7232L19.3344 5.75039C19.4304 5.58719 19.4304 5.41439 19.4304 5.25119C19.4304 5.08799 19.4304 4.91519 19.3344 4.82879C19.2576 4.74239 19.2576 4.66559 19.1712 4.66559L19.0848 4.56959C18.9216 4.49279 18.7488 4.49279 18.5088 4.49279H12.96L12.9792 4.41599Z" fill="white"/>
</svg>
