<svg width="24" height="24" viewBox="0 0 24 24" fill="none" xmlns="http://www.w3.org/2000/svg">
<path fill-rule="evenodd" clip-rule="evenodd" d="M1.25 12C1.25 9.14892 2.38259 6.41462 4.3986 4.3986C6.41462 2.38259 9.14892 1.25 12 1.25C14.8511 1.25 17.5854 2.38259 19.6014 4.3986C21.6174 6.41462 22.75 9.14892 22.75 12C22.75 12.1989 22.671 12.3897 22.5303 12.5303C22.3897 12.671 22.1989 12.75 22 12.75C21.8011 12.75 21.6103 12.671 21.4697 12.5303C21.329 12.3897 21.25 12.1989 21.25 12C21.25 10.1705 20.7075 8.38213 19.6911 6.86098C18.6747 5.33982 17.23 4.15423 15.5398 3.45411C13.8496 2.754 11.9897 2.57082 10.1954 2.92774C8.40109 3.28465 6.7529 4.16563 5.45926 5.45926C4.16563 6.7529 3.28465 8.40109 2.92774 10.1954C2.57082 11.9897 2.754 13.8496 3.45411 15.5398C4.15423 17.23 5.33982 18.6747 6.86098 19.6911C8.38213 20.7075 10.1705 21.25 12 21.25C12.1989 21.25 12.3897 21.329 12.5303 21.4697C12.671 21.6103 12.75 21.8011 12.75 22C12.75 22.1989 12.671 22.3897 12.5303 22.5303C12.3897 22.671 12.1989 22.75 12 22.75C9.14892 22.75 6.41462 21.6174 4.3986 19.6014C2.38259 17.5854 1.25 14.8511 1.25 12Z" fill="white"/>
<path fill-rule="evenodd" clip-rule="evenodd" d="M7.25 3C7.25 2.59 7.59 2.25 8 2.25H9C9.11904 2.25009 9.23636 2.27851 9.34224 2.33293C9.44812 2.38734 9.53953 2.46617 9.6089 2.56291C9.67828 2.65964 9.72363 2.77151 9.74121 2.88925C9.75879 3.00698 9.74809 3.12722 9.71 3.24C7.81448 8.92619 7.81448 15.0738 9.71 20.76C9.74809 20.8728 9.75879 20.993 9.74121 21.1108C9.72363 21.2285 9.67828 21.3404 9.6089 21.4371C9.53953 21.5338 9.44812 21.6127 9.34224 21.6671C9.23636 21.7215 9.11904 21.7499 9 21.75H8C7.90151 21.7513 7.80372 21.7332 7.71223 21.6967C7.62073 21.6603 7.53731 21.6061 7.46674 21.5374C7.39617 21.4687 7.33982 21.3867 7.30092 21.2963C7.26201 21.2058 7.24131 21.1085 7.24 21.01C7.23869 20.9115 7.25679 20.8137 7.29326 20.7222C7.32974 20.6307 7.38388 20.5473 7.4526 20.4767C7.52131 20.4062 7.60326 20.3498 7.69375 20.3109C7.78424 20.272 7.88151 20.2513 7.98 20.25C6.38234 14.866 6.38234 9.13398 7.98 3.75C7.78457 3.74479 7.59891 3.66347 7.46255 3.52338C7.3262 3.38329 7.24993 3.1955 7.25 3ZM14.76 2.29C15.16 2.16 15.58 2.37 15.71 2.76C16.71 5.76 17.21 8.88 17.21 12C17.21 12.1989 17.131 12.3897 16.9903 12.5303C16.8497 12.671 16.6589 12.75 16.46 12.75C16.2611 12.75 16.0703 12.671 15.9297 12.5303C15.789 12.3897 15.71 12.1989 15.71 12C15.71 9.04 15.23 6.08 14.29 3.24C14.2265 3.05169 14.2403 2.84588 14.3284 2.66776C14.4166 2.48964 14.5718 2.35377 14.76 2.29Z" fill="white"/>
<path fill-rule="evenodd" clip-rule="evenodd" d="M2.56 14.4C2.77333 14.2467 3 14.21 3.24 14.29C6.0665 15.2226 9.02362 15.6986 12 15.7C12.1989 15.7 12.3897 15.7791 12.5303 15.9197C12.671 16.0604 12.75 16.2511 12.75 16.45C12.75 16.649 12.671 16.8397 12.5303 16.9804C12.3897 17.121 12.1989 17.2 12 17.2C9.22 17.2 6.44 16.8 3.75 16.01C3.74735 16.209 3.66579 16.3987 3.52326 16.5374C3.38073 16.6762 3.18891 16.7527 2.99 16.75C2.79109 16.7474 2.60138 16.6658 2.4626 16.5233C2.32382 16.3808 2.24735 16.189 2.25 15.99V14.99C2.25 14.75 2.37 14.52 2.56 14.39M20.76 9.71004C15.0738 7.81452 8.92619 7.81452 3.24 9.71004C3.14573 9.74592 3.04518 9.76242 2.94438 9.75854C2.84359 9.75467 2.74461 9.7305 2.65337 9.68748C2.56213 9.64446 2.4805 9.58348 2.41338 9.50819C2.34625 9.43289 2.295 9.34483 2.2627 9.24927C2.2304 9.15371 2.2177 9.05261 2.22538 8.95203C2.23305 8.85145 2.26094 8.75345 2.30737 8.6639C2.3538 8.57435 2.41781 8.49508 2.49558 8.43084C2.57336 8.3666 2.66329 8.31871 2.76 8.29004C8.76 6.29004 15.24 6.29004 21.24 8.29004C21.4213 8.35906 21.5688 8.49565 21.6516 8.67114C21.7343 8.84663 21.7458 9.04735 21.6837 9.23115C21.6216 9.41495 21.4906 9.56752 21.3184 9.65682C21.1462 9.74612 20.946 9.76519 20.76 9.71004ZM15.51 15.47C15.81 15.17 16.28 15.17 16.57 15.47L20.53 19.43C20.6037 19.4987 20.6628 19.5815 20.7038 19.6735C20.7448 19.7655 20.7668 19.8648 20.7686 19.9655C20.7704 20.0662 20.7518 20.1662 20.7141 20.2596C20.6764 20.353 20.6203 20.4379 20.549 20.5091C20.4778 20.5803 20.393 20.6364 20.2996 20.6742C20.2062 20.7119 20.1062 20.7304 20.0055 20.7286C19.9048 20.7269 19.8055 20.7048 19.7135 20.6638C19.6215 20.6228 19.5387 20.5637 19.47 20.49L15.51 16.53C15.3695 16.3894 15.2907 16.1988 15.2907 16C15.2907 15.8013 15.3695 15.6107 15.51 15.47Z" fill="white"/>
<path fill-rule="evenodd" clip-rule="evenodd" d="M20.49 15.4999C20.79 15.7999 20.79 16.2799 20.49 16.5699L16.53 20.5299C16.4613 20.6036 16.3785 20.6627 16.2865 20.7037C16.1945 20.7447 16.0952 20.7667 15.9945 20.7685C15.8938 20.7703 15.7938 20.7518 15.7004 20.714C15.607 20.6763 15.5222 20.6202 15.451 20.5489C15.3797 20.4777 15.3236 20.3929 15.2859 20.2995C15.2482 20.2061 15.2296 20.1061 15.2314 20.0054C15.2332 19.9047 15.2552 19.8054 15.2962 19.7134C15.3372 19.6214 15.3963 19.5386 15.47 19.4699L19.43 15.5099C19.73 15.2099 20.2 15.2099 20.49 15.5099" fill="white"/>
</svg>
